<svg xmlns="http://www.w3.org/2000/svg" xmlns:xlink="http://www.w3.org/1999/xlink" width="50" height="29" viewBox="0 0 50 29">
  <defs>
    <path id="ic_consent-a" d="M47.542359,3.45605607 L47.0412843,3.95942075 L46.0653921,2.97752847 L46.5637316,2.47581959 C46.7086932,2.32955683 46.8968697,2.24842239 47.0954397,2.24621465 C47.2836162,2.24124723 47.4526469,2.31189491 47.5784626,2.43773608 C47.8470518,2.70873614 47.829547,3.16629022 47.542359,3.45605607 L47.542359,3.45605607 Z M29.5178923,21.5909829 L28.5458293,20.6124023 L44.4921488,4.56875695 L45.4636648,5.54678569 L29.5178923,21.5909829 Z M24.5632939,25.851908 C24.731708,25.9488497 24.9222525,25.9998394 25.1159839,25.9998394 C25.2478169,25.9998394 25.381838,25.9761062 25.5092947,25.926984 L29.7892166,24.3031913 C29.907921,24.2579327 30.0113087,24.1878369 30.105944,24.1083583 C30.1748691,24.0642035 30.2492645,24.0310874 30.3067021,23.9731342 L47.830641,6.34212396 C47.8339232,6.33881235 47.8350172,6.33384494 47.8388464,6.33053333 L49.1194314,5.04452488 C50.2780299,3.87994212 50.2955347,1.99784392 49.1588172,0.851475014 C48.602493,0.290709098 47.8443166,0.000391310656 47.0637123,-0.0001606243 C46.2814668,0.0119819447 45.5440774,0.326032935 44.9844711,0.888454656 L43.6464485,2.23627982 C43.6409782,2.24345497 43.6382431,2.25007819 43.6333199,2.25559754 L26.178306,19.8181679 C26.1214155,19.8750172 26.0918761,19.9462168 26.0503022,20.012449 C25.978642,20.0963431 25.9162812,20.1874123 25.8714251,20.2911761 L24.1180846,24.3686472 C22.891553,24.3613568 21.7416573,24.2423008 20.6283747,24.127 C18.8013747,23.937 17.0753747,23.759 15.1663747,24.073 L14.5853747,24.169 L14.5853747,23.58 C14.5853747,23.524 14.5663747,23.361 14.3853747,23.054 C13.9473747,22.307 13.4143747,21.996 12.7663747,22.103 L12.3773747,22.166 L12.2253747,21.803 C12.1763747,21.687 12.1383747,21.593 12.0823747,21.498 C11.9763747,21.325 11.8283747,21.222 11.6113747,21.175 L10.9443747,21.03 L11.2843747,20.438 C12.3003747,18.666 12.5823747,17.323 12.1473747,16.333 C12.0623747,16.141 11.7353747,16.011 11.4843747,16.001 C11.4603747,16.001 11.4383747,16 11.4143747,16 C10.1943747,16 9.02337468,17.196 8.07737468,18.161 C7.90837468,18.333 7.74637468,18.499 7.59237468,18.65 C4.83237468,21.349 2.40237468,24.426 0.149374681,27.348 C-0.139625319,27.722 0.0443746805,27.99 0.250374681,28.149 C0.567374681,28.392 1.18137468,28.515 1.55937468,28.024 C3.83337468,25.078 6.01137468,22.539 8.21737468,20.261 L11.3493747,17.028 L9.00337468,20.87 C8.41537468,21.831 7.80037468,22.759 7.17437468,23.627 C6.86737468,24.102 7.19837468,24.406 7.35737468,24.514 C7.64537468,24.711 8.20537468,24.825 8.56637468,24.326 C8.78637468,23.989 9.09137468,23.691 9.51237468,23.405 L10.8523747,22.495 L10.2313747,24.07 L10.2673747,24.09 L10.0633747,24.511 C10.0183747,24.603 9.97337468,24.695 9.93737468,24.783 C9.81037468,25.101 9.89237468,25.345 10.1853747,25.504 C10.5523747,25.706 11.1213747,25.677 11.3983747,25.284 C11.5823747,25.024 11.7523747,24.746 11.9063747,24.456 L12.9673747,22.455 L12.8483747,24.716 C12.8383747,24.887 12.8313747,25.143 12.8723747,25.397 C12.9193747,25.686 13.2743747,25.845 13.7703747,26.038 L13.9963747,26.128 C14.2163747,26.221 14.6133747,26.01 14.9053747,25.856 L15.1283747,25.743 C16.9753747,24.846 19.1513747,25.213 21.2563747,25.567 C22.3183747,25.745 23.3213747,25.914 24.2363747,25.914 C24.3672943,25.914 24.4748827,25.8906014 24.5632939,25.851908 Z"/>
  </defs>
  <g fill="none" fill-rule="evenodd" transform="translate(0 -1)">
    <rect width="50" height="30" fill="none"/>
    <g transform="translate(0 1)">
      <mask id="ic_consent-b" fill="#fff">
        <use xlink:href="#ic_consent-a"/>
      </mask>
      <use fill="#736E7A" xlink:href="#ic_consent-a"/>
      <g fill="#736E7A" mask="url(#ic_consent-b)">
        <rect width="50" height="30" transform="translate(0 -1)"/>
      </g>
    </g>
  </g>
</svg>
