<?xml version="1.0" encoding="UTF-8"?>
<svg width="28px" height="28px" viewBox="0 0 28 28" version="1.1" xmlns="http://www.w3.org/2000/svg" xmlns:xlink="http://www.w3.org/1999/xlink">
    <!-- Generator: Sketch 50.2 (55047) - http://www.bohemiancoding.com/sketch -->
    <title>Glyphs/SCB/ic_otp</title>
    <desc>Created with Sketch.</desc>
    <defs>
        <path d="M9.64705882,1 L19.3529412,1 C20.8148714,1 22,2.20883118 22,3.7 L22,25.3 C22,26.7911688 20.8148714,28 19.3529412,28 L9.64705882,28 C8.1851286,28 7,26.7911688 7,25.3 L7,3.7 C7,2.20883118 8.1851286,1 9.64705882,1 Z M9.64705882,1.9 C8.67243868,1.9 7.88235294,2.70588745 7.88235294,3.7 L7.88235294,25.3 C7.88235294,26.2941125 8.67243868,27.1 9.64705882,27.1 L19.3529412,27.1 C20.3275613,27.1 21.1176471,26.2941125 21.1176471,25.3 L21.1176471,3.7 C21.1176471,2.70588745 20.3275613,1.9 19.3529412,1.9 L9.64705882,1.9 Z" id="path-1"></path>
        <path d="M12.6533244,26.1749416 C12.4045546,26.1749416 12.2028868,25.9732738 12.2028868,25.724504 C12.2028868,25.4757342 12.4045546,25.2740664 12.6533244,25.2740664 L14.9055122,25.2740664 C15.154282,25.2740664 15.3559498,25.4757342 15.3559498,25.724504 C15.3559498,25.9732738 15.154282,26.1749416 14.9055122,26.1749416 L12.6533244,26.1749416 Z" id="path-3"></path>
    </defs>
    <g id="Glyphs/SCB/ic_otp" stroke="none" stroke-width="1" fill="none" fill-rule="evenodd">
        <mask id="mask-2" fill="white">
            <use xlink:href="#path-1"></use>
        </mask>
        <use id="Combined-Shape" fill="#9E9AA4" xlink:href="#path-1"></use>
        <g id="_Resources/Colors/Tint-1" mask="url(#mask-2)" fill="#F0EBFB">
            <rect id="Swatch" x="0" y="0" width="28" height="28"></rect>
        </g>
        <mask id="mask-4" fill="white">
            <use xlink:href="#path-3"></use>
        </mask>
        <use id="Combined-Shape" fill="#9E9AA4" fill-rule="nonzero" xlink:href="#path-3"></use>
        <g id="_Resources/Colors/Tint-1" mask="url(#mask-4)" fill="#F0EBFB">
            <rect id="Swatch" x="0" y="0" width="28" height="28"></rect>
        </g>
    </g>
</svg>