<svg width="180" height="180" viewBox="0 0 180 180" fill="none" xmlns="http://www.w3.org/2000/svg">
<rect x="1" y="1" width="178" height="178" rx="89" fill="#EFEFF0"/>
<mask id="mask0_1162_40820" style="mask-type:luminance" maskUnits="userSpaceOnUse" x="60" y="60" width="60" height="60">
<path fill-rule="evenodd" clip-rule="evenodd" d="M60.8345 60.834H119.05V119.021H60.8345V60.834Z" fill="white"/>
</mask>
<g mask="url(#mask0_1162_40820)">
<path fill-rule="evenodd" clip-rule="evenodd" d="M77.3136 65.208C69.9607 65.208 65.2095 70.2451 65.2095 78.0384V101.815C65.2095 109.611 69.9607 114.646 77.3136 114.646H102.543C109.913 114.646 114.676 109.611 114.676 101.815V78.0384C114.676 70.2451 109.913 65.208 102.543 65.208H77.3136ZM102.543 119.021H77.3136C67.4553 119.021 60.8345 112.105 60.8345 101.815V78.0384C60.8345 67.7484 67.4553 60.833 77.3136 60.833H102.543C112.416 60.833 119.051 67.7484 119.051 78.0384V101.815C119.051 112.105 112.416 119.021 102.543 119.021Z" fill="#AFB1B6"/>
</g>
<path fill-rule="evenodd" clip-rule="evenodd" d="M70.4038 105.11C69.8613 105.11 69.3217 104.912 68.8988 104.509C68.0209 103.681 67.9859 102.293 68.8172 101.42L73.2738 96.7159C75.6334 94.2104 79.6147 94.0879 82.1317 96.4504L84.9259 99.2854C85.7047 100.073 86.9705 100.088 87.7522 99.3175C88.0467 98.9704 94.3992 91.2559 94.3992 91.2559C95.6067 89.7917 97.3101 88.8875 99.203 88.7009C101.099 88.5346 102.939 89.0859 104.406 90.2904C104.532 90.3925 104.645 90.4917 111.05 97.0688C111.893 97.9321 111.879 99.3175 111.013 100.16C110.149 101.009 108.761 100.983 107.918 100.12C107.918 100.12 101.942 93.9859 101.516 93.5717C101.064 93.2013 100.338 92.9854 99.623 93.0554C98.8967 93.1284 98.2434 93.4754 97.7797 94.0384C91.0013 102.26 90.9197 102.339 90.8088 102.447C88.3063 104.903 84.2667 104.862 81.808 102.354C81.808 102.354 79.0955 99.6004 79.0488 99.545C78.3751 98.9209 77.1734 98.9617 76.453 99.7229L71.9905 104.428C71.5588 104.883 70.9813 105.11 70.4038 105.11Z" fill="#AFB1B6"/>
<path fill-rule="evenodd" clip-rule="evenodd" d="M79.9596 78.709C78.3467 78.709 77.0342 80.0215 77.0342 81.6373C77.0342 83.2532 78.3467 84.5686 79.9625 84.5686C81.5783 84.5686 82.8938 83.2532 82.8938 81.6373C82.8938 80.0244 81.5783 78.7119 79.9596 78.709ZM79.9625 88.9436C75.9346 88.9436 72.6592 85.6652 72.6592 81.6373C72.6592 77.6094 75.9346 74.334 79.9625 74.334C83.9933 74.3369 87.2688 77.6152 87.2688 81.6373C87.2688 85.6652 83.9904 88.9436 79.9625 88.9436Z" fill="#AFB1B6"/>
<rect x="1" y="1" width="178" height="178" rx="89" stroke="#AFB1B6" stroke-width="2"/>
</svg>
