<svg width="56" height="56" viewBox="0 0 56 56" fill="none" xmlns="http://www.w3.org/2000/svg">
<path fill-rule="evenodd" clip-rule="evenodd" d="M28 8C39.0456 8 48 16.9543 48 28C48 39.0457 39.0456 48 28 48C16.9544 48 8 39.0457 8 28C8 16.9543 16.9544 8 28 8ZM28 9.81818C17.9585 9.81818 9.81818 17.9585 9.81818 28C9.81818 38.0415 17.9585 46.1818 28 46.1818C38.0415 46.1818 46.1818 38.0415 46.1818 28C46.1818 17.9585 38.0415 9.81818 28 9.81818ZM28 34.3636C29.2555 34.3636 30.2727 35.3809 30.2727 36.6364C30.2727 37.8918 29.2555 38.9091 28 38.9091C26.7445 38.9091 25.7273 37.8918 25.7273 36.6364C25.7273 35.3809 26.7445 34.3636 28 34.3636ZM29.8182 16.1818V31.6364H26.1818V16.1818H29.8182Z" fill="#E86666"/>
<mask id="mask0_1183_40721" style="mask-type:luminance" maskUnits="userSpaceOnUse" x="8" y="8" width="40" height="40">
<path fill-rule="evenodd" clip-rule="evenodd" d="M28 8C39.0456 8 48 16.9543 48 28C48 39.0457 39.0456 48 28 48C16.9544 48 8 39.0457 8 28C8 16.9543 16.9544 8 28 8ZM28 9.81818C17.9585 9.81818 9.81818 17.9585 9.81818 28C9.81818 38.0415 17.9585 46.1818 28 46.1818C38.0415 46.1818 46.1818 38.0415 46.1818 28C46.1818 17.9585 38.0415 9.81818 28 9.81818ZM28 34.3636C29.2555 34.3636 30.2727 35.3809 30.2727 36.6364C30.2727 37.8918 29.2555 38.9091 28 38.9091C26.7445 38.9091 25.7273 37.8918 25.7273 36.6364C25.7273 35.3809 26.7445 34.3636 28 34.3636ZM29.8182 16.1818V31.6364H26.1818V16.1818H29.8182Z" fill="white"/>
</mask>
<g mask="url(#mask0_1183_40721)">
</g>
</svg>
