<svg width="14" height="14" viewBox="0 0 14 14" fill="none" xmlns="http://www.w3.org/2000/svg">
<path fill-rule="evenodd" clip-rule="evenodd" d="M13.8574 6.99996C13.8574 3.21287 10.7873 0.142822 7.00021 0.142822C3.21311 0.142822 0.143066 3.21287 0.143066 6.99996C0.143066 10.7871 3.21311 13.8571 7.00021 13.8571C10.7873 13.8571 13.8574 10.7871 13.8574 6.99996ZM7.62357 8.24679H6.37682V2.94809H7.62357V8.24679ZM7.00017 9.18187C7.43061 9.18187 7.77939 9.53065 7.77939 9.96109C7.77939 10.3915 7.43061 10.7403 7.00017 10.7403C6.56972 10.7403 6.22095 10.3915 6.22095 9.96109C6.22095 9.53065 6.56972 9.18187 7.00017 9.18187Z" fill="white"/>
</svg>
