<svg width="89" height="26" viewBox="0 0 89 26" fill="none" xmlns="http://www.w3.org/2000/svg">
<path fill-rule="evenodd" clip-rule="evenodd" d="M58.2307 13.8683C58.4455 13.6547 58.7578 13.5566 59.1699 13.5566H60.4558V13.7534L60.4395 14.4422V14.622H59.7638C59.4522 14.6533 59.4496 14.6695 59.4223 14.8372L59.4172 14.8681V15.2452H57.9834V14.7532C57.9834 14.3928 58.0328 14.0974 58.2307 13.8683ZM40.051 15.2612V14.1134V14.0154H45.82V15.2612H40.051ZM2.42175 14.6053C2.85015 14.6053 3.19674 14.7039 3.44341 14.9006C3.69666 15.0997 3.82798 15.4163 3.79 15.7362C3.77193 16.1033 3.61157 16.3334 3.47225 16.5334C3.3563 16.6998 3.25493 16.8453 3.26231 17.0314V23.8514H1.81225V16.9165C1.82418 16.5311 2.0677 16.2256 2.22206 16.0319C2.2778 15.962 2.32192 15.9066 2.33932 15.8674L2.35555 15.8511H2.37179L2.36997 15.8315C2.35682 15.6874 2.3567 15.6861 2.00959 15.6544H0.658203V14.6053H2.42175ZM24.5085 16.5728L26.0254 20.9498V20.951L27.2119 16.5734H28.6619L26.7011 23.8686H25.5801L23.899 19.0326L22.2341 23.8686H21.1294L19.1685 16.5728H20.6192L21.8057 20.9504L23.322 16.5728H24.5085ZM33.26 17.2444C32.7654 16.7036 32.0235 16.4413 31.0843 16.4413C30.4086 16.4413 29.8316 16.5724 29.3539 16.8347L29.3039 16.8678L29.2546 16.9003V18.4578L29.5518 18.2611C30.0296 17.9494 30.5073 17.8021 31.035 17.8021C31.5627 17.8021 31.9086 17.9494 32.1559 18.228C32.4032 18.5071 32.535 18.9005 32.535 19.4251V23.8839H33.9526V19.1297C33.9526 18.3429 33.7215 17.7034 33.26 17.2444ZM9.16312 16.6219C9.50908 16.753 9.82258 16.9166 10.0861 17.1464V17.1471C10.344 17.375 10.5518 17.654 10.6962 17.9664C10.8442 18.278 10.9104 18.6389 10.9104 19.0324V23.8521H9.47599V19.1473C9.47599 18.7045 9.34422 18.3929 9.08069 18.1469C8.80029 17.9177 8.45433 17.7865 7.95974 17.7865C7.49887 17.7865 7.06984 17.9339 6.62459 18.2124C6.21243 18.4916 6.03133 18.7701 6.03133 19.1473V23.8684H4.61374V16.5725H6.04819V17.0646C6.61941 16.6546 7.30597 16.4364 8.00907 16.4414C8.42123 16.4414 8.81715 16.4907 9.16312 16.6219ZM18.3275 16.5723H16.9099V22.1458C16.3991 22.4743 15.8383 22.6217 15.2288 22.6217C14.5856 22.6217 14.1078 22.5068 13.7612 22.2776C13.4153 22.0478 13.2673 21.7855 13.2673 21.4245C13.2673 21.2609 13.3004 21.1298 13.3828 20.9824C13.4652 20.8344 13.5801 20.7201 13.7288 20.6052C13.8605 20.5066 14.0254 20.4085 14.2065 20.3429C14.3876 20.2774 14.5693 20.2443 14.7504 20.2443H15.6903V18.9004H14.5856C13.6794 18.8841 13.4153 18.6706 13.4153 18.3265C13.4321 17.9986 13.6132 17.8344 14.3714 17.8019C14.4196 17.8019 14.5114 17.8105 14.628 17.8215L14.6282 17.8215C14.6714 17.8256 14.7181 17.83 14.7673 17.8344C14.8123 17.8426 14.8603 17.8508 14.9112 17.8595L14.9113 17.8595L14.9114 17.8595C15.0653 17.8857 15.245 17.9163 15.443 17.9655L15.5416 17.9986L15.6734 18.0311V16.7034L15.5423 16.6541C15.1597 16.5251 14.7588 16.4587 14.3551 16.4574C14.0254 16.4574 13.7119 16.5074 13.4153 16.5885C13.1459 16.6775 12.8906 16.8045 12.6571 16.9657C12.4261 17.13 12.2618 17.3267 12.1301 17.5559C11.9983 17.8019 11.949 18.048 11.949 18.3265C11.949 18.6706 12.0801 18.9984 12.3274 19.2607C12.4598 19.4249 12.6247 19.5561 12.8058 19.6541C12.6078 19.7853 12.4267 19.9664 12.2618 20.1787C11.9652 20.5559 11.7997 20.9656 11.7997 21.4245C11.7997 22.1302 12.097 22.7528 12.6902 23.2118C13.3004 23.7033 14.1578 23.9493 15.2288 23.9493C16.5471 23.9493 17.5856 23.5559 18.2944 22.7366L18.3106 22.7197H18.3437V22.6873L18.3599 22.6542L18.3437 22.6379V16.5723H18.3275ZM58.6759 22.1297C58.1644 22.4576 57.6043 22.6056 56.9779 22.6056C56.3347 22.6056 55.8569 22.4907 55.511 22.2609C55.165 22.0317 55.0164 21.7694 55.0164 21.4085C55.0164 21.2448 55.0663 21.1137 55.1482 20.9657C55.2306 20.8183 55.3461 20.7034 55.4779 20.5891C55.6096 20.4905 55.7745 20.3924 55.9562 20.3268C56.1373 20.2613 56.3184 20.2282 56.4995 20.2282H57.4394V18.8843H56.3515C55.4616 18.8674 55.1812 18.6545 55.1812 18.3098C55.1981 17.9825 55.3792 17.8183 56.1373 17.7852C56.1839 17.7852 56.271 17.7935 56.3816 17.8041C56.4282 17.8086 56.479 17.8135 56.5326 17.8183C56.5778 17.8265 56.6261 17.8348 56.6772 17.8435L56.6772 17.8435C56.8311 17.8696 57.0107 17.9002 57.209 17.9494L57.3076 17.9825L57.4394 18.015V16.6874L57.3076 16.638C56.9253 16.5091 56.5246 16.4426 56.1211 16.4413C55.7914 16.4413 55.4779 16.4906 55.1981 16.5724C54.9171 16.6711 54.6542 16.7854 54.44 16.9496C54.2089 17.1132 54.0441 17.31 53.9123 17.5398C53.7805 17.7858 53.7312 18.0312 53.7312 18.3104C53.7312 18.6545 53.8623 18.9661 54.0934 19.2446C54.242 19.4089 54.39 19.54 54.5718 19.638C54.3738 19.7692 54.1927 19.9497 54.0278 20.1626C53.7312 20.5398 53.5657 20.9495 53.5657 21.3922V21.4085C53.5657 22.1135 53.8792 22.7367 54.4562 23.1957C55.0657 23.6872 55.9231 23.9326 56.9941 23.9326C58.2968 23.9326 59.3516 23.5392 60.0604 22.7199L60.0766 22.7036L60.1097 22.6218V16.5069H58.6921V22.1297H58.6759ZM44.4022 21.2942C44.4022 21.6714 44.2536 21.9667 43.8914 22.229C43.5123 22.5076 43.117 22.6387 42.688 22.6387C42.2265 22.6387 41.8968 22.5238 41.6663 22.3108C41.4353 22.0979 41.3198 21.8187 41.3035 21.4253V18.9661C41.3035 18.1792 40.9738 17.5235 40.3312 17.0645C39.7542 16.638 39.0291 16.4413 38.1555 16.4413C36.8203 16.4413 35.7656 16.9821 35.0406 18.0312L35.0237 18.0481L35.0075 18.0806V23.8683H37.4798V22.5406H36.4413V18.4915C36.8366 18.0319 37.3967 17.8027 38.1717 17.8027C38.6994 17.8027 39.1116 17.9338 39.4413 18.163C39.7542 18.3928 39.9028 18.6876 39.9028 19.131V21.4253C39.9028 22.1635 40.1495 22.8029 40.6441 23.2782C41.1387 23.7534 41.8143 23.9832 42.6056 23.9832C43.2576 23.9864 43.8933 23.7795 44.4185 23.3931V23.8677H45.836V16.5737H44.4185V21.2948H44.4022V21.2942ZM51.3246 18.228L52.5769 17.098L51.3735 16.4423L48.6539 18.7529L49.0661 18.8191C50.8296 19.1139 51.5715 19.8027 51.5877 20.9499C51.5877 21.4582 51.4066 21.8354 51.0444 22.1464C50.6647 22.4586 50.1702 22.6385 49.4951 22.6547H49.3302C49.1822 22.6547 49.0348 22.6386 48.8868 22.6224L48.885 22.6222C48.8118 22.606 48.7348 22.5898 48.6577 22.5737C48.5782 22.557 48.4987 22.5404 48.4235 22.5236V16.5566H47.0059V23.5071L47.1377 23.5571C47.8633 23.835 48.6214 23.9661 49.4127 23.9661H49.5113C50.5823 23.9499 51.4722 23.6714 52.1317 23.0981C52.7418 22.5729 53.0546 21.8354 53.0384 20.9499V20.933C53.0222 19.7198 52.4291 18.7856 51.3246 18.228Z" fill="white"/>
<path fill-rule="evenodd" clip-rule="evenodd" d="M42.2109 3.75132L42.4595 2.29627C42.4595 2.29627 41.1993 1.82666 39.5238 1.82666C37.8314 1.82666 35.7413 2.29627 35.7413 4.51819C35.7413 6.352 37.7705 6.79551 38.5469 6.96521C38.6187 6.9809 38.6798 6.99425 38.7275 7.00614C38.787 7.02148 38.8604 7.03866 38.9439 7.05822C39.6292 7.21871 41.0001 7.53974 41.0001 8.32068C41.0001 9.19746 39.7224 9.46349 38.943 9.44725C37.2007 9.40042 35.9074 8.69662 35.9074 8.69662L35.6582 10.2453C35.6582 10.2453 36.9521 10.9498 38.9261 10.9498C40.9001 10.9498 42.8079 10.1517 42.8079 8.33629C42.8079 6.63145 41.7132 6.00509 39.9715 5.62915C37.9644 5.17577 37.566 4.90974 37.566 4.39267C37.566 3.84562 38.1468 3.3604 39.6062 3.3604C40.8508 3.34478 42.2103 3.75132 42.2103 3.75132H42.2109ZM51.3 3.79622L51.5199 2.29116C51.5199 2.29116 50.467 1.82677 49.0531 1.82677C47.6387 1.82677 44.4014 2.13138 44.4014 6.55021C44.4014 10.9696 47.6699 11.1941 48.9582 11.1941C50.2472 11.1941 51.5511 10.6656 51.5511 10.6656L51.3313 9.19229C51.3313 9.19229 50.4195 9.62436 49.1312 9.62436C47.9053 9.62436 46.3341 9.40055 46.3341 6.53465C46.3341 3.62028 47.8897 3.44434 49.178 3.44434C50.1522 3.44434 51.2994 3.79622 51.2994 3.79622H51.3ZM59.1706 6.08951V6.17069L59.1904 6.17532C59.5095 6.24927 60.9429 6.58152 60.9429 8.35015C60.9429 10.2555 59.4441 10.9336 57.4301 10.9336C55.4155 10.9336 53.1437 10.9499 53.1437 10.9499V1.82677H57.2528C58.784 1.82677 60.5076 2.24705 60.5076 4.10365C60.5076 5.89592 59.1706 6.08951 59.1706 6.08951ZM54.9968 3.32799L55.0131 3.32815V5.60486C55.0131 5.60486 56.415 5.6211 57.4142 5.6211C58.4128 5.6211 58.848 5.26577 58.848 4.47454C58.848 3.58653 58.2036 3.34423 57.398 3.34423C56.6394 3.34423 55.1827 3.32985 55.0131 3.32815V3.32799H54.9968ZM54.9963 9.39946C55.856 9.40779 56.7157 9.4132 57.5755 9.4157C58.4454 9.4157 59.1704 9.27019 59.1542 8.12364C59.1542 7.05827 58.268 6.929 57.6236 6.929C56.9791 6.929 54.9807 6.91276 54.9807 6.91276L54.9963 9.39946Z" fill="white"/>
<path d="M88.3412 21.4825L85.1339 9.09333L76.6415 1.50146L68.1491 9.09333L64.9424 21.4825L71.0124 24.3089H75.8072V20.0768C75.8072 20.0768 66.9058 24.713 69.2295 14.3265C69.9982 10.8862 74.0892 6.28315 76.4292 5.0067C76.4947 4.95862 76.5765 4.92552 76.6415 4.89429C78.9327 5.99214 83.2685 10.7732 84.0541 14.3265C86.3772 24.713 77.4764 20.0768 77.4764 20.0768V24.3089H82.2706L88.3412 21.4825Z" fill="#FEAC00"/>
</svg>
