<svg width="89" height="26" viewBox="0 0 89 26" fill="none" xmlns="http://www.w3.org/2000/svg">
<path fill-rule="evenodd" clip-rule="evenodd" d="M19.3665 7.72468L19.8331 4.99261C19.8331 4.99261 17.4669 4.11084 14.3209 4.11084C11.1433 4.11084 7.2187 4.99261 7.2187 9.16459C7.2187 12.6078 11.0288 13.4406 12.4867 13.7592L12.4868 13.7593C12.6215 13.7887 12.7362 13.8138 12.8259 13.8361C12.9375 13.8649 13.0752 13.8971 13.232 13.9339L13.2322 13.9339C14.5189 14.2352 17.0929 14.838 17.0929 16.3043C17.0929 17.9506 14.6938 18.4501 13.2304 18.4196C9.95898 18.3317 7.5306 17.0102 7.5306 17.0102L7.06274 19.9182C7.06274 19.9182 9.4923 21.2408 13.1988 21.2408C16.9053 21.2408 20.4874 19.7423 20.4874 16.3337C20.4874 13.1326 18.4319 11.9565 15.1616 11.2506C11.393 10.3993 10.6449 9.89979 10.6449 8.92891C10.6449 7.90174 11.7354 6.99066 14.4757 6.99066C16.8126 6.96134 19.3653 7.72468 19.3653 7.72468H19.3665ZM36.4327 7.80877L36.8454 4.98279C36.8454 4.98279 34.8685 4.11084 32.2138 4.11084C29.5579 4.11084 23.4793 4.68278 23.4793 12.9798C23.4793 21.2779 29.6166 21.6993 32.0356 21.6993C34.4557 21.6993 36.904 20.7071 36.904 20.7071L36.4913 17.9407C36.4913 17.9407 34.7794 18.752 32.3604 18.752C30.0586 18.752 27.1084 18.3317 27.1084 12.9506C27.1084 7.47841 30.0293 7.14806 32.4483 7.14806C34.2775 7.14806 36.4315 7.80877 36.4315 7.80877H36.4327ZM51.2105 12.1148V12.2672L51.2478 12.2759C51.8469 12.4147 54.5383 13.0386 54.5383 16.3594C54.5383 19.9369 51.7241 21.2103 47.9426 21.2103C44.1599 21.2103 39.8941 21.2408 39.8941 21.2408V4.11084H47.6096C50.4847 4.11084 53.721 4.89998 53.721 8.38601C53.721 11.7513 51.2105 12.1148 51.2105 12.1148ZM43.3739 6.93007L43.4044 6.93037V11.2052C43.4044 11.2052 46.0368 11.2357 47.9129 11.2357C49.7878 11.2357 50.6051 10.5685 50.6051 9.08289C50.6051 7.41551 49.395 6.96055 47.8824 6.96055C46.4582 6.96055 43.7229 6.93356 43.4044 6.93037V6.93007H43.3739ZM43.373 18.3296C44.9872 18.3452 46.6014 18.3554 48.2157 18.3601C49.849 18.3601 51.2104 18.0869 51.1799 15.9341C51.1799 13.9337 49.516 13.6909 48.306 13.6909C47.0959 13.6909 43.3437 13.6604 43.3437 13.6604L43.373 18.3296Z" fill="white"/>
<path d="M81.9372 21.4823L78.7298 9.09309L70.2374 1.50122L61.7451 9.09309L58.5383 21.4823L64.6083 24.3087H69.4031V20.0765C69.4031 20.0765 60.5017 24.7127 62.8254 14.3263C63.5942 10.886 67.6852 6.2829 70.0251 5.00646C70.0907 4.95837 70.1725 4.92527 70.2374 4.89405C72.5287 5.99189 76.8645 10.773 77.6501 14.3263C79.9732 24.7127 71.0724 20.0765 71.0724 20.0765V24.3087H75.8665L81.9372 21.4823Z" fill="#FEAC00"/>
</svg>
