<svg width="56" height="56" viewBox="0 0 56 56" fill="none" xmlns="http://www.w3.org/2000/svg">
<path fill-rule="evenodd" clip-rule="evenodd" d="M28 8C33.3444 8 38.3691 10.0796 42.1488 13.8566C49.9504 21.655 49.9504 34.3451 42.1488 42.14C38.3691 45.917 33.3444 48.0001 28 48.0001C22.6556 48.0001 17.6309 45.917 13.8512 42.14C6.04959 34.3451 6.04959 21.655 13.8512 13.8566C17.6309 10.0796 22.6556 8 28 8ZM28 9.66026C23.0993 9.66026 18.4916 11.5672 15.0258 15.0307C7.87159 22.1817 7.87159 33.8184 15.0258 40.9662C18.4916 44.4297 23.0993 46.3398 28 46.3398C32.9007 46.3398 37.5084 44.4297 40.9742 40.9662C48.1284 33.8184 48.1284 22.1817 40.9742 15.0307C37.5084 11.5672 32.9007 9.66026 28 9.66026ZM36.448 20.0845L37.7338 21.3701L22.5454 36.5584L15.5389 29.552L16.8247 28.2663L19.5788 31.0205C19.8442 31.2859 20.115 31.5567 20.3846 31.8263L22.5649 34.0066C22.7727 34.2144 36.448 20.0845 36.448 20.0845Z" fill="#20CBA8"/>
<mask id="mask0_1183_40280" style="mask-type:luminance" maskUnits="userSpaceOnUse" x="8" y="8" width="40" height="40">
<path fill-rule="evenodd" clip-rule="evenodd" d="M28 8C33.3444 8 38.3691 10.0796 42.1488 13.8566C49.9504 21.655 49.9504 34.3451 42.1488 42.14C38.3691 45.917 33.3444 48.0001 28 48.0001C22.6556 48.0001 17.6309 45.917 13.8512 42.14C6.04959 34.3451 6.04959 21.655 13.8512 13.8566C17.6309 10.0796 22.6556 8 28 8ZM28 9.66026C23.0993 9.66026 18.4916 11.5672 15.0258 15.0307C7.87159 22.1817 7.87159 33.8184 15.0258 40.9662C18.4916 44.4297 23.0993 46.3398 28 46.3398C32.9007 46.3398 37.5084 44.4297 40.9742 40.9662C48.1284 33.8184 48.1284 22.1817 40.9742 15.0307C37.5084 11.5672 32.9007 9.66026 28 9.66026ZM36.448 20.0845L37.7338 21.3701L22.5454 36.5584L15.5389 29.552L16.8247 28.2663L19.5788 31.0205C19.8442 31.2859 20.115 31.5567 20.3846 31.8263L22.5649 34.0066C22.7727 34.2144 36.448 20.0845 36.448 20.0845Z" fill="white"/>
</mask>
<g mask="url(#mask0_1183_40280)">
</g>
</svg>
