<?xml version="1.0" encoding="UTF-8"?>
<svg width="100%" viewBox="0 0 25 25" version="1.1" xmlns="http://www.w3.org/2000/svg" xmlns:xlink="http://www.w3.org/1999/xlink">
    <!-- Generator: Sketch 49.1 (51147) - http://www.bohemiancoding.com/sketch -->
    <title>Glyphs/Nav or Toolbar/Alarm</title>
    <desc>Created with Sketch.</desc>
    <defs>
        <path d="M6.10689886,22.6603176 C4.1839362,20.6796021 3,17.9774538 3,14.9987824 C3,8.92365011 7.92486775,3.99878236 14,3.99878236 C20.0751322,3.99878236 25,8.92365011 25,14.9987824 C25,17.9173706 23.8633447,20.5704788 22.0085604,22.5395808 L24.5435171,26.1598743 L23.7243651,26.7334507 L21.2811808,23.2442219 C19.3414238,24.9584368 16.7922048,25.9987824 14,25.9987824 C11.2670232,25.9987824 8.76683315,25.0021041 6.84307623,23.3523941 L4.47563493,26.7334507 L3.65648289,26.1598743 L6.10689886,22.6603176 Z M14,16.9987824 L9,16.9987824 L9,15.9987824 L14,15.9987824 L14,7.99878236 L15,7.99878236 L15,16.9987824 L14,16.9987824 Z M14,24.9987824 C19.5228475,24.9987824 24,20.5216299 24,14.9987824 C24,9.47593486 19.5228475,4.99878236 14,4.99878236 C8.4771525,4.99878236 4,9.47593486 4,14.9987824 C4,20.5216299 8.4771525,24.9987824 14,24.9987824 Z M3.43933983,9.09497644 L2.73223305,9.80208322 C0.779611588,7.84946176 0.779611588,4.68363686 2.73223305,2.73101541 C4.68485451,0.778393947 7.8506794,0.778393947 9.80330086,2.73101541 L9.09619408,3.43812219 L3.43933983,9.09497644 Z M2.82134087,8.29876184 L8.29997948,2.82012322 C6.76607395,1.91418903 4.75727333,2.12018869 3.43933983,3.43812219 C2.12140633,4.75605569 1.91540667,6.76485631 2.82134087,8.29876184 Z M18.9038059,3.43812219 L18.1966991,2.73101541 C20.1493206,0.778393947 23.3151455,0.778393947 25.267767,2.73101541 C27.2203884,4.68363686 27.2203884,7.84946176 25.267767,9.80208322 L24.5606602,9.09497644 L18.9038059,3.43812219 Z M19.7000205,2.82012322 L25.1786591,8.29876184 C26.0845933,6.76485631 25.8785937,4.75605569 24.5606602,3.43812219 C23.2427267,2.12018869 21.2339261,1.91418903 19.7000205,2.82012322 Z" id="path-1"></path>
    </defs>
    <g id="Glyphs/Nav-or-Toolbar/Alarm" stroke="none" stroke-width="1" fill="none" fill-rule="evenodd">
        <mask id="mask-2" fill="white">
            <use xlink:href="#path-1"></use>
        </mask>
        <use id="Alarm" fill="#007AFF" xlink:href="#path-1"></use>
        <g id="_Resources/Colors/Tint-1" mask="url(#mask-2)" fill="#F0EBFB">
            <rect id="Swatch" x="0" y="0" width="28" height="28"></rect>
        </g>
    </g>
</svg>