<?xml version="1.0" encoding="UTF-8"?>
<svg width="100%" viewBox="0 0 25 25" version="1.1" xmlns="http://www.w3.org/2000/svg" xmlns:xlink="http://www.w3.org/1999/xlink">
    <!-- Generator: Sketch 49.1 (51147) - http://www.bohemiancoding.com/sketch -->
    <title>Glyphs/Nav or Toolbar/Bike</title>
    <desc>Created with Sketch.</desc>
    <defs>
        <path d="M2.12388702,14.1614602 C0.316049014,15.9692983 0.316049014,18.9003822 2.12388745,20.7082179 C3.93172543,22.5160615 6.86280867,22.5160615 8.67064488,20.7082168 C10.4784883,18.9003819 10.4784883,15.9692986 8.67064467,14.1614606 C6.862809,12.3536222 3.9317251,12.3536222 2.12388702,14.1614602 Z M9.21370889,21.2512808 C7.10594777,23.3590519 3.6885868,23.3590519 1.58082322,21.2512817 C-0.526941038,19.1435206 -0.526941038,15.7261603 1.58082301,13.6183962 C3.68858714,11.5106322 7.10594744,11.5106322 9.21370846,13.6183964 C11.3214787,15.72616 11.3214787,19.143521 9.21370889,21.2512808 Z M20.7069392,8.60065834 L13.3657157,17.8170598 L4.53661771,17.8170598 L8.93595117,8.60065834 L20.7069392,8.60065834 Z M19.1133179,9.36866683 L9.42037019,9.36866683 L5.75423515,17.0490513 L12.995592,17.0490513 L19.1133179,9.36866683 Z M26.4191727,21.2512808 C24.3114116,23.3590519 20.8940506,23.3590519 18.786287,21.2512817 C16.6785228,19.1435206 16.6785228,15.7261603 18.7862868,13.6183962 C20.894051,11.5106322 24.3114113,11.5106322 26.4191723,13.6183964 C28.5269425,15.72616 28.5269425,19.143521 26.4191727,21.2512808 Z M19.3293509,14.1614602 C17.5215128,15.9692983 17.5215128,18.9003822 19.3293513,20.7082179 C21.1371893,22.5160615 24.0682725,22.5160615 25.8761087,20.7082168 C27.6839522,18.9003819 27.6839522,15.9692986 25.8761085,14.1614606 C24.0682728,12.3536222 21.1371889,12.3536222 19.3293509,14.1614602 Z M13.2513938,16.8455658 L12.7015331,17.4492827 L8.09935105,6.56512274 L8.80865456,6.27063069 L13.2513938,16.8455658 Z M22.9267955,18.1745292 L18.9996062,5.93589928 L16.4374553,5.93589928 L16.4374553,5.16789079 L19.5597437,5.16789079 L23.6580773,17.9398721 L22.9267955,18.1745292 Z M6.65126068,6.75697716 L6.65126068,5.98896867 L11.0084816,5.98896867 L11.0084816,6.75697716 L6.65126068,6.75697716 Z" id="path-1"></path>
    </defs>
    <g id="Glyphs/Nav-or-Toolbar/Bike" stroke="none" stroke-width="1" fill="none" fill-rule="evenodd">
        <mask id="mask-2" fill="white">
            <use xlink:href="#path-1"></use>
        </mask>
        <use id="Combined-Shape" fill="#007AFF" fill-rule="nonzero" xlink:href="#path-1"></use>
        <g id="_Resources/Colors/Tint-1" mask="url(#mask-2)" fill="#F0EBFB">
            <rect id="Swatch" x="0" y="0" width="28" height="28"></rect>
        </g>
    </g>
</svg>