<?xml version="1.0" encoding="UTF-8"?>
<svg width="100%" viewBox="0 0 25 25" version="1.1" xmlns="http://www.w3.org/2000/svg" xmlns:xlink="http://www.w3.org/1999/xlink">
    <!-- Generator: Sketch 49.1 (51147) - http://www.bohemiancoding.com/sketch -->
    <title>Glyphs/Nav or Toolbar/Calculator - Filled</title>
    <desc>Created with Sketch.</desc>
    <defs>
        <path d="M3.5,4.991155 C3.5,3.89147046 4.40234375,3 5.49456145,3 L22.5054385,3 C23.6070044,3 24.5,3.88967395 24.5,4.991155 L24.5,23.008845 C24.5,24.1085295 23.5976562,25 22.5054385,25 L5.49456145,25 C4.39299558,25 3.5,24.1103261 3.5,23.008845 L3.5,4.991155 Z M6.5,8 C6.5,8.55613518 6.95106594,9 7.50748397,9 L20.492516,9 C21.0510798,9 21.5,8.55228475 21.5,8 C21.5,7.44386482 21.0489341,7 20.492516,7 L7.50748397,7 C6.94892021,7 6.5,7.44771525 6.5,8 Z M14,15 C14.8284271,15 15.5,14.3284271 15.5,13.5 C15.5,12.6715729 14.8284271,12 14,12 C13.1715729,12 12.5,12.6715729 12.5,13.5 C12.5,14.3284271 13.1715729,15 14,15 Z M19,20 C19.8284271,20 20.5,19.3284271 20.5,18.5 C20.5,17.6715729 19.8284271,17 19,17 C18.1715729,17 17.5,17.6715729 17.5,18.5 C17.5,19.3284271 18.1715729,20 19,20 Z M14,20 C14.8284271,20 15.5,19.3284271 15.5,18.5 C15.5,17.6715729 14.8284271,17 14,17 C13.1715729,17 12.5,17.6715729 12.5,18.5 C12.5,19.3284271 13.1715729,20 14,20 Z M9,15 C9.82842712,15 10.5,14.3284271 10.5,13.5 C10.5,12.6715729 9.82842712,12 9,12 C8.17157288,12 7.5,12.6715729 7.5,13.5 C7.5,14.3284271 8.17157288,15 9,15 Z M19,15 C19.8284271,15 20.5,14.3284271 20.5,13.5 C20.5,12.6715729 19.8284271,12 19,12 C18.1715729,12 17.5,12.6715729 17.5,13.5 C17.5,14.3284271 18.1715729,15 19,15 Z M9,20 C9.82842712,20 10.5,19.3284271 10.5,18.5 C10.5,17.6715729 9.82842712,17 9,17 C8.17157288,17 7.5,17.6715729 7.5,18.5 C7.5,19.3284271 8.17157288,20 9,20 Z" id="path-1"></path>
    </defs>
    <g id="Glyphs/Nav-or-Toolbar/Calculator---Filled" stroke="none" stroke-width="1" fill="none" fill-rule="evenodd">
        <mask id="mask-2" fill="white">
            <use xlink:href="#path-1"></use>
        </mask>
        <use id="Calculator" fill="#007AFF" xlink:href="#path-1"></use>
        <g id="_Resources/Colors/Tint-1" mask="url(#mask-2)" fill="#F0EBFB">
            <rect id="Swatch" x="0" y="0" width="28" height="28"></rect>
        </g>
    </g>
</svg>