<?xml version="1.0" encoding="UTF-8"?>
<svg width="100%" viewBox="0 0 25 25" version="1.1" xmlns="http://www.w3.org/2000/svg" xmlns:xlink="http://www.w3.org/1999/xlink">
    <!-- Generator: Sketch 49.1 (51147) - http://www.bohemiancoding.com/sketch -->
    <title>Glyphs/Nav or Toolbar/Calendar</title>
    <desc>Created with Sketch.</desc>
    <defs>
        <path d="M4.5,6 C4.5,5.171631 5.171387,4.5 6,4.5 L22,4.5 C22.8286,4.5 23.5,5.171631 23.5,6 L23.5,22 C23.5,22.8284 22.8286,23.5 22,23.5 L6,23.5 C5.171387,23.5 4.5,22.8284 4.5,22 L4.5,6 Z M5.5,10 L5.5,22 C5.5,22.2761 5.72363,22.5 6,22.5 L22,22.5 C22.2764,22.5 22.5,22.2761 22.5,22 L22.5,10 C22.5,9.72388 22.2764,9.5 22,9.5 L6,9.5 C5.72363,9.5 5.5,9.72388 5.5,10 Z M15.5,16 C15.5,15.1716 16.1714,14.5 17,14.5 C17.8286,14.5 18.5,15.1716 18.5,16 C18.5,16.8284 17.8286,17.5 17,17.5 C16.1714,17.5 15.5,16.8284 15.5,16 Z M7.5,19.5 L8.5,19.5 L8.5,20.5 L7.5,20.5 L7.5,19.5 Z M11.5,19.5 L11.5,20.5 L10.5,20.5 L10.5,19.5 L11.5,19.5 Z M16.5,19.5 L17.5,19.5 L17.5,20.5 L16.5,20.5 L16.5,19.5 Z M13.5,19.5 L14.5,19.5 L14.5,20.5 L13.5,20.5 L13.5,19.5 Z M11.5,15.5 L11.5,16.5 L10.5,16.5 L10.5,15.5 L11.5,15.5 Z M7.5,15.5 L8.5,15.5 L8.5,16.5 L7.5,16.5 L7.5,15.5 Z M11.5,11.5 L11.5,12.5 L10.5,12.5 L10.5,11.5 L11.5,11.5 Z M14.5,11.5 L14.5,12.5 L13.5,12.5 L13.5,11.5 L14.5,11.5 Z M16.5,11.5 L17.5,11.5 L17.5,12.5 L16.5,12.5 L16.5,11.5 Z M20.5,11.5 L20.5,12.5 L19.5,12.5 L19.5,11.5 L20.5,11.5 Z M19.5,15.5 L20.5,15.5 L20.5,16.5 L19.5,16.5 L19.5,15.5 Z M14.5,15.5 L14.5,16.5 L13.5,16.5 L13.5,15.5 L14.5,15.5 Z" id="path-1"></path>
    </defs>
    <g id="Glyphs/Nav-or-Toolbar/Calendar" stroke="none" stroke-width="1" fill="none" fill-rule="evenodd">
        <mask id="mask-2" fill="white">
            <use xlink:href="#path-1"></use>
        </mask>
        <use id="Calendar" fill="#007AFF" xlink:href="#path-1"></use>
        <g id="_Resources/Colors/Tint-1" mask="url(#mask-2)" fill="#F0EBFB">
            <rect id="Swatch" x="0" y="0" width="28" height="28"></rect>
        </g>
    </g>
</svg>