<?xml version="1.0" encoding="UTF-8"?>
<svg width="100%" viewBox="0 0 25 25" version="1.1" xmlns="http://www.w3.org/2000/svg" xmlns:xlink="http://www.w3.org/1999/xlink">
    <!-- Generator: Sketch 49.1 (51147) - http://www.bohemiancoding.com/sketch -->
    <title>Glyphs/Nav or Toolbar/Call - Filled</title>
    <desc>Created with Sketch.</desc>
    <defs>
        <path d="M6.98497107,3.02178815 C5.87547107,3.27278815 4.89997107,3.92978815 4.22797107,4.66678815 C3.56197107,5.39678815 3.10547107,6.14028815 3.01797107,7.13828815 C2.94447107,7.97878815 3.10597107,8.82778815 3.35497107,9.62778815 C3.93547107,11.4932881 4.98797107,13.2097881 6.11547107,14.7947881 C8.24497107,17.7872881 10.8474711,20.3237881 13.9019711,22.3712881 C15.8384711,23.6697881 18.1659711,24.9997881 20.5719711,24.9997881 C21.1504711,24.9997881 21.7619711,24.9402881 22.3039711,24.7282881 C22.6944711,24.5757881 23.0019711,24.2922881 23.3029711,24.0092881 C24.0479711,23.3077881 24.7019711,22.4237881 24.8944711,21.4022881 C24.9574711,21.0672881 25.1184711,20.2867881 24.8489711,20.0347881 C23.4864711,18.7622881 21.9454711,17.7927881 20.6754711,17.0452881 C20.3684711,16.8647881 20.0404711,16.7222881 19.7159711,16.5752881 C19.3054711,16.3892881 18.9409711,16.2092881 18.4839711,16.3357881 C18.0254711,16.4632881 17.6069711,16.7677881 17.2094711,17.0172881 C17.0979711,17.0877881 16.1129711,17.7612881 16.0649711,17.7607881 C15.5729711,17.4892881 14.7004711,16.8092881 13.0669711,15.1947881 C11.4439711,13.5887881 10.4929711,12.3037881 10.2154711,11.8152881 C10.5769711,11.2637881 10.9124711,10.6932881 11.1964711,10.0977881 C11.3714711,9.73028815 11.6254711,9.32778815 11.5674711,8.90328815 C11.5219711,8.57328815 11.3149711,8.21578815 11.1729711,7.91728815 C10.8249711,7.18528815 10.3834711,6.51128815 9.93297107,5.83778815 C9.53097107,5.23678815 9.12247107,4.62778815 8.66397107,4.06828815 C8.43697107,3.79078815 8.18347107,3.40828815 7.86797107,3.21978815 C7.59747107,3.05928815 7.28997107,2.95228815 6.98497107,3.02178815 L6.98497107,3.02178815 Z" id="path-1"></path>
    </defs>
    <g id="Glyphs/Nav-or-Toolbar/Call---Filled" stroke="none" stroke-width="1" fill="none" fill-rule="evenodd">
        <mask id="mask-2" fill="white">
            <use xlink:href="#path-1"></use>
        </mask>
        <use id="Call" fill="#007AFF" xlink:href="#path-1"></use>
        <g id="_Resources/Colors/Tint-1" mask="url(#mask-2)" fill="#F0EBFB">
            <rect id="Swatch" x="0" y="0" width="28" height="28"></rect>
        </g>
    </g>
</svg>