<?xml version="1.0" encoding="UTF-8"?>
<svg width="100%" viewBox="0 0 25 25" version="1.1" xmlns="http://www.w3.org/2000/svg" xmlns:xlink="http://www.w3.org/1999/xlink">
    <!-- Generator: Sketch 49.1 (51147) - http://www.bohemiancoding.com/sketch -->
    <title>Glyphs/Nav or Toolbar/Camera</title>
    <desc>Created with Sketch.</desc>
    <defs>
        <path d="M1,4.99037448 L1,4.99037448 L1,17.005415 C1,17.5526924 1.44905712,18 2.00359486,18 L22.9964051,18 C23.555885,18 24,17.5567702 24,17.005415 L24,4.99037448 C24,4.44260107 23.5524306,3.99578947 23.0008261,3.99578948 C22.7963526,3.99578948 22.7963526,3.99578948 21.9192458,3.99578949 C20.7784529,3.99578951 20.7784529,3.99578951 19.255549,3.99578951 C18.4081054,3.99578951 18.1395358,3.69133373 16.9915032,2.07757689 C16.6140713,1.54703159 16.4502542,1.3273048 16.2758703,1.12961977 C16.1890918,1.031246 16.1207765,0.96554066 16.0808889,0.936423923 C16.1201315,0.965069879 16.2034232,1 16.3571429,1 L8.64285714,1 C8.78860886,1 8.86831925,0.967367529 8.90449765,0.941429014 C8.86406082,0.970420659 8.79540111,1.03557854 8.70830905,1.13332725 C8.5328818,1.33021995 8.36842328,1.54952251 7.98979662,2.07932937 C6.84764263,3.67752911 6.56407929,3.99578951 5.70954984,3.99578951 C4.1860996,3.99578951 4.1860996,3.99578951 3.06206426,3.99578949 C2.2031301,3.99578948 2.2031301,3.99578948 2.00518577,3.99578948 C1.4484604,3.99578947 1,4.44198365 1,4.99037448 L1,4.99037448 Z M2.00518579,2.99578948 C2.00518579,2.99578948 3.5887404,2.99578951 5.70954984,2.99578951 C6.50191513,2.99578951 7.85049185,0 8.64285714,0 L16.3571429,0 C17.1243331,0 18.4883587,2.99578951 19.255549,2.99578951 C21.3650376,2.99578951 23.0008261,2.99578948 23.0008261,2.99578948 C24.1049394,2.99578946 25,3.89053861 25,4.99037448 L25,17.005415 C25,18.1069939 24.1102368,19 22.9964051,19 L2.00359486,19 C0.897039974,19 0,18.1052508 0,17.005415 L0,4.99037448 C0,3.88879559 0.897071425,2.99578946 2.00518579,2.99578948 Z M19.75,6 C20.1642136,6 20.5,5.66421356 20.5,5.25 C20.5,4.83578644 20.1642136,4.5 19.75,4.5 C19.3357864,4.5 19,4.83578644 19,5.25 C19,5.66421356 19.3357864,6 19.75,6 Z M2.5,1.49999999 C2.5,1.22385762 2.73071289,0.999999999 3.0059123,1 L4.4940877,1.00000001 C4.77349535,1.00000001 5,1.2319336 5,1.50000001 L5,2 L2.5,1.99999998 L2.5,1.49999999 Z M12.5,14 L12.5,14 C14.4329966,14 16,12.4329966 16,10.5 C16,8.56700338 14.4329966,7 12.5,7 C10.5670034,7 9,8.56700338 9,10.5 C9,12.4329966 10.5670034,14 12.5,14 L12.5,14 Z M12.5,15 L12.5,15 C10.0147186,15 8,12.9852814 8,10.5 C8,8.01471863 10.0147186,6 12.5,6 C14.9852814,6 17,8.01471863 17,10.5 C17,12.9852814 14.9852814,15 12.5,15 L12.5,15 Z M12.5,16 L12.5,16 C15.5375661,16 18,13.5375661 18,10.5 C18,7.46243388 15.5375661,5 12.5,5 C9.46243388,5 7,7.46243388 7,10.5 C7,13.5375661 9.46243388,16 12.5,16 L12.5,16 Z M12.5,17 L12.5,17 C8.91014913,17 6,14.0898509 6,10.5 C6,6.91014913 8.91014913,4 12.5,4 C16.0898509,4 19,6.91014913 19,10.5 C19,14.0898509 16.0898509,17 12.5,17 L12.5,17 Z" id="path-1"></path>
    </defs>
    <g id="Glyphs/Nav-or-Toolbar/Camera" stroke="none" stroke-width="1" fill="none" fill-rule="evenodd">
        <g id="Icon-Shape" transform="translate(1.500000, 4.500000)">
            <mask id="mask-2" fill="white">
                <use xlink:href="#path-1"></use>
            </mask>
            <use id="Rectangle-21" fill="#007AFF" fill-rule="nonzero" xlink:href="#path-1"></use>
            <g id="_Resources/Colors/Tint-1" mask="url(#mask-2)" fill="#F0EBFB">
                <g transform="translate(-1.500000, -4.500000)" id="Swatch">
                    <rect x="0" y="0" width="28" height="28"></rect>
                </g>
            </g>
        </g>
    </g>
</svg>