<?xml version="1.0" encoding="UTF-8"?>
<svg width="100%" viewBox="0 0 25 25" version="1.1" xmlns="http://www.w3.org/2000/svg" xmlns:xlink="http://www.w3.org/1999/xlink">
    <!-- Generator: Sketch 49.1 (51147) - http://www.bohemiancoding.com/sketch -->
    <title>Glyphs/Nav or Toolbar/Car - Filled</title>
    <desc>Created with Sketch.</desc>
    <defs>
        <path d="M23.6108611,10.8946577 C23.3972296,10.6793242 23.2858685,10.3642573 23.152917,10.0928238 C22.7853117,9.34085652 22.4182746,8.58888928 22.0506693,7.83692203 C21.686473,7.09175479 21.3728438,6.43385428 20.5592259,6.10178736 C19.7126543,5.75612043 18.7024499,5.75385376 17.8036067,5.67792037 C16.4023205,5.55898991 15.4058961,5.49630282 13.9997156,5.50016867 C12.7392888,5.50363382 11.0689811,5.56060344 9.81401559,5.67792037 C7.94871707,5.85245383 6.66124634,6.0252873 5.856151,7.88168873 C5.62661076,8.3644891 5.39650235,8.84672281 5.16696211,9.32952318 C5.01355651,9.65195676 4.85958274,9.97552368 4.70617713,10.2979573 C4.32550397,11.0969579 3.9703984,11.1003579 3.22268812,11.4193915 C2.89144565,11.5604916 2.58804345,11.7650584 2.33293562,12.0194919 C1.80226586,12.547059 1.5,13.84076 1.5,14.5876272 L1.5,17.9876299 C1.5,19.5527644 5.94732843,19.5000298 7.51604278,19.5000298 L20.5592265,19.5000298 C22.1279408,19.5000298 26.4994318,19.5527644 26.4994318,17.9876299 L26.4994318,14.5876272 C26.4994318,13.8146933 26.1750074,12.4971923 25.6113838,11.9656585 C25.1568487,11.5355582 24.4392514,11.4528248 23.9034681,11.1230246 C23.7977887,11.0578578 23.6989273,10.9830578 23.6108611,10.8946577 Z M7.03737415,8.01768884 C7.79815231,6.46445431 9.69924547,6.68375447 11.3037545,6.6333211 C13.4065476,6.56645438 15.5121815,6.53585436 17.6138383,6.6333211 C19.0825549,6.70132115 20.1598032,6.63275443 20.963194,8.01768884 L22.2557783,10.783591 C22.3438445,10.9717244 22.2063476,11.1864913 21.9983978,11.1864913 L6.00273857,11.1864913 C5.79478875,11.1864913 5.65729188,10.9717244 5.74535806,10.783591 C5.74478989,10.783591 7.03112429,8.03128885 7.03737415,8.01768884 L7.03737415,8.01768884 Z M5.47775051,16.833329 C4.37948001,16.833329 3.48915934,15.9453616 3.48915934,14.8499941 C3.48915934,13.7546266 4.37948001,12.8666592 5.47775051,12.8666592 C6.576021,12.8666592 7.46634167,13.7546266 7.46634167,14.8499941 C7.46634167,15.9453616 6.576021,16.833329 5.47775051,16.833329 L5.47775051,16.833329 Z M16.8854458,16.833329 L11.1151224,16.833329 C10.1588941,16.833329 9.38391173,16.1074284 9.38391173,15.153161 C9.38391173,14.1994603 10.1588941,13.4333263 11.1151224,13.4333263 L16.8854458,13.4333263 C17.8416741,13.4333263 18.6166564,14.2000269 18.6166564,15.153161 C18.6166564,16.1074284 17.8416741,16.833329 16.8854458,16.833329 L16.8854458,16.833329 Z M22.5228177,16.833329 C21.4245472,16.833329 20.5342265,15.9453616 20.5342265,14.8499941 C20.5342265,13.7546266 21.4245472,12.8666592 22.5228177,12.8666592 C23.6210882,12.8666592 24.5114088,13.7546266 24.5114088,14.8499941 C24.5114088,15.9453616 23.6210882,16.833329 22.5228177,16.833329 Z M24.7954933,22.5 L23.0909866,22.5 C22.348958,22.5 21.7875615,21.6601821 21.5534759,21.0000149 C22.5477715,20.9818816 25.0119656,21.1734323 26.5,20.0916648 L26.5,20.819832 C26.5,21.7587994 25.7369492,22.5 24.7954933,22.5 Z M3.20507488,22.5 C2.26361901,22.5 1.50056817,21.7587994 1.50056817,20.819832 L1.50056817,20.0916648 C2.9891707,21.1734323 5.51907357,20.9818816 6.51336916,21.0000149 C6.27928357,21.6601821 5.65161019,22.5 4.9095816,22.5 L3.20507488,22.5 Z" id="path-1"></path>
    </defs>
    <g id="Glyphs/Nav-or-Toolbar/Car---Filled" stroke="none" stroke-width="1" fill="none" fill-rule="evenodd">
        <mask id="mask-2" fill="white">
            <use xlink:href="#path-1"></use>
        </mask>
        <use id="Car---Filled" fill="#007AFF" xlink:href="#path-1"></use>
        <g id="_Resources/Colors/Tint-1" mask="url(#mask-2)" fill="#F0EBFB">
            <rect id="Swatch" x="0" y="0" width="28" height="28"></rect>
        </g>
    </g>
</svg>