<?xml version="1.0" encoding="UTF-8"?>
<svg width="100%" viewBox="0 0 25 25" version="1.1" xmlns="http://www.w3.org/2000/svg" xmlns:xlink="http://www.w3.org/1999/xlink">
    <!-- Generator: Sketch 49.1 (51147) - http://www.bohemiancoding.com/sketch -->
    <title>Glyphs/Nav or Toolbar/Chat</title>
    <desc>Created with Sketch.</desc>
    <defs>
        <path d="M5.18242104,23.5 L5.97889705,22.5991168 C6.41215599,22.109421 6.79738622,21.5755643 7.12258057,21.0142296 C7.35972229,20.6059863 7.56784668,20.1790972 7.74395193,19.7394504 C6.38413924,19.0515211 5.24145633,17.9730128 4.49300902,16.6619235 C3.74656291,15.3537782 3.41036198,13.8709519 3.52042776,12.3743867 C3.69953481,11.095682 4.16781467,9.88076546 4.87723865,8.82973503 C5.66270808,7.66388616 6.74235333,6.69627085 7.99910442,6.03287537 C8.93066116,5.53729146 9.92525557,5.1545633 10.9528697,4.89646712 C11.9884886,4.63640824 13.0551261,4.50294406 14.1247654,4.5 C15.2874603,4.54219823 16.4591605,4.66977429 17.5798303,5.0063788 C18.730518,5.35279686 19.8161668,5.86800785 20.8067588,6.53827282 C21.702294,7.13689892 22.4707533,7.88763494 23.0881223,8.76692836 C23.6594637,9.5794897 24.0807155,10.4754661 24.3418716,11.4293425 C24.60703,12.7610402 24.5369882,14.1162905 24.1447538,15.3832188 C23.8215606,16.4293425 23.2942455,17.3861629 22.5788179,18.2271835 C21.7923479,19.0829244 20.8788019,19.7728165 19.8521883,20.2899902 C18.9326388,20.7551521 17.9480503,21.0691855 16.9244386,21.2222767 C15.9408508,21.3626104 14.9422539,21.4342493 13.9526625,21.4371933 C13.1011536,21.4430815 12.1906094,21.3881256 11.3160868,21.2831207 C10.5856503,21.9563297 9.74514793,22.4842983 8.81359119,22.8542689 C8.04012894,23.1614328 7.22664276,23.3488714 6.39414522,23.4106968 L5.18242104,23.5 Z M14.135772,5.48135427 L14.1267666,5.48135427 C13.1411775,5.48429833 12.1565891,5.60696762 11.201018,5.84739941 C10.2534517,6.08488714 9.33590335,6.43817468 8.47438847,6.89646712 C7.36172349,7.48429833 6.407153,8.34003925 5.71173739,9.37144259 C5.08436244,10.3007851 4.67111547,11.3743867 4.51402158,12.4774289 C4.42196656,13.749264 4.71514178,15.0417076 5.36653108,16.1830226 C6.08596104,17.4430815 7.22464156,18.4578018 8.57244707,19.0407262 L8.99369883,19.2222767 L8.84360913,19.6491658 C8.61947518,20.2899902 8.33330415,20.9131501 7.99210023,21.5 C7.84601292,21.7512267 7.68991963,21.998528 7.52281977,22.2389598 C7.83300515,22.1614328 8.13918814,22.0632974 8.43736634,21.9445535 C9.32189497,21.5932287 10.1123674,21.0799804 10.787771,20.4195289 L10.9628757,20.247792 L11.2070216,20.2801766 C12.114564,20.3999019 13.0461207,20.4617272 13.9496607,20.4558391 C14.892224,20.452895 15.8437927,20.3851816 16.7763501,20.2517174 C17.6888955,20.1153091 18.5714229,19.8336605 19.3939145,19.4185476 C20.313464,18.954367 21.1309526,18.3370952 21.824367,17.5843965 C22.4397348,16.8591757 22.9030116,16.0171737 23.1871815,15.0976447 C23.5323878,13.984789 23.5944249,12.7914622 23.3672891,11.6501472 C23.1441558,10.8375859 22.7699321,10.0436703 22.2646301,9.32335623 C21.7163024,8.5451423 21.0358958,7.8797841 20.241421,7.34690873 C19.332878,6.73258096 18.3392842,6.26153091 17.2866551,5.94455348 C16.2640439,5.6373896 15.2044106,5.48135427 14.135772,5.48135427 Z" id="path-1"></path>
    </defs>
    <g id="Glyphs/Nav-or-Toolbar/Chat" stroke="none" stroke-width="1" fill="none" fill-rule="evenodd">
        <mask id="mask-2" fill="white">
            <use xlink:href="#path-1"></use>
        </mask>
        <use id="Chat" fill="#007AFF" xlink:href="#path-1"></use>
        <g id="_Resources/Colors/Tint-1" mask="url(#mask-2)" fill="#F0EBFB">
            <rect id="Swatch" x="0" y="0" width="28" height="28"></rect>
        </g>
    </g>
</svg>