<?xml version="1.0" encoding="UTF-8"?>
<svg width="100%" viewBox="0 0 25 25" version="1.1" xmlns="http://www.w3.org/2000/svg" xmlns:xlink="http://www.w3.org/1999/xlink">
    <!-- Generator: Sketch 49.1 (51147) - http://www.bohemiancoding.com/sketch -->
    <title>Glyphs/Nav or Toolbar/Chat - Filled</title>
    <desc>Created with Sketch.</desc>
    <defs>
        <path d="M5.18242104,23.5 L5.97889705,22.5991168 C6.41215599,22.109421 6.79738622,21.5755643 7.12258057,21.0142296 C7.35972229,20.6059863 7.56784668,20.1790972 7.74395193,19.7394504 C6.38413924,19.0515211 5.24145633,17.9730128 4.49300902,16.6619235 C3.74656291,15.3537782 3.41036198,13.8709519 3.52042776,12.3743867 C3.69953481,11.095682 4.16781467,9.88076546 4.87723865,8.82973503 C5.66270808,7.66388616 6.74235333,6.69627085 7.99910442,6.03287537 C8.93066116,5.53729146 9.92525557,5.1545633 10.9528697,4.89646712 C11.9884886,4.63640824 13.0551261,4.50294406 14.1247654,4.5 C15.2874603,4.54219823 16.4591605,4.66977429 17.5798303,5.0063788 C18.730518,5.35279686 19.8161668,5.86800785 20.8067588,6.53827282 C21.702294,7.13689892 22.4707533,7.88763494 23.0881223,8.76692836 C23.6594637,9.5794897 24.0807155,10.4754661 24.3418716,11.4293425 C24.60703,12.7610402 24.5369882,14.1162905 24.1447538,15.3832188 C23.8215606,16.4293425 23.2942455,17.3861629 22.5788179,18.2271835 C21.7923479,19.0829244 20.8788019,19.7728165 19.8521883,20.2899902 C18.9326388,20.7551521 17.9480503,21.0691855 16.9244386,21.2222767 C15.9408508,21.3626104 14.9422539,21.4342493 13.9526625,21.4371933 C13.1011536,21.4430815 12.1906094,21.3881256 11.3160868,21.2831207 C10.5856503,21.9563297 9.74514793,22.4842983 8.81359119,22.8542689 C8.04012894,23.1614328 7.22664276,23.3488714 6.39414522,23.4106968 L5.18242104,23.5 Z" id="path-1"></path>
    </defs>
    <g id="Glyphs/Nav-or-Toolbar/Chat---Filled" stroke="none" stroke-width="1" fill="none" fill-rule="evenodd">
        <mask id="mask-2" fill="white">
            <use xlink:href="#path-1"></use>
        </mask>
        <use id="Chat" fill="#007AFF" xlink:href="#path-1"></use>
        <g id="_Resources/Colors/Tint-1" mask="url(#mask-2)" fill="#F0EBFB">
            <rect id="Swatch" x="0" y="0" width="28" height="28"></rect>
        </g>
    </g>
</svg>