<?xml version="1.0" encoding="UTF-8"?>
<svg width="100%" viewBox="0 0 25 25" version="1.1" xmlns="http://www.w3.org/2000/svg" xmlns:xlink="http://www.w3.org/1999/xlink">
    <!-- Generator: Sketch 49.1 (51147) - http://www.bohemiancoding.com/sketch -->
    <title>Glyphs/Nav or Toolbar/Dislike</title>
    <desc>Created with Sketch.</desc>
    <defs>
        <path d="M6.52539937,1.8765 L20.0253994,25.3765 L18.7243994,26.1235 L5.22439937,2.6235 L6.52539937,1.8765 L6.52539937,1.8765 Z M5.78456766,6.1074788 C5.13526221,6.45550157 4.40039712,7.11026437 3.96277925,7.74753474 C2.27556254,10.2029881 3.81124182,14.3227156 5.40152151,16.8358187 C8.03120528,20.9917269 13.9265217,25.0936631 13.9265217,25.0936631 C13.9265217,25.0936631 14.8200979,24.5488892 15.9165253,23.7451297 L16.2053994,24.248 C14.9103994,25.199 13.9998994,25.75 13.9998994,25.75 C13.9998994,25.75 7.80539937,22.0075 4.72639937,17.1415 C2.86439937,14.199 1.49089937,10.08 3.46639937,7.205 C3.98039937,6.4565 4.66239937,5.887 5.42439937,5.4805 L5.78456766,6.1074788 Z M19.0479586,21.1670642 C20.3718694,19.9536642 21.6181456,18.7531985 22.608287,17.1883012 C24.3529414,14.4319814 25.7737165,10.3194221 23.9227435,7.62633141 C22.8712672,6.09618751 21.1916373,5.29361357 19.4516665,5.29361357 C19.3060054,5.29361357 19.161281,5.29923394 19.0160883,5.3100063 C16.8325772,5.47299683 15.3302767,6.84263609 13.895679,7.87678293 C12.664131,6.98846849 11.7105507,5.85145264 10.0453889,5.49530196 L9.69939937,4.893 C11.5003994,5.264 12.6753994,6.282 13.9993994,7.237 C15.5308994,6.133 16.8568994,4.9415 19.1878994,4.7675 C19.3428994,4.756 19.4973994,4.75 19.6528994,4.75 C21.5103994,4.75 23.4108994,5.5715 24.5333994,7.205 C26.5093994,10.08 25.1353994,14.199 23.2728994,17.1415 C22.2073994,18.8255 20.7688994,20.3745 19.3428994,21.6805 L19.0479586,21.1670642 Z" id="path-1"></path>
    </defs>
    <g id="Glyphs/Nav-or-Toolbar/Dislike" stroke="none" stroke-width="1" fill="none" fill-rule="evenodd">
        <mask id="mask-2" fill="white">
            <use xlink:href="#path-1"></use>
        </mask>
        <use id="Dislike-Icon---Active" fill="#007AFF" xlink:href="#path-1"></use>
        <g id="_Resources/Colors/Tint-1" mask="url(#mask-2)" fill="#F0EBFB">
            <rect id="Swatch" x="0" y="0" width="28" height="28"></rect>
        </g>
    </g>
</svg>