<?xml version="1.0" encoding="UTF-8"?>
<svg width="100%" viewBox="0 0 25 25" version="1.1" xmlns="http://www.w3.org/2000/svg" xmlns:xlink="http://www.w3.org/1999/xlink">
    <!-- Generator: Sketch 49.1 (51147) - http://www.bohemiancoding.com/sketch -->
    <title>Glyphs/Nav or Toolbar/Download - Cloud</title>
    <desc>Created with Sketch.</desc>
    <defs>
        <path d="M6.47825006,22.5 C5.66274424,22.3710099 4.95492827,22.0676817 4.35382314,21.6162165 C3.755655,21.1687822 3.26028172,20.5742186 2.92154821,19.8970207 C2.56225573,19.1422273 2.43009092,18.3128614 2.53484377,17.4905498 C2.6484076,16.5916502 3.03119605,15.7642998 3.64404916,15.0991948 C4.19130937,14.5046312 4.88639837,14.0854135 5.65393326,13.8868897 C6.26189138,13.7296831 6.88845047,13.714567 7.49542959,13.8445648 L7.51794656,13.4616256 C7.76367521,11.8966133 8.47932317,10.5039236 9.59342356,9.38533786 C10.3590005,8.61542839 11.3154821,8.06016645 12.5167133,7.68831227 L12.7986649,8.65372231 C11.7521154,8.97821295 10.9277986,9.4528561 10.2767646,10.1068761 C9.31440896,11.0732938 8.69666086,12.2724984 8.49009216,13.5744919 L8.3931713,15.2120611 L7.77346519,14.9732279 C7.16942307,14.7404412 6.51936801,14.7021473 5.89280891,14.8633848 C5.30540976,15.0155528 4.77381353,15.3370202 4.35480213,15.7925164 C3.88586181,16.3014226 3.59216224,16.9342801 3.50503136,17.6205476 C3.42573248,18.2473587 3.52656933,18.877193 3.79677294,19.4445477 C4.06110256,19.9736086 4.45465999,20.4452285 4.9294743,20.8009589 C5.40820461,21.1607203 5.9701498,21.4015689 6.55559095,21.4983115 L20.7079945,21.4610253 C21.6429381,21.2272308 22.5015199,20.7062319 23.1936719,19.9494229 C23.7693231,19.3216041 24.1844185,18.5778957 24.3939242,17.7989166 C24.6435688,16.7468414 24.526089,15.6151551 24.0581276,14.6275749 C23.7193941,13.9110753 23.2034619,13.2913184 22.5671128,12.8368299 C22.2313163,12.5697802 21.8583178,12.3964498 21.4686764,12.3188542 C21.079035,12.2432741 20.6698135,12.2604056 20.2870251,12.3722641 L19.8503917,12.5002465 L19.693752,12.0598663 C19.2815936,10.8989557 18.5336386,9.92951471 17.5301651,9.25433232 C17.4616352,9.20797651 17.3852733,9.1787522 17.3089114,9.14751242 C17.2217805,9.11022623 17.1346497,9.0719323 17.0504558,9.02658423 L17.5056901,8.13473883 C17.562472,8.16497088 17.622191,8.19016425 17.6809309,8.21535763 C17.8130957,8.27078305 17.9433025,8.32822394 18.0646983,8.4108582 C19.1269118,9.12534225 19.9463336,10.1199766 20.4534549,11.3060806 C20.8519073,11.2456165 21.2591707,11.2506552 21.6527281,11.3292585 C22.1941143,11.4370861 22.7100466,11.676927 23.145701,12.0235879 C23.8995299,12.562726 24.526089,13.315504 24.9382474,14.186187 C25.5060666,15.3843838 25.6490003,16.7579265 25.3415948,18.0528658 C25.0850972,19.0041676 24.5907029,19.8950053 23.9063829,20.6417368 C23.0673811,21.5567601 22.0198526,22.184579 20.8754032,22.4556597 L20.7667344,22.4687602 L6.47825006,22.5 Z M15.0186295,17.8376262 L11.6215045,14.2339661 L12.3244254,13.5325826 L14.5154243,15.8564193 L14.5,5.5 L15.5,5.5 L15.4944229,15.7687464 L17.3780161,13.5859926 L18.1103071,14.2551285 L15.0186295,17.8376262 Z" id="path-1"></path>
    </defs>
    <g id="Glyphs/Nav-or-Toolbar/Download---Cloud" stroke="none" stroke-width="1" fill="none" fill-rule="evenodd">
        <mask id="mask-2" fill="white">
            <use xlink:href="#path-1"></use>
        </mask>
        <use id="Download" fill="#007AFF" xlink:href="#path-1"></use>
        <g id="_Resources/Colors/Tint-1" mask="url(#mask-2)" fill="#F0EBFB">
            <rect id="Swatch" x="0" y="0" width="28" height="28"></rect>
        </g>
    </g>
</svg>