<?xml version="1.0" encoding="UTF-8"?>
<svg width="100%" viewBox="0 0 25 25" version="1.1" xmlns="http://www.w3.org/2000/svg" xmlns:xlink="http://www.w3.org/1999/xlink">
    <!-- Generator: Sketch 49.1 (51147) - http://www.bohemiancoding.com/sketch -->
    <title>Glyphs/Nav or Toolbar/Draw Sketch</title>
    <desc>Created with Sketch.</desc>
    <defs>
        <path d="M21.411947,14.0445583 C22.026947,14.3630583 22.768947,14.4150583 23.395447,14.1830583 C23.945447,13.9795583 24.369947,13.5710583 24.591947,13.0325583 C25.216447,11.5205583 23.837447,9.86805834 23.013447,8.88055834 L22.900447,8.74455834 C22.627447,8.41655834 22.326947,8.09955834 22.035947,7.79305834 L22.013447,7.76955834 C21.492447,7.22205834 21.000947,6.70505834 20.645947,6.12355834 C20.461447,5.82155834 20.393447,5.47805834 20.468947,5.22655834 C20.497947,5.12805834 20.562947,4.98405834 20.787447,4.87955834 C20.980947,4.78755834 21.256447,4.78905834 21.523947,4.88905834 C21.779447,4.98305834 22.035447,5.15005834 22.355447,5.43205834 C22.472447,5.53555834 22.620447,5.57955834 22.778447,5.57655834 C22.934447,5.56605834 23.077947,5.49405834 23.180947,5.37455834 C23.394447,5.12755834 23.368447,4.75155834 23.124447,4.53655834 C22.854947,4.29855834 22.437447,3.96155834 21.922447,3.77305834 C21.356947,3.56705834 20.779447,3.57505834 20.297447,3.80255834 C19.821447,4.02405834 19.493447,4.39805834 19.348447,4.88455834 C19.176947,5.46005834 19.289947,6.15705834 19.650947,6.74905834 C20.069447,7.43555834 20.627947,8.02305834 21.167947,8.59155834 C21.467947,8.90655834 21.747947,9.20105834 22.004447,9.51055834 L22.119447,9.64805834 C22.771947,10.4300583 23.859447,11.7345583 23.512447,12.5760583 C23.414947,12.8120583 23.240447,12.9780583 22.994447,13.0690583 C22.673447,13.1885583 22.272447,13.1575583 21.945447,12.9890583 C21.376947,12.6940583 20.919447,12.1895583 20.434947,11.6560583 C20.309947,11.5180583 20.185947,11.3815583 20.060447,11.2490583 C18.480447,9.58105834 16.730947,7.90605834 14.644447,6.95305834 C13.659447,6.50155834 12.328947,6.42055834 11.573447,7.25855834 C10.927447,7.97755834 10.969947,9.03105834 11.224947,9.77705834 C11.565447,10.7725583 12.230947,11.6175583 12.817947,12.3630583 L12.911947,12.4815583 C13.561947,13.3060583 14.262947,14.0760583 14.940947,14.8215583 C16.033447,16.0205583 17.060947,17.1500583 17.905447,18.4935583 C18.797447,19.9145583 19.123947,21.1175583 18.874447,22.0695583 C18.602947,23.1030583 17.547447,23.2905583 16.732447,23.1395583 C15.691947,22.9420583 14.718447,22.3620583 13.902947,21.8205583 C11.450947,20.1890583 9.34144697,18.0190583 7.42744697,15.9170583 C6.22344697,14.5960583 5.19944697,13.3915583 4.29544697,12.2345583 C4.19894697,12.1105583 4.05994697,12.0320583 3.90494697,12.0135583 C3.88144697,12.0105583 3.85844697,12.0095583 3.83494697,12.0095583 C3.70444697,12.0095583 3.57794697,12.0535583 3.47344697,12.1360583 C3.21944697,12.3390583 3.17594697,12.7135583 3.37694697,12.9705583 C4.29994697,14.1520583 5.34294697,15.3795583 6.56594697,16.7225583 C8.53144697,18.8800583 10.701947,21.1115583 13.260947,22.8130583 C14.171447,23.4185583 15.270947,24.0695583 16.517947,24.3055583 C16.758447,24.3515583 17.000947,24.3750583 17.237947,24.3750583 C18.600947,24.3750583 19.687447,23.5900583 20.005947,22.3745583 C20.343447,21.0885583 19.968947,19.5685583 18.892947,17.8565583 C17.989947,16.4200583 16.877447,15.1985583 15.801447,14.0165583 C15.133447,13.2830583 14.447947,12.5300583 13.827447,11.7420583 L13.738947,11.6295583 C13.179947,10.9200583 12.606447,10.1925583 12.331947,9.38905834 C12.182447,8.95255834 12.157447,8.37205834 12.438947,8.05905834 C12.779447,7.68055834 13.563947,7.76005834 14.162947,8.03405834 C16.069947,8.90605834 17.717947,10.4895583 19.214947,12.0705583 C19.326447,12.1870583 19.435447,12.3085583 19.545947,12.4295583 L19.573447,12.4600583 C20.083947,13.0220583 20.659947,13.6555583 21.411947,14.0445583 L21.411947,14.0445583 Z" id="path-1"></path>
    </defs>
    <g id="Glyphs/Nav-or-Toolbar/Draw-Sketch" stroke="none" stroke-width="1" fill="none" fill-rule="evenodd">
        <mask id="mask-2" fill="white">
            <use xlink:href="#path-1"></use>
        </mask>
        <use id="Sketch-Icon" fill="#007AFF" xlink:href="#path-1"></use>
        <g id="_Resources/Colors/Tint-1" mask="url(#mask-2)" fill="#F0EBFB">
            <rect id="Swatch" x="0" y="0" width="28" height="28"></rect>
        </g>
    </g>
</svg>