<?xml version="1.0" encoding="UTF-8"?>
<svg width="100%" viewBox="0 0 25 25" version="1.1" xmlns="http://www.w3.org/2000/svg" xmlns:xlink="http://www.w3.org/1999/xlink">
    <!-- Generator: Sketch 49.1 (51147) - http://www.bohemiancoding.com/sketch -->
    <title>Glyphs/Nav or Toolbar/Files</title>
    <desc>Created with Sketch.</desc>
    <defs>
        <path d="M24.4322269,11.7522589 C24.432872,11.7715139 24.4331969,11.7908425 24.4331969,11.8102404 L24.5,22.0683711 C24.5,22.5829097 24.0428394,23 23.4788684,23 L4.58793464,23 C4.023979,23 3.56680308,22.5829097 3.56680308,22.0683711 L3.5049222,12.5660817 C3.50165898,12.6120112 3.5,12.658735 3.5,12.70625 L3.5,6.49908706 C3.5,5.67116426 4.171573,5 5,5 L9.79289,5 C10.05811,5 10.31246,5.10529288 10.5,5.29271474 L11.70711,6.49908706 L22.9322269,6.54738985 C23.7606269,6.54738985 24.4322269,7.21855111 24.4322269,8.04647691 L24.4322269,11.7522589 Z M4.49999993,10.1953374 C4.8091707,10.0370676 5.16473231,9.94698249 5.54302186,9.94698249 L22.3936593,9.94698249 C22.7701453,9.94698249 23.1240713,10.0362057 23.4322269,10.1930654 L23.4322269,8.04647691 C23.4322269,7.77050497 23.2083269,7.54678122 22.9322269,7.54678122 L11.70711,7.49847843 C11.44189,7.49847843 11.18754,7.39318256 11,7.20576669 L9.79289,5.99939137 L5,5.99939137 C4.72386,5.99939137 4.5,6.22311513 4.5,6.49908706 L4.5,10.1953366 Z M4.63099339,11.411016 C4.54763402,11.5453721 4.5,11.7009266 4.5,11.8667194 L4.56542064,21.5404359 C4.56542064,21.7945433 4.78928064,22.0006086 5.06542064,22.0006086 L23.0070651,22.0006086 C23.2831651,22.0006086 23.5070651,21.7945433 23.5070651,21.5404359 L23.4416445,11.8667194 C23.4416445,11.3584309 22.9939445,10.9463739 22.4416445,10.9463739 L5.54302186,10.9463739 C5.15933777,10.9463739 4.8224077,11.1317355 4.63099339,11.411016 Z" id="path-1"></path>
    </defs>
    <g id="Glyphs/Nav-or-Toolbar/Files" stroke="none" stroke-width="1" fill="none" fill-rule="evenodd">
        <mask id="mask-2" fill="white">
            <use xlink:href="#path-1"></use>
        </mask>
        <use id="Folder" fill="#007AFF" xlink:href="#path-1"></use>
        <g id="_Resources/Colors/Tint-1" mask="url(#mask-2)" fill="#F0EBFB">
            <rect id="Swatch" x="0" y="0" width="28" height="28"></rect>
        </g>
    </g>
</svg>