<?xml version="1.0" encoding="UTF-8"?>
<svg width="100%" viewBox="0 0 25 25" version="1.1" xmlns="http://www.w3.org/2000/svg" xmlns:xlink="http://www.w3.org/1999/xlink">
    <!-- Generator: Sketch 49.1 (51147) - http://www.bohemiancoding.com/sketch -->
    <title>Glyphs/Nav or Toolbar/Gallery - Filled</title>
    <desc>Created with Sketch.</desc>
    <defs>
        <path d="M24,23.7266924 L24,5.5 L2,5.5 L2,23.477118 C3.1528305,22.0248695 4.37603727,20.6204446 5.65001237,19.2864274 C6.44744002,18.4514274 7.28048479,17.6274274 8.12639129,16.8384274 L8.2510512,16.7534274 C9.05639377,16.3694274 9.98936433,16.4234274 10.7452387,16.9044274 C11.2557507,17.2274274 11.5980707,17.6894274 11.9285184,18.1364274 L12.1254019,18.3984274 C12.6289884,19.0544274 13.0316597,19.3354274 13.4739055,19.3374274 C13.8112788,19.3374274 14.1615137,19.1394274 14.5325254,18.9304274 C14.7600791,18.8014274 14.9896117,18.6734274 15.2260698,18.5764274 C16.0175612,18.2524274 16.9208509,18.2724274 17.6984912,18.6354274 C18.50977,19.1344274 19.2577294,19.6424274 19.9730398,20.1744274 C21.4067287,21.2390891 22.7563751,22.4299386 24,23.7266924 Z M27,17.4867554 L25.9921202,17.4867554 L25.9921202,3.5 L5,3.5 L5,2.5 L27,2.5 L27,17.4867554 Z M1,4.5 L25,4.5 L25,25.5 L1,25.5 L1,4.5 Z M19.2680862,10.2326082 C20.2439713,11.2083932 20.2439713,12.7916068 19.2680862,13.7673918 C18.2922011,14.7442027 16.708825,14.7442027 15.7319138,13.7673918 C14.7560287,12.7916068 14.7560287,11.2083932 15.7319138,10.2326082 C16.708825,9.25579725 18.2922011,9.25579725 19.2680862,10.2326082 Z" id="path-1"></path>
    </defs>
    <g id="Glyphs/Nav-or-Toolbar/Gallery---Filled" stroke="none" stroke-width="1" fill="none" fill-rule="evenodd">
        <mask id="mask-2" fill="white">
            <use xlink:href="#path-1"></use>
        </mask>
        <use id="Gallery" fill="#007AFF" xlink:href="#path-1"></use>
        <g id="_Resources/Colors/Tint-1" mask="url(#mask-2)" fill="#F0EBFB">
            <rect id="Swatch" x="0" y="0" width="28" height="28"></rect>
        </g>
    </g>
</svg>