<?xml version="1.0" encoding="UTF-8"?>
<svg width="100%" viewBox="0 0 25 25" version="1.1" xmlns="http://www.w3.org/2000/svg" xmlns:xlink="http://www.w3.org/1999/xlink">
    <!-- Generator: Sketch 49.1 (51147) - http://www.bohemiancoding.com/sketch -->
    <title>Glyphs/Nav or Toolbar/Heart</title>
    <desc>Created with Sketch.</desc>
    <defs>
        <path d="M14.5950788,24.2174865 L14.4712091,24.3661494 L13.4210988,24.3610586 L13.2988143,24.2113707 L15.5535334,21.5114385 L18.549554,18.5160661 L20.8508874,16.3808963 C21.2300474,16.0088839 21.5898017,15.6108489 21.9180498,15.1998069 C22.2201381,14.8220687 22.5036066,14.4248497 22.760242,14.020279 C23.3748626,13.0368629 23.7657154,11.9617388 23.9235704,10.8202949 C24.0660737,9.79123934 24.0098719,8.76658467 23.7501932,7.72331683 L24.7205843,7.4817778 L23.7793871,7.81963559 C23.5790805,7.26162559 23.290758,6.73879153 22.9228185,6.26589547 C22.6359327,5.89760134 22.3019957,5.562678 21.9100436,5.25558266 C21.3470084,4.77022021 20.699087,4.41886456 19.9783652,4.20849701 C19.2736262,4.00262143 18.5528013,3.94892109 17.8395632,4.04587003 C17.1500376,4.15348789 16.5051198,4.39383098 15.917628,4.7620209 C15.4748908,5.03925752 15.0859548,5.37449671 14.756258,5.76294805 L14.1031303,6.53246793 L13.3397055,5.87222626 L12.5374343,5.17784445 C12.2917327,4.95271124 12.0220331,4.7543827 11.733011,4.58623466 C11.4661557,4.43103367 11.1799204,4.30228382 10.9105921,4.21044467 C10.5308192,4.10381757 10.1377088,4.0416144 9.74694139,4.02601144 C9.34899523,4.01162996 8.9557349,4.04053381 8.5407696,4.1198923 C8.14486245,4.1697322 7.76033594,4.27383095 7.39636779,4.42989597 C7.06382642,4.57190043 6.74994547,4.75697249 6.43890918,4.99937533 C6.10655335,5.23260767 5.79575426,5.50661409 5.51779026,5.8105367 C5.24872302,6.10552253 5.00899143,6.43024208 4.79541602,6.79443237 C4.54296955,7.18741283 4.3481984,7.61211554 4.21671315,8.05640661 C4.09641009,8.46446563 4.02878381,8.88941082 4.01578015,9.34017105 C3.98642334,9.77923066 3.99807294,10.2256513 4.04996195,10.663789 C4.10295227,11.0991038 4.19631344,11.5316069 4.3321148,11.9620416 C4.51370221,12.5894161 4.76866897,13.1995535 5.08875614,13.7739652 C5.40976104,14.3462978 5.7932154,14.8800072 6.2101706,15.3429016 L9.25107358,18.4320762 L12.3859327,21.522416 L12.4583332,21.6019048 L14.5950788,24.2174865 Z M13.9938474,5.11585443 L14.0653863,5.0331354 C14.4471699,4.59988095 14.8903343,4.22542211 15.3869052,3.91447538 C16.0891827,3.47434752 16.8623585,3.18628101 17.6853549,3.05783167 C18.5591298,2.93882714 19.4214077,3.00399629 20.2587753,3.24861671 C21.1162628,3.49890401 21.8913548,3.91919779 22.5629734,4.49816426 C22.9797411,4.82306551 23.3725566,5.21596936 23.7117192,5.65137481 C24.1438162,6.20672928 24.4839369,6.82253049 24.7205843,7.4817778 C25.0128007,8.65576692 25.0731602,9.80897747 24.9141178,10.9574656 C24.7368718,12.2391255 24.2971101,13.4480604 23.6082458,14.550269 C23.3284846,14.9913414 23.0238131,15.4182465 22.6990217,15.8243731 C22.3445297,16.2682788 21.9574627,16.6961284 21.551234,17.0946992 L19.2297904,19.2490589 L16.2606802,22.2185053 L13.9430688,25 L11.6839008,22.2345614 L8.5490416,19.1442216 L5.49753597,16.044437 C4.99837289,15.491916 4.57202438,14.8968933 4.21657427,14.263147 C3.85920799,13.6218448 3.57465629,12.9418189 3.37154194,12.24007 C3.22399661,11.7734967 3.11764901,11.2804779 3.05728956,10.7846257 C2.99788819,10.2831066 2.98447498,9.77497618 3.01800801,9.27345709 C3.03142122,8.77854937 3.11190049,8.26758548 3.25752964,7.77362224 C3.41657201,7.2362129 3.65130321,6.72524901 3.95405856,6.2539533 C4.18112507,5.86482738 4.46280251,5.4832573 4.77897107,5.136633 C5.10376241,4.78150838 5.46879338,4.45849609 5.86448312,4.18081885 C6.19885532,3.91825331 6.58783846,3.68780009 7.00364801,3.51023778 C7.4529906,3.31756378 7.92820153,3.18911445 8.41586758,3.12772322 C8.84221609,3.04366447 9.31263658,3.00966317 9.78305707,3.02666382 C10.2563518,3.04555343 10.7267723,3.12016738 11.1809053,3.24767223 C11.5631819,3.37612156 11.9109673,3.53290531 12.2357586,3.72180138 C12.5864183,3.92580915 12.9140839,4.16665165 13.2130069,4.44055096 C13.2354426,4.46404447 13.9938474,5.11585443 13.9938474,5.11585443 Z" id="path-1"></path>
    </defs>
    <g id="Glyphs/Nav-or-Toolbar/Heart" stroke="none" stroke-width="1" fill="none" fill-rule="evenodd">
        <mask id="mask-2" fill="white">
            <use xlink:href="#path-1"></use>
        </mask>
        <use id="Heart" fill="#007AFF" fill-rule="nonzero" xlink:href="#path-1"></use>
        <g id="_Resources/Colors/Tint-1" mask="url(#mask-2)" fill="#F0EBFB">
            <rect id="Swatch" x="0" y="0" width="28" height="28"></rect>
        </g>
    </g>
</svg>