<?xml version="1.0" encoding="UTF-8"?>
<svg width="100%" viewBox="0 0 25 25" version="1.1" xmlns="http://www.w3.org/2000/svg" xmlns:xlink="http://www.w3.org/1999/xlink">
    <!-- Generator: Sketch 49.1 (51147) - http://www.bohemiancoding.com/sketch -->
    <title>Glyphs/Nav or Toolbar/Heart - Filled</title>
    <desc>Created with Sketch.</desc>
    <defs>
        <path d="M13.9938474,5.11585443 L14.0653863,5.0331354 C14.4471699,4.59988095 14.8903343,4.22542211 15.3869052,3.91447538 C16.0891827,3.47434752 16.8623585,3.18628101 17.6853549,3.05783167 C18.5591298,2.93882714 19.4214077,3.00399629 20.2587753,3.24861671 C21.1162628,3.49890401 21.8913548,3.91919779 22.5629734,4.49816426 C22.9797411,4.82306551 23.3725566,5.21596936 23.7117192,5.65137481 C24.1438162,6.20672928 24.4839369,6.82253049 24.7205843,7.4817778 C25.0128007,8.65576692 25.0731602,9.80897747 24.9141178,10.9574656 C24.7368718,12.2391255 24.2971101,13.4480604 23.6082458,14.550269 C23.3284846,14.9913414 23.0238131,15.4182465 22.6990217,15.8243731 C22.3445297,16.2682788 21.9574627,16.6961284 21.551234,17.0946992 L19.2297904,19.2490589 L16.2606802,22.2185053 L13.9430688,25 L11.6839008,22.2345614 L8.5490416,19.1442216 L5.49753597,16.044437 C4.99837289,15.491916 4.57202438,14.8968933 4.21657427,14.263147 C3.85920799,13.6218448 3.57465629,12.9418189 3.37154194,12.24007 C3.22399661,11.7734967 3.11764901,11.2804779 3.05728956,10.7846257 C2.99788819,10.2831066 2.98447498,9.77497618 3.01800801,9.27345709 C3.03142122,8.77854937 3.11190049,8.26758548 3.25752964,7.77362224 C3.41657201,7.2362129 3.65130321,6.72524901 3.95405856,6.2539533 C4.18112507,5.86482738 4.46280251,5.4832573 4.77897107,5.136633 C5.10376241,4.78150838 5.46879338,4.45849609 5.86448312,4.18081885 C6.19885532,3.91825331 6.58783846,3.68780009 7.00364801,3.51023778 C7.4529906,3.31756378 7.92820153,3.18911445 8.41586758,3.12772322 C8.84221609,3.04366447 9.31263658,3.00966317 9.78305707,3.02666382 C10.2563518,3.04555343 10.7267723,3.12016738 11.1809053,3.24767223 C11.5631819,3.37612156 11.9109673,3.53290531 12.2357586,3.72180138 C12.5864183,3.92580915 12.9140839,4.16665165 13.2130069,4.44055096 C13.2354426,4.46404447 13.9938474,5.11585443 13.9938474,5.11585443 Z" id="path-1"></path>
    </defs>
    <g id="Glyphs/Nav-or-Toolbar/Heart---Filled" stroke="none" stroke-width="1" fill="none" fill-rule="evenodd">
        <mask id="mask-2" fill="white">
            <use xlink:href="#path-1"></use>
        </mask>
        <use id="Heart" fill="#007AFF" fill-rule="nonzero" xlink:href="#path-1"></use>
        <g id="_Resources/Colors/Tint-1" mask="url(#mask-2)" fill="#F0EBFB">
            <rect id="Swatch" x="0" y="0" width="28" height="28"></rect>
        </g>
    </g>
</svg>