<?xml version="1.0" encoding="UTF-8"?>
<svg width="100%" viewBox="0 0 25 25" version="1.1" xmlns="http://www.w3.org/2000/svg" xmlns:xlink="http://www.w3.org/1999/xlink">
    <!-- Generator: Sketch 49.1 (51147) - http://www.bohemiancoding.com/sketch -->
    <title>Glyphs/Nav or Toolbar/Keypad</title>
    <desc>Created with Sketch.</desc>
    <defs>
        <path d="M5.5,8.5 C3.56700338,8.5 2,6.93299662 2,5 C2,3.06700338 3.56700338,1.5 5.5,1.5 C7.43299662,1.5 9,3.06700338 9,5 C9,6.93299662 7.43299662,8.5 5.5,8.5 Z M14,8.5 C12.0670034,8.5 10.5,6.93299662 10.5,5 C10.5,3.06700338 12.0670034,1.5 14,1.5 C15.9329966,1.5 17.5,3.06700338 17.5,5 C17.5,6.93299662 15.9329966,8.5 14,8.5 Z M5.5,17.5 C3.56700338,17.5 2,15.9329966 2,14 C2,12.0670034 3.56700338,10.5 5.5,10.5 C7.43299662,10.5 9,12.0670034 9,14 C9,15.9329966 7.43299662,17.5 5.5,17.5 Z M14,17.5 C12.0670034,17.5 10.5,15.9329966 10.5,14 C10.5,12.0670034 12.0670034,10.5 14,10.5 C15.9329966,10.5 17.5,12.0670034 17.5,14 C17.5,15.9329966 15.9329966,17.5 14,17.5 Z M5.5,26.5 C3.56700338,26.5 2,24.9329966 2,23 C2,21.0670034 3.56700338,19.5 5.5,19.5 C7.43299662,19.5 9,21.0670034 9,23 C9,24.9329966 7.43299662,26.5 5.5,26.5 Z M14,26.5 C12.0670034,26.5 10.5,24.9329966 10.5,23 C10.5,21.0670034 12.0670034,19.5 14,19.5 C15.9329966,19.5 17.5,21.0670034 17.5,23 C17.5,24.9329966 15.9329966,26.5 14,26.5 Z M22.5,8.5 C20.5670034,8.5 19,6.93299662 19,5 C19,3.06700338 20.5670034,1.5 22.5,1.5 C24.4329966,1.5 26,3.06700338 26,5 C26,6.93299662 24.4329966,8.5 22.5,8.5 Z M22.5,17.5 C20.5670034,17.5 19,15.9329966 19,14 C19,12.0670034 20.5670034,10.5 22.5,10.5 C24.4329966,10.5 26,12.0670034 26,14 C26,15.9329966 24.4329966,17.5 22.5,17.5 Z M22.5,26.5 C20.5670034,26.5 19,24.9329966 19,23 C19,21.0670034 20.5670034,19.5 22.5,19.5 C24.4329966,19.5 26,21.0670034 26,23 C26,24.9329966 24.4329966,26.5 22.5,26.5 Z M5.5,7.5 C6.88071187,7.5 8,6.38071187 8,5 C8,3.61928813 6.88071187,2.5 5.5,2.5 C4.11928813,2.5 3,3.61928813 3,5 C3,6.38071187 4.11928813,7.5 5.5,7.5 Z M14,7.5 C15.3807119,7.5 16.5,6.38071187 16.5,5 C16.5,3.61928813 15.3807119,2.5 14,2.5 C12.6192881,2.5 11.5,3.61928813 11.5,5 C11.5,6.38071187 12.6192881,7.5 14,7.5 Z M5.5,16.5 C6.88071187,16.5 8,15.3807119 8,14 C8,12.6192881 6.88071187,11.5 5.5,11.5 C4.11928813,11.5 3,12.6192881 3,14 C3,15.3807119 4.11928813,16.5 5.5,16.5 Z M14,16.5 C15.3807119,16.5 16.5,15.3807119 16.5,14 C16.5,12.6192881 15.3807119,11.5 14,11.5 C12.6192881,11.5 11.5,12.6192881 11.5,14 C11.5,15.3807119 12.6192881,16.5 14,16.5 Z M5.5,25.5 C6.88071187,25.5 8,24.3807119 8,23 C8,21.6192881 6.88071187,20.5 5.5,20.5 C4.11928813,20.5 3,21.6192881 3,23 C3,24.3807119 4.11928813,25.5 5.5,25.5 Z M14,25.5 C15.3807119,25.5 16.5,24.3807119 16.5,23 C16.5,21.6192881 15.3807119,20.5 14,20.5 C12.6192881,20.5 11.5,21.6192881 11.5,23 C11.5,24.3807119 12.6192881,25.5 14,25.5 Z M22.5,7.5 C23.8807119,7.5 25,6.38071187 25,5 C25,3.61928813 23.8807119,2.5 22.5,2.5 C21.1192881,2.5 20,3.61928813 20,5 C20,6.38071187 21.1192881,7.5 22.5,7.5 Z M22.5,16.5 C23.8807119,16.5 25,15.3807119 25,14 C25,12.6192881 23.8807119,11.5 22.5,11.5 C21.1192881,11.5 20,12.6192881 20,14 C20,15.3807119 21.1192881,16.5 22.5,16.5 Z M22.5,25.5 C23.8807119,25.5 25,24.3807119 25,23 C25,21.6192881 23.8807119,20.5 22.5,20.5 C21.1192881,20.5 20,21.6192881 20,23 C20,24.3807119 21.1192881,25.5 22.5,25.5 Z" id="path-1"></path>
    </defs>
    <g id="Glyphs/Nav-or-Toolbar/Keypad" stroke="none" stroke-width="1" fill="none" fill-rule="evenodd">
        <mask id="mask-2" fill="white">
            <use xlink:href="#path-1"></use>
        </mask>
        <use id="Keypad" fill="#007AFF" xlink:href="#path-1"></use>
        <g id="_Resources/Colors/Tint-1" mask="url(#mask-2)" fill="#F0EBFB">
            <rect id="Swatch" x="0" y="0" width="28" height="28"></rect>
        </g>
    </g>
</svg>