<?xml version="1.0" encoding="UTF-8"?>
<svg width="100%" viewBox="0 0 25 25" version="1.1" xmlns="http://www.w3.org/2000/svg" xmlns:xlink="http://www.w3.org/1999/xlink">
    <!-- Generator: Sketch 49.1 (51147) - http://www.bohemiancoding.com/sketch -->
    <title>Glyphs/Nav or Toolbar/Keypad - Filled</title>
    <desc>Created with Sketch.</desc>
    <defs>
        <path d="M5.5,8.5 C3.56700338,8.5 2,6.93299662 2,5 C2,3.06700338 3.56700338,1.5 5.5,1.5 C7.43299662,1.5 9,3.06700338 9,5 C9,6.93299662 7.43299662,8.5 5.5,8.5 Z M14,8.5 C12.0670034,8.5 10.5,6.93299662 10.5,5 C10.5,3.06700338 12.0670034,1.5 14,1.5 C15.9329966,1.5 17.5,3.06700338 17.5,5 C17.5,6.93299662 15.9329966,8.5 14,8.5 Z M5.5,17.5 C3.56700338,17.5 2,15.9329966 2,14 C2,12.0670034 3.56700338,10.5 5.5,10.5 C7.43299662,10.5 9,12.0670034 9,14 C9,15.9329966 7.43299662,17.5 5.5,17.5 Z M14,17.5 C12.0670034,17.5 10.5,15.9329966 10.5,14 C10.5,12.0670034 12.0670034,10.5 14,10.5 C15.9329966,10.5 17.5,12.0670034 17.5,14 C17.5,15.9329966 15.9329966,17.5 14,17.5 Z M5.5,26.5 C3.56700338,26.5 2,24.9329966 2,23 C2,21.0670034 3.56700338,19.5 5.5,19.5 C7.43299662,19.5 9,21.0670034 9,23 C9,24.9329966 7.43299662,26.5 5.5,26.5 Z M14,26.5 C12.0670034,26.5 10.5,24.9329966 10.5,23 C10.5,21.0670034 12.0670034,19.5 14,19.5 C15.9329966,19.5 17.5,21.0670034 17.5,23 C17.5,24.9329966 15.9329966,26.5 14,26.5 Z M22.5,8.5 C20.5670034,8.5 19,6.93299662 19,5 C19,3.06700338 20.5670034,1.5 22.5,1.5 C24.4329966,1.5 26,3.06700338 26,5 C26,6.93299662 24.4329966,8.5 22.5,8.5 Z M22.5,17.5 C20.5670034,17.5 19,15.9329966 19,14 C19,12.0670034 20.5670034,10.5 22.5,10.5 C24.4329966,10.5 26,12.0670034 26,14 C26,15.9329966 24.4329966,17.5 22.5,17.5 Z M22.5,26.5 C20.5670034,26.5 19,24.9329966 19,23 C19,21.0670034 20.5670034,19.5 22.5,19.5 C24.4329966,19.5 26,21.0670034 26,23 C26,24.9329966 24.4329966,26.5 22.5,26.5 Z" id="path-1"></path>
    </defs>
    <g id="Glyphs/Nav-or-Toolbar/Keypad---Filled" stroke="none" stroke-width="1" fill="none" fill-rule="evenodd">
        <mask id="mask-2" fill="white">
            <use xlink:href="#path-1"></use>
        </mask>
        <use id="Keypad" fill="#007AFF" xlink:href="#path-1"></use>
        <g id="_Resources/Colors/Tint-1" mask="url(#mask-2)" fill="#F0EBFB">
            <rect id="Swatch" x="0" y="0" width="28" height="28"></rect>
        </g>
    </g>
</svg>