<?xml version="1.0" encoding="UTF-8"?>
<svg width="100%" viewBox="0 0 25 25" version="1.1" xmlns="http://www.w3.org/2000/svg" xmlns:xlink="http://www.w3.org/1999/xlink">
    <!-- Generator: Sketch 49.1 (51147) - http://www.bohemiancoding.com/sketch -->
    <title>Glyphs/Nav or Toolbar/Lock</title>
    <desc>Created with Sketch.</desc>
    <defs>
        <path d="M4.69306929,9.2404215 L23.3045091,9.2404215 C23.5461914,9.2404215 23.64153,9.2475337 23.8042996,9.29958761 C24.0374722,9.38446136 24.2212952,9.56828462 24.3129781,9.82144331 C24.3588602,9.98494765 24.3629565,10.0569372 24.36293,10.2892738 L24.3629291,25.4437515 C24.3629565,25.6851007 24.3588403,25.7572765 24.3236062,25.8852492 C24.3185168,25.9032798 24.3185168,25.9032798 24.3061732,25.941145 C24.2212925,26.1743013 24.0374788,26.3581149 23.7843238,26.4498013 C23.6289843,26.4952872 23.5540906,26.4997797 23.3140752,26.4997524 L4.69306929,26.4997515 C4.45160781,26.4997797 4.3794222,26.4956595 4.25142517,26.4603898 C3.96252117,26.3581202 3.77870016,26.1742924 3.68702454,25.9211531 C3.64113975,25.7576501 3.63704313,25.6856569 3.63707002,25.4533039 L3.63707094,10.2988373 C3.63704347,10.0574364 3.64116214,9.9852483 3.67642125,9.85724495 C3.68150193,9.83925236 3.68150193,9.83925236 3.69381587,9.80148028 C3.77868973,9.56829133 3.96252066,9.38446065 4.21566835,9.29279327 C4.35797059,9.24769536 4.45381821,9.2404215 4.69306929,9.2404215 Z M23.3045091,10.2404215 L4.69306929,10.2404215 C4.63709178,10.2543217 4.63706804,10.2697158 4.63707003,10.2869232 L4.63707094,25.4413324 C4.63706803,25.4705543 4.63709089,25.4859158 4.63706989,25.4997526 C4.64586608,25.4997399 10.8675391,25.4997395 23.3020891,25.4997515 C23.3322889,25.4997545 23.3484448,25.4997284 23.3629301,25.4997526 C23.3629173,25.4909242 23.3629169,25.4722572 23.3629291,25.4437515 L23.3629291,10.3012547 C23.3629321,10.2710636 23.3629064,10.2549452 23.3628556,10.2405836 C23.3459674,10.2404766 23.3266447,10.2404215 23.3045091,10.2404215 Z M14.2094438,17.297731 C14.2928639,17.2665798 14.3654902,17.2205256 14.4272573,17.1587575 C14.667013,16.919004 14.667013,16.531904 14.4272492,16.2921424 C14.309714,16.1746029 14.156585,16.1122479 13.9951648,16.1122485 C13.8328621,16.1122485 13.6776184,16.1751799 13.5606499,16.2921485 C13.3208957,16.5319032 13.3208954,16.919005 13.5606495,17.1587591 C13.622451,17.2205606 13.6969041,17.2669567 13.7840823,17.2986565 L13.9983368,17.3765639 L14.2094438,17.297731 Z M13.4568592,19.6279215 L14.5409779,19.6279215 L13.999194,18.1657154 L13.4568592,19.6279215 Z M12.8535427,17.8658659 C12.2232642,17.2355874 12.2232651,16.2153212 12.8535427,15.5850421 C13.1600083,15.2785765 13.5703177,15.1122485 13.9951631,15.1122485 C14.4196778,15.112247 14.8277464,15.2784148 15.1343609,15.5850405 C15.7646452,16.215319 15.7646452,17.235589 15.1343655,17.8658629 C15.0913338,17.9088953 15.0462327,17.9491234 14.9992318,17.9865112 L15.9779403,20.6279215 L12.019389,20.6279215 L12.9967969,17.9927011 C12.9468204,17.9536071 12.8990005,17.9113237 12.8535427,17.8658659 Z M21.3250814,9.42500743 L20.3254968,9.39618557 C20.3595709,8.21444413 20.0757784,7.0427929 19.4992625,6.00418664 C18.3502945,3.93427865 16.2105732,2.60775745 13.9110715,2.49790981 C11.6250869,2.69304151 9.58715617,4.01582036 8.47817354,6.02429182 C7.90439006,7.06346801 7.61852831,8.23702023 7.65013246,9.42366057 L6.65048694,9.45028443 C6.61414139,8.08561899 6.94288941,6.73600518 7.60275448,5.54092709 C8.87307,3.24026664 11.2074753,1.7250523 13.8914742,1.50024748 C16.6029834,1.62471777 19.0562565,3.14562552 20.3735948,5.51885889 C21.0374952,6.7148903 21.3643188,8.06419708 21.3250814,9.42500743 Z" id="path-1"></path>
    </defs>
    <g id="Glyphs/Nav-or-Toolbar/Lock" stroke="none" stroke-width="1" fill="none" fill-rule="evenodd">
        <mask id="mask-2" fill="white">
            <use xlink:href="#path-1"></use>
        </mask>
        <use id="Mask" fill="#007AFF" fill-rule="nonzero" xlink:href="#path-1"></use>
        <g id="_Resources/Colors/Tint-1" mask="url(#mask-2)" fill="#F0EBFB">
            <rect id="Swatch" x="0" y="0" width="28" height="28"></rect>
        </g>
    </g>
</svg>