<?xml version="1.0" encoding="UTF-8"?>
<svg width="100%" viewBox="0 0 25 25" version="1.1" xmlns="http://www.w3.org/2000/svg" xmlns:xlink="http://www.w3.org/1999/xlink">
    <!-- Generator: Sketch 49.1 (51147) - http://www.bohemiancoding.com/sketch -->
    <title>Glyphs/Nav or Toolbar/Lock - Filled</title>
    <desc>Created with Sketch.</desc>
    <defs>
        <path d="M6.64777119,9.2404215 C6.64873871,7.94756936 6.97673703,6.67470393 7.60275448,5.54092709 C8.87307,3.24026664 11.2074753,1.7250523 13.8914742,1.50024748 C16.6029834,1.62471777 19.0562565,3.14562552 20.3735948,5.51885889 C21.0074635,6.66078756 21.3340611,7.94243834 21.3281617,9.2404215 L23.3045091,9.2404215 C23.5461914,9.2404215 23.64153,9.2475337 23.8042996,9.29958761 C24.0374722,9.38446136 24.2212952,9.56828462 24.3129781,9.82144331 C24.3588602,9.98494765 24.3629565,10.0569372 24.36293,10.2892738 L24.3629291,25.4437515 C24.3629565,25.6851007 24.3588403,25.7572765 24.3236062,25.8852492 C24.3185168,25.9032798 24.3185168,25.9032798 24.3061732,25.941145 C24.2212925,26.1743013 24.0374788,26.3581149 23.7843238,26.4498013 C23.6289843,26.4952872 23.5540906,26.4997797 23.3140752,26.4997524 L4.69306929,26.4997515 C4.45160781,26.4997797 4.3794222,26.4956595 4.25142517,26.4603898 C3.96252117,26.3581202 3.77870016,26.1742924 3.68702454,25.9211531 C3.64113975,25.7576501 3.63704313,25.6856569 3.63707002,25.4533039 L3.63707094,10.2988373 C3.63704347,10.0574364 3.64116214,9.9852483 3.67642125,9.85724495 C3.68150193,9.83925236 3.68150193,9.83925236 3.69381587,9.80148028 C3.77868973,9.56829133 3.96252066,9.38446065 4.21566835,9.29279327 C4.35797059,9.24769536 4.45381821,9.2404215 4.69306929,9.2404215 L6.64777119,9.2404215 Z M7.6477716,9.2404215 L20.3281497,9.2404215 C20.3340567,8.11169957 20.0504372,6.99714018 19.4992625,6.00418664 C18.3502945,3.93427865 16.2105732,2.60775745 13.9110715,2.49790981 C11.6250869,2.69304151 9.58715617,4.01582036 8.47817354,6.02429182 C7.93394376,7.00994347 7.64873974,8.1164851 7.6477716,9.2404215 Z M12.8535427,17.8658659 C12.8990005,17.9113237 12.9468204,17.9536071 12.9967969,17.9927011 L12.019389,20.6279215 L15.9779403,20.6279215 L14.9992318,17.9865112 C15.0462327,17.9491234 15.0913338,17.9088953 15.1343655,17.8658629 C15.7646452,17.235589 15.7646452,16.215319 15.1343609,15.5850405 C14.8277464,15.2784148 14.4196778,15.112247 13.9951631,15.1122485 C13.5703177,15.1122485 13.1600083,15.2785765 12.8535427,15.5850421 C12.2232651,16.2153212 12.2232642,17.2355874 12.8535427,17.8658659 Z" id="path-1"></path>
    </defs>
    <g id="Glyphs/Nav-or-Toolbar/Lock---Filled" stroke="none" stroke-width="1" fill="none" fill-rule="evenodd">
        <mask id="mask-2" fill="white">
            <use xlink:href="#path-1"></use>
        </mask>
        <use id="Mask" fill="#007AFF" fill-rule="nonzero" xlink:href="#path-1"></use>
        <g id="_Resources/Colors/Tint-1" mask="url(#mask-2)" fill="#F0EBFB">
            <rect id="Swatch" x="0" y="0" width="28" height="28"></rect>
        </g>
    </g>
</svg>