<?xml version="1.0" encoding="UTF-8"?>
<svg width="100%" viewBox="0 0 25 25" version="1.1" xmlns="http://www.w3.org/2000/svg" xmlns:xlink="http://www.w3.org/1999/xlink">
    <!-- Generator: Sketch 49.1 (51147) - http://www.bohemiancoding.com/sketch -->
    <title>Glyphs/Nav or Toolbar/Loupe</title>
    <desc>Created with Sketch.</desc>
    <defs>
        <path d="M10.5,0.3125 C7.7365,0.3125 5.341,1.874 4.1375,4.1615 C2.3605,4.2225 1.057,5.1115 0.8565,6.4465 L1.9605,6.4465 C2.1405,5.745 2.7925,5.279 3.716,5.142 C3.4585,5.8815 3.312,6.673 3.312,7.5 C3.312,7.7025 3.3255,7.9015 3.3425,8.1 C1.52,8.318 0.4995,9.1725 0.4995,10.5945 C0.4995,12.155 1.761,13.15 3.5125,13.15 C4.2445,13.15 4.905,12.955 5.4445,12.608 C6.7435,13.893 8.528,14.688 10.499,14.688 C14.4685,14.688 17.6865,11.47 17.6865,7.5005 C17.6865,3.531 14.4695,0.3125 10.5,0.3125 L10.5,0.3125 Z M3.696,12.2115 C2.4925,12.2115 1.621,11.581 1.621,10.578 C1.621,9.678 2.226,9.146 3.4655,8.974 C3.7,10.099 4.1995,11.1255 4.8925,11.99 C4.532,12.1315 4.129,12.2115 3.696,12.2115 L3.696,12.2115 Z M10.5,13.6875 C7.0885,13.6875 4.3125,10.912 4.3125,7.5 C4.3125,4.088 7.0885,1.3125 10.5,1.3125 C13.9115,1.3125 16.6875,4.088 16.6875,7.5 C16.6875,10.912 13.9115,13.6875 10.5,13.6875 L10.5,13.6875 Z M12.5945,6.0615 L12.5945,12.583 C12.1675,12.7595 11.7135,12.88 11.241,12.944 L11.241,12.0125 L11.112,12.0125 C10.9205,12.384 10.673,12.71 10.3865,12.994 C9.8465,12.983 9.3245,12.8965 8.8335,12.74 C10.2255,12.285 11.177,11.116 11.177,9.692 L11.177,8.3385 L7.75,8.5855 C6.611,8.6665 5.8245,8.952 5.3565,9.43 C5.193,8.996 5.077,8.5385 5.0285,8.06 C5.6875,7.71 6.5355,7.495 7.557,7.4255 L11.177,7.189 L11.177,6.072 C11.177,4.4175 10.178,3.494 8.298,3.494 C7.4855,3.494 6.79,3.673 6.2655,3.995 C6.9335,3.1895 7.8265,2.5775 8.847,2.255 C11.248,2.423 12.5945,3.809 12.5945,6.0615 L12.5945,6.0615 Z" id="path-1"></path>
    </defs>
    <g id="Glyphs/Nav-or-Toolbar/Loupe" stroke="none" stroke-width="1" fill="none" fill-rule="evenodd">
        <g id="Loupe-Icon" transform="translate(5.000000, 6.500000)">
            <path d="M10.5,13.6875 C7.0885,13.6875 4.3125,10.912 4.3125,7.5 C4.3125,4.088 7.0885,1.3125 10.5,1.3125 C13.9115,1.3125 16.6875,4.088 16.6875,7.5 C16.6875,10.912 13.9115,13.6875 10.5,13.6875 L10.5,13.6875 Z" id="Shape" fill="#007AFF" opacity="0.25"></path>
            <mask id="mask-2" fill="white">
                <use xlink:href="#path-1"></use>
            </mask>
            <use id="Shape" fill="#007AFF" xlink:href="#path-1"></use>
            <g id="_Resources/Colors/Tint-1" mask="url(#mask-2)" fill="#F0EBFB">
                <g transform="translate(-5.000000, -6.500000)" id="Swatch">
                    <rect x="0" y="0" width="28" height="28"></rect>
                </g>
            </g>
        </g>
    </g>
</svg>