<?xml version="1.0" encoding="UTF-8"?>
<svg width="100%" viewBox="0 0 25 25" version="1.1" xmlns="http://www.w3.org/2000/svg" xmlns:xlink="http://www.w3.org/1999/xlink">
    <!-- Generator: Sketch 49.1 (51147) - http://www.bohemiancoding.com/sketch -->
    <title>Glyphs/Nav or Toolbar/Music</title>
    <desc>Created with Sketch.</desc>
    <defs>
        <path d="M21.4516628,8.05849674 C21.8594365,7.97694199 22.1900024,8.23689235 22.1900024,8.66354595 L22.1900024,17.7108288 L23.1900024,17.7108288 L23.1900024,7.71082881 L23.1900024,2.95258329 C23.1900024,2.53840784 22.8566794,2.27749342 22.4455047,2.35972837 L11.4345002,4.56192926 C11.0243472,4.64395985 10.6900024,5.0429236 10.6900024,5.45258329 L10.6900024,9.96082881 L10.6900024,19.7108288 L11.6900024,19.7108288 L11.6900024,10.7558652 C11.6900024,10.344393 12.0157605,9.94567721 12.4283421,9.86316089 L21.4516628,8.05849674 Z M7.82529044,25.6553963 C5.17077208,25.6553963 4.80999756,23.9212355 4.80999756,22.9906724 C4.80999756,22.0944054 5.63097652,20.7957544 7.1874907,20.2332559 C9.04526759,19.5618859 11.6921612,19.7108288 11.6921612,19.7108288 L11.6921611,22.290263 C11.6921611,22.4230429 11.6483507,22.634647 11.5932494,22.7554039 C11.5932494,22.7554039 10.4798088,25.6553963 7.82529044,25.6553963 Z M19.3231317,23.6553963 C16.6686133,23.6553963 16.3078388,21.9212355 16.3078388,20.9906724 C16.3078388,20.0944054 17.1288178,18.7957544 18.685332,18.2332559 C20.5431089,17.5618859 23.1900024,17.7108288 23.1900024,17.7108288 L23.1900024,20.290263 C23.1900024,20.4230429 23.1461919,20.634647 23.0910906,20.7554039 C23.0910906,20.7554039 21.9776501,23.6553963 19.3231317,23.6553963 Z" id="path-1"></path>
    </defs>
    <g id="Glyphs/Nav-or-Toolbar/Music" stroke="none" stroke-width="1" fill="none" fill-rule="evenodd">
        <mask id="mask-2" fill="white">
            <use xlink:href="#path-1"></use>
        </mask>
        <use id="Mask" fill="#007AFF" xlink:href="#path-1"></use>
        <g id="_Resources/Colors/Tint-1" mask="url(#mask-2)" fill="#F0EBFB">
            <rect id="Swatch" x="0" y="0" width="28" height="28"></rect>
        </g>
    </g>
</svg>