<?xml version="1.0" encoding="UTF-8"?>
<svg width="100%" viewBox="0 0 25 25" version="1.1" xmlns="http://www.w3.org/2000/svg" xmlns:xlink="http://www.w3.org/1999/xlink">
    <!-- Generator: Sketch 49.1 (51147) - http://www.bohemiancoding.com/sketch -->
    <title>Glyphs/Nav or Toolbar/Partly Cloudy</title>
    <desc>Created with Sketch.</desc>
    <defs>
        <path d="M10,23.5 L10,23.5 L23,23.5 C25.209139,23.5 27,21.709139 27,19.5 C27,17.4437128 25.4405178,15.7274526 23.4112844,15.520809 L22.8159047,15.4601795 L22.587967,14.9068285 C21.7458022,12.8623542 19.7491422,11.5 17.5,11.5 C14.5795724,11.5 12.1722589,13.7830561 12.0088445,16.6849403 L11.9401936,17.9040296 L10.7585419,17.5964734 C10.5133828,17.5326643 10.2592954,17.5 10,17.5 C8.34314575,17.5 7,18.8431458 7,20.5 C7,22.1568542 8.34314575,23.5 10,23.5 L10,23.5 Z M11.0104263,16.6287161 C11.0104263,16.6287161 11.1837329,15.6410189 11.1442572,15.6317689 C11.7725986,12.6989171 14.379507,10.5 17.5,10.5 C20.213898,10.5 22.5393303,12.1632191 23.5125938,14.525954 C26.0332155,14.7826374 28,16.9116351 28,19.5 C28,22.2614237 25.7614237,24.5 23,24.5 L10,24.5 C7.790861,24.5 6,22.709139 6,20.5 C6,18.290861 7.790861,16.5 10,16.5 C10.0148461,16.5241541 11.0104263,16.6287161 11.0104263,16.6287161 Z M7.75234222,6.5 C7.61297746,6.5 7.5,6.38605976 7.5,6.24422169 L7.5,3.75577831 C7.5,3.61451585 7.60701752,3.5 7.75234222,3.5 L8.24765778,3.5 C8.38702254,3.5 8.5,3.61394024 8.5,3.75577831 L8.5,6.24422169 C8.5,6.38548415 8.39298248,6.5 8.24765778,6.5 L7.75234222,6.5 Z M0,11.2523422 C0,11.1129775 0.113940239,11 0.255778313,11 L2.74422169,11 C2.88548415,11 3,11.1070175 3,11.2523422 L3,11.7476578 C3,11.8870225 2.88605976,12 2.74422169,12 L0.255778313,12 C0.114515851,12 0,11.8929825 0,11.7476578 L0,11.2523422 Z M4.2893456,8.13958659 C4.19079983,8.23813236 4.03034479,8.23745157 3.93005012,8.13715691 L2.17045494,6.37756172 C2.07056729,6.27767408 2.06526517,6.12102633 2.16802526,6.01826624 L2.51826624,5.66802526 C2.61681201,5.56947949 2.77726706,5.57016028 2.87756172,5.67045494 L4.63715691,7.43005012 C4.73704455,7.52993777 4.74234667,7.68658552 4.63958659,7.7893456 L4.2893456,8.13958659 Z M11.3604134,7.7893456 C11.2618676,7.69079983 11.2625484,7.53034479 11.3628431,7.43005012 L13.1224383,5.67045494 C13.2223259,5.57056729 13.3789737,5.56526517 13.4817338,5.66802526 L13.8319747,6.01826624 C13.9305205,6.11681201 13.9298397,6.27726706 13.8295451,6.37756172 L12.0699499,8.13715691 C11.9700622,8.23704455 11.8134145,8.24234667 11.7106544,8.13958659 L11.3604134,7.7893456 Z M2.16802526,16.9817338 C2.06947949,16.883188 2.07016028,16.7227329 2.17045494,16.6224383 L3.93005012,14.8628431 C4.02993777,14.7629555 4.18658552,14.7576533 4.2893456,14.8604134 L4.63958659,15.2106544 C4.73813236,15.3092002 4.73745157,15.4696552 4.63715691,15.5699499 L2.87756172,17.3295451 C2.77767408,17.4294327 2.62102633,17.4347348 2.51826624,17.3319747 L2.16802526,16.9817338 Z M6.91693327,15.3516403 C5.23401057,14.8793778 4,13.3337982 4,11.5 C4,9.290861 5.790861,7.5 8,7.5 C9.90171674,7.5 11.49347,8.82711163 11.8996572,10.6057324 C10.721796,11.6376318 9.83037619,12.990584 9.36383043,14.5316392 C8.5,14.5316391 7.81796359,14.8109019 6.91693327,15.3516403 Z M7.1871171,14.3888316 L7.1871171,14.3888316 L6.40235338,14.4941979 C7.52491208,13.8205129 8.3471594,13.5316391 9.3638305,13.5316392 L9.36383043,14.5316392 L8.4067301,14.2418824 C8.92209264,12.5395798 9.90788164,11.0212061 11.240693,9.85355804 L10.9247565,10.8283725 C10.6159756,9.4762764 9.40656365,8.5 8,8.5 C6.34314575,8.5 5,9.84314575 5,11.5 C5,12.8532159 5.90412799,14.0287986 7.1871171,14.3888316 L7.1871171,14.3888316 Z" id="path-1"></path>
    </defs>
    <g id="Glyphs/Nav-or-Toolbar/Partly-Cloudy" stroke="none" stroke-width="1" fill="none" fill-rule="evenodd">
        <mask id="mask-2" fill="white">
            <use xlink:href="#path-1"></use>
        </mask>
        <use id="Partly-Cloudy" fill="#007AFF" fill-rule="nonzero" xlink:href="#path-1"></use>
        <g id="_Resources/Colors/Tint-1" mask="url(#mask-2)" fill="#F0EBFB">
            <rect id="Swatch" x="0" y="0" width="28" height="28"></rect>
        </g>
    </g>
</svg>