<?xml version="1.0" encoding="UTF-8"?>
<svg width="100%" viewBox="0 0 25 25" version="1.1" xmlns="http://www.w3.org/2000/svg" xmlns:xlink="http://www.w3.org/1999/xlink">
    <!-- Generator: Sketch 49.1 (51147) - http://www.bohemiancoding.com/sketch -->
    <title>Glyphs/Nav or Toolbar/Pencil</title>
    <desc>Created with Sketch.</desc>
    <defs>
        <path d="M3.59443811,24.3708645 L4.70829367,17.9740313 L3.74324946,17.5590977 L2.41407983,25.5430452 L10.174279,24.654439 L10.0505142,23.5886148 L3.59443811,24.3708645 Z M22.6651715,10.8029771 C18.4870267,14.9513271 14.3151069,19.1048375 10.1494171,23.2635061 L4.37811828,17.5494051 L3.67454166,18.2600245 L10.1523744,24.6736571 L10.5041713,24.3223991 C14.7861121,20.0470169 19.0746381,15.7770863 23.369745,11.5126081 C23.9854091,10.9013293 24.6036009,10.2877918 25.2244324,9.67188258 L25.2909419,9.59029219 C25.549091,9.19494544 25.6428243,8.71448704 25.5522165,8.25109332 C25.4688548,7.82483595 25.2348692,7.44283222 24.8930412,7.174911 L20.753378,2.94851328 C20.4680566,2.64411279 20.0607548,2.4638902 19.6323958,2.4571497 C19.2728867,2.45149238 18.92228,2.56914546 18.6389427,2.79051918 L16.7713921,4.62894132 L17.4738259,5.34069038 L19.2979959,3.54039478 C19.3578781,3.49784118 19.4856514,3.4549643 19.6166618,3.45702591 C19.7741846,3.45950463 19.9239623,3.52577817 20.0317307,3.64068375 L24.22765,7.91856271 C24.4289523,8.08172427 24.533544,8.25248021 24.5708047,8.4430072 C24.6084408,8.63548841 24.5751486,8.83454529 24.47803,9.00374908 C23.8712593,9.60571989 23.2670075,10.2054278 22.6651715,10.8029771 Z M16.7728948,5.34216723 L22.8664048,11.3054482 L23.5658331,10.5907455 L17.4723231,4.62746447 L16.7728948,5.34216723 Z M16.8346262,4.591565 L3.67480121,17.554071 L4.37654673,18.2664987 L17.5363717,5.30399269 L16.8346262,4.591565 Z" id="path-1"></path>
    </defs>
    <g id="Glyphs/Nav-or-Toolbar/Pencil" stroke="none" stroke-width="1" fill="none" fill-rule="evenodd">
        <mask id="mask-2" fill="white">
            <use xlink:href="#path-1"></use>
        </mask>
        <use id="Pencil" fill="#007AFF" fill-rule="nonzero" xlink:href="#path-1"></use>
        <g id="_Resources/Colors/Tint-1" mask="url(#mask-2)" fill="#F0EBFB">
            <rect id="Swatch" x="0" y="0" width="28" height="28"></rect>
        </g>
    </g>
</svg>
