<?xml version="1.0" encoding="UTF-8"?>
<svg width="100%" viewBox="0 0 25 25" version="1.1" xmlns="http://www.w3.org/2000/svg" xmlns:xlink="http://www.w3.org/1999/xlink">
    <!-- Generator: Sketch 49.1 (51147) - http://www.bohemiancoding.com/sketch -->
    <title>Glyphs/Nav or Toolbar/People</title>
    <desc>Created with Sketch.</desc>
    <defs>
        <path d="M8.30709755,14.5729526 C8.29268771,14.5179866 8.29268771,14.5179866 8.27784651,14.4626599 C8.2552201,14.3786996 8.16720625,14.0609732 8.17313289,14.0825176 C8.11102913,13.8554927 8.05287966,13.6571341 8.01669471,13.5275698 C7.71608962,12.9240408 7.48608743,12.2932819 7.32849665,11.6127041 C7.17039652,10.9297216 7.09937508,10.190288 7.099391,9.34513851 C7.099391,8.23976596 7.18653957,7.38272702 7.38867257,6.67499601 C7.60093721,5.9298338 7.90016061,5.30867586 8.28433041,4.81928299 C8.67860416,4.31320866 9.13841381,3.93923988 9.66252668,3.71177355 C10.1704423,3.48984123 10.742223,3.37987225 11.3445165,3.37989131 C11.923666,3.37989131 12.4789135,3.49074536 12.9944347,3.70964728 C13.5233781,3.93372166 13.976652,4.2897447 14.3739216,4.78547327 C14.7612236,5.27017061 15.0575068,5.88753651 15.2733279,6.64613699 C15.4846135,7.38985777 15.5896255,8.29420748 15.5896156,9.34513851 C15.5896156,10.143046 15.5168008,10.8624681 15.360929,11.552505 C15.2091822,12.2199521 14.9766593,12.8559905 14.7019286,13.3946586 C14.6664154,13.5118119 14.6748421,13.4799798 14.5804976,13.8445043 C14.5543904,13.9453765 14.5346837,14.0183667 14.5134161,14.0911805 C14.501726,14.1308179 14.501726,14.1308179 14.4899978,14.1701459 C14.4792441,14.2060661 14.4792441,14.2060661 14.4685411,14.2416377 C14.3952127,14.4851874 14.3797296,14.5377145 14.3539409,14.6346057 C14.3257477,14.7398183 14.3160257,14.8196849 14.3160602,14.8901169 L14.3160602,16.3142681 C14.5682434,16.4399197 14.9061287,16.6095358 15.0327666,16.669777 C15.2450659,16.7694899 16.0232607,17.1420662 16.2099175,17.2299629 C16.3777623,17.3093959 16.5364716,17.3816527 16.8091366,17.5037789 C17.1507648,17.6567936 17.1762665,17.6682568 17.3106366,17.7297772 C17.3682121,17.7561887 17.3682121,17.7561887 17.4239462,17.7819823 C17.7008526,17.9088857 18.6412254,18.3308201 18.5820583,18.304127 C18.8140264,18.405937 19.484545,18.7094854 19.5574267,18.7418389 C19.7809464,18.8398687 19.8633085,18.8720625 20.2690996,19.0254578 C20.7430065,19.2083069 21.1309529,19.4801919 21.4198625,19.8453803 C21.6854362,20.1794241 21.8982292,20.5285291 22.05073,20.8807709 C22.2266877,21.2719024 22.3540401,21.6987902 22.4451262,22.2445043 L22.4451262,24.6201087 L0,24.6201087 L0,24.1414688 L0.00957115236,22.1492642 C0.0970308693,21.7185145 0.236852661,21.2914586 0.418781396,20.8869135 C0.573580587,20.5294967 0.785933261,20.181299 1.05152418,19.8464468 C1.34289336,19.47781 1.71472607,19.2076872 2.18809562,19.0209883 C2.54485711,18.8942448 2.67860244,18.8440341 2.92007999,18.7395602 C3.06074272,18.6798745 3.21614675,18.6119554 3.41379264,18.5241101 C3.5319287,18.4716035 3.68182382,18.4045362 3.9673523,18.2767745 C4.56987671,18.005554 4.83049016,17.8873567 5.18198418,17.7244299 C5.35611592,17.6437603 5.41376992,17.6174648 5.82719612,17.429537 C6.10821647,17.3017958 6.27582801,17.2249177 6.45362184,17.1416413 C6.52978805,17.1059462 6.60803223,17.0685274 6.69114061,17.0281268 C6.78903425,16.9805387 7.45320498,16.6493742 7.64332846,16.5591669 C7.7687159,16.4994983 8.11665046,16.3390783 8.37294536,16.2201112 L8.37294536,14.8788374 C8.35554612,14.7935957 8.32347472,14.6389983 8.30709755,14.5729526 Z M21.4955153,22.329841 C21.4253964,21.9428568 21.3201827,21.5901787 21.1750088,21.2673606 C21.0541625,20.9883275 20.8851704,20.7110816 20.6698267,20.4402159 C20.4916301,20.2149726 20.2453025,20.0423385 19.9275711,19.9197351 C19.5079778,19.7611347 19.4174995,19.7257685 19.1710078,19.6176588 C19.0911156,19.5821987 18.4230676,19.2797687 18.1926814,19.1786235 C18.2503197,19.2046559 17.3061268,18.7810074 17.023127,18.6513059 C16.9677152,18.6256648 16.9677152,18.6256648 16.9121339,18.6001679 C16.7812941,18.5402638 16.7561713,18.528971 16.4178303,18.3774285 C16.139444,18.2527398 15.9759162,18.1782893 15.8012587,18.0956311 C15.6115284,18.0062882 14.8340553,17.6340573 14.6348391,17.5405468 C14.4183076,17.4375519 13.7615427,17.1054284 13.6331475,17.0448369 L13.3587806,16.9153595 L13.3587806,16.6119759 L13.3587806,14.8903521 C13.3587063,14.7391635 13.3785474,14.5761686 13.4290745,14.387612 C13.4584901,14.277091 13.4748564,14.2215676 13.5519069,13.9656557 C13.5624145,13.9307331 13.5624145,13.9307331 13.5727928,13.8960665 C13.5840099,13.8584519 13.5840099,13.8584519 13.5947524,13.8220324 C13.6124723,13.7613629 13.6299097,13.6967776 13.653754,13.6046489 C13.7534383,13.2194929 13.7445236,13.2531682 13.8151343,13.0430144 C14.0866071,12.4960446 14.2931542,11.93106 14.427323,11.3409303 C14.5666287,10.7242288 14.6323359,10.0750313 14.6323359,9.34513397 C14.6323451,8.3767601 14.5373066,7.55830168 14.3525364,6.90791418 C14.1694395,6.26433769 13.9275922,5.76040004 13.6264931,5.38358232 C13.3254381,5.00791475 12.9981715,4.75086396 12.6206576,4.59093889 C12.2242365,4.4226097 11.7962898,4.337171 11.3445014,4.337171 C10.86935,4.33715596 10.4277394,4.42208968 10.0447303,4.58944286 C9.67422846,4.75024272 9.33958238,5.02241444 9.0384037,5.40899038 C8.73484971,5.79569108 8.48931809,6.30539024 8.30923706,6.93757038 C8.1354843,7.54593365 8.05667068,8.32100472 8.05667068,9.34514752 C8.05665605,10.1223304 8.12088293,10.7910229 8.26110797,11.3967862 C8.40142343,12.0027581 8.60570973,12.5629937 8.90062877,13.1671412 C8.96881589,13.3783796 9.0308601,13.5900239 9.09630948,13.8292807 C9.08936375,13.8040296 9.17849766,14.1257995 9.20215077,14.2135694 C9.2179191,14.2723509 9.2179191,14.2723509 9.23482879,14.3370083 C9.26588226,14.4620716 9.32417896,14.7514517 9.31833911,14.7257378 L9.33022505,14.831742 L9.33022505,16.8246755 L9.05990127,16.9553529 C8.90584329,17.0298262 8.23095585,17.3396743 8.05417647,17.4237986 C7.87378043,17.5093909 7.21532591,17.8377052 7.10966267,17.8890702 C7.02265254,17.9313676 6.94035356,17.9707255 6.85975834,18.0084962 C6.67772248,18.0937595 6.50744869,18.1718588 6.22333319,18.3010069 C5.81256275,18.4877275 5.75548817,18.5137588 5.58447032,18.5929858 C5.2288166,18.7578407 4.96600649,18.8770343 4.35899751,19.1502711 C4.07325087,19.2781325 3.92200555,19.345804 3.80259086,19.3988788 C3.60042396,19.4887336 3.44044793,19.5586509 3.29711665,19.6194558 C3.03304656,19.7337185 2.88492161,19.7893276 2.52419395,19.917171 C2.22019091,20.0372722 1.98698561,20.2066873 1.80203537,20.440683 C1.5864375,20.7125058 1.41767518,20.9892277 1.29454575,21.2734074 C1.13842722,21.6206551 1.02071314,21.9801878 0.957279685,22.2445043 L0.957279685,23.662829 L21.4898726,23.662829 L21.4955153,22.329841 Z M17.5200573,13.5223608 C17.5072764,13.4732873 17.4942099,13.4276488 17.4640514,13.3252193 C17.438393,13.23811 17.4266604,13.1976331 17.413207,13.1487423 C17.4003873,13.1026519 17.4003873,13.1026519 17.3867914,13.0563741 C17.3636299,12.9784432 17.3717773,13.0039358 17.3109131,12.79793 C17.0989631,12.3723016 16.9331551,11.9007917 16.812409,11.3791975 C16.6940603,10.8677704 16.6375018,10.3037773 16.6375018,9.69536044 C16.6374816,8.93360376 16.7153889,8.27598864 16.8725867,7.72563371 C17.0379413,7.14509941 17.2449272,6.69291237 17.5244049,6.33681965 C17.8226024,5.95414013 18.1773646,5.66560107 18.5774209,5.49199949 C18.9601473,5.32477645 19.3693118,5.24767225 19.8258366,5.24767225 C20.2695218,5.24770866 20.6856207,5.32694733 21.0693062,5.4898714 C21.4770046,5.66256969 21.8263864,5.93217993 22.1236639,6.3030679 C22.4195367,6.67338891 22.6481077,7.14072706 22.8062667,7.69676243 C22.9627193,8.24746586 23.0412625,8.92388873 23.0412625,9.69537335 C23.041232,10.2676021 22.984317,10.7985853 22.8667664,11.3190372 C22.7505701,11.8300928 22.5820854,12.3079818 22.3974481,12.6650696 C22.3727046,12.7466869 22.3692533,12.7595574 22.3142322,12.9702706 C22.294051,13.0475582 22.2794904,13.1012504 22.2631541,13.1572122 C22.2470877,13.2130469 22.2470877,13.2130469 22.2311132,13.2722321 C22.2178943,13.3217819 22.1693196,13.5117108 22.1578585,13.5547566 C22.1295261,13.6605257 22.119967,13.7044627 22.119967,13.6935652 L22.119967,14.6467687 C22.2972692,14.7317989 22.5018057,14.8300471 22.5763874,14.8654404 C22.7188288,14.9323258 22.8645686,15.0040332 23.1481877,15.1445524 C23.2510536,15.1951047 23.3353748,15.2358715 23.4177085,15.2746382 C23.5788883,15.3509871 23.5788883,15.3509871 23.7384007,15.4265689 C23.7946619,15.4532016 23.7946619,15.4532016 23.8509084,15.4797902 C24.0136868,15.5567038 24.1490767,15.6202211 24.2795266,15.6807523 C24.4863514,15.7755726 25.2780711,16.1317326 25.112339,16.0569161 C24.9613908,15.9906984 25.6949343,16.3118841 25.8440364,16.3779779 C25.9992155,16.4460882 25.9620164,16.4316788 26.3388697,16.5740223 C26.6937115,16.7109884 26.9897685,16.929309 27.2185361,17.2187429 C27.4152904,17.466126 27.571235,17.724396 27.6868616,17.9914711 C27.8301288,18.3097864 27.9346705,18.6306622 28,19.0342573 L28,20.8845449 L23.4612814,20.8845449 L23.3538461,20.5537584 C23.2834856,20.3371225 23.1772085,20.1100953 23.0470543,19.8944837 C22.842452,19.5555593 22.6058626,19.2873328 22.3444148,19.1068001 C22.2187184,19.0198017 22.0882595,18.9494431 21.9302694,18.8859763 C21.6415674,18.7541568 21.3650821,18.6339524 20.9398355,18.4535591 C20.7997628,18.3942413 20.6497496,18.329961 20.4743513,18.2542271 C20.4354556,18.2374273 20.4354556,18.2374273 20.3966004,18.2206257 C20.1897952,18.1310568 20.1897952,18.1310568 19.9877264,18.0433876 C19.4177075,17.796288 18.8819457,17.5424497 18.3796303,17.2804172 C18.203087,17.1993471 18.027574,17.1198323 17.7722682,17.0049414 C17.7121097,16.9778751 17.7121097,16.9778751 17.651888,16.9507934 C17.3243644,16.8035109 17.1990592,16.7469836 17.02601,16.6681047 C16.8765586,16.599981 16.7760376,16.554342 16.5268655,16.4414177 C16.4914853,16.4253925 16.4914853,16.4253925 16.4560944,16.4093661 C16.2274073,16.305844 16.2274073,16.305844 15.9972401,16.2015803 L15.0476207,15.771135 L15.9930696,15.331605 C16.0510337,15.3043132 16.0510337,15.3043132 16.1082776,15.2765556 C16.1689356,15.2470994 16.1689356,15.2470994 16.2355921,15.2155064 C16.5636741,15.0617368 16.8430553,14.9301236 17.1000796,14.8081563 C17.2797174,14.722633 17.4293966,14.6512098 17.5587973,14.5892188 L17.5587973,13.7096992 C17.5479237,13.6534319 17.5292869,13.559638 17.5200573,13.5223608 Z M27.0503877,19.1195862 C27.0074816,18.8827664 26.9268342,18.6352307 26.8111818,18.3781534 C26.7266146,18.182908 26.6143035,17.9969024 26.4684258,17.8134839 C26.3449102,17.6572154 26.1891366,17.5423437 25.9973993,17.4683211 C25.6022389,17.3190768 25.6371188,17.3325878 25.457709,17.2538389 C25.3093318,17.1880699 24.5793462,16.868442 24.7230553,16.9314536 C24.887338,17.0056461 24.0910485,16.6474304 23.8786042,16.5500284 C23.7438976,16.4875276 23.6065834,16.4231075 23.4419439,16.3453146 C23.3852825,16.3185298 23.3852825,16.3185298 23.3287367,16.2917624 C23.1687753,16.2159679 23.1687753,16.2159679 23.0090597,16.1403111 C22.9221023,16.0993685 22.833244,16.0564081 22.7259735,16.0036912 C22.4392598,15.8616791 22.3027268,15.7945018 22.1677516,15.7311179 C22.0371212,15.6691306 21.5465212,15.4329819 21.4371199,15.3813743 L21.1626873,15.2519168 L21.1626873,13.6935652 C21.1626873,13.5835301 21.178108,13.5126514 21.2329913,13.3077657 C21.242631,13.2715588 21.2912852,13.081319 21.3061822,13.0254791 C21.324596,12.9572294 21.324596,12.9572294 21.3444469,12.8882122 C21.3574542,12.8436528 21.3699435,12.7975983 21.3880082,12.7284164 C21.4471695,12.5018476 21.4513233,12.4863572 21.5106702,12.3133872 C21.6904728,11.9511697 21.8336917,11.5449445 21.9331589,11.1074693 C22.0346134,10.6582808 22.083956,10.1979428 22.0839828,9.69534779 C22.0839828,9.00644668 22.0154124,8.41591096 21.8854684,7.9585161 C21.7604886,7.51912765 21.5877113,7.16586584 21.3762441,6.90118781 C21.1767699,6.65232139 20.9546751,6.48093569 20.695539,6.37116723 C20.4337912,6.26002159 20.1447463,6.20497811 19.8257974,6.20495194 C19.4954682,6.20495194 19.216151,6.25758731 18.9595949,6.36968164 C18.713155,6.47662351 18.4835354,6.66338017 18.2784774,6.92652819 C18.0846122,7.17354228 17.9273167,7.51717417 17.7931516,7.98820696 C17.6624017,8.44596698 17.5947635,9.01690072 17.5947815,9.69534779 C17.5947815,10.2349481 17.6441746,10.7274892 17.7450343,11.16334 C17.8493242,11.6138477 17.9902697,12.0146557 18.194867,12.4375425 C18.2868156,12.7223997 18.2779776,12.6947464 18.3044017,12.7836551 C18.3206762,12.8390449 18.3206762,12.8390449 18.3363385,12.8953408 C18.3475903,12.9362297 18.3574262,12.9701629 18.3819819,13.0535769 C18.4154351,13.1671962 18.4302195,13.2188348 18.4477947,13.2864431 C18.470022,13.376011 18.509169,13.5802004 18.5042374,13.5586005 L18.516077,13.6643873 L18.516077,15.1903477 L18.2457813,15.3210332 C18.0591433,15.411271 17.8328868,15.5195077 17.5110271,15.6727406 C17.4532377,15.7001639 17.3943724,15.7280495 17.3341307,15.7565403 C17.3628359,15.7696065 17.391889,15.7828418 17.4230562,15.7970486 C17.5940951,15.8750112 17.7185053,15.9311348 18.0444932,16.0777267 C18.1047743,16.1048351 18.1047743,16.1048351 18.1651113,16.1319817 C18.4224517,16.2477882 18.5998908,16.3281755 18.8003091,16.4208494 C19.3032079,16.6825298 19.8186228,16.9267279 20.3685204,17.165105 C20.5708216,17.2528748 20.5708216,17.2528748 20.7766227,17.342009 C20.8152246,17.358701 20.8152246,17.358701 20.853825,17.3753733 C21.0273255,17.4502877 21.1753749,17.5137266 21.3134029,17.5721786 C21.746237,17.7557904 22.0296005,17.8789852 22.3059382,18.0058123 C22.5101611,18.087025 22.7045934,18.1918856 22.888782,18.3193685 C23.2710803,18.5833494 23.5963541,18.9521193 23.8665863,19.3997599 C23.9697616,19.5706785 24.0616677,19.7481739 24.1390071,19.9272652 L27.0455733,19.9272652 L27.0503877,19.1195862 Z" id="path-1"></path>
    </defs>
    <g id="Glyphs/Nav-or-Toolbar/People" stroke="none" stroke-width="1" fill="none" fill-rule="evenodd">
        <mask id="mask-2" fill="white">
            <use xlink:href="#path-1"></use>
        </mask>
        <use id="Mask" fill="#007AFF" fill-rule="nonzero" xlink:href="#path-1"></use>
        <g id="_Resources/Colors/Tint-1" mask="url(#mask-2)" fill="#F0EBFB">
            <rect id="Swatch" x="0" y="0" width="28" height="28"></rect>
        </g>
    </g>
</svg>