<?xml version="1.0" encoding="UTF-8"?>
<svg width="100%" viewBox="0 0 25 25" version="1.1" xmlns="http://www.w3.org/2000/svg" xmlns:xlink="http://www.w3.org/1999/xlink">
    <!-- Generator: Sketch 49.1 (51147) - http://www.bohemiancoding.com/sketch -->
    <title>Glyphs/Nav or Toolbar/Person</title>
    <desc>Created with Sketch.</desc>
    <defs>
        <path d="M26.080698,23.0476088 C26.0033895,22.6518046 25.8769948,22.2741297 25.6982204,21.9055404 C25.5574264,21.6041996 25.3620421,21.3079428 25.1072677,21.010996 C24.885721,20.7511863 24.5930136,20.5556428 24.2225547,20.4231309 C23.9863395,20.3404583 23.6956445,20.2294102 23.3572685,20.0918324 C23.056911,19.9684203 22.7360463,19.8375265 22.191384,19.6159439 C22.0601819,19.5610247 21.5950729,19.3669478 21.526097,19.3381185 C21.2536391,19.2242415 21.0361141,19.132773 20.8191819,19.0406263 C20.7400672,19.0066031 20.2470121,18.7949071 20.1042907,18.7334618 C19.8299153,18.6153358 19.6069407,18.518656 19.3942949,18.4253919 C18.7193446,18.1308367 18.399859,17.9915089 18.026873,17.8291848 C17.6607386,17.6685793 17.3744664,17.543242 16.8481612,17.3129911 L16.548565,17.1819221 L16.548565,14.96759 C16.548565,14.8235399 16.5836194,14.645137 16.6494881,14.4170485 C16.7049696,14.2238994 16.7657529,14.0228918 16.8312836,13.8160465 C16.9221258,13.5279119 16.9971446,13.2933143 17.1094795,12.9746242 C17.4023725,12.4276376 17.6326607,11.8145194 17.8001352,11.1316436 C17.9675284,10.4445839 18.051325,9.71933829 18.051325,8.952222 C18.051325,7.89705012 17.9420594,7.0172835 17.7264378,6.31730779 C17.5126859,5.62062775 17.2265277,5.06876282 16.8717134,4.65720319 C16.519112,4.24938184 16.1178927,3.95998622 15.6595359,3.77998639 C15.1854051,3.59338786 14.6794793,3.5 14.137355,3.5 C13.5842157,3.5 13.0731511,3.59559786 12.6011915,3.78675109 C12.1448025,3.97032411 11.7459365,4.26505182 11.3982134,4.67872985 C11.0458704,5.0948903 10.7611497,5.64808006 10.5480907,6.34132413 C10.3322776,7.04163603 10.222223,7.91314222 10.222223,8.952222 C10.222223,9.7360366 10.3098346,10.47918 10.4831953,11.1777334 C10.6573021,11.874846 10.8905788,12.4941467 11.2141232,13.1094528 C11.3096278,13.3838659 11.3856868,13.6162831 11.4470643,13.8241408 C11.4925083,13.9772739 11.5158108,14.0592959 11.6055261,14.3789171 C11.6708949,14.6212888 11.6956315,14.7137706 11.7129526,14.7845035 L11.727302,14.90343 L11.727302,17.0667047 L11.4317875,17.1991437 C11.1433052,17.3284311 10.8496719,17.4584367 10.2634142,17.7169497 C10.0646387,17.804373 9.85571169,17.8954716 9.57803088,18.0159756 C9.22272269,18.1700203 9.01029722,18.2621019 8.85403804,18.3299863 C8.4162176,18.520183 7.96790965,18.7134531 7.35748091,18.9755503 C6.88162266,19.1798675 6.40538576,19.3809823 5.92010106,19.5829286 C5.41869351,19.7909903 5.02751578,19.9502018 4.68663431,20.0842128 C4.32351756,20.2299253 4.01256534,20.3454277 3.78301961,20.4207194 C3.41921127,20.5539209 3.13083125,20.7495233 2.90737495,21.0115725 C2.65214455,21.3099659 2.45712084,21.6054528 2.31376296,21.912156 C2.14453821,22.2609268 2.01623941,22.6252208 1.928575,23.0071182 L1.928575,24.5 L26.0737998,24.5 L26.080698,23.0476088 Z M10.6411597,14.6434176 C10.5545389,14.3349526 10.5318752,14.2551793 10.4881955,14.1079897 C10.4317217,13.91674 10.360368,13.698701 10.3014632,13.5104665 C9.96899713,12.8917396 9.70653358,12.194954 9.51281672,11.4193216 C9.31936352,10.6398085 9.222223,9.81583828 9.222223,8.952222 C9.222223,7.81983961 9.3445345,6.8512733 9.59232764,6.04718669 C9.8428547,5.23202957 10.189174,4.5591587 10.6338661,4.03392751 C11.0839659,3.49844797 11.6164734,3.10497066 12.2269044,2.85943899 C12.8194591,2.61944031 13.4579852,2.5 14.137355,2.5 C14.803197,2.5 15.4333854,2.61632524 16.0254104,2.84932229 C16.6371476,3.08955544 17.1715165,3.47499056 17.6286399,4.00370352 C18.0807863,4.52816065 18.4303438,5.20229315 18.6822875,6.02345242 C18.9300631,6.82780883 19.051325,7.80416523 19.051325,8.952222 C19.051325,9.79765457 18.9583541,10.6023019 18.7715344,11.3690947 C18.5844259,12.1320306 18.3246353,12.8236958 18.0254808,13.3661169 C17.9488518,13.6003489 17.8748586,13.8317393 17.7847968,14.1173969 C17.7217453,14.3164181 17.6635736,14.5087894 17.6104256,14.693813 C17.5684405,14.8391992 17.548565,14.9403519 17.548565,14.96759 L17.548565,16.5279125 C17.8978247,16.6807486 18.1378276,16.785878 18.4272472,16.9128342 C18.7993172,17.0747574 19.1190159,17.2141781 19.7951112,17.5092339 C20.0062305,17.6018276 20.2272567,17.6976626 20.4997268,17.8149682 C20.6418919,17.8761742 21.1346917,18.0877605 21.2121866,18.1210926 C21.4250222,18.2114938 21.6408966,18.3022682 21.9117305,18.4154665 C21.9802269,18.4440954 22.445679,18.6383155 22.5728423,18.6915716 C23.1138716,18.911649 23.4355735,19.0428843 23.7356115,19.1661687 C24.0578944,19.2971998 24.3334869,19.4024787 24.5561105,19.4804067 C25.089693,19.6712496 25.5296878,19.9651885 25.8671943,20.3609889 C26.1781115,20.7233673 26.4234629,21.0953881 26.6010626,21.4756308 C26.8143111,21.9151508 26.9682397,22.3750985 27.071425,22.95176 L27.071425,25.5 L0.928575,25.5 L0.928575,22.95176 L0.940157519,22.844763 C1.04479251,22.3671277 1.20282016,21.9110168 1.41092354,21.4822406 C1.59104784,21.096719 1.83571585,20.7260144 2.14695215,20.3621446 C2.48440907,19.9664045 2.91735066,19.6727489 3.45474886,19.476279 C3.67758758,19.4029106 3.96936412,19.2945309 4.31747383,19.1548538 C4.65483587,19.0222132 5.04069955,18.8651646 5.53636636,18.6594853 C6.01783762,18.4591257 6.49064423,18.2594595 6.96294509,18.0566697 C7.57218129,17.7950846 8.01932313,17.6023172 8.45558723,17.4127966 C8.61228655,17.344721 8.82518981,17.2524322 9.17993487,17.0986319 C9.45624398,16.9787231 9.66381182,16.8882172 9.86038273,16.8017637 C10.2516467,16.6292339 10.512029,16.5141817 10.727302,16.4184804 L10.727302,14.9656614 C10.7120455,14.9068421 10.6878496,14.816727 10.6411597,14.6434176 Z" id="path-1"></path>
    </defs>
    <g id="Glyphs/Nav-or-Toolbar/Person" stroke="none" stroke-width="1" fill="none" fill-rule="evenodd">
        <mask id="mask-2" fill="white">
            <use xlink:href="#path-1"></use>
        </mask>
        <use id="Mask" fill="#007AFF" fill-rule="nonzero" xlink:href="#path-1"></use>
        <g id="_Resources/Colors/Tint-1" mask="url(#mask-2)" fill="#F0EBFB">
            <rect id="Swatch" x="0" y="0" width="28" height="28"></rect>
        </g>
    </g>
</svg>