<?xml version="1.0" encoding="UTF-8"?>
<svg width="100%" viewBox="0 0 25 25" version="1.1" xmlns="http://www.w3.org/2000/svg" xmlns:xlink="http://www.w3.org/1999/xlink">
    <!-- Generator: Sketch 49.1 (51147) - http://www.bohemiancoding.com/sketch -->
    <title>Glyphs/Nav or Toolbar/Person - Filled</title>
    <desc>Created with Sketch.</desc>
    <defs>
        <path d="M10.6411597,14.6434176 C10.5545389,14.3349526 10.5318752,14.2551793 10.4881955,14.1079897 C10.4317217,13.91674 10.360368,13.698701 10.3014632,13.5104665 C9.96899713,12.8917396 9.70653358,12.194954 9.51281672,11.4193216 C9.31936352,10.6398085 9.222223,9.81583828 9.222223,8.952222 C9.222223,7.81983961 9.3445345,6.8512733 9.59232764,6.04718669 C9.8428547,5.23202957 10.189174,4.5591587 10.6338661,4.03392751 C11.0839659,3.49844797 11.6164734,3.10497066 12.2269044,2.85943899 C12.8194591,2.61944031 13.4579852,2.5 14.137355,2.5 C14.803197,2.5 15.4333854,2.61632524 16.0254104,2.84932229 C16.6371476,3.08955544 17.1715165,3.47499056 17.6286399,4.00370352 C18.0807863,4.52816065 18.4303438,5.20229315 18.6822875,6.02345242 C18.9300631,6.82780883 19.051325,7.80416523 19.051325,8.952222 C19.051325,9.79765457 18.9583541,10.6023019 18.7715344,11.3690947 C18.5844259,12.1320306 18.3246353,12.8236958 18.0254808,13.3661169 C17.9488518,13.6003489 17.8748586,13.8317393 17.7847968,14.1173969 C17.7217453,14.3164181 17.6635736,14.5087894 17.6104256,14.693813 C17.5684405,14.8391992 17.548565,14.9403519 17.548565,14.96759 L17.548565,16.5279125 C17.8978247,16.6807486 18.1378276,16.785878 18.4272472,16.9128342 C18.7993172,17.0747574 19.1190159,17.2141781 19.7951112,17.5092339 C20.0062305,17.6018276 20.2272567,17.6976626 20.4997268,17.8149682 C20.6418919,17.8761742 21.1346917,18.0877605 21.2121866,18.1210926 C21.4250222,18.2114938 21.6408966,18.3022682 21.9117305,18.4154665 C21.9802269,18.4440954 22.445679,18.6383155 22.5728423,18.6915716 C23.1138716,18.911649 23.4355735,19.0428843 23.7356115,19.1661687 C24.0578944,19.2971998 24.3334869,19.4024787 24.5561105,19.4804067 C25.089693,19.6712496 25.5296878,19.9651885 25.8671943,20.3609889 C26.1781115,20.7233673 26.4234629,21.0953881 26.6010626,21.4756308 C26.8143111,21.9151508 26.9682397,22.3750985 27.071425,22.95176 L27.071425,25.5 L0.928575,25.5 L0.928575,22.95176 L0.940157519,22.844763 C1.04479251,22.3671277 1.20282016,21.9110168 1.41092354,21.4822406 C1.59104784,21.096719 1.83571585,20.7260144 2.14695215,20.3621446 C2.48440907,19.9664045 2.91735066,19.6727489 3.45474886,19.476279 C3.67758758,19.4029106 3.96936412,19.2945309 4.31747383,19.1548538 C4.65483587,19.0222132 5.04069955,18.8651646 5.53636636,18.6594853 C6.01783762,18.4591257 6.49064423,18.2594595 6.96294509,18.0566697 C7.57218129,17.7950846 8.01932313,17.6023172 8.45558723,17.4127966 C8.61228655,17.344721 8.82518981,17.2524322 9.17993487,17.0986319 C9.45624398,16.9787231 9.66381182,16.8882172 9.86038273,16.8017637 C10.2516467,16.6292339 10.512029,16.5141817 10.727302,16.4184804 L10.727302,14.9656614 C10.7120455,14.9068421 10.6878496,14.816727 10.6411597,14.6434176 Z" id="path-1"></path>
    </defs>
    <g id="Glyphs/Nav-or-Toolbar/Person---Filled" stroke="none" stroke-width="1" fill="none" fill-rule="evenodd">
        <mask id="mask-2" fill="white">
            <use xlink:href="#path-1"></use>
        </mask>
        <use id="Mask" fill="#007AFF" fill-rule="nonzero" xlink:href="#path-1"></use>
        <g id="_Resources/Colors/Tint-1" mask="url(#mask-2)" fill="#F0EBFB">
            <rect id="Swatch" x="0" y="0" width="28" height="28"></rect>
        </g>
    </g>
</svg>