<?xml version="1.0" encoding="UTF-8"?>
<svg width="100%" viewBox="0 0 25 25" version="1.1" xmlns="http://www.w3.org/2000/svg" xmlns:xlink="http://www.w3.org/1999/xlink">
    <!-- Generator: Sketch 49.1 (51147) - http://www.bohemiancoding.com/sketch -->
    <title>Glyphs/Nav or Toolbar/Pin Alt</title>
    <desc>Created with Sketch.</desc>
    <defs>
        <path d="M8.57098154,7.58807002 L8.57098154,7.58807002 C8.27368169,7.6266361 7.97831489,7.64066621 7.6895,7.6215 C7.3675,7.6005 7.0855,7.5315 6.8195,7.4445 L8.25338576,6.61674629 C8.43418643,6.60139348 8.62548927,6.57277079 8.82754072,6.53110608 L9.6352069,6.36455851 L9.95251199,7.12572881 L12.933512,14.2767288 L13.1763103,14.8591678 L12.7550918,15.32902 C12.2606688,15.8805291 11.8887847,16.412347 11.6415584,16.9369089 C11.61175,16.9999599 11.5838833,17.0633194 11.5577323,17.1275248 L10.3175,17.8465 C10.4015,17.4105 10.5205,16.9685 10.7375,16.5095 C10.7511349,16.4805694 10.7650335,16.4517267 10.7791891,16.4229719 L13.8179696,14.66136 L14.5782616,14.220611 L15.1130364,14.9179772 L19.8186271,21.054243 L21.129268,24.3448716 L21.0962466,24.3636304 L18.9408372,21.5528962 L16.0904903,14.3965248 L15.7735258,13.6007213 L16.5112193,13.1653157 L19.4243766,11.4458961 C19.4487842,11.4476072 19.4731592,11.4494744 19.4975,11.4515 C20.0035,11.4935 20.4455,11.6115 20.8655,11.7565 L19.6486017,12.4747444 C19.5709396,12.4634428 19.4932153,12.4545833 19.4145689,12.4480553 C18.8430103,12.4004915 18.202137,12.4551949 17.4892454,12.6043153 L16.8623189,12.7354537 L16.4810156,12.2208258 L11.8450156,5.96382582 L11.3738839,5.32796067 L11.8844701,4.72331918 C11.991256,4.59686222 12.0860553,4.47479101 12.1692699,4.35618435 L13.6065,3.5265 C13.5485,3.8005 13.4675,4.0785 13.3245,4.3685 C13.1960669,4.62905678 13.0338548,4.87817228 12.8507323,5.11745509 L8.57098154,7.58807002 Z M6.8195,7.4445 L6.8195,7.4445 L13.6065,3.5265 C13.5485,3.8005 13.4675,4.0785 13.3245,4.3685 C13.1505,4.7215 12.9145,5.0535 12.6485,5.3685 L17.2845,11.6255 C18.0255,11.4705 18.7765,11.3915 19.4975,11.4515 C20.0035,11.4935 20.4455,11.6115 20.8655,11.7565 L17.0195122,14.0265 L21.1805,24.4735 L14.3195,15.5265 L10.3175,17.8465 C10.4015,17.4105 10.5205,16.9685 10.7375,16.5095 C11.0495,15.8475 11.4995,15.2315 12.0105,14.6615 L9.0295,7.5105 C8.5785,7.6035 8.1265,7.6505 7.6895,7.6215 C7.3675,7.6005 7.0855,7.5315 6.8195,7.4445 L6.8195,7.4445 Z" id="path-1"></path>
    </defs>
    <g id="Glyphs/Nav-or-Toolbar/Pin-Alt" stroke="none" stroke-width="1" fill="none" fill-rule="evenodd">
        <mask id="mask-2" fill="white">
            <use xlink:href="#path-1"></use>
        </mask>
        <use id="Pin" fill="#007AFF" fill-rule="nonzero" xlink:href="#path-1"></use>
        <g id="_Resources/Colors/Tint-1" mask="url(#mask-2)" fill="#F0EBFB">
            <rect id="Swatch" x="0" y="0" width="28" height="28"></rect>
        </g>
    </g>
</svg>