<?xml version="1.0" encoding="UTF-8"?>
<svg width="100%" viewBox="0 0 25 25" version="1.1" xmlns="http://www.w3.org/2000/svg" xmlns:xlink="http://www.w3.org/1999/xlink">
    <!-- Generator: Sketch 49.1 (51147) - http://www.bohemiancoding.com/sketch -->
    <title>Glyphs/Nav or Toolbar/Plane</title>
    <desc>Created with Sketch.</desc>
    <defs>
        <path d="M17.205211,13.2128277 L17.4211242,13.8396351 C17.7506266,14.7934725 18.0632313,15.7520085 18.3617548,16.7152433 C19.030147,18.8728891 19.6290714,21.0841002 20.1463243,23.2981306 C20.3932164,23.0979657 20.6419859,22.90062 20.892633,22.7070333 C21.0156096,22.6111797 21.1385863,22.5153261 21.1686264,22.4345084 C21.1958502,22.3593291 21.1723814,22.2155487 21.1489126,22.076467 C21.0437722,21.4440211 20.9583457,20.8096958 20.8804292,20.1744307 C20.8119002,19.6115257 20.748065,19.047681 20.6851686,18.4838363 C20.6063133,17.7752714 20.5274581,17.0676462 20.4354603,16.3609608 C20.35285,15.7097202 20.2570972,15.0594192 20.1622831,14.4091183 L20.0280414,13.4721963 C19.8881672,12.4826488 19.7614356,11.4912218 19.6450302,10.4988551 L19.6159289,10.2479442 L19.8083732,10.0853689 C20.4917854,9.50742807 21.1498513,8.88625912 21.7637958,8.23971716 C22.3974541,7.57438037 22.9991948,6.86769497 23.5539979,6.13845578 C23.6779133,5.9223153 23.8018287,5.64039293 23.8928877,5.34625392 C23.9886405,5.03425984 24.0430882,4.70722989 24.0562308,4.37644098 C24.0646795,4.28528608 24.0599858,4.22514264 24.0430882,4.16687869 C24.0280682,4.10673525 24.0036606,4.0578687 23.9736205,4.02309828 C23.9257441,3.96671381 23.8365625,3.94228053 23.7802374,3.94040105 C23.5896705,3.9620151 23.4160012,3.95731639 23.2489031,3.9939663 C23.0893151,4.02967647 22.9325434,4.08230198 22.7785879,4.14056593 C22.5091657,4.24205798 22.2500699,4.36046538 21.9994228,4.49672786 C21.200544,5.0492957 20.3631763,5.66764542 19.5549099,6.30666946 C18.7851324,6.91656151 18.0247425,7.55840477 17.2962701,8.21434414 L17.1366821,8.35812455 L5.93266451,6.93253711 C5.83409544,6.91374229 5.76838272,6.90528462 5.70454752,6.89964617 C5.68858871,6.89776669 5.63226353,6.89306798 5.60316219,6.89870643 L5.5749996,6.96260883 L5.45765547,7.07255855 L4.72824435,7.93430126 C6.9324365,8.42860514 9.13099612,9.02628056 11.2779243,9.7132314 C12.2316974,10.0186473 13.1817155,10.342858 14.1232848,10.6868033 L14.7259643,10.905763 L9.70645174,17.4153505 L5.54402075,17.4867708 C5.45483921,17.4999272 5.35533138,17.5215412 5.24925229,17.5497335 L8.91414417,19.1877024 L10.5128406,22.8198023 C10.5372482,22.7267679 10.5579007,22.631854 10.5738596,22.5360004 L10.6273685,18.4387287 L17.205211,13.2128277 Z M19.56993,24.9999981 L19.4000157,24.2482052 C18.8527226,21.8095772 18.2021668,19.3690696 17.4652456,16.9934042 C17.2352511,16.2510088 16.9968079,15.5114326 16.7489771,14.7756153 L11.5586115,18.8973196 L11.5060413,22.619634 C11.4497161,22.989892 11.3652284,23.2868501 11.2497617,23.5706519 C11.1540089,23.802768 11.0366648,24.0245469 10.9014844,24.2322296 L10.4274141,24.9577097 L8.20069186,19.8981439 L3.11265037,17.6230308 L3.84300023,17.1531602 C4.07393348,17.0046811 4.32082553,16.8787558 4.57898262,16.7791433 C4.8653023,16.6691936 5.16664202,16.5930745 5.47267552,16.5507862 L9.23895272,16.4831248 L13.1967356,11.3521386 C12.4654469,11.0927701 11.7304033,10.8446785 10.9916047,10.6078637 C8.62688574,9.85137217 6.19551536,9.20483032 3.76789999,8.68515351 L3,8.52163857 L4.70383677,6.51059269 C4.851221,6.23054986 5.11688811,6.03320423 5.43043163,5.97494029 C5.56279581,5.95050702 5.68764996,5.95614547 5.78058651,5.96272365 C5.88384935,5.97118132 5.98617343,5.98621718 6.08662001,6.00689148 L16.8297098,7.37139551 C17.5225096,6.75210615 18.2425332,6.1469129 18.972883,5.56991189 C19.798047,4.91679185 20.6513735,4.2862256 21.5103325,3.69606821 C21.8398348,3.51375845 22.1411745,3.37655625 22.4462693,3.2609681 C22.6424687,3.1876683 22.8433618,3.12094668 23.0489487,3.07583911 C23.2826982,3.02509309 23.5539979,2.99220216 23.7567685,3.00159957 C24.0890871,2.98468423 24.4486295,3.13410306 24.6851953,3.41038693 C24.8091107,3.55416731 24.8973535,3.72613993 24.9499236,3.92066633 C24.9959225,4.08700049 25.0100038,4.26367181 24.9931063,4.44128287 C24.9780862,4.82563697 24.9095573,5.23160511 24.7903356,5.62253739 C24.6776853,5.9890364 24.522791,6.33862008 24.3303466,6.66283074 C23.7248509,7.46349013 23.1005802,8.1974279 22.4443918,8.88719784 C21.8642424,9.49802953 21.2474816,10.0853677 20.6072521,10.6388752 C20.7133312,11.5400869 20.8306753,12.4412985 20.957407,13.3406307 L21.0925874,14.2737936 C21.1874015,14.9287931 21.2822155,15.5837926 21.367642,16.2406716 C21.4587011,16.9520556 21.5384951,17.6662588 21.6182891,18.380462 C21.6811856,18.9405477 21.7431433,19.5006334 21.8116722,20.0597793 C21.8877112,20.6818879 21.9712602,21.302117 22.0745231,21.9223461 C22.1139507,22.1582211 22.1618271,22.4504806 22.0501155,22.7577759 C21.9271389,23.0932635 21.664288,23.2971873 21.4718436,23.4466061 C21.0268747,23.7905513 20.5912933,24.1420145 20.1594669,24.5047545 L19.56993,24.9999981 Z" id="path-1"></path>
    </defs>
    <g id="Glyphs/Nav-or-Toolbar/Plane" stroke="none" stroke-width="1" fill="none" fill-rule="evenodd">
        <mask id="mask-2" fill="white">
            <use xlink:href="#path-1"></use>
        </mask>
        <use id="Plane" fill="#007AFF" xlink:href="#path-1"></use>
        <g id="_Resources/Colors/Tint-1" mask="url(#mask-2)" fill="#F0EBFB">
            <rect id="Swatch" x="0" y="0" width="28" height="28"></rect>
        </g>
    </g>
</svg>