<?xml version="1.0" encoding="UTF-8"?>
<svg width="100%" viewBox="0 0 25 25" version="1.1" xmlns="http://www.w3.org/2000/svg" xmlns:xlink="http://www.w3.org/1999/xlink">
    <!-- Generator: Sketch 49.1 (51147) - http://www.bohemiancoding.com/sketch -->
    <title>Glyphs/Nav or Toolbar/Plane - Filled</title>
    <desc>Created with Sketch.</desc>
    <defs>
        <path d="M19.56993,24.9999981 L19.4000157,24.2482052 C18.8527226,21.8095772 18.2021668,19.3690696 17.4652456,16.9934042 C17.2352511,16.2510088 16.9968079,15.5114326 16.7489771,14.7756153 L11.5586115,18.8973196 L11.5060413,22.619634 C11.4497161,22.989892 11.3652284,23.2868501 11.2497617,23.5706519 C11.1540089,23.802768 11.0366648,24.0245469 10.9014844,24.2322296 L10.4274141,24.9577097 L8.20069186,19.8981439 L3.11265037,17.6230308 L3.84300023,17.1531602 C4.07393348,17.0046811 4.32082553,16.8787558 4.57898262,16.7791433 C4.8653023,16.6691936 5.16664202,16.5930745 5.47267552,16.5507862 L9.23895272,16.4831248 L13.1967356,11.3521386 C12.4654469,11.0927701 11.7304033,10.8446785 10.9916047,10.6078637 C8.62688574,9.85137217 6.19551536,9.20483032 3.76789999,8.68515351 L3,8.52163857 L4.70383677,6.51059269 C4.851221,6.23054986 5.11688811,6.03320423 5.43043163,5.97494029 C5.56279581,5.95050702 5.68764996,5.95614547 5.78058651,5.96272365 C5.88384935,5.97118132 5.98617343,5.98621718 6.08662001,6.00689148 L16.8297098,7.37139551 C17.5225096,6.75210615 18.2425332,6.1469129 18.972883,5.56991189 C19.798047,4.91679185 20.6513735,4.2862256 21.5103325,3.69606821 C21.8398348,3.51375845 22.1411745,3.37655625 22.4462693,3.2609681 C22.6424687,3.1876683 22.8433618,3.12094668 23.0489487,3.07583911 C23.2826982,3.02509309 23.5539979,2.99220216 23.7567685,3.00159957 C24.0890871,2.98468423 24.4486295,3.13410306 24.6851953,3.41038693 C24.8091107,3.55416731 24.8973535,3.72613993 24.9499236,3.92066633 C24.9959225,4.08700049 25.0100038,4.26367181 24.9931063,4.44128287 C24.9780862,4.82563697 24.9095573,5.23160511 24.7903356,5.62253739 C24.6776853,5.9890364 24.522791,6.33862008 24.3303466,6.66283074 C23.7248509,7.46349013 23.1005802,8.1974279 22.4443918,8.88719784 C21.8642424,9.49802953 21.2474816,10.0853677 20.6072521,10.6388752 C20.7133312,11.5400869 20.8306753,12.4412985 20.957407,13.3406307 L21.0925874,14.2737936 C21.1874015,14.9287931 21.2822155,15.5837926 21.367642,16.2406716 C21.4587011,16.9520556 21.5384951,17.6662588 21.6182891,18.380462 C21.6811856,18.9405477 21.7431433,19.5006334 21.8116722,20.0597793 C21.8877112,20.6818879 21.9712602,21.302117 22.0745231,21.9223461 C22.1139507,22.1582211 22.1618271,22.4504806 22.0501155,22.7577759 C21.9271389,23.0932635 21.664288,23.2971873 21.4718436,23.4466061 C21.0268747,23.7905513 20.5912933,24.1420145 20.1594669,24.5047545 L19.56993,24.9999981 Z" id="path-1"></path>
    </defs>
    <g id="Glyphs/Nav-or-Toolbar/Plane---Filled" stroke="none" stroke-width="1" fill="none" fill-rule="evenodd">
        <mask id="mask-2" fill="white">
            <use xlink:href="#path-1"></use>
        </mask>
        <use id="Plane" fill="#007AFF" xlink:href="#path-1"></use>
        <g id="_Resources/Colors/Tint-1" mask="url(#mask-2)" fill="#F0EBFB">
            <rect id="Swatch" x="0" y="0" width="28" height="28"></rect>
        </g>
    </g>
</svg>