<?xml version="1.0" encoding="UTF-8"?>
<svg width="100%" viewBox="0 0 28 28" version="1.1" xmlns="http://www.w3.org/2000/svg" xmlns:xlink="http://www.w3.org/1999/xlink">
    <!-- Generator: Sketch 49.1 (51147) - http://www.bohemiancoding.com/sketch -->
    <title>Glyphs/Nav or Toolbar/Profile</title>
    <desc>Created with Sketch.</desc>
    <defs>
        <path d="M21.3454968,22.7153491 C21.3455486,22.7153052 21.3456004,22.7152613 21.3456522,22.7152174 C21.3771739,22.6880435 21.4119565,22.6663043 21.4445652,22.6380435 L21.4554348,22.6413043 L21.4576087,22.6423913 L21.4554348,22.6413043 L21.4445652,22.6380435 C21.6565217,22.4543478 21.8684783,22.2717391 22.0695652,22.0706522 C24.226087,19.9152174 25.4130435,17.048913 25.4130435,14 C25.4130435,10.9521739 24.226087,8.08586957 22.0695652,5.93043478 C19.9141304,3.77391304 17.048913,2.58695652 14,2.58695652 C10.951087,2.58695652 8.08586957,3.77391304 5.92934783,5.93043478 C3.77391304,8.08586957 2.58695652,10.9521739 2.58695652,14 C2.58695652,17.048913 3.77391304,19.9152174 5.92934783,22.0706522 C6.04498316,22.1862875 6.32344587,22.4325819 6.52780248,22.6112505 C7.02138283,22.4420996 7.49103857,22.302192 7.88271739,22.1926087 C8.4925,22.0219565 9.09793478,21.836087 9.70336957,21.6502174 C9.78597826,21.6241304 9.86315217,21.5806522 9.94141304,21.5393478 C10.0381522,21.4893478 10.1044565,21.4556522 10.1392391,21.2078261 L10.3403261,19.9165217 C10.3490217,19.8534783 10.3588043,19.7828261 10.3620652,19.7176087 C10.0044565,19.3502174 9.76423913,18.936087 9.64576087,18.4828261 C9.59141304,18.2719565 9.55336957,18.0578261 9.5175,17.8436957 L9.42184783,17.3284783 C9.37076087,17.0578261 9.31858696,16.7882609 9.2598913,16.5208696 C8.84902174,16.3002174 8.60228261,15.9404348 8.56097826,15.4958696 C8.53380435,15.2002174 8.4348913,14.9045652 8.33054348,14.5915217 C8.2675,14.4013043 8.20445652,14.21 8.15336957,14.0154348 C8.0848913,13.7545652 8.04032609,13.4697826 8.02076087,13.1719565 C8.00771739,12.9665217 8.0598913,12.7458696 8.1751087,12.5197826 C8.23597826,12.3980435 8.32293478,12.3002174 8.4251087,12.2306522 C8.34793478,11.8197826 8.30880435,11.41 8.27619565,11.0197826 L8.15445652,9.62630435 C8.09902174,8.98391304 8.20119565,8.36 8.45663043,7.77195652 C8.57619565,7.49586957 8.7251087,7.1773913 8.98163043,6.89695652 C9.21641304,6.63826087 9.49684783,6.52956522 9.72293478,6.4426087 C9.85880435,6.38826087 9.89902174,6.35673913 9.90771739,6.34695652 C10.418587,5.79152174 11.0468478,5.4023913 11.8305435,5.1523913 C11.9957609,5.09913043 12.1598913,5.04043478 12.3240217,4.98065217 C12.4761957,4.92521739 12.6283696,4.86978261 12.7827174,4.81869565 C13.5707609,4.55565217 14.3881522,4.55130435 15.2066304,4.80673913 C15.5011957,4.89804348 15.7892391,5.00782609 16.0772826,5.11978261 C16.241413,5.18173913 16.4055435,5.24478261 16.5696739,5.30456522 C16.7001087,5.35130435 16.8316304,5.39152174 16.9631522,5.43282609 C17.1088043,5.47847826 17.2544565,5.52413043 17.3990217,5.57521739 C18.0772826,5.81652174 18.5348913,6.21326087 18.8001087,6.78608696 C18.8588043,6.91434783 18.9370652,7.035 19.0142391,7.15456522 L19.1370652,7.35021739 C19.3196739,7.64913043 19.3751087,7.95673913 19.4240217,8.22847826 C19.593587,9.14804348 19.5490217,9.95130435 19.493587,10.558913 C19.4457609,11.083913 19.3577174,11.6273913 19.2251087,12.208913 C19.3109783,12.2741304 19.3859783,12.358913 19.4425,12.4654348 C19.5490217,12.6665217 19.6098913,12.8643478 19.6251087,13.0534783 C19.6751087,13.6643478 19.5098913,14.2067391 19.3359783,14.711087 C19.266413,14.9121739 19.2283696,15.1241304 19.1881522,15.333913 C19.1229348,15.6686957 19.0283696,16.0056522 18.7544565,16.2947826 C18.6707609,16.386087 18.5588043,16.4621739 18.4359783,16.5121739 L18.318587,17.1534783 C18.2631522,17.4523913 18.2077174,17.7502174 18.1555435,18.0480435 C18.0316304,18.7719565 17.7740217,19.3078261 17.3490217,19.7186957 C17.393587,20.1926087 17.443587,20.6132609 17.493587,21.0328261 L17.5175,21.2328261 C17.5240217,21.2936957 17.541413,21.3513043 17.5566304,21.41 C17.5805435,21.5056522 17.6446739,21.5752174 17.918587,21.6926087 C18.3305435,21.8686957 18.7696739,21.9828261 19.2359783,22.1023913 L19.6240217,22.2045652 C20.2011065,22.3588892 20.7760179,22.5305991 21.3454968,22.7153491 Z M20.3809587,23.4614891 C20.3600077,23.4754828 20.3386088,23.4882918 20.3173572,23.5011066 C20.3386078,23.4881078 20.3600067,23.4751499 20.3809587,23.4614891 Z M20.2715439,23.529477 C19.9607777,23.4392812 19.6532675,23.3371463 19.3403261,23.2523913 L18.9642391,23.1556522 C18.4794565,23.0295652 17.9783696,22.9002174 17.4903261,22.6926087 C17.2446739,22.5871739 16.6718478,22.3415217 16.5044565,21.686087 C16.4761957,21.5763043 16.4501087,21.4686957 16.4370652,21.36 L16.4142391,21.1621739 C16.3598913,20.7056522 16.3055435,20.2491304 16.2631522,19.7926087 C16.2490217,19.6426087 16.2131522,19.2719565 16.5327174,18.9936957 C16.8240217,18.7393478 16.9946739,18.3915217 17.0848913,17.8632609 C17.1370652,17.56 17.193587,17.2578261 17.2490217,16.9556522 L17.3696739,16.3002174 C17.4348913,15.9295652 17.6707609,15.6458696 18.0327174,15.5034783 C18.0305435,15.4795652 18.0729348,15.3741304 18.1077174,15.1980435 C18.1707609,14.8686957 18.2229348,14.6045652 18.3088043,14.3567391 C18.441413,13.9708696 18.5588043,13.5947826 18.5468478,13.2186957 L17.9283696,13.2795652 L18.0577174,12.4143478 C18.2403261,11.7045652 18.3555435,11.0676087 18.4109783,10.46 C18.4838043,9.66108696 18.4718478,9.06 18.3707609,8.51 C18.3175,8.21652174 18.2859783,8.04043478 18.2077174,7.91326087 L18.0990217,7.74152174 C17.9946739,7.57847826 17.8925,7.41434783 17.8131522,7.24152174 C17.6729348,6.94043478 17.4327174,6.74152174 17.0327174,6.59804348 C16.9033696,6.55130435 16.7718478,6.51108696 16.6392391,6.46978261 C16.4946739,6.42413043 16.3479348,6.37847826 16.2044565,6.3273913 C16.0316304,6.26652174 15.8598913,6.20021739 15.6881522,6.13391304 C15.4218478,6.03173913 15.1555435,5.92956522 14.8838043,5.84478261 C14.2859783,5.65782609 13.6946739,5.65891304 13.1251087,5.85130435 C12.9794565,5.89913043 12.8370652,5.95021739 12.6946739,6.00130435 C12.5175,6.06652174 12.3403261,6.13065217 12.1609783,6.18826087 C11.5620652,6.37847826 11.0870652,6.67086957 10.7077174,7.08173913 C10.5761957,7.22521739 10.3968478,7.34369565 10.1761957,7.43173913 C9.9501087,7.51978261 9.84467391,7.56217391 9.7848913,7.62847826 C9.64141304,7.78608696 9.5425,7.99913043 9.45445652,8.20456522 C9.26858696,8.63173913 9.19793478,9.0676087 9.23706522,9.53391304 L9.35880435,10.9284783 C9.4001087,11.4241304 9.45228261,11.9491304 9.58706522,12.435 L9.61641304,12.5393478 L9.71423913,13.2241304 L9.11532609,13.2208696 C9.13163043,13.3915217 9.16097826,13.5686957 9.20554348,13.7415217 C9.2501087,13.9132609 9.30663043,14.0795652 9.36206522,14.2469565 C9.48163043,14.6056522 9.60445652,14.9763043 9.64358696,15.3958696 C9.64793478,15.4415217 9.65445652,15.511087 9.81858696,15.585 C10.0501087,15.6871739 10.2348913,15.9067391 10.2892391,16.1426087 C10.3642391,16.4676087 10.4272826,16.7958696 10.4903261,17.1241304 L10.5892391,17.6621739 C10.6196739,17.8447826 10.6501087,18.0284783 10.6968478,18.2067391 C10.7729348,18.4980435 10.9327174,18.758913 11.1838043,19.0013043 C11.3348913,19.1447826 11.4348913,19.3556522 11.4479348,19.56 C11.4577174,19.7502174 11.4370652,19.9273913 11.4153261,20.0763043 L11.2153261,21.3621739 C11.1870652,21.561087 11.1011957,22.1643478 10.4892391,22.4806522 C10.3088043,22.5741304 10.168587,22.6447826 10.0218478,22.6904348 C9.40771739,22.8784783 8.79358696,23.0665217 8.1751087,23.2393478 C7.98732371,23.29145 7.77785932,23.352224 7.56078777,23.4184222 C7.56081503,23.4184409 7.5608423,23.4184596 7.56086957,23.4184783 C7.575,23.4293478 7.58913043,23.4423913 7.60434783,23.4521739 L7.60326087,23.4521739 C9.47717391,24.725 11.6836957,25.4130435 13.998913,25.4130435 C16.2651375,25.4130435 18.4248478,24.7511336 20.2715439,23.529477 Z M6.80712377,22.8508527 C6.78055603,22.8290647 6.75405929,22.8071543 6.72763127,22.7851244 C6.75167907,22.8059542 6.765988,22.8183178 6.7673913,22.8195652 C6.78025975,22.8297115 6.79351907,22.8401536 6.80712377,22.8508527 Z M22.8380435,5.16195652 C25.2,7.52282609 26.5,10.6619565 26.5,14 C26.5,17.3391304 25.2,20.4782609 22.8380435,22.8391304 C22.7782609,22.898913 22.7119565,22.95 22.651087,23.0086957 L22.648913,23.0076087 C22.3543478,23.2684783 21.7956522,23.7543478 21.5554348,23.9380435 C19.3923913,25.5923913 16.7695652,26.5 14,26.5 C11.1771739,26.5 8.50326087,25.5630435 6.31630435,23.8467391 C5.99891304,23.5978261 5.36304348,23.023913 5.34782609,23.0086957 L5.34891304,23.0086957 L5.34782609,23.0086957 C5.28695652,22.951087 5.22065217,22.898913 5.16086957,22.8391304 C2.8,20.4782609 1.5,17.3391304 1.5,14 C1.5,10.6619565 2.8,7.52282609 5.16086957,5.16195652 C7.52173913,2.8 10.6608696,1.5 14,1.5 C17.3391304,1.5 20.4771739,2.8 22.8380435,5.16195652 Z" id="path-1"></path>
    </defs>
    <g id="Glyphs/Nav-or-Toolbar/Profile" stroke="none" stroke-width="1" fill="none" fill-rule="evenodd">
        <mask id="mask-2" fill="white">
            <use xlink:href="#path-1"></use>
        </mask>
        <use id="Profile" fill="#007AFF" xlink:href="#path-1"></use>
        <g id="_Resources/Colors/Tint-1" mask="url(#mask-2)" fill="#F0EBFB">
            <rect id="Swatch" x="0" y="0" width="28" height="28"></rect>
        </g>
    </g>
</svg>
