<?xml version="1.0" encoding="UTF-8"?>
<svg width="100%" viewBox="0 0 25 25" version="1.1" xmlns="http://www.w3.org/2000/svg" xmlns:xlink="http://www.w3.org/1999/xlink">
    <!-- Generator: Sketch 49.1 (51147) - http://www.bohemiancoding.com/sketch -->
    <title>Glyphs/Nav or Toolbar/Profile - Filled</title>
    <desc>Created with Sketch.</desc>
    <defs>
        <path d="M20.97999,23.0085476 C21.1148679,22.9038322 21.2473947,22.7985453 21.3456522,22.7152174 C21.3771739,22.6880435 21.4119565,22.6663043 21.4445652,22.6380435 L21.4554348,22.6413043 L21.4576087,22.6423913 L21.4554348,22.6413043 L21.4445652,22.6380435 C21.6565217,22.4543478 21.8684783,22.2717391 22.0695652,22.0706522 C24.226087,19.9152174 25.4130435,17.048913 25.4130435,14 C25.4130435,10.9521739 24.226087,8.08586957 22.0695652,5.93043478 C19.9141304,3.77391304 17.048913,2.58695652 14,2.58695652 C10.951087,2.58695652 8.08586957,3.77391304 5.92934783,5.93043478 C3.77391304,8.08586957 2.58695652,10.9521739 2.58695652,14 C2.58695652,17.048913 3.77391304,19.9152174 5.92934783,22.0706522 C6.12065217,22.2619565 6.7576087,22.8108696 6.7673913,22.8195652 C6.88718913,22.9140212 7.04086216,23.0341125 7.19170261,23.1486293 C7.73779419,22.9048538 8.46893877,22.5561778 8.73067653,22.4780673 C9.28295083,22.3132054 9.83128733,22.1336424 10.3796238,21.9540794 C10.4544417,21.9288776 10.5243374,21.8868746 10.5952175,21.8469717 C10.6828333,21.7986682 10.7428845,21.7661158 10.7743867,21.5266985 L10.9565093,20.2792084 C10.9643849,20.218304 10.9732449,20.150049 10.9761982,20.0870445 C10.6523154,19.7321188 10.4347528,19.3320399 10.3274482,18.8941583 C10.2782259,18.6904435 10.2437703,18.4835786 10.2112835,18.2767136 L10.1246523,17.7789777 C10.0783833,17.5175088 10.0311299,17.2570899 9.97796981,16.9987713 C9.60584916,16.7856059 9.38237989,16.4380307 9.34497093,16.0085497 C9.32035978,15.7229291 9.23077518,15.4373084 9.13626835,15.1348866 C9.07917047,14.9511233 9.02207259,14.7663099 8.97580363,14.5783463 C8.91378352,14.3263281 8.87342123,14.0512082 8.8557012,13.7634874 C8.84388784,13.5650231 8.89114126,13.3518577 8.99549255,13.1334419 C9.05062153,13.0158334 9.12937723,12.9213266 9.22191516,12.8541217 C9.15201949,12.457193 9.11657943,12.0613144 9.08704604,11.6843372 L8.97678807,10.3381399 C8.92658132,9.71754501 9.01911926,9.11480145 9.2504641,8.54671039 C9.35875318,8.27999111 9.4936223,7.97231887 9.72595159,7.70139929 C9.93859196,7.45148123 10.1925791,7.34647364 10.3973439,7.26246757 C10.5203996,7.20996377 10.5568241,7.17951157 10.5646997,7.17006089 C11.0273894,6.63347211 11.5963993,6.25754494 12.306185,6.01602748 C12.4558208,5.96457376 12.6044721,5.90786966 12.7531235,5.85011549 C12.890946,5.79656162 13.0287684,5.74300775 13.1685598,5.69365418 C13.8822832,5.43953581 14.6225868,5.43533551 15.3638747,5.68210334 C15.6306596,5.77030972 15.8915378,5.87636738 16.1524161,5.9845252 C16.3010674,6.04437953 16.4497188,6.10528393 16.5983702,6.1630381 C16.7165037,6.20819137 16.8356217,6.24704418 16.9547397,6.28694706 C17.0866555,6.33105025 17.2185713,6.37515344 17.3495026,6.424507 C17.963797,6.65762385 18.3782488,7.04090155 18.6184537,7.59429155 C18.6716138,7.71820051 18.7424939,7.83475893 18.8123896,7.95026728 L18.923632,8.13928094 C19.089019,8.42805181 19.1392257,8.72522329 19.1835258,8.98774226 C19.3370994,9.87610647 19.2967371,10.6521126 19.2465303,11.239105 C19.2032147,11.7462916 19.1234746,12.2713296 19.0033721,12.8331202 C19.0811434,12.8961247 19.1490702,12.9780307 19.2002614,13.0809381 C19.2967371,13.2752021 19.3518661,13.466316 19.3656483,13.6490292 C19.4109328,14.2391718 19.261297,14.7631597 19.1037856,15.2503949 C19.0407811,15.4446589 19.0063255,15.6494237 18.969901,15.8520884 C18.9108342,16.1755118 18.8251874,16.5010353 18.577107,16.7803555 C18.5013046,16.8685619 18.3999066,16.9420672 18.2886642,16.9903707 L18.182344,17.6099154 C18.1321373,17.8986863 18.0819305,18.1864071 18.0346771,18.4741279 C17.9224503,19.1734785 17.6891365,19.6911659 17.3042181,20.0880946 C17.3445804,20.5459277 17.3898649,20.952307 17.4351494,21.3576363 L17.4568072,21.5508503 C17.4627139,21.6096545 17.478465,21.6653086 17.4922473,21.7220127 C17.5139051,21.8144193 17.5719874,21.8816242 17.8200679,21.9950324 C18.193173,22.1651447 18.5908892,22.2754027 19.0132166,22.390911 L19.3646639,22.4896181 C19.8874048,22.6387289 20.4081768,22.8046409 20.9240266,22.9831538 C20.8923728,23.0117876 20.9171196,23.0175696 20.97999,23.0085476 Z M22.8380435,5.16195652 C25.2,7.52282609 26.5,10.6619565 26.5,14 C26.5,17.3391304 25.2,20.4782609 22.8380435,22.8391304 C22.7782609,22.898913 22.7119565,22.95 22.651087,23.0086957 L22.648913,23.0076087 C22.3543478,23.2684783 21.7956522,23.7543478 21.5554348,23.9380435 C19.3923913,25.5923913 16.7695652,26.5 14,26.5 C11.1771739,26.5 8.50326087,25.5630435 6.31630435,23.8467391 C5.99891304,23.5978261 5.36304348,23.023913 5.34782609,23.0086957 L5.34891304,23.0086957 L5.34782609,23.0086957 C5.28695652,22.951087 5.22065217,22.898913 5.16086957,22.8391304 C2.8,20.4782609 1.5,17.3391304 1.5,14 C1.5,10.6619565 2.8,7.52282609 5.16086957,5.16195652 C7.52173913,2.8 10.6608696,1.5 14,1.5 C17.3391304,1.5 20.4771739,2.8 22.8380435,5.16195652 Z" id="path-1"></path>
    </defs>
    <g id="Glyphs/Nav-or-Toolbar/Profile---Filled" stroke="none" stroke-width="1" fill="none" fill-rule="evenodd">
        <mask id="mask-2" fill="white">
            <use xlink:href="#path-1"></use>
        </mask>
        <use id="Profile---Filled" fill="#007AFF" xlink:href="#path-1"></use>
        <g id="_Resources/Colors/Tint-1" mask="url(#mask-2)" fill="#F0EBFB">
            <rect id="Swatch" x="0" y="0" width="28" height="28"></rect>
        </g>
    </g>
</svg>