<?xml version="1.0" encoding="UTF-8"?>
<svg width="100%" viewBox="0 0 25 25" version="1.1" xmlns="http://www.w3.org/2000/svg" xmlns:xlink="http://www.w3.org/1999/xlink">
    <!-- Generator: Sketch 49.1 (51147) - http://www.bohemiancoding.com/sketch -->
    <title>Glyphs/Nav or Toolbar/Rain - Filled</title>
    <desc>Created with Sketch.</desc>
    <defs>
        <path d="M4,19.2593924 C4,18.8399915 4.33289862,18.5 4.75,18.5 C5.16421356,18.5 5.5,18.828064 5.5,19.2593924 L5.5,22.7406076 C5.5,23.1600085 5.16710138,23.5 4.75,23.5 C4.33578644,23.5 4,23.171936 4,22.7406076 L4,19.2593924 Z M10,21.2593924 C10,20.8399915 10.3328986,20.5 10.75,20.5 C11.1642136,20.5 11.5,20.828064 11.5,21.2593924 L11.5,24.7406076 C11.5,25.1600085 11.1671014,25.5 10.75,25.5 C10.3357864,25.5 10,25.171936 10,24.7406076 L10,21.2593924 Z M16,19.2593924 C16,18.8399915 16.3328986,18.5 16.75,18.5 C17.1642136,18.5 17.5,18.828064 17.5,19.2593924 L17.5,22.7406076 C17.5,23.1600085 17.1671014,23.5 16.75,23.5 C16.3357864,23.5 16,23.171936 16,22.7406076 L16,19.2593924 Z M22,21.2593924 C22,20.8399915 22.3328986,20.5 22.75,20.5 C23.1642136,20.5 23.5,20.828064 23.5,21.2593924 L23.5,24.7406076 C23.5,25.1600085 23.1671014,25.5 22.75,25.5 C22.3357864,25.5 22,25.171936 22,24.7406076 L22,21.2593924 Z M8.01042631,8.62871611 C8.01042631,8.62871611 8.18373285,7.64101894 8.14425718,7.63176886 C8.77259862,4.69891707 11.379507,2.5 14.5,2.5 C17.213898,2.5 19.5393303,4.16321909 20.5125938,6.52595405 C23.0332155,6.78263739 25,8.91163513 25,11.5 C25,14.2614237 22.7614237,16.5 20,16.5 L7,16.5 C4.790861,16.5 3,14.709139 3,12.5 C3,10.290861 4.790861,8.5 7,8.5 C7.0148461,8.52415409 8.01042631,8.62871611 8.01042631,8.62871611 Z" id="path-1"></path>
    </defs>
    <g id="Glyphs/Nav-or-Toolbar/Rain---Filled" stroke="none" stroke-width="1" fill="none" fill-rule="evenodd">
        <mask id="mask-2" fill="white">
            <use xlink:href="#path-1"></use>
        </mask>
        <use id="Rain" fill="#007AFF" xlink:href="#path-1"></use>
        <g id="_Resources/Colors/Tint-1" mask="url(#mask-2)" fill="#F0EBFB">
            <rect id="Swatch" x="0" y="0" width="28" height="28"></rect>
        </g>
    </g>
</svg>