<?xml version="1.0" encoding="UTF-8"?>
<svg width="28px" height="24px" viewBox="0 0 28 24" version="1.1" xmlns="http://www.w3.org/2000/svg" xmlns:xlink="http://www.w3.org/1999/xlink">
    <!-- Generator: Sketch 50.2 (55047) - http://www.bohemiancoding.com/sketch -->
    <title>Glyphs/Nav or Toolbar/Reload</title>
    <desc>Created with Sketch.</desc>
    <defs>
        <path d="M5.41781023,8.29733402 C6.29558824,6.93296681 7.46202847,5.79343961 8.82864869,4.96519324 C10.2239597,4.11955831 11.7900651,3.62119454 13.4033454,3.50943988 C16.5143432,3.37095588 19.5349129,4.67617489 21.6350033,7.07203651 C23.3601601,9.04016101 24.3219526,11.5986704 24.3356354,14.2561147 L25.3017218,14.2507853 C25.2867693,11.3467535 24.2357309,8.55083692 22.3504946,6.4000876 C20.0575338,3.78419222 16.7595575,2.35910297 13.3503145,2.51101849 C11.5761595,2.63377528 9.86502738,3.17828922 8.34050586,4.10223281 C6.84728491,5.00720611 5.57278811,6.25229673 4.61369463,7.74305598 L5.41781023,8.29733402 Z M23.8220933,12.7206775 C23.292579,12.2652962 22.7621473,11.8407559 22.2240482,11.4434779 L21.6630427,12.2576021 C22.1813301,12.6402531 22.6930242,13.0497964 23.2047051,13.489841 C23.6495911,13.8724384 24.0928179,14.2748789 24.5380362,14.6997132 L24.8541395,15.0013439 L25.1802393,14.711339 C25.6392614,14.3031245 26.0552371,13.8951124 26.4359458,13.4768163 C27.0087302,12.8474704 27.5317601,12.1715265 28,11.4554951 L27.1999488,10.8949509 C26.7607023,11.5666457 26.2700592,12.2007341 25.7327454,12.7911067 C25.466176,13.0839945 25.1800468,13.3725707 24.8711242,13.6609582 C24.5216421,13.3350888 24.172523,13.0220434 23.8220933,12.7206775 Z M2.74139035,14.7128533 C2.57662909,14.8773116 2.41878185,15.0424059 2.26725473,15.2088933 C1.72994034,15.7992665 1.23929744,16.433355 0.800051512,17.1050498 L0,16.5445062 C0.468239448,15.8284744 0.991269227,15.1525304 1.56405442,14.5231837 C1.94476312,14.1048876 2.36073878,13.6968755 2.81976088,13.288661 L3.14586071,12.9986561 L3.461964,13.3002868 C3.9071823,13.7251211 4.35040913,14.1275616 4.79529508,14.510159 C5.30695967,14.9501896 5.81865708,15.3597377 6.3369516,15.7424017 L5.77593858,16.5565203 C5.23783566,16.1592314 4.70740299,15.7346882 4.1779069,15.2793225 C4.02804532,15.1504431 3.87842344,15.0194277 3.72891035,14.8861868 C3.97139343,17.1271392 4.88868156,19.2437268 6.36499688,20.9279635 C8.46508726,23.3238251 11.485657,24.6290441 14.5966548,24.4905601 C16.2099351,24.3788055 17.7760405,23.8804417 19.1713515,23.0348068 C20.5379717,22.2065604 21.7044119,21.0670332 22.58219,19.702666 L23.3863055,20.256944 C22.4272121,21.7477033 21.1527153,22.9927939 19.6594943,23.8977672 C18.1349728,24.8217108 16.4238407,25.3662247 14.6496857,25.4889815 C11.2404427,25.640897 7.94246635,24.2158078 5.64950558,21.5999124 C3.97382065,19.6882273 2.95719159,17.2668295 2.74139035,14.7128533 Z" id="path-1"></path>
    </defs>
    <g id="INDI-2.0" stroke="none" stroke-width="1" fill="none" fill-rule="evenodd">
        <g id="21.1---Workbench" transform="translate(-956.000000, -162.000000)">
            <g id="Glyphs/Nav-or-Toolbar/Reload" transform="translate(956.000000, 160.000000)">
                <mask id="mask-2" fill="white">
                    <use xlink:href="#path-1"></use>
                </mask>
                <use id="Refresh" fill="#007AFF" fill-rule="nonzero" xlink:href="#path-1"></use>
                <g id="_Resources/Colors/Tint-2" mask="url(#mask-2)" fill="#7631C1" fill-rule="evenodd">
                    <rect id="Swatch" x="0" y="0" width="28" height="28"></rect>
                </g>
            </g>
        </g>
    </g>
</svg>