<?xml version="1.0" encoding="UTF-8"?>
<svg width="100%" viewBox="0 0 25 25" version="1.1" xmlns="http://www.w3.org/2000/svg" xmlns:xlink="http://www.w3.org/1999/xlink">
    <!-- Generator: Sketch 49.1 (51147) - http://www.bohemiancoding.com/sketch -->
    <title>Glyphs/Nav or Toolbar/Reverse Camera - Filled</title>
    <desc>Created with Sketch.</desc>
    <defs>
        <path d="M0,8.99639101 C0,7.89148928 0.893823961,6.99578946 1.99136379,6.99578947 C1.99136379,6.99578947 4.75869375,6.99578951 6.95805168,6.99578951 C7.77976384,6.99578951 9.24784503,4 10.0695572,4 L18.0526465,4 C18.8482512,4 20.2101497,6.99578951 21.0057545,6.99578951 C23.1933723,6.99578951 25.9911223,6.99578947 25.9911223,6.99578947 C27.1005948,6.99578946 28,7.88606831 28,8.99639101 L28,21.9993984 C28,23.1043002 27.1001025,24 26.0087557,24 L1.99124431,24 C0.891510444,24 0,23.1097211 0,21.9993984 L0,8.99639101 Z M14.208607,8.65257074 C12.6108226,8.65257074 11.160556,9.27391582 10.071757,10.2831725 L11.1097552,11.3252863 C11.9323382,10.5813396 13.0167409,10.1242807 14.208607,10.1242807 C16.68466,10.1242807 18.7083901,12.0834548 18.8368576,14.5379395 L17.1394253,14.5379395 L19.5817739,17.6029804 L22.0241225,14.5379395 L20.3022667,14.5379395 C20.1728223,11.2664376 17.4984506,8.65257074 14.208607,8.65257074 Z M14.2441036,20.6452195 C15.841888,20.6452195 17.2921546,20.0238744 18.3809536,19.0146178 L17.3429554,17.9725039 C16.5203724,18.7164506 15.4359697,19.1735095 14.2441036,19.1735095 C11.7680506,19.1735095 9.74432054,17.2143354 9.61585301,14.7598507 L11.3132853,14.7598507 L8.87093669,11.6948098 L6.42858811,14.7598507 L8.15044386,14.7598507 C8.27988833,18.0313527 10.95426,20.6452195 14.2441036,20.6452195 Z" id="path-1"></path>
    </defs>
    <g id="Glyphs/Nav-or-Toolbar/Reverse-Camera---Filled" stroke="none" stroke-width="1" fill="none" fill-rule="evenodd">
        <mask id="mask-2" fill="white">
            <use xlink:href="#path-1"></use>
        </mask>
        <use id="Reverse-Camera" fill="#007AFF" xlink:href="#path-1"></use>
        <g id="_Resources/Colors/Tint-1" mask="url(#mask-2)" fill="#F0EBFB">
            <rect id="Swatch" x="0" y="0" width="28" height="28"></rect>
        </g>
    </g>
</svg>