<?xml version="1.0" encoding="UTF-8"?>
<svg width="100%" viewBox="0 0 25 25" version="1.1" xmlns="http://www.w3.org/2000/svg" xmlns:xlink="http://www.w3.org/1999/xlink">
    <!-- Generator: Sketch 49.1 (51147) - http://www.bohemiancoding.com/sketch -->
    <title>Glyphs/Nav or Toolbar/Reverse Camera</title>
    <desc>Created with Sketch.</desc>
    <defs>
        <path d="M0,8.99639101 C0,7.89148928 0.893823961,6.99578946 1.99136379,6.99578947 C1.99136379,6.99578947 4.75869375,6.99578951 6.95805168,6.99578951 C7.77976384,6.99578951 9.24784503,4 10.0695572,4 L18.0526465,4 C18.8482512,4 20.2101497,6.99578951 21.0057545,6.99578951 C23.1933723,6.99578951 25.9911223,6.99578947 25.9911223,6.99578947 C27.1005948,6.99578946 28,7.88606831 28,8.99639101 L28,21.9993984 C28,23.1043002 27.1001025,24 26.0087557,24 L1.99124431,24 C0.891510444,24 0,23.1097211 0,21.9993984 L0,8.99639101 Z M1.00635135,8.8403647 L1.09044909,22.0066786 C1.09390339,22.547483 1.54599298,23.0010433 2.10010007,23.0010433 L26.0935008,23.0010433 C26.6455217,23.0010433 27.0939568,22.5558511 27.0904491,22.0066786 L27.0063513,8.8403647 C27.002897,8.29956032 26.5524186,7.84599998 26.0002989,7.84599999 C26.0002989,7.84599999 22.5367028,7.84600003 20.5053434,7.84600003 C19.7665676,7.84600003 18.5019475,5 17.7631717,5 L10.3503031,5 C9.58728467,5 8.22406642,7.84600003 7.46104799,7.84600003 C5.41878705,7.84600003 1.99054686,7.84599999 1.99054686,7.84599999 C1.45506102,7.84599998 1.00284359,8.29119223 1.00635135,8.8403647 Z M14.208607,8.65257074 C17.4984506,8.65257074 20.1728223,11.2664376 20.3022667,14.5379395 L22.0241225,14.5379395 L19.5817739,17.6029804 L17.1394253,14.5379395 L18.8368576,14.5379395 C18.7083901,12.0834548 16.68466,10.1242807 14.208607,10.1242807 C13.0167409,10.1242807 11.9323382,10.5813396 11.1097552,11.3252863 L10.071757,10.2831725 C11.160556,9.27391582 12.6108226,8.65257074 14.208607,8.65257074 Z M14.2441036,20.6452195 C10.95426,20.6452195 8.27988833,18.0313527 8.15044386,14.7598507 L6.42858811,14.7598507 L8.87093669,11.6948098 L11.3132853,14.7598507 L9.61585301,14.7598507 C9.74432054,17.2143354 11.7680506,19.1735095 14.2441036,19.1735095 C15.4359697,19.1735095 16.5203724,18.7164506 17.3429554,17.9725039 L18.3809536,19.0146178 C17.2921546,20.0238744 15.841888,20.6452195 14.2441036,20.6452195 Z" id="path-1"></path>
    </defs>
    <g id="Glyphs/Nav-or-Toolbar/Reverse-Camera" stroke="none" stroke-width="1" fill="none" fill-rule="evenodd">
        <mask id="mask-2" fill="white">
            <use xlink:href="#path-1"></use>
        </mask>
        <use id="Reverse-Camera" fill="#007AFF" xlink:href="#path-1"></use>
        <g id="_Resources/Colors/Tint-1" mask="url(#mask-2)" fill="#F0EBFB">
            <rect id="Swatch" x="0" y="0" width="28" height="28"></rect>
        </g>
    </g>
</svg>