<?xml version="1.0" encoding="UTF-8"?>
<svg width="100%" viewBox="0 0 25 25" version="1.1" xmlns="http://www.w3.org/2000/svg" xmlns:xlink="http://www.w3.org/1999/xlink">
    <!-- Generator: Sketch 49.1 (51147) - http://www.bohemiancoding.com/sketch -->
    <title>Glyphs/Nav or Toolbar/Ride</title>
    <desc>Created with Sketch.</desc>
    <defs>
        <path d="M12.1216707,11.7628325 L9.42682666,9.43635662 C9.22013532,9.25791868 9.04499643,8.89100069 9.03527541,8.60604701 L8.87856342,4.01232461 C8.87111611,3.79402065 9.04228432,3.61102501 9.26017997,3.60361615 L9.38904517,3.59923449 C9.60725348,3.59181501 9.80439277,3.77277628 9.82763023,3.98737368 L10.201286,7.4380752 C10.2311379,7.71375672 10.4408187,8.07893776 10.6456661,8.2354296 L12.1713764,9.40098587 L15.9265147,9.40098587 L15.9265147,9.37852914 C15.9265147,9.37852914 16.1393629,9.37003832 16.4457116,9.40098587 L16.6216707,9.40098587 L16.6216707,9.42210809 C17.2005307,9.50280386 17.9918261,9.72608198 18.3877228,10.3360445 C18.9864215,11.2584663 19.0958333,12.2130594 19.1120795,12.4009859 L19.1216707,12.4009859 L19.1216707,16.1579024 C19.1216707,16.5682961 18.7887721,16.9009859 18.3716707,16.9009859 C17.9574571,16.9009859 17.6216707,16.5627545 17.6216707,16.1579024 L17.6216707,12.4009859 L17.6343327,12.4009859 C17.6095538,12.3327674 17.4382337,11.89592 17.1143465,11.89592 L16.6216707,11.89592 L16.6216707,16.9009859 L16.6216707,23.4034412 C16.6216707,23.9543699 16.1778059,24.4009859 15.6216707,24.4009859 C15.0693859,24.4009859 14.6216707,23.9546745 14.6216707,23.4034412 L14.6216707,16.9009859 L14.1216707,16.9009859 L14.1216707,23.4034412 C14.1216707,23.9543699 13.6778059,24.4009859 13.1216707,24.4009859 C12.5693859,24.4009859 12.1216707,23.9546745 12.1216707,23.4034412 L12.1216707,15.4009859 L12.1216707,11.7628325 Z M14.2216707,8.90098587 C13.1171012,8.90098587 12.2216707,8.00555537 12.2216707,6.90098587 C12.2216707,5.79641637 13.1171012,4.90098587 14.2216707,4.90098587 C15.3262402,4.90098587 16.2216707,5.79641637 16.2216707,6.90098587 C16.2216707,8.00555537 15.3262402,8.90098587 14.2216707,8.90098587 Z" id="path-1"></path>
    </defs>
    <g id="Glyphs/Nav-or-Toolbar/Ride" stroke="none" stroke-width="1" fill="none" fill-rule="evenodd">
        <mask id="mask-2" fill="white">
            <use xlink:href="#path-1"></use>
        </mask>
        <use id="Ride" fill="#007AFF" xlink:href="#path-1"></use>
        <g id="_Resources/Colors/Tint-1" mask="url(#mask-2)" fill="#F0EBFB">
            <rect id="Swatch" x="0" y="0" width="28" height="28"></rect>
        </g>
    </g>
</svg>