<?xml version="1.0" encoding="UTF-8"?>
<svg width="100%" viewBox="0 0 25 25" version="1.1" xmlns="http://www.w3.org/2000/svg" xmlns:xlink="http://www.w3.org/1999/xlink">
    <!-- Generator: Sketch 49.1 (51147) - http://www.bohemiancoding.com/sketch -->
    <title>Glyphs/Nav or Toolbar/Run</title>
    <desc>Created with Sketch.</desc>
    <defs>
        <path d="M22.3165761,3.69475099 C23.2800761,4.55935099 23.3602761,6.04135099 22.4956761,7.00485099 C21.6311761,7.96835099 20.1491761,8.04855099 19.1856761,7.18395099 C18.2221761,6.31935099 18.1419761,4.83745099 19.0065761,3.87385099 C19.8711761,2.91035099 21.3530761,2.83015099 22.3165761,3.69475099 Z M13.2524761,12.494251 C13.5570761,12.486251 13.8637761,12.592151 14.1022761,12.818451 L18.8584761,17.331451 C18.9428761,17.411451 19.0060761,17.503051 19.0617761,17.598751 C19.1634761,17.722751 19.2431761,17.869251 19.2890761,18.033651 L19.3227761,18.151151 C19.4994761,18.784551 19.1287761,19.442751 18.4953761,19.619551 L12.1828761,21.379851 C11.5493761,21.556551 10.8911761,21.185851 10.7144761,20.552351 L10.6807761,20.434951 C10.5040761,19.801451 10.8746761,19.143251 11.5081761,18.966551 L15.7082761,17.795151 L12.3795761,14.638451 C11.9024761,14.185851 11.8805761,13.431151 12.3331761,12.953951 L12.4202761,12.864751 C12.6465761,12.626251 12.9477761,12.502351 13.2524761,12.494251 Z M10.3238761,14.665251 L12.2305761,16.383251 L7.26657612,21.896851 L7.23527612,21.868651 L4.85647612,24.511751 C4.41627612,25.000451 3.66277612,25.038051 3.17407612,24.597851 L3.08017612,24.515951 C2.59157612,24.075851 2.55397612,23.322251 2.99417612,22.833651 L5.37307612,20.193051 L5.35737612,20.178951 L10.3238761,14.665251 Z M11.6079761,3.84805099 C11.8372761,3.84805099 12.0705761,3.91485099 12.2749761,4.05295099 L12.3780761,4.12195099 C12.4307761,4.15755099 12.4760761,4.19885099 12.5211761,4.24095099 L17.1278761,7.13955099 C17.6844761,7.48995099 17.8503761,8.22505099 17.4999761,8.78155099 L17.4335761,8.88705099 C17.0832761,9.44365099 16.3482761,9.61205099 15.7916761,9.26165099 L11.9693761,6.85475099 L9.64827612,10.287251 C9.27997612,10.832151 8.54077612,10.973551 7.99577612,10.605251 L7.89267612,10.536351 C7.34777612,10.168051 7.20397612,9.42895099 7.57227612,8.88405099 L10.6201761,4.37355099 C10.8503761,4.03305099 11.2256761,3.84805099 11.6079761,3.84805099 Z M18.2191761,9.35395099 L19.6405761,12.251051 L23.4887761,10.132151 C24.0649761,9.81495099 24.7896761,10.024951 25.1067761,10.601151 L25.1648761,10.709751 C25.4819761,11.285951 25.2719761,12.010651 24.6958761,12.327751 L20.0201761,14.903851 C19.9623761,14.953451 19.9004761,14.998851 19.8309761,15.035851 L19.7319761,15.088351 C19.2150761,15.363351 18.5802761,15.147151 18.3145761,14.606051 L17.4183761,12.783651 L18.2191761,9.35395099 Z" id="path-1"></path>
    </defs>
    <g id="Glyphs/Nav-or-Toolbar/Run" stroke="none" stroke-width="1" fill="none" fill-rule="evenodd">
        <mask id="mask-2" fill="white">
            <use xlink:href="#path-1"></use>
        </mask>
        <use id="Runner" fill="#007AFF" xlink:href="#path-1"></use>
        <g id="_Resources/Colors/Tint-1" mask="url(#mask-2)" fill="#F0EBFB">
            <rect id="Swatch" x="0" y="0" width="28" height="28"></rect>
        </g>
    </g>
</svg>