<?xml version="1.0" encoding="UTF-8"?>
<svg width="100%" viewBox="0 0 25 25" version="1.1" xmlns="http://www.w3.org/2000/svg" xmlns:xlink="http://www.w3.org/1999/xlink">
    <!-- Generator: Sketch 49.1 (51147) - http://www.bohemiancoding.com/sketch -->
    <title>Glyphs/Nav or Toolbar/Settings</title>
    <desc>Created with Sketch.</desc>
    <defs>
        <path d="M13.19112,24 L13.19112,24 L14.8098395,24 C14.969489,24 15.1004013,23.8691549 15.1004013,23.7103978 L15.1004013,22.7422366 C15.1004013,22.0548534 15.6102356,21.393562 16.1944953,21.2125437 L17.5973215,20.6329903 L17.9791521,21.5572226 L17.4991407,20.6799604 C18.093267,20.3548724 18.9267558,20.4784354 19.4044779,20.9561579 L20.091438,21.6440799 C20.1465921,21.6994521 20.2150191,21.7278437 20.2944871,21.7278437 C20.3739154,21.7278437 20.4423522,21.6994791 20.4991544,21.6424609 L21.6451712,20.5002828 C21.7573537,20.3876705 21.7572857,20.2002787 21.6470423,20.0896023 L20.9536051,19.3990409 C20.4688441,18.911445 20.3671816,18.0853485 20.6522212,17.5496586 L21.1959483,16.2341727 C21.3965219,15.5939855 22.0695048,15.0975227 22.741277,15.0975227 L23.7113573,15.0975227 C23.8695341,15.0975227 24,14.9671908 24,14.8098395 L24,13.189201 C24,13.0318496 23.8695341,12.9015178 23.7113573,12.9015178 L22.741277,12.9015178 C22.0535667,12.9015178 21.3940478,12.3925027 21.2118228,11.8070414 L20.633229,10.4090128 L21.5572226,10.026605 L20.6763553,10.4999683 C20.3572543,9.90616295 20.4793316,9.07618617 20.9561552,8.59936292 L21.6451712,7.91130864 C21.7573535,7.79869652 21.7572858,7.61226417 21.6470464,7.50159182 L20.4961402,6.35547527 C20.4424528,6.30136178 20.374895,6.27333976 20.2954466,6.27311584 C20.2157538,6.27311584 20.1465941,6.30172625 20.0904901,6.35782719 L19.4012449,7.04419089 C18.9135036,7.53478447 18.0833277,7.63560686 17.5488949,7.34881864 L16.2370513,6.80693032 C15.596864,6.60635663 15.1004013,5.93337375 15.1004013,5.26160154 L15.1004013,4.29056176 C15.1004013,4.13087861 14.9695226,4 14.8098395,4 L13.19112,4 C13.033289,4 12.9024773,4.13094611 12.9024773,4.29056176 L12.9024773,5.26160154 C12.9024773,5.94751178 12.3936026,6.60755853 11.8084189,6.79127974 L10.4965972,7.32838619 C9.8987289,7.64506528 9.07707385,7.52429903 8.60130659,7.04578848 L7.91187438,6.35731613 C7.79949503,6.24493678 7.615584,6.24493678 7.50269275,6.3576128 L6.35643479,7.50290031 C6.30249606,7.55641433 6.27407537,7.62496462 6.27407153,7.70732346 C6.27385479,7.78556726 6.30227757,7.8541758 6.35975238,7.91143514 L7.04324335,8.59780753 C7.53389439,9.08562244 7.63670069,9.91307041 7.34996142,10.4496984 L6.8082538,11.7627441 C6.60826584,12.4038014 5.93453844,12.9024773 5.26157389,12.9024768 L4.29056176,12.9015178 C4.1305335,12.9015178 4,13.0317833 4,13.189201 L4,14.80888 C4,14.966711 4.13094611,15.0975227 4.29056176,15.0975227 L5.26256106,15.0975227 C5.94815411,15.0975227 6.60677245,15.6069394 6.79015025,16.1911701 L7.36970364,17.5920772 L6.44565597,17.9743545 L7.32652327,17.5009912 C7.64649174,18.0964108 7.52395919,18.9279884 7.04576318,19.4006378 L6.35770992,20.0877292 C6.24625988,20.1996071 6.24632827,20.3880404 6.35672317,20.4992966 L7.50298954,21.6436434 C7.61400873,21.7546626 7.79940089,21.75473 7.91239467,21.6421667 L8.59875514,20.9586877 C9.08578289,20.4688118 9.91326201,20.3671665 10.4479762,20.6529978 L11.762091,21.1957452 C12.4049198,21.3943876 12.9024773,22.0688545 12.9024773,22.7422366 L12.9024773,23.7103978 C12.9024773,23.8690877 13.0333224,24 13.19112,24 L13.19112,24 Z M13.19112,25 C12.4810712,25 11.9024773,24.4214061 11.9024773,23.7103978 L11.9024773,22.7422366 C11.9024773,22.5071528 11.6904222,22.2202547 11.4668528,22.1511689 L10.0688241,21.5783322 C9.82030705,21.4478367 9.4719993,21.4986916 9.30792045,21.6637299 L8.61802163,22.3507502 C8.11427076,22.852582 7.29675506,22.8516225 6.79588276,22.3507502 L5.65020935,21.2069958 C5.14933706,20.7022854 5.14933706,19.8838102 5.64924983,19.3819784 L6.33914864,18.6930391 C6.50514655,18.5289602 6.5560014,18.179693 6.44565597,17.9743545 L5.86610258,16.5734473 C5.78166434,16.3095778 5.49572575,16.0975227 5.26256106,16.0975227 L4.29056176,16.0975227 C3.57859386,16.0975227 3,15.5189288 3,14.80888 L3,13.189201 C3,12.4791521 3.57859386,11.9015178 4.29056176,11.9015178 L5.26256106,11.9024773 C5.49572575,11.9024773 5.78358339,11.6894627 5.85362875,11.4649337 L6.42454641,10.0707432 C6.5560014,9.82030705 6.50418702,9.4719993 6.33818911,9.30696092 L5.65116888,8.61706211 C5.40840893,8.37526169 5.27311584,8.05094208 5.27407537,7.70455338 C5.27407537,7.35912421 5.40840893,7.03480461 5.6521284,6.79300419 L6.79588276,5.65020935 C7.29963364,5.147418 8.11618981,5.147418 8.61898116,5.65020935 L9.30792045,6.33818911 C9.47487788,6.50610607 9.818388,6.5560014 10.0285241,6.44469644 L11.4265527,5.86706211 C11.6904222,5.78262387 11.9024773,5.49572575 11.9024773,5.26160154 L11.9024773,4.29056176 C11.9024773,3.57859386 12.4810712,3 13.19112,3 L14.8098395,3 C15.5218074,3 16.1004013,3.57859386 16.1004013,4.29056176 L16.1004013,5.26160154 C16.1004013,5.49572575 16.3124564,5.78262387 16.5360258,5.85266923 L17.9282973,6.42358688 C18.1777739,6.55504187 18.5280007,6.50418702 18.6920796,6.33914864 L19.3848569,5.64924983 C19.6266574,5.40744941 19.9500174,5.27311584 20.2954466,5.27311584 C20.6418353,5.27407537 20.9642359,5.40744941 21.2060363,5.65116888 L22.3526692,6.79300419 C22.854501,7.29675506 22.854501,8.11427076 22.3536288,8.61706211 L21.6627704,9.30696092 C21.4986916,9.47103978 21.4468772,9.82126657 21.5572226,10.026605 L22.1358165,11.4246336 C22.2202547,11.6904222 22.5061933,11.9015178 22.741277,11.9015178 L23.7113573,11.9015178 C24.4214061,11.9015178 25,12.4791521 25,13.189201 L25,14.8098395 C25,15.5198883 24.4214061,16.0975227 23.7113573,16.0975227 L22.741277,16.0975227 C22.5071528,16.0975227 22.2202547,16.3095778 22.1502094,16.5331472 L21.5773726,17.9292568 C21.4468772,18.1787334 21.4986916,18.5289602 21.6627704,18.6939986 L22.3526692,19.3810188 C22.854501,19.8847697 22.854501,20.7032449 22.3536288,21.2060363 L21.2050768,22.3507502 C20.9632763,22.5935101 20.6399163,22.7278437 20.2944871,22.7278437 C19.9490579,22.7278437 19.6256978,22.5935101 19.3829379,22.3497906 L18.6968772,21.6627704 C18.5327983,21.4986916 18.1825715,21.4459177 17.9791521,21.5572226 L16.5763259,22.136776 C16.3124564,22.2202547 16.1004013,22.5071528 16.1004013,22.7422366 L16.1004013,23.7103978 C16.1004013,24.4214061 15.5218074,25 14.8098395,25 L13.19112,25 L13.19112,25 Z M14,19 C11.2385763,19 9,16.7614237 9,14 C9,11.2385763 11.2385763,9 14,9 C16.7614237,9 19,11.2385763 19,14 C19,16.7614237 16.7614237,19 14,19 Z M14,18 C16.209139,18 18,16.209139 18,14 C18,11.790861 16.209139,10 14,10 C11.790861,10 10,11.790861 10,14 C10,16.209139 11.790861,18 14,18 Z" id="path-1"></path>
    </defs>
    <g id="Glyphs/Nav-or-Toolbar/Settings" stroke="none" stroke-width="1" fill="none" fill-rule="evenodd">
        <mask id="mask-2" fill="white">
            <use xlink:href="#path-1"></use>
        </mask>
        <use id="Settings" fill="#007AFF" fill-rule="nonzero" xlink:href="#path-1"></use>
        <g id="_Resources/Colors/Tint-1" mask="url(#mask-2)" fill="#F0EBFB">
            <rect id="Swatch" x="0" y="0" width="28" height="28"></rect>
        </g>
    </g>
</svg>