<?xml version="1.0" encoding="UTF-8"?>
<svg width="100%" viewBox="0 0 25 25" version="1.1" xmlns="http://www.w3.org/2000/svg" xmlns:xlink="http://www.w3.org/1999/xlink">
    <!-- Generator: Sketch 49.1 (51147) - http://www.bohemiancoding.com/sketch -->
    <title>Glyphs/Nav or Toolbar/Settings - Filled</title>
    <desc>Created with Sketch.</desc>
    <defs>
        <path d="M13.19112,25 C12.4810712,25 11.9024773,24.4214061 11.9024773,23.7103978 L11.9024773,22.7422366 C11.9024773,22.5071528 11.6904222,22.2202547 11.4668528,22.1511689 L10.0688241,21.5783322 C9.82030705,21.4478367 9.4719993,21.4986916 9.30792045,21.6637299 L8.61802163,22.3507502 C8.11427076,22.852582 7.29675506,22.8516225 6.79588276,22.3507502 L5.65020935,21.2069958 C5.14933706,20.7022854 5.14933706,19.8838102 5.64924983,19.3819784 L6.33914864,18.6930391 C6.50514655,18.5289602 6.5560014,18.179693 6.44565597,17.9743545 L5.86610258,16.5734473 C5.78166434,16.3095778 5.49572575,16.0975227 5.26256106,16.0975227 L4.29056176,16.0975227 C3.57859386,16.0975227 3,15.5189288 3,14.80888 L3,13.189201 C3,12.4791521 3.57859386,11.9015178 4.29056176,11.9015178 L5.26256106,11.9024773 C5.49572575,11.9024773 5.78358339,11.6894627 5.85362875,11.4649337 L6.42454641,10.0707432 C6.5560014,9.82030705 6.50418702,9.4719993 6.33818911,9.30696092 L5.65116888,8.61706211 C5.40840893,8.37526169 5.27311584,8.05094208 5.27407537,7.70455338 C5.27407537,7.35912421 5.40840893,7.03480461 5.6521284,6.79300419 L6.79588276,5.65020935 C7.29963364,5.147418 8.11618981,5.147418 8.61898116,5.65020935 L9.30792045,6.33818911 C9.47487788,6.50610607 9.818388,6.5560014 10.0285241,6.44469644 L11.4265527,5.86706211 C11.6904222,5.78262387 11.9024773,5.49572575 11.9024773,5.26160154 L11.9024773,4.29056176 C11.9024773,3.57859386 12.4810712,3 13.19112,3 L14.8098395,3 C15.5218074,3 16.1004013,3.57859386 16.1004013,4.29056176 L16.1004013,5.26160154 C16.1004013,5.49572575 16.3124564,5.78262387 16.5360258,5.85266923 L17.9282973,6.42358688 C18.1777739,6.55504187 18.5280007,6.50418702 18.6920796,6.33914864 L19.3848569,5.64924983 C19.6266574,5.40744941 19.9500174,5.27311584 20.2954466,5.27311584 C20.6418353,5.27407537 20.9642359,5.40744941 21.2060363,5.65116888 L22.3526692,6.79300419 C22.854501,7.29675506 22.854501,8.11427076 22.3536288,8.61706211 L21.6627704,9.30696092 C21.4986916,9.47103978 21.4468772,9.82126657 21.5572226,10.026605 L22.1358165,11.4246336 C22.2202547,11.6904222 22.5061933,11.9015178 22.741277,11.9015178 L23.7113573,11.9015178 C24.4214061,11.9015178 25,12.4791521 25,13.189201 L25,14.8098395 C25,15.5198883 24.4214061,16.0975227 23.7113573,16.0975227 L22.741277,16.0975227 C22.5071528,16.0975227 22.2202547,16.3095778 22.1502094,16.5331472 L21.5773726,17.9292568 C21.4468772,18.1787334 21.4986916,18.5289602 21.6627704,18.6939986 L22.3526692,19.3810188 C22.854501,19.8847697 22.854501,20.7032449 22.3536288,21.2060363 L21.2050768,22.3507502 C20.9632763,22.5935101 20.6399163,22.7278437 20.2944871,22.7278437 C19.9490579,22.7278437 19.6256978,22.5935101 19.3829379,22.3497906 L18.6968772,21.6627704 C18.5327983,21.4986916 18.1825715,21.4459177 17.9791521,21.5572226 L16.5763259,22.136776 C16.3124564,22.2202547 16.1004013,22.5071528 16.1004013,22.7422366 L16.1004013,23.7103978 C16.1004013,24.4214061 15.5218074,25 14.8098395,25 L13.19112,25 Z M14,19 C16.7614237,19 19,16.7614237 19,14 C19,11.2385763 16.7614237,9 14,9 C11.2385763,9 9,11.2385763 9,14 C9,16.7614237 11.2385763,19 14,19 Z" id="path-1"></path>
    </defs>
    <g id="Glyphs/Nav-or-Toolbar/Settings---Filled" stroke="none" stroke-width="1" fill="none" fill-rule="evenodd">
        <mask id="mask-2" fill="white">
            <use xlink:href="#path-1"></use>
        </mask>
        <use id="Combined-Shape" fill="#007AFF" fill-rule="nonzero" xlink:href="#path-1"></use>
        <g id="_Resources/Colors/Tint-1" mask="url(#mask-2)" fill="#F0EBFB">
            <rect id="Swatch" x="0" y="0" width="28" height="28"></rect>
        </g>
    </g>
</svg>