<?xml version="1.0" encoding="UTF-8"?>
<svg width="100%" viewBox="0 0 25 25" version="1.1" xmlns="http://www.w3.org/2000/svg" xmlns:xlink="http://www.w3.org/1999/xlink">
    <!-- Generator: Sketch 49.1 (51147) - http://www.bohemiancoding.com/sketch -->
    <title>Glyphs/Nav or Toolbar/Signature</title>
    <desc>Created with Sketch.</desc>
    <defs>
        <path d="M5.5,13.8 L8.3,11 L9,11.7 L6.2,14.5 L9,17.3 L8.3,18 L5.5,15.2 L2.7,18 L2,17.3 L4.8,14.5 L2,11.7 L2.7,11 L5.5,13.8 Z M25.9672732,18.9416799 L24.9712732,18.8486799 C24.9962732,18.5956799 24.9772732,18.3446799 24.9172732,18.1006799 C24.8742732,17.9286799 24.8232732,17.8066799 24.7512732,17.7156799 C24.6182732,17.5416799 24.3902732,17.4646799 24.1802732,17.5126799 C23.2642732,17.5836799 22.4312732,17.7306799 21.6262732,17.9616799 L21.2212732,18.0826799 C20.4412732,18.3196799 19.5582732,18.5886799 18.6262732,18.3866799 C17.6842732,18.1816799 16.9122732,17.5606799 16.4092732,16.6646799 C14.5542732,17.0776799 12.6602732,17.1736799 10.7642732,16.9396799 L10.8852732,15.9476799 C12.6032732,16.1566799 14.3242732,16.0836799 16.0122732,15.7266799 C15.8802732,15.2966799 15.7992732,14.8266799 15.7752732,14.3286799 C15.7042732,12.9246799 16.0532732,11.4386799 16.8422732,9.78867989 C17.7582732,7.87767989 18.8842732,6.70967989 20.2862732,6.21667989 C21.2192732,5.88867989 22.1652732,5.93467989 22.9502732,6.34367989 C23.7562732,6.76567989 24.2922732,7.47267989 24.5002732,8.38967989 C24.7932732,9.68467989 24.3762732,11.2876799 23.4112732,12.5746799 C22.0932732,14.3286799 20.0302732,15.6466799 17.4222732,16.4036799 C17.7492732,16.8936799 18.2122732,17.2726799 18.8392732,17.4096799 C19.5122732,17.5576799 20.2012732,17.3466799 20.9312732,17.1256799 L21.3512732,17.0006799 C22.2222732,16.7506799 23.1242732,16.5916799 24.0312732,16.5256799 C24.5482732,16.3996799 25.1712732,16.6226799 25.5422732,17.1026799 C25.6992732,17.3046799 25.8122732,17.5536799 25.8882732,17.8616799 C25.9752732,18.2146799 26.0012732,18.5776799 25.9672732,18.9416799 Z M21.756,6.99767989 C21.415,6.99767989 21.102,7.07267989 20.853,7.15967989 C19.715,7.55967989 18.776,8.56067989 17.981,10.2206799 C17.265,11.7166799 16.947,13.0446799 17.009,14.2786799 C17.028,14.6666799 17.098,15.0856799 17.226,15.4876799 C19.696,14.7986799 21.636,13.5866799 22.847,11.9756799 C23.641,10.9156799 23.991,9.62667989 23.761,8.60967989 C23.618,7.97967989 23.269,7.51567989 22.723,7.22967989 C22.396,7.05967989 22.065,6.99767989 21.756,6.99767989 Z M2,21 L26,21 L26,22 L2,22 L2,21 Z" id="path-1"></path>
    </defs>
    <g id="Glyphs/Nav-or-Toolbar/Signature" stroke="none" stroke-width="1" fill="none" fill-rule="evenodd">
        <mask id="mask-2" fill="white">
            <use xlink:href="#path-1"></use>
        </mask>
        <use id="Signature" fill="#007AFF" xlink:href="#path-1"></use>
        <g id="_Resources/Colors/Tint-1" mask="url(#mask-2)" fill="#F0EBFB">
            <rect id="Swatch" x="0" y="0" width="28" height="28"></rect>
        </g>
    </g>
</svg>