<?xml version="1.0" encoding="UTF-8"?>
<svg width="100%" viewBox="0 0 25 25" version="1.1" xmlns="http://www.w3.org/2000/svg" xmlns:xlink="http://www.w3.org/1999/xlink">
    <!-- Generator: Sketch 49.1 (51147) - http://www.bohemiancoding.com/sketch -->
    <title>Glyphs/Nav or Toolbar/Sketch</title>
    <desc>Created with Sketch.</desc>
    <defs>
        <path d="M26.4990073,5.82113609 L22.4990073,11.4461361 L18.2490073,8.82113609 L20.4990073,5.82113609 L26.4990073,5.82113609 L26.4990073,5.82113609 Z M16.6815073,15.5396361 C16.6590073,15.7506361 16.8925073,15.8921361 17.0690073,15.7746361 L21.4990073,12.8211361 L17.2490073,10.3211361 L16.6815073,15.5396361 L16.6815073,15.5396361 Z M13.4575073,16.5296361 C11.5675073,18.5791361 8.6920073,19.7526361 5.9280073,19.8646361 C5.1800073,19.8946361 4.3515073,19.8951361 3.6550073,19.5841361 C2.8425073,19.2211361 2.6420073,18.4536361 3.0085073,17.6761361 C3.5660073,16.4926361 4.7660073,15.9096361 5.9265073,15.4651361 C7.3015073,14.9386361 8.7450073,14.6036361 10.0975073,14.0146361 C10.9240073,13.6546361 11.6455073,13.0241361 11.9990073,12.1751361 C12.5230073,10.9166361 11.6535073,9.59963609 10.6505073,8.88113609 C9.4905073,8.05013609 7.9895073,7.97563609 6.6330073,8.26813609 C5.5525073,8.50113609 4.3715073,8.92963609 3.4465073,9.54613609 C3.3645073,9.60063609 2.7035073,10.0481361 2.8790073,10.1751361 C2.9920073,10.2561361 3.4725073,9.96513609 3.5835073,9.91363609 C3.8855073,9.77313609 4.1815073,9.61813609 4.4790073,9.46713609 C6.0310073,8.67863609 7.8025073,8.41863609 9.4785073,9.00863609 C10.9640073,9.53163609 11.6395073,11.1931361 10.3740073,12.3626361 C9.4705073,13.1971361 8.0585073,13.5091361 6.9015073,13.8271361 C5.5550073,14.1966361 3.9840073,14.6146361 2.9110073,15.5551361 C1.9845073,16.3666361 1.4055073,17.6156361 1.5140073,18.8566361 C1.5450073,19.2101361 1.6320073,19.5576361 1.7735073,19.8831361 C2.3095073,21.1191361 3.8100073,21.7731361 5.0540073,22.0191361 C7.8545073,22.5731361 10.7910073,21.6166361 13.2000073,20.2191361 C13.6990073,19.9296361 14.1720073,19.6001361 14.6400073,19.2641361 C15.0665073,18.9576361 15.5615073,18.6526361 15.8195073,18.1781361 C16.5715073,16.8001361 14.4965073,15.4026361 13.4575073,16.5296361 L13.4575073,16.5296361 Z" id="path-1"></path>
    </defs>
    <g id="Glyphs/Nav-or-Toolbar/Sketch" stroke="none" stroke-width="1" fill="none" fill-rule="evenodd">
        <mask id="mask-2" fill="white">
            <use xlink:href="#path-1"></use>
        </mask>
        <use id="Mask" fill="#007AFF" xlink:href="#path-1"></use>
        <g id="_Resources/Colors/Tint-1" mask="url(#mask-2)" fill="#F0EBFB">
            <rect id="Swatch" x="0" y="0" width="28" height="28"></rect>
        </g>
    </g>
</svg>