<?xml version="1.0" encoding="UTF-8"?>
<svg width="100%" viewBox="0 0 25 25" version="1.1" xmlns="http://www.w3.org/2000/svg" xmlns:xlink="http://www.w3.org/1999/xlink">
    <!-- Generator: Sketch 49.1 (51147) - http://www.bohemiancoding.com/sketch -->
    <title>Glyphs/Nav or Toolbar/Sleep</title>
    <desc>Created with Sketch.</desc>
    <defs>
        <path d="M5.52545343,16.235733 C5.37623723,14.6328875 5.92304262,12.9193522 6.12837439,12.4479055 C7.15404975,10.0929305 9.14375809,9 9.14375809,9 C9.14375809,9 8.93338294,9.85895753 9.01016529,11.5178182 C9.07279216,12.8708538 9.23524328,14.827875 10.6082173,16.6947398 C12.4954943,19.2609144 15.4310762,19.5368583 17.3054887,19.4603672 C18.4665231,19.4129877 19.143755,19.3011656 19.143755,19.3011656 C19.143755,19.3011656 18.0417855,21.1030804 16.3035416,22.0609503 C13.6026684,23.5492829 9.05036032,23.7725901 6.42068201,19.3011656 C6.04294213,18.6588682 5.64285286,17.4968103 5.52545343,16.235733 Z M12.824707,15 L12.824707,14.4770508 L15.5249023,10.7548828 L15.5249023,10.7275391 L12.9067383,10.7275391 L12.9067383,10.0678711 L16.4648438,10.0678711 L16.4648438,10.5908203 L13.7749023,14.3129883 L13.7749023,14.3369141 L16.5297852,14.3369141 L16.5297852,15 L12.824707,15 Z M18.7172852,12 L18.7172852,11.519043 L20.5068359,9.10449219 L20.5068359,9.08496094 L18.7587891,9.08496094 L18.7587891,8.47705078 L21.3881836,8.47705078 L21.3881836,8.95556641 L19.605957,11.3725586 L19.605957,11.3896484 L21.4370117,11.3896484 L21.4370117,12 L18.7172852,12 Z M15.6738281,8 L15.6738281,7.61523438 L17.1054688,5.68359375 L17.1054688,5.66796875 L15.7070313,5.66796875 L15.7070313,5.18164062 L17.8105469,5.18164062 L17.8105469,5.56445312 L16.3847656,7.49804688 L16.3847656,7.51171875 L17.8496094,7.51171875 L17.8496094,8 L15.6738281,8 Z" id="path-1"></path>
    </defs>
    <g id="Glyphs/Nav-or-Toolbar/Sleep" stroke="none" stroke-width="1" fill="none" fill-rule="evenodd">
        <mask id="mask-2" fill="white">
            <use xlink:href="#path-1"></use>
        </mask>
        <use id="Combined-Shape" fill="#007AFF" xlink:href="#path-1"></use>
        <g id="_Resources/Colors/Tint-1" mask="url(#mask-2)" fill="#F0EBFB">
            <rect id="Swatch" x="0" y="0" width="28" height="28"></rect>
        </g>
    </g>
</svg>