<?xml version="1.0" encoding="UTF-8"?>
<svg width="100%" viewBox="0 0 25 25" version="1.1" xmlns="http://www.w3.org/2000/svg" xmlns:xlink="http://www.w3.org/1999/xlink">
    <!-- Generator: Sketch 49.1 (51147) - http://www.bohemiancoding.com/sketch -->
    <title>Glyphs/Nav or Toolbar/Sound On</title>
    <desc>Created with Sketch.</desc>
    <defs>
        <path d="M23.8091687,3.30137405 C23.591172,3.02237829 23.1071794,2.8898803 22.8326836,3.11137694 C22.5586877,3.33237358 22.41069,3.82336613 22.6281867,4.10236189 C24.8546528,6.94981864 26.031635,10.3807665 26.031635,14.0242112 C26.031635,17.6681558 24.8546528,21.0991037 22.6281867,23.9465605 C22.41069,24.2255562 22.5586877,24.7165488 22.8326836,24.9375454 C22.9496818,25.031544 23.1731784,24.9915446 23.3111763,24.9915446 C23.4981734,24.9915446 23.6841706,24.9080459 23.8091687,24.7475483 C26.2151322,21.669595 27.4871129,17.9616514 27.4871129,14.0242112 C27.4871129,10.087271 26.2151322,6.3793273 23.8091687,3.30137405 M20.3202217,6.2738289 C20.102725,5.99933307 19.643732,5.9053345 19.3742361,6.12883111 C19.1062402,6.35182772 18.8987433,6.80632081 19.11624,7.08031665 C20.6632165,9.03128702 21.5147036,11.4922496 21.5147036,14.0087114 C21.5147036,16.5256732 20.6632165,18.9861358 19.11624,20.9371062 C18.8987433,21.211102 19.0897404,21.6655951 19.3577363,21.8885917 C19.4737346,21.9850903 19.6962312,21.9800903 19.8342291,21.9800903 C20.0167263,21.9800903 20.1967236,21.8995916 20.3202217,21.7435939 C22.0466955,19.565127 22.9976811,16.8186687 22.9976811,14.0087114 C22.9976811,11.1992541 22.0466955,8.45229581 20.3202217,6.2738289 M15.7542911,9.12728556 C15.4812952,9.35128216 15.2762983,9.74577617 15.5087948,10.0082722 C16.4952798,11.1232552 17.0382716,12.5437337 17.0382716,14.0082114 C17.0382716,15.4731892 16.4952798,16.8936676 15.5087948,18.0081507 C15.2762983,18.2706467 15.4812952,18.6656407 15.7542911,18.8891373 C15.8762892,18.9896358 16.0262869,19.039135 16.1742847,19.039135 C16.3577819,19.039135 16.5397791,18.9641361 16.6682772,18.8196383 C17.8542592,17.4791587 18.5077493,15.7701847 18.5077493,14.0082114 C18.5077493,12.2462382 17.8542592,10.5377641 16.6682772,9.1972845 C16.4362807,8.93478848 16.0267869,8.90228898 15.7542911,9.12728556 M12.0843468,6.68382268 L6.3124345,11.0122569 L2,11.0122569 L2,17.5121582 L6.10993757,17.5121582 L12.0843468,21.9930901 C12.3043435,22.1580876 12.4843407,22.068089 12.4843407,21.7930932 L12.4843407,6.88381964 C12.4843407,6.60882381 12.3043435,6.51882518 12.0843468,6.68382268" id="path-1"></path>
    </defs>
    <g id="Glyphs/Nav-or-Toolbar/Sound-On" stroke="none" stroke-width="1" fill="none" fill-rule="evenodd">
        <mask id="mask-2" fill="white">
            <use xlink:href="#path-1"></use>
        </mask>
        <use id="louder-icon" fill="#007AFF" xlink:href="#path-1"></use>
        <g id="_Resources/Colors/Tint-1" mask="url(#mask-2)" fill="#F0EBFB">
            <rect id="Swatch" x="0" y="0" width="28" height="28"></rect>
        </g>
    </g>
</svg>