<?xml version="1.0" encoding="UTF-8"?>
<svg width="100%" viewBox="0 0 25 25" version="1.1" xmlns="http://www.w3.org/2000/svg" xmlns:xlink="http://www.w3.org/1999/xlink">
    <!-- Generator: Sketch 49.1 (51147) - http://www.bohemiancoding.com/sketch -->
    <title>Glyphs/Nav or Toolbar/Stopwatch - Filled</title>
    <desc>Created with Sketch.</desc>
    <defs>
        <path d="M12.9334754,13.5853529 C12.3508792,13.7912711 11.9334754,14.3468906 11.9334754,15 C11.9334754,15.8284271 12.6050483,16.5 13.4334754,16.5 C14.2619025,16.5 14.9334754,15.8284271 14.9334754,15 C14.9334754,14.3468906 14.5160716,13.7912711 13.9334754,13.5853529 L13.9334754,8.50342274 C13.9334754,8.23290253 13.7096178,8 13.4334754,8 C13.165409,8 12.9334754,8.22539004 12.9334754,8.50342274 L12.9334754,13.5853529 Z M12.4334754,4.04448922 L12.4334754,2 L14.4334754,2 L14.4334754,4.04448922 C16.9955392,4.27357992 19.3740531,5.38113196 21.215246,7.22112701 C25.5062186,11.5102059 25.5062186,18.4897941 21.215246,22.7769539 C19.1365209,24.8543266 16.3728925,26 13.4334754,26 C10.4940583,26 7.73042989,24.8543266 5.65170486,22.7769539 C1.36073226,18.4897941 1.36073226,11.5102059 5.65170486,7.22112701 C7.49289776,5.38113196 9.87141166,4.27357992 12.4334754,4.04448922 Z M24.0734754,5.40022478 C24.2064754,5.40522478 24.3384754,5.46222478 24.4364754,5.56722478 L25.4264754,6.62422478 C25.6224754,6.83422478 25.6114754,7.16622478 25.4014754,7.36222478 L25.0924754,7.65222478 C24.8824754,7.84822478 24.5514754,7.83722478 24.3544754,7.62722478 L24.2234754,7.48822478 L23.6994754,8.00422478 L22.9334754,7.22822478 L23.4804754,6.69022478 L23.3654754,6.56722478 C23.1694754,6.35722478 23.1804754,6.02822478 23.3904754,5.83222478 L23.7014754,5.54222478 C23.8064754,5.44422478 23.9404754,5.39622478 24.0734754,5.40022478 Z" id="path-1"></path>
    </defs>
    <g id="Glyphs/Nav-or-Toolbar/Stopwatch---Filled" stroke="none" stroke-width="1" fill="none" fill-rule="evenodd">
        <mask id="mask-2" fill="white">
            <use xlink:href="#path-1"></use>
        </mask>
        <use id="Stopwatch" fill="#007AFF" xlink:href="#path-1"></use>
        <g id="_Resources/Colors/Tint-1" mask="url(#mask-2)" fill="#F0EBFB">
            <rect id="Swatch" x="0" y="0" width="28" height="28"></rect>
        </g>
    </g>
</svg>
