<?xml version="1.0" encoding="UTF-8"?>
<svg width="100%" viewBox="0 0 25 25" version="1.1" xmlns="http://www.w3.org/2000/svg" xmlns:xlink="http://www.w3.org/1999/xlink">
    <!-- Generator: Sketch 49.1 (51147) - http://www.bohemiancoding.com/sketch -->
    <title>Glyphs/Nav or Toolbar/Sunny - Filled</title>
    <desc>Created with Sketch.</desc>
    <defs>
        <path d="M14,19.9874354 C10.6887406,19.9874354 8.00443456,17.3031293 8.00443456,13.99187 C8.00443456,10.6806106 10.6887406,7.99630454 14,7.99630454 C17.3112594,7.99630454 19.9955654,10.6806106 19.9955654,13.99187 C19.9955654,17.3031293 17.3112594,19.9874354 14,19.9874354 Z M13.2505543,3.2443389 C13.2505543,3.10939425 13.3681698,3 13.4980657,3 L14.5019343,3 C14.638631,3 14.7494457,3.11304048 14.7494457,3.2443389 L14.7494457,6.15314828 C14.7494457,6.28809293 14.6318302,6.39748718 14.5019343,6.39748718 L13.4980657,6.39748718 C13.361369,6.39748718 13.2505543,6.2844467 13.2505543,6.15314828 L13.2505543,3.2443389 Z M13.2505543,21.8468517 C13.2505543,21.7119071 13.3681698,21.6025128 13.4980657,21.6025128 L14.5019343,21.6025128 C14.638631,21.6025128 14.7494457,21.7155533 14.7494457,21.8468517 L14.7494457,24.7556611 C14.7494457,24.8906057 14.6318302,25 14.5019343,25 L13.4980657,25 C13.361369,25 13.2505543,24.8869595 13.2505543,24.7556611 L13.2505543,21.8468517 Z M5.86466098,6.92453722 C5.7692407,6.82911695 5.775054,6.66859682 5.86690429,6.57674652 L6.57674652,5.86690429 C6.67340575,5.77024507 6.83169522,5.77181897 6.92453722,5.86466098 L8.98137606,7.92149982 C9.07679634,8.01692009 9.07098304,8.17744022 8.97913275,8.26929051 L8.26929051,8.97913275 C8.17263129,9.07579197 8.01434182,9.07421806 7.92149982,8.98137606 L5.86466098,6.92453722 Z M19.0186239,20.0785002 C18.9232037,19.9830799 18.929017,19.8225598 19.0208673,19.7307095 L19.7307095,19.0208673 C19.8273687,18.924208 19.9856582,18.9257819 20.0785002,19.0186239 L22.135339,21.0754628 C22.2307593,21.1708831 22.224946,21.3314032 22.1330957,21.4232535 L21.4232535,22.1330957 C21.3265943,22.2297549 21.1683048,22.228181 21.0754628,22.135339 L19.0186239,20.0785002 Z M24.7556611,13.2505543 C24.8906057,13.2505543 25,13.3681698 25,13.4980657 L25,14.5019343 C25,14.638631 24.8869595,14.7494457 24.7556611,14.7494457 L21.8468517,14.7494457 C21.7119071,14.7494457 21.6025128,14.6318302 21.6025128,14.5019343 L21.6025128,13.4980657 C21.6025128,13.361369 21.7155533,13.2505543 21.8468517,13.2505543 L24.7556611,13.2505543 Z M6.15314828,13.2505543 C6.28809293,13.2505543 6.39748718,13.3681698 6.39748718,13.4980657 L6.39748718,14.5019343 C6.39748718,14.638631 6.2844467,14.7494457 6.15314828,14.7494457 L3.2443389,14.7494457 C3.10939425,14.7494457 3,14.6318302 3,14.5019343 L3,13.4980657 C3,13.361369 3.11304048,13.2505543 3.2443389,13.2505543 L6.15314828,13.2505543 Z M21.0754628,5.86466098 C21.1708831,5.7692407 21.3314032,5.775054 21.4232535,5.86690429 L22.1330957,6.57674652 C22.2297549,6.67340575 22.228181,6.83169522 22.135339,6.92453722 L20.0785002,8.98137606 C19.9830799,9.07679634 19.8225598,9.07098304 19.7307095,8.97913275 L19.0208673,8.26929051 C18.924208,8.17263129 18.9257819,8.01434182 19.0186239,7.92149982 L21.0754628,5.86466098 Z M7.92149982,19.0186239 C8.01692009,18.9232037 8.17744022,18.929017 8.26929051,19.0208673 L8.97913275,19.7307095 C9.07579197,19.8273687 9.07421806,19.9856582 8.98137606,20.0785002 L6.92453722,22.135339 C6.82911695,22.2307593 6.66859682,22.224946 6.57674652,22.1330957 L5.86690429,21.4232535 C5.77024507,21.3265943 5.77181897,21.1683048 5.86466098,21.0754628 L7.92149982,19.0186239 Z" id="path-1"></path>
    </defs>
    <g id="Glyphs/Nav-or-Toolbar/Sunny---Filled" stroke="none" stroke-width="1" fill="none" fill-rule="evenodd">
        <mask id="mask-2" fill="white">
            <use xlink:href="#path-1"></use>
        </mask>
        <use id="Sunny" fill="#007AFF" xlink:href="#path-1"></use>
        <g id="_Resources/Colors/Tint-1" mask="url(#mask-2)" fill="#F0EBFB">
            <rect id="Swatch" x="0" y="0" width="28" height="28"></rect>
        </g>
    </g>
</svg>
