<?xml version="1.0" encoding="UTF-8"?>
<svg width="100%" viewBox="0 0 25 25" version="1.1" xmlns="http://www.w3.org/2000/svg" xmlns:xlink="http://www.w3.org/1999/xlink">
    <!-- Generator: Sketch 49.1 (51147) - http://www.bohemiancoding.com/sketch -->
    <title>Glyphs/Nav or Toolbar/Tag</title>
    <desc>Created with Sketch.</desc>
    <defs>
        <path d="M24.69968,15.1601572 C25.6998837,16.1610814 25.6995839,17.2821547 25.1011464,18.2789355 C24.9550413,18.522294 24.8071845,18.7028869 24.69863,18.8113639 C23.9036668,19.6063272 23.9036668,19.6063272 21.518777,21.9912148 C19.929234,23.5807552 19.929234,23.5807552 18.81044,24.6995439 C17.8101989,25.699785 16.6893439,25.699785 15.6926047,25.1017415 C15.4493713,24.9558015 15.2688581,24.8081088 15.1602932,24.6995439 L2.50013661,12.0393853 L2.50013661,2.50000056 L12.0384514,2.50000056 L12.1848951,2.64643023 C12.5810388,3.042536 12.5810388,3.042536 14.1656133,4.62696138 C16.1463314,6.60749515 16.1463314,6.60749515 18.5231934,8.98414288 C21.864316,12.3249682 24.0949485,14.5554257 24.69968,15.1601572 Z M3.50013661,11.6251718 L15.8674,23.9924372 C15.9223374,24.0473745 16.0415782,24.1449352 16.2071004,24.2442485 C16.8453834,24.6272183 17.4685521,24.6272183 18.1033332,23.9924372 C19.222128,22.8736476 19.222128,22.8736476 20.8116707,21.2841075 C23.1965601,18.8992203 23.1965601,18.8992203 23.9916493,18.1041311 C24.0466655,18.0491542 24.1443537,17.9298374 24.2437936,17.7642064 C24.6270694,17.1258071 24.6272362,16.5023842 23.9924459,15.8671366 C23.387858,15.2625487 21.1572211,13.032087 17.8161832,9.69134626 C15.4392571,7.31463441 15.4392571,7.31463441 13.4585396,5.33410124 C12.0924212,3.96811143 11.9040827,3.77979066 11.6242661,3.50000079 L3.50013661,3.50000056 L3.50013661,11.6251718 Z M8.53348265,8.53486189 C9.15185207,7.91649231 9.15185207,6.9157868 8.53371244,6.29764716 C7.91589639,5.67983188 6.91449132,5.6793351 6.29778278,6.29764716 C5.67968054,6.91574864 5.67968054,7.91733353 6.29824192,8.53509168 C6.91485622,9.15330986 7.9160856,9.15306151 8.53348265,8.53486189 Z M9.240819,9.24173895 C8.23302439,10.2508438 6.59756708,10.2512494 5.59090638,9.24196896 C4.58197268,8.23434758 4.58197268,6.59924247 5.5902173,5.59099968 C6.59720442,4.58139328 8.23248211,4.58220452 9.240819,5.59054016 C10.2494831,6.59920431 10.2494831,8.2330748 9.240819,9.24173895 Z" id="path-1"></path>
    </defs>
    <g id="Glyphs/Nav-or-Toolbar/Tag" stroke="none" stroke-width="1" fill="none" fill-rule="evenodd">
        <mask id="mask-2" fill="white">
            <use xlink:href="#path-1"></use>
        </mask>
        <use id="Stroke-336" fill="#007AFF" fill-rule="nonzero" xlink:href="#path-1"></use>
        <g id="_Resources/Colors/Tint-1" mask="url(#mask-2)" fill="#F0EBFB">
            <rect id="Swatch" x="0" y="0" width="28" height="28"></rect>
        </g>
    </g>
</svg>