<?xml version="1.0" encoding="UTF-8"?>
<svg width="100%" viewBox="0 0 25 25" version="1.1" xmlns="http://www.w3.org/2000/svg" xmlns:xlink="http://www.w3.org/1999/xlink">
    <!-- Generator: Sketch 49.1 (51147) - http://www.bohemiancoding.com/sketch -->
    <title>Glyphs/Nav or Toolbar/Thumb Print</title>
    <desc>Created with Sketch.</desc>
    <defs>
        <path d="M21.5421749,14.7260316 C21.1494715,14.5180316 20.8248498,14.2010316 20.6038308,13.8110316 C20.3295305,13.3260316 20.2328346,12.7550316 20.3334772,12.2040316 C20.3808384,11.8050316 20.4193194,11.3770316 20.4469468,10.9490316 C20.468654,10.6010316 20.4903613,10.1440316 20.465694,9.68403163 C20.4193194,8.79203163 20.209154,7.92803163 19.8430913,7.11703163 C19.4158537,6.27103163 18.7843708,5.49603163 18.0285647,4.89503163 C17.1681693,4.21303163 16.1449697,3.75003163 15.0684888,3.55703163 C14.2041466,3.44303163 13.3151371,3.49403163 12.4468481,3.71703163 C11.5627721,3.94403163 10.7438178,4.33803163 10.0107056,4.88703163 C9.31410106,5.35803163 8.73589955,5.97403163 8.32050223,6.68303163 C8.10046991,7.05803163 7.91299843,7.47603163 7.74723418,7.96403163 C7.59035015,8.42803163 7.46997373,8.90803163 7.38906499,9.39103163 L6.41618668,9.22503163 C6.50597565,8.68703163 6.63917907,8.15403163 6.81481025,7.63903163 C7.00228173,7.08603163 7.21738058,6.60603163 7.47194711,6.17203163 C7.96331973,5.33503163 8.64512389,4.60803163 9.4443444,4.06803163 C10.2603387,3.45603163 11.1957227,3.00703163 12.2041219,2.74703163 C13.1947607,2.49303163 14.2080933,2.43303163 15.2194526,2.56903163 C16.4755115,2.79403163 17.6506617,3.32503163 18.636367,4.10803163 C19.504656,4.79703163 20.2288879,5.68703163 20.7311141,6.68203163 C21.1583517,7.62703163 21.3981179,8.61203163 21.4513993,9.63103163 C21.4780399,10.1420316 21.455346,10.6380316 21.4316654,11.0120316 C21.4030513,11.4600316 21.362597,11.9080316 21.3083289,12.3550316 C21.2461673,12.7040316 21.3014221,13.0340316 21.4602795,13.3130316 C21.5865761,13.5380316 21.7730608,13.7200316 22,13.8400316 L21.5421749,14.7260316 Z M21.4568261,17.0976316 C20.9299325,16.9816316 20.4188261,16.7986316 19.9363337,16.5526316 C19.586058,16.3746316 19.076925,16.0816316 18.7009953,15.5906316 C18.4868832,15.3106316 18.3339459,14.9956316 18.2481037,14.6526316 C18.10306,14.1436316 18.0280714,13.6016316 18.0280714,13.0566316 C18.0280714,12.6996316 18.0616189,12.3436316 18.0951664,11.9886316 C18.1129269,11.8026316 18.1306874,11.6156316 18.1435144,11.4286316 C18.1908756,10.6886316 18.1474611,9.94463163 18.0152444,9.21663163 C17.9481493,8.83763163 17.8317197,8.47463163 17.6659554,8.13363163 C17.5436056,7.88163163 17.3906684,7.63363163 17.2110904,7.39763163 C16.9269231,7.02063163 16.6062482,6.71363163 16.260906,6.48163163 C15.8593224,6.21363163 15.3886703,6.02463163 14.8607901,5.92163163 C14.2095734,5.79263163 13.5534232,5.80563163 12.9081266,5.96063163 C12.2026419,6.11763163 11.5662255,6.47163163 11.0630126,6.98563163 C10.7522046,7.30363163 10.4897446,7.68263163 10.2845126,8.11163163 C10.0930944,8.51063163 9.95890428,8.93263163 9.88588907,9.36963163 C9.83655447,9.77363163 9.72012482,10.1866316 9.54449364,10.5766316 C9.39747654,10.9016316 9.22776551,11.1696316 9.02549365,11.3966316 C8.84196894,11.6036316 8.63377693,11.7716316 8.40683778,11.8956316 C8.12760394,12.0486316 7.80298228,12.1446316 7.41323894,12.1896316 C7.02152222,12.2336316 6.62783211,12.2236316 6.24203555,12.1566316 L6.40878649,11.1706316 C6.70282071,11.2206316 7.00474846,11.2296316 7.30075605,11.1966316 C7.56420281,11.1656316 7.77239482,11.1066316 7.93815908,11.0166316 C8.06445565,10.9476316 8.18384539,10.8496316 8.2923815,10.7276316 C8.42755831,10.5766316 8.54300127,10.3906316 8.64759062,10.1606316 C8.78178073,9.86363163 8.87058301,9.54863163 8.91005069,9.22363163 C9.00181305,8.67263163 9.16461723,8.15863163 9.39648984,7.67463163 C9.65006969,7.14663163 9.97469135,6.67763163 10.3624613,6.28163163 C10.9998643,5.63063163 11.805005,5.18163163 12.6900677,4.98563163 C13.4646209,4.80063163 14.2608814,4.78463163 15.0492483,4.93963163 C15.7034251,5.06863163 16.2934669,5.30563163 16.8035866,5.64663163 C17.2426646,5.93963163 17.6422748,6.32463163 17.9945239,6.78863163 C18.2125828,7.07663163 18.4000543,7.38063163 18.5510181,7.69163163 C18.7582235,8.11863163 18.9042539,8.57063163 18.9861493,9.03863163 C19.1331664,9.84463163 19.1805276,10.6716316 19.128233,11.4946316 C19.1144193,11.6916316 19.0956721,11.8886316 19.076925,12.0846316 C19.0463375,12.4086316 19.0147634,12.7316316 19.0147634,13.0566316 C19.0147634,13.5086316 19.076925,13.9566316 19.2002615,14.3906316 C19.2565029,14.6146316 19.349252,14.8066316 19.4794953,14.9766316 C19.6728869,15.2286316 19.9580409,15.4456316 20.3793584,15.6596316 C20.7878489,15.8666316 21.2210067,16.0226316 21.6669915,16.1206316 L21.4568261,17.0976316 Z M20.8594827,19.4105316 C20.0059942,19.2645316 19.1860531,18.9835316 18.4223535,18.5725316 C17.6310265,18.1475316 16.9176482,17.5955316 16.3049125,16.9305316 L17.0261843,16.2475316 C17.5639315,16.8305316 18.1885075,17.3155316 18.8841254,17.6885316 C19.5550759,18.0495316 20.2743744,18.2965316 21.0232736,18.4245316 L20.8594827,19.4105316 Z M6.35441976,17.1166316 L6.2518038,16.1216316 C7.1378532,16.0286316 8.01600908,15.8346316 8.86061742,15.5446316 C9.64701094,15.2746316 10.4077505,14.9206316 11.1231022,14.4916316 C11.9302162,14.0076316 12.5725527,13.2986316 12.9810432,12.4436316 C13.1724614,12.0466316 13.3076382,11.6226316 13.3846002,11.1836316 C13.4625489,10.7366316 13.4783359,10.2806316 13.4319614,9.82863163 L14.4127333,9.72463163 C14.4699614,10.2686316 14.4502276,10.8186316 14.3555051,11.3586316 C14.2627561,11.8886316 14.0989652,12.4006316 13.869066,12.8796316 C13.37572,13.9116316 12.6001801,14.7666316 11.6263151,15.3526316 C10.8517619,15.8166316 10.027874,16.1996316 9.17635886,16.4916316 C8.26268208,16.8056316 7.31249769,17.0156316 6.35441976,17.1166316 Z M6.8751958,19.4145316 L6.62654941,18.4465316 L10.065171,17.5405316 C10.7331615,17.3465316 11.3932584,17.0745316 12.0168478,16.7355316 C12.5871557,16.4265316 13.1288496,16.0585316 13.6291025,15.6435316 C13.9951652,15.3165316 14.3276804,14.9305316 14.6049409,14.5075316 C14.8752945,14.0975316 15.0933534,13.6525316 15.2522108,13.1855316 C15.4890169,12.5725316 15.6528078,11.9525316 15.7455568,11.3225316 C15.8254789,10.7835316 15.8531062,10.2325316 15.8274522,9.68453163 C15.7613439,9.29253163 15.5314446,8.88553163 15.1861024,8.59353163 C14.8861481,8.33953163 14.521072,8.18953163 14.1313287,8.16153163 C13.8027603,8.13253163 13.4791253,8.19153163 13.1900245,8.33653163 C12.8910569,8.48553163 12.6433972,8.71453163 12.4707261,9.00153163 L11.6300645,11.7845316 C11.4070721,12.2685316 11.1406653,12.6725316 10.8199904,13.0305316 C10.4341938,13.4615316 9.98031549,13.8165316 9.47216912,14.0865316 C8.90186115,14.3655316 8.31083264,14.5545316 7.70105699,14.6555316 C7.15442963,14.7455316 6.55945436,14.7315316 6,14.7045316 L6.04834791,13.7055316 C6.55353421,13.7305316 7.0843745,13.7445316 7.54219958,13.6675316 C8.05823949,13.5825316 8.55849233,13.4235316 9.02914441,13.1935316 C9.41987444,12.9855316 9.78100371,12.7025316 10.0888516,12.3585316 C10.3444048,12.0735316 10.5565436,11.7515316 10.7193478,11.4025316 L10.9847679,10.6435316 L11.5876367,8.55053163 C11.858977,8.06953163 12.2615474,7.68553163 12.75292,7.43953163 C13.2067983,7.21253163 13.7109979,7.11853163 14.2122374,7.16453163 C14.7993192,7.20753163 15.3587735,7.43653163 15.818572,7.82553163 C16.3454655,8.27153163 16.6967279,8.89453163 16.8072374,9.58153163 C16.8417716,10.2505316 16.8101975,10.8675316 16.7213952,11.4705316 C16.6177925,12.1745316 16.4342678,12.8685316 16.1777279,13.5325316 C15.99815,14.0605316 15.7425967,14.5815316 15.4268553,15.0615316 C15.1012469,15.5575316 14.7115036,16.0095316 14.2684789,16.4055316 C13.7050778,16.8735316 13.1091158,17.2775316 12.4835531,17.6175316 C11.7978021,17.9895316 11.0715968,18.2875316 10.3266444,18.5045316 L6.8751958,19.4145316 Z M20.2996337,21.7724316 C19.4668656,21.5054316 18.6400178,21.1904316 17.8427706,20.8344316 C17.1165653,20.5114316 16.3982536,20.1484316 15.7055958,19.7544316 C15.5112175,19.6174316 15.3355863,19.5534316 15.1520616,19.5424316 C15.0040578,19.5294316 14.8471737,19.5594316 14.7080502,19.6204316 C13.4934323,20.0414316 12.2926282,20.4234316 11.1056377,20.7714316 C9.93246093,21.1154316 8.73264347,21.4374316 7.53973285,21.7284316 L7.30884693,20.7554316 C8.48695717,20.4684316 9.67197425,20.1504316 10.8313373,19.8104316 C12.0045141,19.4664316 13.1895312,19.0894316 14.3538277,18.6884316 C14.5995141,18.5794316 14.9113087,18.5284316 15.2132365,18.5444316 C15.5802859,18.5674316 15.9335216,18.6944316 16.233476,18.9114316 C16.8531186,19.2604316 17.5428163,19.6094316 18.2394208,19.9184316 C19.0050938,20.2604316 19.7983942,20.5634316 20.5976147,20.8194316 L20.2996337,21.7724316 Z M18.8421909,23.7797316 C18.2057746,23.4747316 17.5644248,23.1697316 16.9161682,22.8657316 L16.0241986,22.4517316 C15.6788564,22.2367316 15.3473279,22.1307316 15.0088926,22.1127316 C14.7503793,22.0997316 14.4839724,22.1377316 14.2599933,22.1767316 C13.9906264,22.2237316 13.7242196,22.2827316 13.4587994,22.3557316 C12.8697443,22.5807316 12.2214877,22.7987316 11.5761911,22.9877316 C10.7059288,23.2427316 9.81099915,23.4557316 8.91508282,23.6197316 L8.74043834,22.6347316 C9.60182045,22.4777316 10.4641892,22.2727316 11.3018907,22.0267316 C11.9235067,21.8447316 12.547096,21.6347316 13.1568717,21.4047316 C13.4972804,21.3087316 13.7942747,21.2427316 14.0932424,21.1917316 C14.3547158,21.1457316 14.703018,21.0987316 15.0602005,21.1137316 C15.5663735,21.1407316 16.0616929,21.2997316 16.4909039,21.5727316 L17.3305788,21.9587316 C17.9808088,22.2627316 18.6251187,22.5697316 19.2635084,22.8757316 L18.8421909,23.7797316 Z M17.1791216,25.5018276 L15.3369676,24.7028276 C15.1139753,24.5948276 14.8949296,24.5398276 14.6689772,24.5318276 C14.4755855,24.5228276 14.2891008,24.5508276 14.1075494,24.6088276 L10.8524525,25.4228276 L10.6166332,24.4528276 L13.8401559,23.6478276 C14.0976825,23.5628276 14.4015836,23.5188276 14.7044981,23.5328276 C15.0676007,23.5458276 15.4168897,23.6328276 15.7444714,23.7928276 L17.5678782,24.5828276 L17.1791216,25.5018276 Z" id="path-1"></path>
    </defs>
    <g id="Glyphs/Nav-or-Toolbar/Thumb-Print" stroke="none" stroke-width="1" fill="none" fill-rule="evenodd">
        <mask id="mask-2" fill="white">
            <use xlink:href="#path-1"></use>
        </mask>
        <use id="Thumb-Print" fill="#007AFF" xlink:href="#path-1"></use>
        <g id="_Resources/Colors/Tint-1" mask="url(#mask-2)" fill="#F0EBFB">
            <rect id="Swatch" x="0" y="0" width="28" height="28"></rect>
        </g>
    </g>
</svg>