<?xml version="1.0" encoding="UTF-8"?>
<svg width="100%" viewBox="0 0 25 25" version="1.1" xmlns="http://www.w3.org/2000/svg" xmlns:xlink="http://www.w3.org/1999/xlink">
    <!-- Generator: Sketch 49.1 (51147) - http://www.bohemiancoding.com/sketch -->
    <title>Glyphs/Nav or Toolbar/Touch</title>
    <desc>Created with Sketch.</desc>
    <defs>
        <path d="M13.8351284,4.73263927 C14.3971116,4.00372413 16.5385378,1.64936902 20.503167,2.04433388 C22.9581914,2.28890868 25.9700368,3.15802373 26.6163416,8.10539039 C26.8370723,9.79505094 26.4594564,12.8081182 23.9798449,16.0887822 C20.5785409,20.5888967 14.8662398,25.1393111 13.9049764,25.891698 L13.904555,26 C13.904555,26 13.8807263,25.9816981 13.8351284,25.9462167 C13.7895305,25.9816981 13.7657018,26 13.7657018,26 L13.7652804,25.891698 C12.804017,25.1393111 7.09171593,20.5888967 3.69041189,16.0887822 C1.21080045,12.8081182 0.833184546,9.79505094 1.05391524,8.10539039 C1.70022003,3.15802373 4.7120654,2.28890868 7.16708979,2.04433388 C11.131719,1.64936902 13.2731452,4.00372413 13.8351284,4.73263927 Z" id="path-1"></path>
    </defs>
    <g id="Glyphs/Nav-or-Toolbar/Touch" stroke="none" stroke-width="1" fill="none" fill-rule="evenodd">
        <mask id="mask-2" fill="white">
            <use xlink:href="#path-1"></use>
        </mask>
        <use id="Combined-Shape" fill="#007AFF" xlink:href="#path-1"></use>
        <g id="_Resources/Colors/Tint-1" mask="url(#mask-2)" fill="#F0EBFB">
            <rect id="Swatch" x="0" y="0" width="28" height="28"></rect>
        </g>
        <g id="Fingers" mask="url(#mask-2)">
            <g transform="translate(21.727922, 19.727922) rotate(-45.000000) translate(-21.727922, -19.727922) translate(15.227922, 8.227922)" id="Finger">
                <g transform="translate(7.000000, 0.000000)">
                    <path d="M8.8817842e-16,2.49742191 C8.8817842e-16,1.39427625 0.890590936,0.5 1.99977653,0.5 L3.25022347,0.5 C4.35466955,0.5 5.25,1.39092539 5.25,2.49742191 L5.25,17.5025781 C5.25,18.6057238 4.35940906,19.5 3.25022347,19.5 L1.99977653,19.5 C0.89533045,19.5 8.8817842e-16,18.6090746 8.8817842e-16,17.5025781 L8.8817842e-16,2.49742191 Z M0.966053642,1.99538898 L1.23395094,4.00461102 C1.27123593,4.2842474 1.52172107,4.5 1.79522411,4.5 L3.50477894,4.5 C3.76979978,4.5 4.02957254,4.2782068 4.06605212,4.00461102 L4.33394941,1.99538898 C4.3712344,1.7157526 4.17548815,1.5 3.89853686,1.5 L1.40146619,1.5 C1.1296463,1.5 0.929574066,1.7217932 0.966053642,1.99538898 Z" id="Combined-Shape" fill="#FFFFFF"></path>
                </g>
                <g transform="translate(0.500000, 2.500000)">
                    <path d="M0,2.49742191 C0,1.39427625 0.890590936,0.5 1.99977653,0.5 L3.25022347,0.5 C4.35466955,0.5 5.25,1.39092539 5.25,2.49742191 L5.25,17.5025781 C5.25,18.6057238 4.35940906,19.5 3.25022347,19.5 L1.99977653,19.5 C0.89533045,19.5 0,18.6090746 0,17.5025781 L0,2.49742191 Z M0.966053642,1.99538898 L1.23395094,4.00461102 C1.27123593,4.2842474 1.52172107,4.5 1.79522411,4.5 L3.50477894,4.5 C3.76979978,4.5 4.02957254,4.2782068 4.06605212,4.00461102 L4.33394941,1.99538898 C4.3712344,1.7157526 4.17548815,1.5 3.89853686,1.5 L1.40146619,1.5 C1.1296463,1.5 0.929574066,1.7217932 0.966053642,1.99538898 Z" id="Combined-Shape" fill="#FFFFFF"></path>
                </g>
            </g>
        </g>
    </g>
</svg>