<?xml version="1.0" encoding="UTF-8"?>
<svg width="100%" viewBox="0 0 25 25" version="1.1" xmlns="http://www.w3.org/2000/svg" xmlns:xlink="http://www.w3.org/1999/xlink">
    <!-- Generator: Sketch 49.1 (51147) - http://www.bohemiancoding.com/sketch -->
    <title>Glyphs/Nav or Toolbar/Track</title>
    <desc>Created with Sketch.</desc>
    <defs>
        <path d="M24.8796987,8.29598536 L27.0056278,13.2019756 L27.04685,13.4007793 L27.04685,18.0569588 C27.0469146,18.515031 26.8496968,18.9564261 26.5106253,19.2685173 C26.1836193,19.5697687 25.772955,19.7133067 25.29685,19.7132793 L23.3059217,19.7132793 C23.2679492,19.326687 23.2453479,19.1176092 23.2381178,19.0860457 C23.1613189,18.7507764 22.9474511,18.5709872 22.818279,18.4418151 C22.1606271,17.7840976 21.1851151,17.8456719 20.4628913,18.4418448 C20.4092089,18.4861579 20.2380478,18.6546709 20.0756413,19.0860457 C19.9673702,19.3736289 19.9209243,19.5827068 19.9363035,19.7132793 L14.6719572,19.7132793 L16.9795347,18.751744 C17.0401365,18.7264921 17.0906012,18.7102316 17.1714545,18.6871481 C17.2609237,18.6616829 17.2704278,18.657587 17.2557903,18.6722322 C17.4090929,18.5189241 17.4843225,18.3483203 17.48435,18.1507793 L17.48435,8.18202929 L17.98435,8.18202929 L24.5113575,8.19010612 C24.5604519,8.20640951 24.5954668,8.21803732 24.6212399,8.22692698 C24.6273219,8.22793493 24.7134748,8.25095439 24.8796987,8.29598536 Z M18.48435,9.18202929 L18.48435,18.1508489 C18.4843225,18.3478832 18.4518019,18.5362588 18.3894617,18.7132793 L19.2419669,18.7132793 C19.3512788,18.2923161 19.4919757,17.9985287 19.7557966,17.7347259 C20.8040876,16.6864349 22.4772487,16.6864667 23.5254034,17.7347259 C23.78919,17.9985125 23.929826,18.2922185 24.0391844,18.7132793 L25.2968788,18.7132793 C25.5334707,18.7132929 25.7009595,18.6547512 25.8332362,18.5328925 C25.968515,18.4083779 26.0468748,18.2330001 26.04685,18.0570293 L26.04685,13.5044549 L24.1737989,9.18202929 L18.48435,9.18202929 Z M23.3823341,10.0888293 L25.0868327,13.9706216 L25.127957,14.1691993 L25.127957,14.8981763 L20.04845,14.8981763 L20.04845,10.0888293 L23.3823341,10.0888293 Z M21.04845,11.0888293 L21.04845,13.8981763 L23.9658624,13.8981763 L22.7501222,11.0888293 L21.04845,11.0888293 Z M2.73437043,5.45392929 L16.7344,5.45392929 C17.2095959,5.45392929 17.6415956,5.63387736 17.9729945,5.96525801 C18.3044042,6.29665101 18.4843589,6.72863961 18.4844,7.20392929 L18.4844,18.1414293 C18.4844,18.6166718 18.3044699,19.0486662 17.9730809,19.3800551 C17.6416855,19.7114647 17.2096908,19.8914019 16.7344,19.8914293 L9.35531736,19.8914293 L9.27525893,19.4889824 C9.17811173,19.0006317 9.08899471,18.7656531 8.91207257,18.5887086 C8.59617985,18.272773 8.18600047,18.110147 7.73442683,18.1101793 C7.27305177,18.110204 6.83563117,18.2785629 6.525445,18.5887411 C6.38739214,18.7267874 6.31156658,18.914184 6.23550705,19.2800149 C6.21999686,19.3558787 6.21999686,19.3558787 6.20429857,19.4350498 C6.19888762,19.4622736 6.19888762,19.4622736 6.19336971,19.4898398 L6.11275152,19.8914293 L2.73439999,19.8914293 C2.25862281,19.8914293 1.81845889,19.7124336 1.48333231,19.3832237 C1.14416789,19.0500404 0.95319195,18.6157722 0.953149995,18.1414293 L0.953149995,7.20392929 C0.953149995,6.72963541 1.14410074,6.29536932 1.4832486,5.9621736 C1.81836606,5.63293741 2.2585222,5.45395742 2.73437043,5.45392929 Z M10.1644466,18.8914293 L16.7343712,18.8914293 C16.9437307,18.8914172 17.1215978,18.8173309 17.2659666,18.6729559 C17.4103226,18.5285999 17.4844,18.3507474 17.4844,18.1414293 L17.4844,7.20397254 C17.4843819,6.99462835 17.4102843,6.81675413 17.2659063,6.67238339 C17.121536,6.52802096 16.9436647,6.45392929 16.7344,6.45392929 L2.73439999,6.45392929 C2.51996271,6.45394196 2.33165891,6.53051163 2.1840681,6.67551225 C2.03208203,6.82483092 1.95314999,7.00434059 1.95314999,7.20392929 L1.95314999,18.1413851 C1.95316765,18.3410017 2.03211965,18.5205339 2.1841174,18.6698513 C2.33172321,18.8148511 2.52003482,18.8914293 2.73439999,18.8914293 L5.29796775,18.8914293 C5.40442349,18.4541404 5.54476822,18.1551913 5.81835116,17.8816213 C6.32286706,17.3771185 7.01631344,17.1102178 7.73436422,17.1101793 C8.44592411,17.1101284 9.1117639,17.3741174 9.61922569,17.8816482 C9.89868191,18.1611397 10.0486301,18.4562497 10.1644466,18.8914293 Z M8.64105531,17.3662653 C10.3273665,18.0514258 10.9003842,20.071779 9.65745621,21.6395543 C8.70012167,22.8470863 6.8744568,22.8405535 5.80256939,21.6659677 C5.22353036,21.0314501 5.04806493,20.2141292 5.20919864,19.3131688 C5.44613169,17.6051073 7.12731149,16.7512191 8.64105531,17.3662653 Z M6.19868171,19.458125 L6.19508713,19.48086 C6.08241463,20.1006445 6.18998742,20.6069945 6.54123048,20.9918907 C7.2095768,21.7242718 8.31102617,21.7282132 8.87384276,21.0183056 C9.69641015,19.9807548 9.3417707,18.7303624 8.26463244,18.2927132 C7.32948121,17.9127539 6.33870082,18.4178194 6.19868171,19.458125 Z M20.4390925,18.450272 C19.7813024,19.1080617 19.7813024,20.1745502 20.4390926,20.8323409 C21.0968823,21.4901308 22.1633709,21.4901308 22.8211614,20.8323411 C23.4789515,20.1745502 23.4789515,19.1080616 22.8211616,18.4502719 C22.1633709,17.7924817 21.0968824,17.7924817 20.4390925,18.450272 Z M23.5282682,21.5394479 C22.479953,22.5877618 20.7802997,22.5877618 19.7319857,21.5394475 C18.6836714,20.4911324 18.6836714,18.7914789 19.7319857,17.7431652 C20.7802996,16.6948507 22.4799531,16.6948507 23.5282682,17.7431649 C24.5765825,18.791479 24.5765825,20.4911323 23.5282682,21.5394479 Z" id="path-1"></path>
    </defs>
    <g id="Glyphs/Nav-or-Toolbar/Track" stroke="none" stroke-width="1" fill="none" fill-rule="evenodd">
        <mask id="mask-2" fill="white">
            <use xlink:href="#path-1"></use>
        </mask>
        <use id="Combined-Shape" fill="#007AFF" fill-rule="nonzero" xlink:href="#path-1"></use>
        <g id="_Resources/Colors/Tint-1" mask="url(#mask-2)" fill="#F0EBFB">
            <rect id="Swatch" x="0" y="0" width="28" height="28"></rect>
        </g>
    </g>
</svg>