<?xml version="1.0" encoding="UTF-8"?>
<svg width="18px" height="26px" viewBox="0 0 18 26" version="1.1" xmlns="http://www.w3.org/2000/svg" xmlns:xlink="http://www.w3.org/1999/xlink">
    <!-- Generator: Sketch 50.2 (55047) - http://www.bohemiancoding.com/sketch -->
    <title>Glyphs/Nav or Toolbar/Trash</title>
    <desc>Created with Sketch.</desc>
    <defs>
        <path d="M10,3.5 C10,2.395431 10.89543,1.5 12,1.5 L16,1.5 C17.1046,1.5 18,2.395431 18,3.5 L18,4.5 L21.5,4.5 L23,4.5 L23,5.5 L21.9656,5.5 L20.6314,24.1781 C20.538,25.4864 19.4494,26.5 18.1378,26.5 L9.86224,26.5 C8.55064,26.5 7.46204,25.4864 7.36859,24.1781 L6.03444,5.5 L5,5.5 L5,4.5 L6.5,4.5 L10,4.5 L10,3.5 L10,3.5 Z M11,4.5 L17,4.5 L17,3.5 C17,2.94772 16.5523,2.5 16,2.5 L12,2.5 C11.44772,2.5 11,2.94772 11,3.5 L11,4.5 L11,4.5 Z M7.03699,5.5 L8.36605,24.1069 C8.42212,24.8918 9.07528,25.5 9.86224,25.5 L18.1378,25.5 C18.9247,25.5 19.5779,24.8918 19.6339,24.1069 L20.963,5.5 L17.5,5.5 L10.5,5.5 L7.03699,5.5 L7.03699,5.5 Z M10.50024,23.5156 L10.00024,7.51562 L10.99976,7.48438 L11.49976,23.4844 L10.50024,23.5156 L10.50024,23.5156 Z M16.5002,23.4844 L17.0002,7.48438 L17.9998,7.51562 L17.4998,23.5156 L16.5002,23.4844 L16.5002,23.4844 Z M14.5,7.5 L14.5,23.5 L13.5,23.5 L13.5,7.5 L14.5,7.5 L14.5,7.5 Z" id="path-1"></path>
    </defs>
    <g id="INDI-2.0" stroke="none" stroke-width="1" fill="none" fill-rule="evenodd">
        <g id="21.1---Workbench" transform="translate(-961.000000, -255.000000)">
            <g id="Glyphs/Nav-or-Toolbar/Trash" transform="translate(956.000000, 254.000000)">
                <mask id="mask-2" fill="white">
                    <use xlink:href="#path-1"></use>
                </mask>
                <use id="Trash" fill="#007AFF" fill-rule="evenodd" xlink:href="#path-1"></use>
                <g id="_Resources/Colors/Incomplete" mask="url(#mask-2)" fill="#E86666" fill-rule="evenodd">
                    <rect id="Swatch" x="0" y="0" width="28" height="28"></rect>
                </g>
            </g>
        </g>
    </g>
</svg>