<?xml version="1.0" encoding="UTF-8"?>
<svg width="100%" viewBox="0 0 25 25" version="1.1" xmlns="http://www.w3.org/2000/svg" xmlns:xlink="http://www.w3.org/1999/xlink">
    <!-- Generator: Sketch 49.1 (51147) - http://www.bohemiancoding.com/sketch -->
    <title>Glyphs/Nav or Toolbar/Unlock</title>
    <desc>Created with Sketch.</desc>
    <defs>
        <path d="M4.87130956,11.0712084 L23.1263152,11.0712084 C23.363369,11.0712084 23.4568816,11.0781844 23.6165341,11.1292414 C23.8452411,11.2124897 24.0255437,11.3927925 24.1154707,11.6411029 C24.1604741,11.8014759 24.1644919,11.8720867 24.1644659,12.0999738 L24.164465,26.9642228 C24.164492,27.2009498 24.1604546,27.2717434 24.1258952,27.3972653 C24.1209033,27.4149506 24.1209033,27.4149506 24.1087961,27.4520906 C24.0255409,27.6807816 23.8452476,27.8610749 23.5969408,27.9510054 C23.4445763,27.9956202 23.3711169,28.0000267 23.1356981,27.9999999 L4.87130956,27.999999 C4.6344724,28.0000267 4.56366924,27.9959854 4.43812353,27.9613911 C4.15475243,27.8610801 3.97445184,27.6807729 3.88453193,27.4324815 C3.8395259,27.2721099 3.83550774,27.2014954 3.8355341,26.9735923 L3.835535,12.1093542 C3.83550807,11.8725764 3.83954785,11.8017708 3.87413171,11.6762189 C3.87911509,11.6585709 3.87911509,11.6585709 3.89119319,11.6215222 C3.97444161,11.3927991 4.15475193,11.212489 4.4030515,11.1225772 C4.54262846,11.078343 4.63664046,11.0712084 4.87130956,11.0712084 Z M23.1263152,12.0520571 L4.87130956,12.0520571 C4.8164041,12.0656911 4.81638081,12.0807904 4.81638277,12.0976682 L4.81638366,26.9618501 C4.8163808,26.9905123 4.81640323,27.0055796 4.81638263,27.0191514 C4.82501036,27.0191389 10.92753,27.0191386 23.1239415,27.0191503 C23.153563,27.0191533 23.1694095,27.0191277 23.1836174,27.0191514 C23.1836048,27.0104921 23.1836045,26.9921826 23.1836164,26.9642228 L23.1836164,12.1117253 C23.1836193,12.0821123 23.1835941,12.0663027 23.1835443,12.0522161 C23.1669795,12.0521111 23.1480269,12.0520571 23.1263152,12.0520571 Z M14.2054327,18.9742096 C14.2872551,18.943655 14.3584906,18.8984828 14.4190748,18.8378976 C14.6542388,18.6027357 14.6542388,18.2230492 14.4190668,17.9878794 C14.3037826,17.8725909 14.1535862,17.8114301 13.9952574,17.8114307 C13.836063,17.8114307 13.6837925,17.8731569 13.569064,17.9878853 C13.3339015,18.2230484 13.3339012,18.6027367 13.5690636,18.8378992 C13.6296816,18.8985171 13.7027088,18.9440246 13.7882174,18.9751174 L13.9983686,19.0515328 L14.2054327,18.9742096 Z M13.467261,21.2597738 L14.5306174,21.2597738 L13.9992094,19.8255709 L13.467261,21.2597738 Z M12.8754989,19.5314639 C12.2572911,18.9132561 12.2572919,17.9125294 12.8754989,17.294321 C13.1760953,16.9937246 13.5785467,16.830582 13.9952557,16.830582 C14.4116404,16.8305806 14.811894,16.993566 15.1126363,17.2943194 C15.7308498,17.9125273 15.7308498,18.9132577 15.1126409,19.531461 C15.0704333,19.5736693 15.0261959,19.613127 14.9800951,19.6497987 L15.9400601,22.2406225 L12.0573204,22.2406225 L13.0160096,19.6558701 C12.9669902,19.6175248 12.9200861,19.5760512 12.8754989,19.5314639 Z M21.2022621,11.8676633 L20.2215327,11.8523701 C20.2291366,11.3647438 20.2341505,10.8770857 20.2365744,10.3894095 C20.2410922,9.47903603 20.23265,8.8993678 20.1982028,8.30420527 C20.1152448,6.87086275 19.8619298,5.68477394 19.372772,4.65232748 C18.3129337,2.41534382 16.1859075,1.0031479 13.9089468,0.978789152 C11.6732934,1.18318502 9.67500226,2.57240119 8.58373856,4.68922138 C8.01659255,5.78936423 7.7337092,7.03321103 7.76499542,8.29138692 L6.78444988,8.3157695 C6.74908774,6.89368056 7.06904354,5.48682505 7.71192,4.23978121 C8.95438756,1.8296576 11.2446961,0.237430374 13.8690061,1.77635684e-15 C16.5776312,0.0260165436 19.0412213,1.66166726 20.2591683,4.23236833 C20.8089645,5.39280194 21.0877346,6.69807835 21.1774127,8.24753059 C21.2133316,8.86812117 21.2220231,9.46490144 21.2174109,10.3942807 C21.2149698,10.8854336 21.2099201,11.3765644 21.2022621,11.8676633 Z" id="path-1"></path>
    </defs>
    <g id="Glyphs/Nav-or-Toolbar/Unlock" stroke="none" stroke-width="1" fill="none" fill-rule="evenodd">
        <mask id="mask-2" fill="white">
            <use xlink:href="#path-1"></use>
        </mask>
        <use id="Mask" fill="#007AFF" fill-rule="nonzero" xlink:href="#path-1"></use>
        <g id="_Resources/Colors/Tint-1" mask="url(#mask-2)" fill="#F0EBFB">
            <rect id="Swatch" x="0" y="0" width="28" height="28"></rect>
        </g>
    </g>
</svg>