<?xml version="1.0" encoding="UTF-8"?>
<svg width="100%" viewBox="0 0 25 25" version="1.1" xmlns="http://www.w3.org/2000/svg" xmlns:xlink="http://www.w3.org/1999/xlink">
    <!-- Generator: Sketch 49.1 (51147) - http://www.bohemiancoding.com/sketch -->
    <title>Glyphs/Nav or Toolbar/Walk</title>
    <desc>Created with Sketch.</desc>
    <defs>
        <path d="M14.8403297,7.1890135 C13.9343744,7.14101449 13.2390753,6.38903 13.2884062,5.50904816 C13.3370705,4.62839966 14.111699,3.95441357 15.0196542,4.00241258 C15.9256096,4.05041159 16.6202421,4.80239607 16.5715778,5.68171126 C16.5229135,6.56235976 15.748285,7.23634586 14.8403297,7.1890135 Z M17.894846,18.5867783 L18.7028062,22.8673567 C18.8274667,23.4520113 18.3668227,24 17.7515197,24 L17.7488532,24 C17.292209,24 16.8968951,23.6913397 16.7995666,23.258682 L15.7516182,18.8721058 C15.7176199,18.7221089 15.6656224,18.5314462 15.5622942,18.4147819 L12.0811323,14.3708653 C11.8624764,14.1268704 11.7518152,13.8088769 11.7731475,13.4862169 L11.8331445,10.1949515 L10.395882,11.1229323 C10.1038964,11.2882623 9.33326766,11.6295886 9.33326766,12.0002476 L9.33326766,14.1068708 C9.33326766,14.5421951 9.13994385,14.9175207 8.66663383,14.9175207 C8.19332381,14.9175207 8,14.565528 8,14.1068708 L8,11.8389176 C8.0413313,11.0842665 8.23732164,10.7389403 8.94928658,10.3042826 L12.3944502,8.18099303 C12.6037732,8.06099551 12.9837545,8.10232799 13.2204095,8.15499357 L15.3329721,8.74364809 C15.4809649,8.77631408 15.3383052,8.9063114 15.3329721,9.0536417 L15.329639,14.9408536 L17.5508629,17.8501269 C17.7208545,18.0681224 17.8381821,18.3201172 17.894846,18.5867783 Z M19.7760866,12.932895 C20.4627195,13.5815483 19.4181043,14.6815256 18.6874736,14.0095394 L16.4562502,11.7869186 L16.5262467,9.7642937 C16.5262467,9.7642937 19.7700869,12.9275618 19.7760866,12.932895 Z M11.5731573,18.4481145 L11.7784806,15.694838 L13.6397222,17.8054611 L13.5703923,19.2207653 C13.5403938,19.5447586 13.379735,19.8447524 13.123081,20.0540814 L9.9232386,22.5880291 C9.44726205,22.9753545 8.72929741,22.8773565 8.38264782,22.3767002 C8.07866279,21.9380425 8.11799419,21.4080535 8.59863718,21.0167282 L11.4744955,18.8127737 C11.5458253,18.7574415 11.5691575,18.537446 11.5731573,18.4481145 Z" id="path-1"></path>
    </defs>
    <g id="Glyphs/Nav-or-Toolbar/Walk" stroke="none" stroke-width="1" fill="none" fill-rule="evenodd">
        <mask id="mask-2" fill="white">
            <use xlink:href="#path-1"></use>
        </mask>
        <use id="Walk" fill="#007AFF" xlink:href="#path-1"></use>
        <g id="_Resources/Colors/Tint-1" mask="url(#mask-2)" fill="#F0EBFB">
            <rect id="Swatch" x="0" y="0" width="28" height="28"></rect>
        </g>
    </g>
</svg>