<?xml version="1.0" encoding="UTF-8"?>
<svg width="100%" viewBox="0 0 25 25" version="1.1" xmlns="http://www.w3.org/2000/svg" xmlns:xlink="http://www.w3.org/1999/xlink">
    <!-- Generator: Sketch 49.1 (51147) - http://www.bohemiancoding.com/sketch -->
    <title>Glyphs/Nav or Toolbar/Warranty</title>
    <desc>Created with Sketch.</desc>
    <defs>
        <path d="M6.89590862,3.67916822 C4.66360359,6.84851747 3.94532215,10.8493404 4.93483863,14.6033512 C6.14478631,19.1935577 9.69872345,22.7874014 14.260228,24.0354514 L13.7171957,24.0397458 C18.3550512,22.6916123 21.9297322,18.9674683 23.1016797,14.2612094 C24.0135872,10.6004073 23.3436423,6.72250087 21.2570163,3.58546036 L22.575677,3.81572693 C22.5891217,3.83905563 22.6024976,3.86241641 22.6158047,3.88580895 C21.2906904,4.84575646 19.694867,5.35999315 18.0606589,5.35166301 C16.399645,5.34439544 14.7851518,4.79959431 13.4565662,3.79871768 L14.6702995,3.79083664 C13.3430165,4.81801897 11.7144417,5.37901082 10.0367554,5.38750687 C8.41975407,5.39590745 6.84194882,4.88933933 5.53112879,3.94187963 C5.53997007,3.92722058 6.89590862,3.67916822 6.89590862,3.67916822 Z M3.96786779,14.8582383 C2.90317788,10.8190358 3.67597056,6.51413783 6.07834779,3.10332598 C7.22493692,3.94469472 8.61092379,4.3949008 10.0315603,4.38752037 C11.4889465,4.38013994 12.9043331,3.89303173 14.0582722,3 C15.2143112,3.87089044 16.6191979,4.3453465 18.0650342,4.35167258 C19.5129705,4.359053 20.9252071,3.89514042 22.089646,3.0316304 C24.3324248,6.40343142 25.051668,10.5702099 24.0720273,14.5029234 C22.8141392,19.5542989 18.9764256,23.5523819 13.9963228,25 C9.09076924,23.6578165 5.26880546,19.7936356 3.96786779,14.8582383 Z M10.1050596,13.1451429 L9.22096801,13.7108571 L11.8774428,17.8405714 L18.7790274,10.7471429 L18.0240846,10.018 L12.0464912,16.1633333 L10.1050596,13.1451429 Z" id="path-1"></path>
    </defs>
    <g id="Glyphs/Nav-or-Toolbar/Warranty" stroke="none" stroke-width="1" fill="none" fill-rule="evenodd">
        <mask id="mask-2" fill="white">
            <use xlink:href="#path-1"></use>
        </mask>
        <use id="Warranty" fill="#007AFF" fill-rule="nonzero" xlink:href="#path-1"></use>
        <g id="_Resources/Colors/Tint-1" mask="url(#mask-2)" fill="#F0EBFB">
            <rect id="Swatch" x="0" y="0" width="28" height="28"></rect>
        </g>
    </g>
</svg>