<?xml version="1.0" encoding="UTF-8"?>
<svg width="100%" viewBox="0 0 25 25" version="1.1" xmlns="http://www.w3.org/2000/svg" xmlns:xlink="http://www.w3.org/1999/xlink">
    <!-- Generator: Sketch 49.1 (51147) - http://www.bohemiancoding.com/sketch -->
    <title>Glyphs/Nav or Toolbar/Water</title>
    <desc>Created with Sketch.</desc>
    <defs>
        <path d="M11.8261092,11.7414373 C11.3423278,13.4004373 10.8595459,15.0744373 10.7905771,16.8024373 C10.7585915,17.5964373 10.8145663,18.3884373 10.9255161,19.1744373 C11.0754484,20.2424373 11.3253355,21.2974373 11.6691801,22.3194373 C10.7585915,21.8404373 9.9799434,21.1414373 9.40420355,20.2874373 C8.67253417,19.2014373 8.29770354,17.9064373 8.4126516,16.6014373 C8.52759966,15.2924373 9.12333047,14.0984373 9.7360536,12.9384373 C10.8575468,10.8144373 12.0490085,8.72843733 13.3104385,6.68443733 C12.8126634,8.36943733 12.3188865,10.0544373 11.8261092,11.7414373 M14.1901407,3.08463733 C14.1351656,3.03763733 14.0681958,3.00663733 13.9962284,3.00063733 C13.9052695,2.99263733 13.8153101,3.02263733 13.7443422,3.08063733 C11.7742324,5.42863733 10.0080307,7.83263726 8.49871275,10.5006373 C7.38621546,12.4666373 6.54549531,14.6754373 6.50151518,16.9374373 C6.4605337,19.0414373 7.25217598,21.0814373 8.71851339,22.5894373 C10.0998892,24.0104373 12.0171227,24.9176377 13.9962284,25.0006377 C16.2392148,24.9956377 18.3251725,23.9484373 19.7955081,22.2544373 C21.1009182,20.7494373 21.5648084,18.9294377 21.4928409,16.9374377 C21.4098784,14.6264377 20.6602171,12.4926373 19.4937442,10.5006373 C17.9944217,7.93863726 16.0642939,5.38663733 14.1901407,3.08463733 Z" id="path-1"></path>
    </defs>
    <g id="Glyphs/Nav-or-Toolbar/Water" stroke="none" stroke-width="1" fill="none" fill-rule="evenodd">
        <mask id="mask-2" fill="white">
            <use xlink:href="#path-1"></use>
        </mask>
        <use id="Water" fill="#007AFF" xlink:href="#path-1"></use>
        <g id="_Resources/Colors/Tint-1" mask="url(#mask-2)" fill="#F0EBFB">
            <rect id="Swatch" x="0" y="0" width="28" height="28"></rect>
        </g>
    </g>
</svg>