<?xml version="1.0" encoding="UTF-8"?>
<svg width="100%" viewBox="0 0 25 25" version="1.1" xmlns="http://www.w3.org/2000/svg" xmlns:xlink="http://www.w3.org/1999/xlink">
    <!-- Generator: Sketch 49.1 (51147) - http://www.bohemiancoding.com/sketch -->
    <title>Glyphs/Nav or Toolbar/Wind - Filled</title>
    <desc>Created with Sketch.</desc>
    <defs>
        <path d="M7.41176471,9.47058824 C7.41176471,9.24317687 7.60183267,9.05882353 7.82388833,9.05882353 L13.5878764,9.05882353 C13.815486,9.05882353 14,9.24982767 14,9.47058824 C14,9.6979996 13.809932,9.88235294 13.5878764,9.88235294 L7.82388833,9.88235294 C7.59627874,9.88235294 7.41176471,9.69134881 7.41176471,9.47058824 Z M4.94117647,11.9411765 C4.94117647,11.7137651 5.13124444,11.5294118 5.35330009,11.5294118 L11.1172881,11.5294118 C11.3448977,11.5294118 11.5294118,11.7204159 11.5294118,11.9411765 C11.5294118,12.1685878 11.3393438,12.3529412 11.1172881,12.3529412 L5.35330009,12.3529412 C5.1256905,12.3529412 4.94117647,12.161937 4.94117647,11.9411765 Z M0,14.4117647 C0,14.1843533 0.190067964,14 0.412123624,14 L6.17611167,14 C6.40372126,14 6.58823529,14.1910041 6.58823529,14.4117647 C6.58823529,14.6391761 6.39816733,14.8235294 6.17611167,14.8235294 L0.412123624,14.8235294 C0.184514031,14.8235294 0,14.6325253 0,14.4117647 Z M0.823529412,16.8823529 C0.823529412,16.6549416 1.01359738,16.4705882 1.23565304,16.4705882 L6.99964108,16.4705882 C7.22725067,16.4705882 7.41176471,16.6615924 7.41176471,16.8823529 C7.41176471,17.1097643 7.22169674,17.2941176 6.99964108,17.2941176 L1.23565304,17.2941176 C1.00804344,17.2941176 0.823529412,17.1031135 0.823529412,16.8823529 Z M14.0085864,13.2824721 C14.0085864,13.2824721 14.1513094,12.4690744 14.1188,12.4614567 C14.6362577,10.046167 16.7831234,8.23529412 19.3529412,8.23529412 C21.587916,8.23529412 23.5029779,9.60500395 24.304489,11.5507857 C26.3802951,11.762172 28,13.5154642 28,15.6470588 C28,17.9211725 26.1564666,19.7647059 23.8823529,19.7647059 L13.1764706,19.7647059 C11.3571796,19.7647059 9.88235294,18.2898792 9.88235294,16.4705882 C9.88235294,14.6512973 11.3571796,13.1764706 13.1764706,13.1764706 C13.1886968,13.1963622 14.0085864,13.2824721 14.0085864,13.2824721 Z" id="path-1"></path>
    </defs>
    <g id="Glyphs/Nav-or-Toolbar/Wind---Filled" stroke="none" stroke-width="1" fill="none" fill-rule="evenodd">
        <mask id="mask-2" fill="white">
            <use xlink:href="#path-1"></use>
        </mask>
        <use id="Windy" fill="#007AFF" xlink:href="#path-1"></use>
        <g id="_Resources/Colors/Tint-1" mask="url(#mask-2)" fill="#F0EBFB">
            <rect id="Swatch" x="0" y="0" width="28" height="28"></rect>
        </g>
    </g>
</svg>