<?xml version="1.0" encoding="UTF-8"?>
<svg width="100%" viewBox="0 0 25 25" version="1.1" xmlns="http://www.w3.org/2000/svg" xmlns:xlink="http://www.w3.org/1999/xlink">
    <!-- Generator: Sketch 49.1 (51147) - http://www.bohemiancoding.com/sketch -->
    <title>Glyphs/Nav or Toolbar/World</title>
    <desc>Created with Sketch.</desc>
    <defs>
        <path d="M14,7.99159381 L14,13 L19.0287932,13 C18.9818899,10.9565901 18.6496757,9.14060298 18.0873485,7.53932093 C16.867126,7.80206402 15.5057469,7.96116915 14,7.99159381 Z M14,6.99138789 C15.3689436,6.96264418 16.6073447,6.82337995 17.7188345,6.59505199 C17.3996003,5.85443649 17.0280424,5.16451349 16.6106086,4.52379739 C16.0841824,3.71578967 15.5216233,3.04666401 14.9612484,2.50919466 C14.7458108,2.30256313 14.563988,2.14573959 14.4265501,2.03678438 C14.2850728,2.02550505 14.142874,2.0167862 14,2.01067419 L14,6.99138789 Z M22.1964853,5.9750178 C21.7983277,6.2483193 21.1118096,6.60838723 20.1237517,6.96282295 C19.7845107,7.08451534 19.4308103,7.19699882 19.062543,7.29943536 C19.6421583,8.98260487 19.9824811,10.8799639 20.0290387,13 L24.9893258,13 C24.8746044,10.3182798 23.8414787,7.87444014 22.1964853,5.9750178 Z M21.4951782,5.23396378 C20.0364061,3.82269917 18.2051503,2.79409633 16.1631931,2.30993761 C16.6035724,2.79137769 17.0370224,3.34638652 17.4484731,3.97791915 C17.9270801,4.71252953 18.3488495,5.50630448 18.7055202,6.36053117 C19.0823636,6.25814783 19.4424981,6.14480857 19.7860994,6.02155205 C20.3733085,5.81090865 20.8670831,5.586509 21.2698933,5.36382827 C21.3568242,5.31577131 21.4318795,5.27221926 21.4951782,5.23396378 Z M13,7.99287195 C11.5063929,7.96656383 10.1608929,7.81374533 8.95910136,7.55864848 C8.40087948,9.15521148 8.07114386,10.964807 8.0244291,13 L13,13 L13,7.99287195 Z M13,6.99271657 L13,2.01067419 C12.8769631,2.01593759 12.7544269,2.02313419 12.6324211,2.0322344 C12.494321,2.14135636 12.310429,2.29966901 12.0919739,2.50919466 C11.531599,3.04666401 10.9690399,3.71578967 10.4426137,4.52379739 C10.0216932,5.16986532 9.64741803,5.86596562 9.32639916,6.61362144 C10.4199998,6.83457857 11.6429696,6.96788701 13,6.99271657 Z M4.81797943,5.95834796 C3.16457895,7.86013164 2.12573152,10.310428 2.01067419,13 L7.02418364,13 C7.07054387,10.8889497 7.40818444,8.99869281 7.9833221,7.32084929 C7.59168309,7.21244509 7.21741379,7.09239903 6.86032696,6.9617426 C5.87583631,6.601522 5.20129481,6.23495262 4.81797943,5.95834796 Z M5.51768197,5.22154167 C5.58346648,5.26325616 5.66437078,5.31215433 5.76064404,5.36703459 C6.14974667,5.58884128 6.62972364,5.81252815 7.20394306,6.0226324 C7.56274561,6.1539166 7.94099804,6.27394414 8.33898468,6.38145261 C8.69749404,5.51926153 9.12223719,4.71852335 9.60474922,3.97791915 C10.0207211,3.33944691 10.4591785,2.77918948 10.9045491,2.29409333 C8.84136012,2.7700332 6.99048767,3.8010994 5.51768197,5.22154167 Z M14,14 L14,18.9907974 C15.5167549,19.0150603 16.8812998,19.1695352 18.0982156,19.4289866 C18.6547293,17.8362868 18.9830898,16.0308384 19.0289825,14 L14,14 Z M24.9893258,14 L20.0292201,14 C19.9836673,16.1070377 19.6472864,17.9934521 19.0736638,19.667684 C19.4598642,19.7749973 19.829138,19.8936443 20.1816652,20.0226324 C21.1513018,20.3774179 21.8202717,20.7383621 22.2064633,21.0134456 C23.8456558,19.1156691 24.8748365,16.676294 24.9893258,14 Z M13,14 L8.02423982,14 C8.07027544,16.037161 8.40054038,17.8475265 8.96021121,19.4438562 C10.1676496,19.1842691 11.5132098,19.0261256 13,18.9936638 L13,14 Z M2.01067419,14 C2.12556597,16.6857021 3.16159135,19.1328166 4.81084621,21.0334394 C5.20321353,20.7574156 5.90088258,20.3864982 6.9182405,20.021552 C7.25917189,19.8992533 7.61470714,19.7862554 7.98495533,19.6834091 C7.40804596,18.0052666 7.06969769,16.113637 7.02400221,14 L2.01067419,14 Z M14,19.9909255 L14,24.9893258 C14.135886,24.9835127 14.2711612,24.9753416 14.4057858,24.9648523 C14.545114,24.8559509 14.7329154,24.6955624 14.9570789,24.4814824 C15.5180165,23.9457773 16.0811424,23.2785262 16.6080995,22.4724191 C17.0319025,21.8241112 17.4084657,21.1251223 17.7310575,20.3738857 C16.6222689,20.148771 15.3802185,20.0138566 14,19.9909255 Z M21.5086715,21.7529611 C21.445836,21.7134693 21.3701267,21.6679483 21.2813481,21.6173404 C20.8922455,21.3955337 20.4122685,21.1718468 19.8380491,20.9617426 C19.4837786,20.8321166 19.1105464,20.7134648 18.7180789,20.6070022 C18.3579437,21.47295 17.9307569,22.2766929 17.4451228,23.0195864 C17.0303619,23.6540624 16.5932756,24.2109692 16.1492595,24.6933569 C18.2031236,24.2090935 20.0443935,23.1741623 21.5086715,21.7529611 Z M13,19.9939044 C11.6498374,20.0245426 10.4271208,20.1628961 9.32834588,20.388258 C9.64956349,21.1340394 10.0240237,21.8282474 10.4451228,22.4724191 C10.97208,23.2785262 11.5352058,23.9457773 12.0961434,24.4814824 C12.3233725,24.6984901 12.5132381,24.8603276 12.6531255,24.9692913 C12.768288,24.9776736 12.8839212,24.9843601 13,24.9893258 L13,19.9939044 Z M5.51115711,21.7721605 C6.98833436,23.199055 8.84665047,24.2339101 10.9184937,24.7091142 C10.4694839,24.2231081 10.0273841,23.6609825 9.60809954,23.0195864 C9.12535573,22.2811143 8.70036558,21.4825149 8.34158062,20.6224568 C7.96288305,20.7252033 7.6010465,20.8390096 7.2558928,20.962823 C6.6686837,21.1734664 6.17490906,21.397866 5.77209889,21.6205467 C5.66823258,21.6779659 5.58131967,21.7289539 5.51115711,21.7721605 Z M13.5,26 C6.59644063,26 1,20.4035594 1,13.5 C1,6.59644063 6.59644063,1 13.5,1 C20.4035594,1 26,6.59644063 26,13.5 C26,20.4035594 20.4035594,26 13.5,26 Z" id="path-1"></path>
    </defs>
    <g id="Glyphs/Nav-or-Toolbar/World" stroke="none" stroke-width="1" fill="none" fill-rule="evenodd">
        <mask id="mask-2" fill="white">
            <use xlink:href="#path-1"></use>
        </mask>
        <use id="World-Clock" fill="#007AFF" xlink:href="#path-1"></use>
        <g id="_Resources/Colors/Tint-1" mask="url(#mask-2)" fill="#F0EBFB">
            <rect id="Swatch" x="0" y="0" width="28" height="28"></rect>
        </g>
    </g>
</svg>