<?xml version="1.0" encoding="UTF-8"?>
<svg width="100%" viewBox="0 0 25 25" version="1.1" xmlns="http://www.w3.org/2000/svg" xmlns:xlink="http://www.w3.org/1999/xlink">
    <!-- Generator: Sketch 49.1 (51147) - http://www.bohemiancoding.com/sketch -->
    <title>Glyphs/Nav or Toolbar/World - Filled</title>
    <desc>Created with Sketch.</desc>
    <defs>
        <path d="M14,26.5 C20.9035594,26.5 26.5,20.9035594 26.5,14 C26.5,7.09644063 20.9035594,1.5 14,1.5 C7.09644063,1.5 1.5,7.09644063 1.5,14 C1.5,20.9035594 7.09644063,26.5 14,26.5 Z M21.675371,6.06460523 C20.2749499,4.7097912 18.5169443,3.72233248 16.5566654,3.25754011 C16.9794295,3.71972258 17.3955415,4.25253106 17.7905342,4.85880238 C18.2499969,5.56402835 18.6548955,6.3260523 18.9972994,7.14610992 C19.3590691,7.04782192 19.7047981,6.93901623 20.0346554,6.82068996 C20.5983761,6.6184723 21.0723998,6.40304864 21.4590976,6.18927514 C21.5425512,6.14314046 21.6146043,6.10133049 21.675371,6.06460523 Z M22.3486259,6.77601709 C21.9663946,7.03838653 21.3073372,7.38405174 20.3588016,7.72431004 C20.0331303,7.84113472 19.6935779,7.94911887 19.3400413,8.04745795 C19.8964719,9.66330067 20.2231819,11.4847654 20.2678771,13.52 L25.0297528,13.52 C24.9196202,10.9455486 23.9278195,8.59946254 22.3486259,6.77601709 Z M14.48,7.75173238 C15.7941859,7.72413841 16.9830509,7.59044475 18.0500812,7.37124991 C17.7436163,6.66025903 17.3869207,5.99793295 16.9861843,5.38284549 C16.4808151,4.60715808 15.9407584,3.96479745 15.4027985,3.44882688 C15.1959783,3.2504606 15.0214285,3.09991001 14.8894881,2.995313 C14.7536699,2.98448485 14.6171591,2.97611475 14.48,2.97024722 L14.48,7.75173238 Z M14.48,8.71193006 L14.48,13.52 L19.3076415,13.52 C19.2626143,11.5583265 18.9436887,9.81497886 18.4038545,8.27774809 C17.2324409,8.52998146 15.9255171,8.68272239 14.48,8.71193006 Z M6.3369747,6.05268 C6.40012782,6.09272591 6.47779595,6.13966816 6.57021828,6.19235321 C6.9437568,6.40528763 7.40453469,6.62002703 7.95578534,6.8217271 C8.30023579,6.94775994 8.66335812,7.06298638 9.04542529,7.16619451 C9.38959428,6.33849106 9.7973477,5.56978241 10.2605593,4.85880238 C10.6598923,4.24586904 11.0808114,3.7080219 11.5083671,3.2423296 C9.52770572,3.69923187 7.75086816,4.68905542 6.3369747,6.05268 Z M5.66526025,6.76001404 C4.07799579,8.58572637 3.08070226,10.9380109 2.97024722,13.52 L7.7832163,13.52 C7.82772211,11.4933917 8.15185706,9.6787451 8.70398922,8.06801532 C8.32801577,7.96394728 7.96871724,7.84870307 7.62591388,7.7232729 C6.68080286,7.37746112 6.03324302,7.02555451 5.66526025,6.76001404 Z M13.52,7.7530079 L13.52,2.97024722 C13.4018846,2.97530008 13.2842498,2.98220883 13.1671242,2.99094503 C13.0345482,3.09570211 12.8580119,3.24768225 12.648295,3.44882688 C12.110335,3.96479745 11.5702783,4.60715808 11.0649092,5.38284549 C10.6608254,6.0030707 10.3015213,6.671327 9.9933432,7.38907659 C11.0431998,7.60119543 12.2172508,7.72917153 13.52,7.7530079 Z M13.52,8.71315708 C12.0861372,8.68790127 10.7944572,8.54119552 9.6407373,8.29630254 C9.1048443,9.82900302 8.7882981,11.5662147 8.74345194,13.52 L13.52,13.52 L13.52,8.71315708 Z M21.6883247,21.9228426 C21.6280026,21.8849305 21.5553216,21.8412304 21.4700942,21.7926468 C21.0965557,21.5797124 20.6357778,21.364973 20.0845272,21.1632729 C19.7444275,21.038832 19.3861246,20.9249262 19.0093558,20.8227221 C18.6636259,21.654032 18.2535266,22.4256252 17.7873179,23.138803 C17.3891474,23.7478999 16.9695446,24.2825304 16.5432891,24.7456226 C18.5149987,24.2807297 20.2826178,23.2871958 21.6883247,21.9228426 Z M22.3582048,21.2129078 C23.9318295,19.3910424 24.919843,17.0492423 25.0297528,14.48 L20.2680513,14.48 C20.2243206,16.5027562 19.9013949,18.313714 19.3507173,19.9209766 C19.7214696,20.0239974 20.0759724,20.1378985 20.4143986,20.2617271 C21.3452497,20.6023212 21.9874608,20.9488277 22.3582048,21.2129078 Z M14.48,20.2312884 L14.48,25.0297528 C14.6104506,25.0241722 14.7403148,25.0163279 14.8695544,25.0062582 C15.0033094,24.9017128 15.1835988,24.7477399 15.3987958,24.5422231 C15.9372959,24.0279462 16.4778967,23.3873851 16.9837756,22.6135224 C17.3906264,21.9911467 17.7521271,21.3201174 18.0618152,20.5989302 C16.9973782,20.3828201 15.8050097,20.2533023 14.48,20.2312884 Z M14.48,19.2711655 C15.9360847,19.2944579 17.2460478,19.4427538 18.414287,19.6918271 C18.9485401,18.1628353 19.2637662,16.4296048 19.3078232,14.48 L14.48,14.48 L14.48,19.2711655 Z M6.33071082,21.9412741 C7.74880098,23.3110928 9.53278445,24.3045537 11.5217539,24.7607497 C11.0907045,24.2941838 10.6662888,23.7545432 10.2637756,23.138803 C9.8003415,22.4298697 9.39235095,21.6632143 9.04791739,20.8375585 C8.68436772,20.9361951 8.33700464,21.0454492 8.00565709,21.16431 C7.44193635,21.3665277 6.9679127,21.5819514 6.58121493,21.7957249 C6.48150327,21.8508473 6.39806688,21.8997958 6.33071082,21.9412741 Z M5.65841236,21.2321019 C6.03508499,20.967119 6.70484728,20.6110383 7.68151088,20.26069 C8.00880501,20.1432832 8.35011885,20.0348052 8.70555712,19.9360727 C8.15172413,18.325056 7.82690979,16.5090916 7.78304213,14.48 L2.97024722,14.48 C3.08054333,17.058274 4.0751277,19.4075039 5.65841236,21.2321019 Z M13.52,20.2341482 C12.2238439,20.2635609 11.0500359,20.3963803 9.99521204,20.6127277 C10.3035809,21.3286778 10.6630628,21.9951175 11.0673179,22.6135224 C11.5731968,23.3873851 12.1137976,24.0279462 12.6522977,24.5422231 C12.8704376,24.7505505 13.0527086,24.9059145 13.1870005,25.0105196 C13.2975565,25.0185667 13.4085643,25.0249857 13.52,25.0297528 L13.52,20.2341482 Z M13.52,19.2739173 L13.52,14.48 L8.74327023,14.48 C8.78746442,16.4356746 9.10451877,18.1736254 9.64180276,19.7061019 C10.8009436,19.4568983 12.0926814,19.3050806 13.52,19.2739173 Z M14,26 C7.372583,26 2,20.627417 2,14 C2,7.372583 7.372583,2 14,2 C20.627417,2 26,7.372583 26,14 C26,20.627417 20.627417,26 14,26 Z" id="path-1"></path>
    </defs>
    <g id="Glyphs/Nav-or-Toolbar/World---Filled" stroke="none" stroke-width="1" fill="none" fill-rule="evenodd">
        <mask id="mask-2" fill="white">
            <use xlink:href="#path-1"></use>
        </mask>
        <use id="Combined-Shape" fill="#007AFF" xlink:href="#path-1"></use>
        <g id="_Resources/Colors/Tint-1" mask="url(#mask-2)" fill="#F0EBFB">
            <rect id="Swatch" x="0" y="0" width="28" height="28"></rect>
        </g>
    </g>
</svg>