<?xml version="1.0" encoding="UTF-8"?>
<svg width="28px" height="33px" viewBox="0 0 70 56" version="1.1" xmlns="http://www.w3.org/2000/svg" xmlns:xlink="http://www.w3.org/1999/xlink">
    <!-- Generator: Sketch 49.1 (51147) - http://www.bohemiancoding.com/sketch -->
    <title>Glyphs/SCB/ic_account</title>
    <desc>Created with Sketch.</desc>
    <defs>
        <path d="M5.12195122,44.0012088 L11.9512195,5.07706256 L64.8780488,5.07706256 L58.0487805,44.0012088 L5.12195122,44.0012088 Z M65.3680488,51.4086431 L65.3680488,51.4094893 L12.3089024,51.3798731 L12.3089024,48.6323361 L60.2802439,48.6619523 C61.4130488,48.6619523 62.3793902,47.8504684 62.5654878,46.7428226 L65.3680488,30.0570565 L65.3680488,51.4086431 Z M9.99292683,55.9703838 L67.6840244,56 C68.9628049,56 70,54.9718948 70,53.7043215 L70,2.29567845 C70,1.02810517 68.9628049,0 67.6840244,0 L9.72317073,0 C8.59036585,0 7.62487805,0.811483832 7.43878049,1.91828347 L0.0315853659,45.9888788 C-0.081097561,46.653974 0.109268293,47.3343004 0.548902439,47.8496222 C0.989390244,48.3649441 1.6347561,48.6619523 2.31597561,48.6619523 L7.67695122,48.6323361 L7.67695122,53.6747053 C7.67695122,54.9422786 8.71414634,55.9703838 9.99292683,55.9703838 Z" id="path-1"></path>
        <path d="M16.1831251,14.0197655 L13.9654292,5.32861039 L8.09212841,0 L2.21713001,5.32861039 L0,14.0197655 L4.19602323,16 L7.51153235,16 L7.51153235,13.0296483 C7.51153235,13.0296483 1.35359239,16.2839432 2.96126629,8.99323439 C3.49432818,6.57433318 6.32657312,3.34610889 7.94499881,2.45120612 C7.9953624,2.42230173 8.04402835,2.39679785 8.09212841,2.37356098 L8.09212841,2.37356098 C9.67943053,3.14434487 12.6706886,6.49895505 13.2224247,8.99323439 C14.8306644,16.2839432 8.67329036,13.0296483 8.67329036,13.0296483 L8.67329036,16 L11.9887995,16 L16.1831251,14.0197655 Z" id="path-3"></path>
    </defs>
    <g id="Glyphs/SCB/ic_account" stroke="none" stroke-width="1" fill="none" fill-rule="evenodd">
        <rect id="bounds" fill-opacity="0" fill="#D8D8D8" x="0" y="0" width="70.0001933" height="56"></rect>
        <g id="Fill">
            <mask id="mask-2" fill="white">
                <use xlink:href="#path-1"></use>
            </mask>
            <use id="Mask" fill="#C9C6CE" xlink:href="#path-1"></use>
            <g id="Colors/dark-grey" mask="url(#mask-2)" fill="#736E7A">
                <rect id="color" x="0" y="0" width="70" height="56"></rect>
            </g>
        </g>
        <g id="Fill" transform="translate(14.000000, 9.000000)">
            <mask id="mask-4" fill="white">
                <use xlink:href="#path-3"></use>
            </mask>
            <use id="Mask" fill="#C9C6CE" xlink:href="#path-3"></use>
            <g id="Colors/dark-grey" mask="url(#mask-4)" fill="#736E7A">
                <g transform="translate(-14.000000, -9.000000)" id="color">
                    <rect x="0" y="0" width="70" height="56"></rect>
                </g>
            </g>
        </g>
    </g>
</svg>