<?xml version="1.0" encoding="UTF-8"?>
<svg width="56px" height="55px" viewBox="0 0 56 55" version="1.1" xmlns="http://www.w3.org/2000/svg" xmlns:xlink="http://www.w3.org/1999/xlink">
    <!-- Generator: Sketch 50.2 (55047) - http://www.bohemiancoding.com/sketch -->
    <title>Icon/ic_empty</title>
    <desc>Created with Sketch.</desc>
    <defs>
        <path d="M55.958,13.2248151 L55.958,12.9148585 C55.958,11.0137914 54.3870523,9.62931852 52.4514202,9.62931852 C50.5157882,9.62931852 48.9448405,11.323748 48.9448405,13.2248151 C48.9448405,15.1258823 50.5157882,16.6687774 52.4514202,16.6687774 C54.3870523,16.6687774 55.958,15.1258823 55.958,13.2248151 M55.958,22.8334699 L55.958,22.5235133 C55.958,20.6155582 54.3870523,19.2310853 52.4514202,19.2310853 C50.5157882,19.2310853 48.9448405,20.9255148 48.9448405,22.8334699 C48.9448405,24.7345371 50.5157882,26.2774322 52.4514202,26.2774322 C54.3870523,26.2774322 55.958,24.7345371 55.958,22.8334699 M55.958,32.4352367 L55.958,32.1252801 C55.958,30.2242129 54.3870523,28.8397401 52.4514202,28.8397401 C50.5157882,28.8397401 48.9448405,30.5341695 48.9448405,32.4352367 C48.9448405,34.3363039 50.5157882,35.879199 52.4514202,35.879199 C54.3870523,35.879199 55.958,34.3363039 55.958,32.4352367 M55.958,42.0438915 L55.958,41.7339349 C55.958,39.8259798 54.3870523,38.4415069 52.4514202,38.4415069 C50.5157882,38.4415069 48.9448405,40.1359364 48.9448405,42.0438915 C48.9448405,43.9449586 50.5157882,45.4878537 52.4514202,45.4878537 C54.3870523,45.4878537 55.958,43.9449586 55.958,42.0438915 M55.958,3.44396228 C55.958,1.5428951 54.3870523,0 52.4514202,0 L52.2760912,0 C50.333446,0 48.8536694,1.5428951 48.8536694,3.44396228 C48.8536694,3.96744454 48.9799063,4.47026303 49.2043274,4.91109021 C49.7233012,6.1440287 50.9856699,6.97746757 52.4514202,6.97746757 C54.3870523,6.97746757 55.958,5.34502945 55.958,3.44396228 M16.9718461,3.44396228 C16.9718461,1.5428951 15.4079115,0 13.4652663,0 L13.1496741,0 C11.2140421,0 9.80439704,1.5428951 9.80439704,3.44396228 C9.80439704,5.34502945 11.5296343,6.88792455 13.4652663,6.88792455 C15.4079115,6.88792455 16.9718461,5.34502945 16.9718461,3.44396228 M26.7552037,3.44396228 C26.7552037,1.5428951 25.1842559,0 23.2486239,0 L22.9330317,0 C20.9973997,0 19.5807414,1.5428951 19.5807414,3.44396228 C19.5807414,5.34502945 21.3129919,6.88792455 23.2486239,6.88792455 C25.1842559,6.88792455 26.7552037,5.34502945 26.7552037,3.44396228 M36.5315481,3.44396228 C36.5315481,1.5428951 34.9676135,0 33.0249683,0 L32.7163893,0 C30.7737441,0 29.364099,1.5428951 29.364099,3.44396228 C29.364099,5.34502945 31.0893363,6.88792455 33.0249683,6.88792455 C34.9676135,6.88792455 36.5315481,5.34502945 36.5315481,3.44396228 M46.3149056,3.44396228 C46.3149056,1.5428951 44.7439579,0 42.8083259,0 L42.4927337,0 C40.5571016,0 39.1474566,1.5428951 39.1474566,3.44396228 C39.1474566,5.34502945 40.8726938,6.88792455 42.8083259,6.88792455 C44.7439579,6.88792455 46.3149056,5.34502945 46.3149056,3.44396228 M5.00038275,6.63307134 C6.25573831,6.12336493 7.10433062,4.88353851 7.10433062,3.44396228 C7.10433062,1.5428951 5.44922497,0 3.50657977,0 C1.57094774,0 0,1.5428951 0,3.44396228 L0,3.61616039 C0,5.52411549 1.57094774,6.97746757 3.50657977,6.97746757 C4.04659306,6.97746757 4.55154054,6.85348493 5.00038275,6.63307134 M7.01315954,12.9148585 C7.01315954,11.0137914 5.44922497,9.47089626 3.50657977,9.47089626 C1.57094774,9.47089626 0,11.0137914 0,12.9148585 L0,13.2248151 C0,15.1258823 1.57094774,16.5172431 3.50657977,16.5172431 C5.44922497,16.5172431 7.01315954,14.8159257 7.01315954,12.9148585 M7.01315954,22.5235133 C7.01315954,20.6155582 5.44922497,19.079551 3.50657977,19.079551 C1.57094774,19.079551 0,20.6155582 0,22.5235133 L0,22.8334699 C0,24.7345371 1.57094774,26.1190099 3.50657977,26.1190099 C5.44922497,26.1190099 7.01315954,24.4245805 7.01315954,22.5235133 M7.01315954,32.1252801 C7.01315954,30.2242129 5.44922497,28.6813178 3.50657977,28.6813178 C1.57094774,28.6813178 0,30.2242129 0,32.1252801 L0,32.4352367 C0,34.3363039 1.57094774,35.7276647 3.50657977,35.7276647 C5.44922497,35.7276647 7.01315954,34.0332352 7.01315954,32.1252801 M7.01315954,41.7339349 C7.01315954,39.8259798 5.44922497,38.2899726 3.50657977,38.2899726 C1.57094774,38.2899726 0,39.8259798 0,41.7339349 L0,42.0438915 C0,43.9449586 1.57094774,45.3294315 3.50657977,45.3294315 C5.44922497,45.3294315 7.01315954,43.635002 7.01315954,41.7339349 M7.10433062,51.5147877 C7.10433062,50.9844175 6.98510691,50.488487 6.75367264,50.0476598 C6.23469883,48.8147213 4.97233012,47.9812824 3.50657977,47.9812824 C1.57094774,47.9812824 0,49.6068326 0,51.5147877 C0,53.4158549 1.57094774,54.95875 3.50657977,54.95875 L3.68892192,54.95875 C5.62455395,54.95875 7.10433062,53.4158549 7.10433062,51.5147877 M16.8175566,51.5147877 C16.8175566,49.6068326 15.0923193,48.0708254 13.1496741,48.0708254 C11.2140421,48.0708254 9.64309437,49.6068326 9.64309437,51.5147877 C9.64309437,53.4158549 11.2140421,54.95875 13.1496741,54.95875 L13.4652663,54.95875 C15.4079115,54.95875 16.8175566,53.4158549 16.8175566,51.5147877 M26.593901,51.5147877 C26.593901,49.6068326 24.8686637,48.0708254 22.9330317,48.0708254 C20.9973997,48.0708254 19.4264519,49.6068326 19.4264519,51.5147877 C19.4264519,53.4158549 20.9973997,54.95875 22.9330317,54.95875 L23.2486239,54.95875 C25.1842559,54.95875 26.593901,53.4158549 26.593901,51.5147877 M36.3772586,51.5147877 C36.3772586,49.6068326 34.6520213,48.0708254 32.7163893,48.0708254 C30.7737441,48.0708254 29.2098095,49.6068326 29.2098095,51.5147877 C29.2098095,53.4158549 30.7737441,54.95875 32.7163893,54.95875 L33.0249683,54.95875 C34.9676135,54.95875 36.3772586,53.4158549 36.3772586,51.5147877 M46.1606161,51.5147877 C46.1606161,49.6068326 44.4283657,48.0708254 42.4927337,48.0708254 C40.5571016,48.0708254 38.9861539,49.6068326 38.9861539,51.5147877 C38.9861539,53.4158549 40.5571016,54.95875 42.4927337,54.95875 L42.8083259,54.95875 C44.7439579,54.95875 46.1606161,53.4158549 46.1606161,51.5147877 M52.4514202,54.95875 C50.5157882,54.95875 48.8536694,53.4158549 48.8536694,51.5147877 C48.8536694,50.0752115 49.7022617,48.8353851 50.9576172,48.3256787 C53.0405256,47.29249 55.958,48.9111522 55.958,51.3357017 L55.958,51.5147877 C55.958,53.4158549 54.3870523,54.95875 52.4514202,54.95875" id="path-1"></path>
    </defs>
    <g id="INDI-2.0" stroke="none" stroke-width="1" fill="none" fill-rule="evenodd">
        <g id="12.6-Fail-to-connect-Server" transform="translate(-484.000000, -530.000000)">
            <g id="Icon/ic_empty" transform="translate(484.000000, 530.000000)">
                <mask id="mask-2" fill="white">
                    <use xlink:href="#path-1"></use>
                </mask>
                <use id="Fill-1" fill="#231F20" fill-rule="evenodd" xlink:href="#path-1"></use>
                <g id="_Resources/Colors/Inactive" mask="url(#mask-2)" fill="#C9C6CE" fill-rule="evenodd">
                    <rect id="Swatch" x="0" y="0" width="56" height="55"></rect>
                </g>
            </g>
        </g>
    </g>
</svg>