<?xml version="1.0" encoding="UTF-8"?>
<svg width="30px" height="30px" viewBox="0 0 30 30" version="1.1" xmlns="http://www.w3.org/2000/svg" xmlns:xlink="http://www.w3.org/1999/xlink">
    <!-- Generator: Sketch 49.1 (51147) - http://www.bohemiancoding.com/sketch -->
    <title>Glyphs/SCB/ic_gift</title>
    <desc>Created with Sketch.</desc>
    <defs>
        <path d="M25.3187982,8.46726481 L24.2200973,8.46726481 C24.5537576,7.99578382 24.7996809,7.30870985 24.9404172,6.73026989 C25.232928,5.52787552 25.0402475,4.283299 24.397925,3.22598195 C23.5512346,1.83218304 22.0722859,1 20.4417251,1 C19.5963333,1 18.7660378,1.23350541 18.0408481,1.67523945 C16.8102576,2.42468372 15.5249634,4.77184791 14.6667478,6.59965966 C13.8085323,4.77184791 12.5232381,2.42476499 11.2926476,1.67532073 C10.5673767,1.23350541 9.73716236,1 8.89168939,1 C7.26104742,1 5.78217989,1.83218304 4.93548948,3.22598195 C4.29308586,4.283299 4.10048651,5.52787552 4.39291611,6.73026989 C4.53365242,7.30870985 4.77949456,7.99578382 5.11323603,8.46726481 L4.0145351,8.46726481 C3.45426824,8.46726481 3,8.92216553 3,9.48321247 L3,27.9840523 C3,28.545018 3.45426824,29 4.0145351,29 L25.3187982,29 C25.8790651,29 26.3333333,28.545018 26.3333333,27.9840523 L26.3333333,9.48321247 C26.3333333,8.92208426 25.8791463,8.46726481 25.3187982,8.46726481 Z M19.1768429,3.7606875 C19.5299985,3.5299446 19.9336753,3.40799993 20.344107,3.40799993 C21.1385136,3.40799993 21.8588271,3.84243728 22.2710883,4.57010096 C22.5837144,5.12194972 22.6775092,5.77141468 22.5351634,6.39896887 C22.3928175,7.02652307 22.031359,7.55691441 21.5172816,7.89267782 C21.3808463,7.98183192 20.8299686,8.25057864 19.1311065,8.30799993 C19.5329538,7.98976512 19.8671816,7.61849119 20.1115548,7.20377351 C20.371197,6.7629896 20.2489048,6.17955912 19.8383324,5.90076368 C19.4280415,5.62204378 18.884552,5.75328164 18.6248394,6.19406555 C18.3587941,6.64572929 17.7961657,7.09996187 17,7.37649069 C17.7250279,5.75048613 18.5912759,4.14299237 19.1768429,3.7606875 Z M7.06225174,4.56736146 C7.47441014,3.84016205 8.19493086,3.40607738 8.98941068,3.40607738 C9.39988019,3.40607738 9.8035238,3.52794425 10.1568527,3.75853993 C10.7414885,4.13999684 11.6078867,5.74654049 12.3333333,7.37180966 C11.5373757,7.09545727 10.9748362,6.64166551 10.7089071,6.19036544 C10.449241,5.74986276 9.90591247,5.61863313 9.49530222,5.89717519 C9.08476233,6.17579276 8.96238851,6.75877549 9.22205464,7.19935369 C9.46638006,7.61380676 9.80070899,7.98484382 10.2025933,8.30287559 C8.50343392,8.24541543 7.95264618,7.97691568 7.81605757,7.88774295 C7.30207346,7.55234478 6.94065199,7.02221633 6.79822266,6.39506253 C6.65579333,5.76790872 6.74959684,5.11885814 7.06225174,4.56736146 Z M5.8,11.2666667 L11.0288594,11.2666667 L13.2666667,11.2666667 L13.2666667,26.2 L5.8,26.2 L5.8,11.2666667 Z M23.5333333,26.2 L16.0666667,26.2 L16.0666667,11.2666667 L18.3044037,11.2666667 L23.5333333,11.2666667 L23.5333333,26.2 Z" id="path-1"></path>
    </defs>
    <g id="Glyphs/SCB/ic_gift" stroke="none" stroke-width="1" fill="none" fill-rule="evenodd">
        <rect id="bounds" fill-opacity="0" fill="#D8D8D8" x="0" y="0" width="30" height="30"></rect>
        <mask id="mask-2" fill="white">
            <use xlink:href="#path-1"></use>
        </mask>
        <use id="Mask" fill="#736E7A" fill-rule="nonzero" xlink:href="#path-1"></use>
        <g id="Colors/dark-grey" mask="url(#mask-2)" fill="#736E7A">
            <rect id="color" x="0" y="0" width="30" height="30"></rect>
        </g>
    </g>
</svg>