<?xml version="1.0" encoding="UTF-8"?>
<svg width="32px" height="32px" viewBox="0 0 32 32" version="1.1" xmlns="http://www.w3.org/2000/svg" xmlns:xlink="http://www.w3.org/1999/xlink">
    <!-- Generator: Sketch 49.1 (51147) - http://www.bohemiancoding.com/sketch -->
    <title>Glyphs/SCB/ic_insured</title>
    <desc>Created with Sketch.</desc>
    <defs>
        <path d="M26.5605845,3.06367347 L14.7389526,1 C14.5795598,0.973877551 14.4201671,0.973877551 14.2674156,1 L1.12239089,3.08326531 C0.471537002,3.20081633 0,3.74938776 0,4.39591837 L0,19.5469388 C0,21.5518367 0.976280835,23.4522449 2.74288425,24.8889796 L13.6827039,32.6930612 C13.9350759,32.8955102 14.2405787,33 14.5460815,33 C14.8515844,33 15.1637286,32.8955102 15.4094592,32.6930612 L25.2571157,24.8889796 C27.0237192,23.4457143 28,21.5518367 28,19.5469388 L28,4.39591837 C28,3.74938776 27.204797,3.18122449 26.5605845,3.06367347 Z M25,19.1691347 C25,20.311972 24.1575427,21.82488 23.0738662,22.7116717 L14.5332642,29.5 L4.88584496,22.7116717 C3.80216843,21.82488 3,20.311972 3,19.1691347 L3,5.74860343 L14.5332642,4 L25,5.74860343 L25,19.1691347 Z" id="path-1"></path>
        <path d="M0.0104732207,11.3120739 C-0.0631938187,11.692005 0.615733941,12 0.615733941,12 L0.615733941,12 L5.98279165,12 L11.3848405,12 L11.3848405,12 C11.7927838,12 11.9901012,11.3120739 11.9901012,11.3120739 L11.9901012,11.3120739 C11.9679632,11.1978991 11.9219596,11.0129267 11.8469001,10.7796674 C11.7225475,10.3932216 11.5584546,10.0062987 11.3473368,9.64076779 C11.118287,9.24418917 10.8465222,8.89591722 10.5248415,8.61092033 C9.80772225,7.97557991 8.93879267,7.54838188 8.11982437,7.307642 C7.9352092,7.25337344 7.75313286,7.20857993 7.57590668,7.17301309 C7.57590668,7.17301309 7.57590656,7.04945957 7.57590668,7.04945941 C8.64988623,6.39452208 9.31988708,5.15787467 9.31988708,3.7651884 C9.31988708,1.67770495 7.93686104,0 6.00028723,0 C4.06029529,0 2.68068738,1.66858082 2.68068738,3.7651884 C2.68068738,5.15787467 3.35068812,6.39452208 4.42466768,7.04945941 C4.42466768,7.04945957 4.42466768,7.17301309 4.42466768,7.17301309 C3.46125138,7.36635741 2.35450817,7.83235888 1.47573295,8.61092033 C1.15405223,8.89591722 0.882287469,9.24418917 0.653237647,9.64076779 C0.442119868,10.0062987 0.27802697,10.3932216 0.153674356,10.7796674 C0.0786148914,11.0129267 0.0326112311,11.1978991 0.0104732207,11.3120739 L0.0104732207,11.3120739 Z" id="path-3"></path>
    </defs>
    <g id="Glyphs/SCB/ic_insured" stroke="none" stroke-width="1" fill="none" fill-rule="evenodd">
        <rect id="bounds" fill-opacity="0" fill="#D8D8D8" x="0" y="0" width="32" height="32"></rect>
        <g id="Fill" transform="translate(2.000000, -1.000000)">
            <mask id="mask-2" fill="white">
                <use xlink:href="#path-1"></use>
            </mask>
            <use id="Mask" fill="#736E7A" fill-rule="nonzero" xlink:href="#path-1"></use>
            <g id="Colors/dark-grey" mask="url(#mask-2)" fill="#736E7A">
                <g transform="translate(-2.000000, 1.000000)" id="color">
                    <rect x="0" y="0" width="32" height="32"></rect>
                </g>
            </g>
        </g>
        <g id="Fill" transform="translate(10.000000, 8.000000)">
            <mask id="mask-4" fill="white">
                <use xlink:href="#path-3"></use>
            </mask>
            <use id="Mask" fill="#736E7A" fill-rule="nonzero" xlink:href="#path-3"></use>
            <g id="Colors/dark-grey" mask="url(#mask-4)" fill="#736E7A">
                <g transform="translate(-10.000000, -8.000000)" id="color">
                    <rect x="0" y="0" width="32" height="32"></rect>
                </g>
            </g>
        </g>
    </g>
</svg>