<?xml version="1.0" encoding="UTF-8"?>
<svg width="100%" viewBox="0 0 60 60" version="1.1" xmlns="http://www.w3.org/2000/svg" xmlns:xlink="http://www.w3.org/1999/xlink">
    <!-- Generator: Sketch 50 (54983) - http://www.bohemiancoding.com/sketch -->
    <title>ic_loading</title>
    <desc>Created with Sketch.</desc>
    <defs></defs>
    <g id="Symbols" stroke="none" stroke-width="1" fill="none" fill-rule="evenodd">
        <g id="Loading/ic_loading_purple_primary" fill="#4F2A81">
            <g id="ic_loading">
                <path d="M30,0 C28.896,0 28,0.896 28,2 L28,14 C28,15.104 28.896,16 30,16 C31.104,16 32,15.104 32,14 L32,2 C32,0.896 31.104,0 30,0" id="Fill-1"></path>
                <path d="M30,44 C28.896,44 28,44.896 28,46 L28,58 C28,59.104 28.896,60 30,60 C31.104,60 32,59.104 32,58 L32,46 C32,44.896 31.104,44 30,44" id="Fill-3" opacity="0.479999989"></path>
                <path d="M58,28 L46,28 C44.896,28 44,28.896 44,30 C44,31.104 44.896,32 46,32 L58,32 C59.104,32 60,31.104 60,30 C60,28.896 59.104,28 58,28" id="Fill-5" opacity="0.239999995"></path>
                <path d="M16,30 C16,28.896 15.104,28 14,28 L2,28 C0.896,28 0,28.896 0,30 C0,31.104 0.896,32 2,32 L14,32 C15.104,32 16,31.104 16,30" id="Fill-7" opacity="0.719999969"></path>
                <path d="M17.7319,4.7515 C17.1799,3.7945 15.9569,3.4665 14.9999,4.0195 C14.0439,4.5715 13.7159,5.7945 14.2679,6.7515 L20.2679,17.1435 C20.8199,18.1005 22.0439,18.4275 22.9999,17.8755 C23.9569,17.3235 24.2839,16.1005 23.7319,15.1435 L17.7319,4.7515 Z" id="Fill-9" opacity="0.959999979"></path>
                <path d="M39.7324,42.8564 C39.1794,41.8994 37.9574,41.5724 37.0004,42.1244 C36.0434,42.6764 35.7154,43.8994 36.2674,44.8564 L42.2674,55.2494 C42.8204,56.2054 44.0434,56.5334 45.0004,55.9804 C45.9574,55.4284 46.2844,54.2054 45.7324,53.2494 L39.7324,42.8564 Z" id="Fill-11" opacity="0.399999976"></path>
                <path d="M42.124,23 C42.677,23.957 43.9,24.284 44.856,23.732 L55.249,17.732 C56.205,17.18 56.533,15.957 55.98,15 C55.429,14.043 54.205,13.716 53.249,14.268 L42.856,20.268 C41.9,20.82 41.572,22.043 42.124,23" id="Fill-13" opacity="0.16"></path>
                <path d="M17.876,37 C17.323,36.043 16.1,35.716 15.144,36.268 L4.751,42.268 C3.795,42.82 3.467,44.043 4.02,45 C4.571,45.957 5.795,46.284 6.751,45.732 L17.144,39.732 C18.1,39.18 18.428,37.957 17.876,37" id="Fill-15" opacity="0.639999986"></path>
                <path d="M4.751,17.7319 L15.144,23.7319 C16.1,24.2839 17.323,23.9569 17.876,22.9999 C18.428,22.0439 18.1,20.8199 17.144,20.2679 L6.751,14.2679 C5.795,13.7159 4.571,14.0439 4.02,14.9999 C3.467,15.9569 3.795,17.1799 4.751,17.7319" id="Fill-17" opacity="0.799999952"></path>
                <path d="M55.249,42.2676 L44.856,36.2676 C43.9,35.7156 42.677,36.0426 42.124,36.9996 C41.572,37.9566 41.9,39.1796 42.856,39.7326 L53.249,45.7326 C54.205,46.2846 55.429,45.9566 55.98,44.9996 C56.533,44.0426 56.205,42.8206 55.249,42.2676" id="Fill-19" opacity="0.319999993"></path>
                <path d="M39.732,17.1435 L45.732,6.7515 C46.284,5.7945 45.957,4.5715 45,4.0195 C44.043,3.4665 42.82,3.7945 42.268,4.7515 L36.268,15.1435 C35.716,16.1005 36.043,17.3235 37,17.8755 C37.957,18.4275 39.18,18.1005 39.732,17.1435 Z" id="Fill-21" opacity="0.08"></path>
                <path d="M23,42.124 C22.043,41.572 20.82,41.899 20.268,42.856 L14.268,53.249 C13.716,54.205 14.043,55.429 15,55.98 C15.957,56.533 17.18,56.205 17.732,55.249 L23.732,44.856 C24.284,43.899 23.957,42.677 23,42.124" id="Fill-23" opacity="0.560000002"></path>
            </g>
        </g>
    </g>
</svg>
