<?xml version="1.0" encoding="UTF-8"?>
<svg width="30px" height="30px" viewBox="0 0 30 30" version="1.1" xmlns="http://www.w3.org/2000/svg" xmlns:xlink="http://www.w3.org/1999/xlink">
    <!-- Generator: Sketch 49.1 (51147) - http://www.bohemiancoding.com/sketch -->
    <title>Glyphs/SCB/ic_need_savings</title>
    <desc>Created with Sketch.</desc>
    <defs>
        <path d="M24.562,13.877 C23.455,9.764 20.223,6.532 16.11,5.425 C17.156,4.538 18.507,4 19.987,4 C23.3,4 25.987,6.687 25.987,10 C25.987,11.48 25.449,12.831 24.562,13.877 M19.987,1 C16.856,1 14.102,2.6 12.489,5.025 C8.444,5.191 4.93,7.366 2.882,10.569 C2.671,10.83 2.54,11.158 2.54,11.521 C2.54,12.36 3.22,13.041 4.06,13.041 C4.614,13.041 5.093,12.741 5.359,12.3 L5.372,12.307 C6.958,9.745 9.786,8.033 13.02,8.033 C17.991,8.033 22.02,12.063 22.02,17.033 C22.02,22.004 17.991,26.033 13.02,26.033 C8.202,26.033 4.279,22.243 4.042,17.482 L4.033,17.5 L4.033,17.468 C4.033,16.64 3.361,15.968 2.533,15.968 L2.5,15.968 C1.672,15.968 1,16.64 1,17.468 L1,17.5 C1,17.618 1.017,17.731 1.043,17.841 C1.478,24.073 6.645,29 12.987,29 C19.446,29 24.699,23.893 24.961,17.498 C27.387,15.885 28.987,13.131 28.987,10 C28.987,5.029 24.958,1 19.987,1" id="path-1"></path>
        <path d="M5.348,7.357 C5.348,7.181 5.32,7.028 5.262,6.897 C5.205,6.767 5.124,6.658 5.021,6.57 C4.916,6.482 4.79,6.416 4.643,6.37 C4.494,6.325 4.329,6.299 4.149,6.293 L4.149,8.429 C4.329,8.423 4.494,8.397 4.643,8.349 C4.79,8.303 4.916,8.236 5.021,8.148 C5.124,8.06 5.205,7.95 5.262,7.818 C5.32,7.686 5.348,7.533 5.348,7.357 Z M5.049,4.056 C5.049,3.907 5.032,3.771 4.996,3.65 C4.961,3.528 4.907,3.423 4.834,3.336 C4.76,3.248 4.667,3.177 4.555,3.125 C4.442,3.072 4.307,3.041 4.149,3.033 L4.149,5.062 C4.291,5.051 4.42,5.014 4.533,4.953 C4.646,4.891 4.74,4.814 4.817,4.722 C4.892,4.629 4.951,4.526 4.99,4.41 C5.03,4.294 5.049,4.176 5.049,4.056 Z M2.307,8.429 L3.207,8.429 L3.207,6.292 L2.307,6.292 L2.307,8.429 Z M2.307,5.067 L3.207,5.067 L3.207,3.028 L2.307,3.028 L2.307,5.067 Z M3.207,0.537 C3.207,0.466 3.22,0.399 3.245,0.334 C3.27,0.27 3.303,0.212 3.344,0.163 C3.385,0.113 3.434,0.074 3.492,0.045 C3.548,0.015 3.611,0 3.678,0 C3.743,0 3.804,0.015 3.863,0.045 C3.921,0.074 3.971,0.113 4.012,0.163 C4.053,0.212 4.086,0.27 4.111,0.334 C4.136,0.399 4.149,0.466 4.149,0.537 L4.149,1.345 L4.434,1.345 C4.979,1.345 5.434,1.404 5.798,1.521 C6.163,1.638 6.456,1.794 6.677,1.989 C6.899,2.183 7.056,2.409 7.15,2.666 C7.244,2.921 7.29,3.191 7.29,3.472 C7.29,3.689 7.277,3.891 7.248,4.081 C7.221,4.269 7.16,4.445 7.064,4.605 C6.969,4.767 6.83,4.912 6.649,5.041 C6.467,5.169 6.223,5.281 5.914,5.375 C6.254,5.462 6.536,5.58 6.761,5.726 C6.985,5.873 7.162,6.042 7.295,6.234 C7.426,6.425 7.52,6.637 7.574,6.869 C7.628,7.1 7.655,7.346 7.655,7.607 C7.655,7.956 7.594,8.283 7.473,8.589 C7.351,8.895 7.165,9.162 6.916,9.389 C6.667,9.616 6.353,9.795 5.972,9.925 C5.591,10.055 5.143,10.121 4.627,10.121 L4.149,10.121 L4.149,11.017 C4.149,11.085 4.136,11.15 4.111,11.214 C4.086,11.279 4.053,11.336 4.012,11.386 C3.971,11.436 3.921,11.475 3.863,11.505 C3.804,11.534 3.743,11.548 3.678,11.548 C3.611,11.548 3.548,11.534 3.492,11.505 C3.434,11.475 3.385,11.436 3.344,11.386 C3.303,11.336 3.27,11.279 3.245,11.214 C3.22,11.15 3.207,11.085 3.207,11.017 L3.207,10.121 L1.379,10.121 C0.908,10.121 0.56,9.997 0.336,9.75 C0.112,9.502 0,9.105 0,8.56 L0,2.896 C0,2.624 0.028,2.389 0.083,2.193 C0.139,1.997 0.224,1.836 0.338,1.711 C0.452,1.587 0.596,1.495 0.769,1.435 C0.942,1.375 1.145,1.345 1.379,1.345 L3.207,1.345 L3.207,0.537 Z" id="path-3"></path>
    </defs>
    <g id="Glyphs/SCB/ic_need_savings" stroke="none" stroke-width="1" fill="none" fill-rule="evenodd">
        <rect id="bounds" fill-opacity="0" fill="#D8D8D8" x="0" y="0" width="30" height="30"></rect>
        <g id="Fill">
            <mask id="mask-2" fill="white">
                <use xlink:href="#path-1"></use>
            </mask>
            <use id="Mask" fill="#736E7A" xlink:href="#path-1"></use>
            <g id="Colors/dark-grey" mask="url(#mask-2)" fill="#736E7A">
                <rect id="color" x="0" y="0" width="30" height="30"></rect>
            </g>
        </g>
        <g id="Fill" transform="translate(9.000000, 11.000000)">
            <mask id="mask-4" fill="white">
                <use xlink:href="#path-3"></use>
            </mask>
            <use id="Mask" fill="#736E7A" xlink:href="#path-3"></use>
            <g id="Colors/dark-grey" mask="url(#mask-4)" fill="#736E7A">
                <g transform="translate(-9.000000, -11.000000)" id="color">
                    <rect x="0" y="0" width="30" height="30"></rect>
                </g>
            </g>
        </g>
    </g>
</svg>