<?xml version="1.0" encoding="UTF-8"?>
<svg width="30px" height="30px" viewBox="0 0 30 30" version="1.1" xmlns="http://www.w3.org/2000/svg" xmlns:xlink="http://www.w3.org/1999/xlink">
    <!-- Generator: Sketch 49.1 (51147) - http://www.bohemiancoding.com/sketch -->
    <title>Glyphs/SCB/ic_needs_fixed deposit</title>
    <desc>Created with Sketch.</desc>
    <defs>
        <path d="M15.4223509,7.20194691 L3.1375145,19.4867833 C2.55172806,20.0725698 1.60198059,20.0725698 1.01619415,19.4867833 C0.430407716,18.9009969 0.430407716,17.9512494 1.01619415,17.365463 L13.3096841,5.07197307 L9.86068577,5.07241159 C9.03195663,5.07241159 8.36020518,4.40066015 8.36020518,3.571931 C8.36020518,2.74320185 9.03124952,2.07215752 9.85997867,2.07215752 L16.921147,2.07215752 C17.5441081,2.07145041 18.0772666,2.45187386 18.3042478,2.99139633 C18.3806154,3.17100146 18.4223347,3.36828425 18.4223347,3.57617364 L18.4223347,10.644413 C18.4223347,11.4731422 17.7505832,12.1448936 16.9225612,12.1441865 C16.093832,12.1441865 15.4227877,11.4731422 15.4227877,10.644413 L15.4223509,7.20194691 Z M9.5,25 L16.5,25 C17.3284271,25 18,25.6715729 18,26.5 C18,27.3284271 17.3284271,28 16.5,28 L9.5,28 C8.67157288,28 8,27.3284271 8,26.5 C8,25.6715729 8.67157288,25 9.5,25 Z M21.5,25 L28.5,25 C29.3284271,25 30,25.6715729 30,26.5 C30,27.3284271 29.3284271,28 28.5,28 L21.5,28 C20.6715729,28 20,27.3284271 20,26.5 C20,25.6715729 20.6715729,25 21.5,25 Z M9.5,20 L16.5,20 C17.3284271,20 18,20.6715729 18,21.5 C18,22.3284271 17.3284271,23 16.5,23 L9.5,23 C8.67157288,23 8,22.3284271 8,21.5 C8,20.6715729 8.67157288,20 9.5,20 Z M21.5,20 L28.5,20 C29.3284271,20 30,20.6715729 30,21.5 C30,22.3284271 29.3284271,23 28.5,23 L21.5,23 C20.6715729,23 20,22.3284271 20,21.5 C20,20.6715729 20.6715729,20 21.5,20 Z M21.5,15 L28.5,15 C29.3284271,15 30,15.6715729 30,16.5 C30,17.3284271 29.3284271,18 28.5,18 L21.5,18 C20.6715729,18 20,17.3284271 20,16.5 C20,15.6715729 20.6715729,15 21.5,15 Z M21.5,10 L28.5,10 C29.3284271,10 30,10.6715729 30,11.5 C30,12.3284271 29.3284271,13 28.5,13 L21.5,13 C20.6715729,13 20,12.3284271 20,11.5 C20,10.6715729 20.6715729,10 21.5,10 Z" id="path-1"></path>
    </defs>
    <g id="Glyphs/SCB/ic_needs_fixed-deposit" stroke="none" stroke-width="1" fill="none" fill-rule="evenodd">
        <rect id="bounds" fill-opacity="0" fill="#D8D8D8" x="0" y="-2" width="30" height="30"></rect>
        <mask id="mask-2" fill="white">
            <use xlink:href="#path-1"></use>
        </mask>
        <use id="Mask" fill="#736E7A" xlink:href="#path-1"></use>
        <g id="Colors/dark-grey" mask="url(#mask-2)" fill="#736E7A">
            <rect id="color" x="0" y="0" width="30" height="30"></rect>
        </g>
    </g>
</svg>