<?xml version="1.0" encoding="UTF-8"?>
<svg width="30px" height="30px" viewBox="0 0 30 30" version="1.1" xmlns="http://www.w3.org/2000/svg" xmlns:xlink="http://www.w3.org/1999/xlink">
    <!-- Generator: Sketch 49.1 (51147) - http://www.bohemiancoding.com/sketch -->
    <title>Glyphs/SCB/ic_need_accident</title>
    <desc>Created with Sketch.</desc>
    <defs>
        <path d="M3.38476562,9 L4,6 C4.034,5.569 4.214,5.171 4.489,4.815 L7,9 L3.38476562,9 Z M5,15 C5,14.1715729 5.67157288,13.5 6.5,13.5 C7.32842712,13.5 8,14.1715729 8,15 L8,17 L11,17 L11,12 L11,9 L13,9 L13,7 L13,6 C12.859,4.224 10.342,3 8.529,3 C7.979,3 7.357,3.114 6.755,3.322 L10,9 C10,9 10,12 7,12 L2,12 L1,12 C0,12 0,11 0,11 L1,6 C1.102,2.535 5.017,0 8.506,0 C11.995,0 15.898,2.535 16,6 L16,11 C16,11 16,12 15,12 L14,12 L14,19 C14,19 14,20 13,20 L6,20 C6,20 5,20 5,19 L5,15 Z" id="path-1"></path>
        <path d="M4.5,6 C5.32842712,6 6,5.32842712 6,4.5 C6,3.67157288 5.32842712,3 4.5,3 C3.67157288,3 3,3.67157288 3,4.5 C3,5.32842712 3.67157288,6 4.5,6 Z M4.5,9 C2.01471863,9 0,6.98528137 0,4.5 C0,2.01471863 2.01471863,0 4.5,0 C6.98528137,0 9,2.01471863 9,4.5 C9,6.98528137 6.98528137,9 4.5,9 Z" id="path-3"></path>
    </defs>
    <g id="Glyphs/SCB/ic_need_accident" stroke="none" stroke-width="1" fill="none" fill-rule="evenodd">
        <rect id="bounds" fill-opacity="0" fill="#D8D8D8" x="0" y="0" width="30" height="30"></rect>
        <g id="Fill" transform="translate(6.000000, 10.000000)">
            <mask id="mask-2" fill="white">
                <use xlink:href="#path-1"></use>
            </mask>
            <use id="Mask" fill="#736E7A" xlink:href="#path-1"></use>
            <g id="Colors/dark-grey" mask="url(#mask-2)" fill="#736E7A">
                <g transform="translate(-7.000000, -10.000000)" id="color">
                    <rect x="0" y="0" width="30" height="30"></rect>
                </g>
            </g>
        </g>
        <g id="Fill" transform="translate(10.000000, 0.000000)">
            <mask id="mask-4" fill="white">
                <use xlink:href="#path-3"></use>
            </mask>
            <use id="Mask" fill="#736E7A" fill-rule="nonzero" xlink:href="#path-3"></use>
            <g id="Colors/dark-grey" mask="url(#mask-4)" fill="#736E7A">
                <g transform="translate(-11.000000, 0.000000)" id="color">
                    <rect x="0" y="0" width="30" height="30"></rect>
                </g>
            </g>
        </g>
    </g>
</svg>