<?xml version="1.0" encoding="UTF-8"?>
<svg width="30px" height="30px" viewBox="0 0 30 30" version="1.1" xmlns="http://www.w3.org/2000/svg" xmlns:xlink="http://www.w3.org/1999/xlink">
    <!-- Generator: Sketch 49.1 (51147) - http://www.bohemiancoding.com/sketch -->
    <title>Glyphs/SCB/ic_need_income_replacement</title>
    <desc>Created with Sketch.</desc>
    <defs>
        <path d="M3.97635591,24.5946482 C3.97635591,25.3708982 3.25619723,26.0008982 2.48817796,26.0008982 C1.72015869,26.0008982 1,25.3708982 1,24.5946482 L1,14.4141118 C1,13.6378618 1.72015869,13.0078618 2.48817796,13.0078618 C3.25619723,13.0078618 3.77932185,13.6378618 3.77932185,14.4141118 L3.79229201,14.8828618 C4.26477673,20.6475493 9.09153233,25.1953618 14.9095794,25.1953618 C18.403187,25.1953618 21.5123217,23.5472368 23.5495646,20.9887993 C23.8043357,20.6812993 24.1823235,20.4806743 24.6103391,20.4806743 C25.3774319,20.4806743 26,21.1106743 26,21.8869243 C26,22.2187993 25.8814156,22.5197368 25.7016861,22.7691118 C23.1586066,25.9584868 19.2777469,28.0078618 14.9095794,28.0078618 C10.3468594,28.0078618 6.50553879,25.7784868 3.97635591,22.3416118 L3.97635591,24.5946482 Z M26.0090404,4.41321355 C26.0090404,3.63696355 26.7291991,3.00696355 27.4972184,3.00696355 C28.2652377,3.00696355 28.9853964,3.63696355 28.9853964,4.41321355 L28.9853964,14.59375 C28.9853964,15.37 28.2652377,16 27.4972184,16 C26.7291991,16 26.2060745,15.37 26.2060745,14.59375 L26.1931043,14.125 C25.7206196,8.3603125 20.893864,3.8125 15.075817,3.8125 C11.5822094,3.8125 8.4730747,5.460625 6.43583179,8.0190625 C6.18106062,8.3265625 5.80307285,8.5271875 5.37505728,8.5271875 C4.60796445,8.5271875 3.98539636,7.8971875 3.98539636,7.1209375 C3.98539636,6.7890625 4.10398076,6.488125 4.28371024,6.23875 C6.82678972,3.049375 10.7076495,1 15.075817,1 C19.638537,1 23.4798576,3.229375 26.0090404,6.66625 L26.0090404,4.41321355 Z" id="path-1"></path>
        <path d="M7.28765513,10.9191202 C7.28765513,10.7057499 7.25473547,10.5202632 7.18654474,10.3614479 C7.11952972,10.2038448 7.02429784,10.0717007 6.90320052,9.96501559 C6.7797518,9.85833045 6.63161332,9.77831659 6.45878511,9.72254936 C6.28360549,9.66799446 6.08961463,9.63647385 5.87798824,9.62919986 L5.87798824,12.2187392 C6.08961463,12.2114652 6.28360549,12.1799446 6.45878511,12.1217527 C6.63161332,12.0659855 6.7797518,11.9847593 6.90320052,11.8780741 C7.02429784,11.771389 7.11952972,11.6380326 7.18654474,11.4780048 C7.25473547,11.3179771 7.28765513,11.1324905 7.28765513,10.9191202 Z M6.93612018,6.9172151 C6.93612018,6.73657776 6.91613325,6.57170073 6.87380797,6.42500866 C6.83265839,6.27710426 6.76917048,6.14980949 6.68334422,6.04433668 C6.59634226,5.93765154 6.48700196,5.85157603 6.35532332,5.78853481 C6.22246897,5.72428126 6.06374918,5.686699 5.87798824,5.67700035 L5.87798824,8.13682023 C6.04493795,8.12348459 6.19660353,8.07862833 6.32945787,8.00467613 C6.46231221,7.9295116 6.57282822,7.83616211 6.66335728,7.72462764 C6.75153494,7.61188085 6.82090137,7.48701074 6.86675376,7.34638033 C6.91378184,7.20574991 6.93612018,7.06269484 6.93612018,6.9172151 Z M3.71234487,12.2187392 L4.77047681,12.2187392 L4.77047681,9.62798753 L3.71234487,9.62798753 L3.71234487,12.2187392 Z M3.71234487,8.14288188 L4.77047681,8.14288188 L4.77047681,5.67093869 L3.71234487,5.67093869 L3.71234487,8.14288188 Z M4.77047681,2.65102182 C4.77047681,2.56494631 4.78576094,2.48372012 4.81515349,2.4049186 C4.84454605,2.32732941 4.88334422,2.2570142 4.93154801,2.19760998 C4.9797518,2.13699342 5.0373612,2.0897125 5.10555193,2.0545549 C5.17139125,2.01818497 5.24546048,2 5.32423253,2 C5.40065317,2 5.472371,2.01818497 5.54173743,2.0545549 C5.60992815,2.0897125 5.66871326,2.13699342 5.71691705,2.19760998 C5.76512084,2.2570142 5.80391901,2.32732941 5.83331156,2.4049186 C5.86270411,2.48372012 5.87798824,2.56494631 5.87798824,2.65102182 L5.87798824,3.63058538 L6.21306336,3.63058538 C6.85382103,3.63058538 7.38876551,3.70211292 7.8167211,3.84395566 C8.24585238,3.98579841 8.59033312,4.17492206 8.85016329,4.41132664 C9.11116917,4.64651888 9.29575441,4.92050572 9.40627041,5.23207482 C9.51678641,5.54121926 9.57086871,5.86854867 9.57086871,6.20921372 C9.57086871,6.47228957 9.55558459,6.71718046 9.52148922,6.94752338 C9.48974526,7.17544163 9.41802743,7.38881192 9.30516003,7.5827849 C9.19346832,7.77918254 9.03004572,7.95497056 8.81724363,8.11136127 C8.60326584,8.26653966 8.31639451,8.40232075 7.95310255,8.51627988 C8.35284128,8.62175268 8.68438929,8.76480776 8.94892227,8.94180811 C9.21227956,9.12002078 9.42037884,9.32490475 9.57674722,9.55767232 C9.73076421,9.78922757 9.84128021,10.0462418 9.90476813,10.3275026 C9.96825604,10.6075511 10,10.9057846 10,11.222203 C10,11.6453065 9.92828217,12.0417388 9.78602221,12.4127122 C9.64258654,12.7836855 9.42390594,13.1073779 9.13115611,13.3825771 C8.83840627,13.6577762 8.46923579,13.8747835 8.02129327,14.0323866 C7.57335075,14.1899896 7.04663619,14.2700035 6.43997387,14.2700035 L5.87798824,14.2700035 L5.87798824,15.3562522 C5.87798824,15.4386907 5.86270411,15.5174922 5.83331156,15.5950814 C5.80391901,15.6738829 5.76512084,15.7429858 5.71691705,15.8036024 C5.66871326,15.8642189 5.60992815,15.9114998 5.54173743,15.9478698 C5.472371,15.9830274 5.40065317,16 5.32423253,16 C5.24546048,16 5.17139125,15.9830274 5.10555193,15.9478698 C5.0373612,15.9114998 4.9797518,15.8642189 4.93154801,15.8036024 C4.88334422,15.7429858 4.84454605,15.6738829 4.81515349,15.5950814 C4.78576094,15.5174922 4.77047681,15.4386907 4.77047681,15.3562522 L4.77047681,14.2700035 L2.62129327,14.2700035 C2.06753756,14.2700035 1.65839321,14.1196744 1.39503592,13.8202286 C1.13167864,13.5195705 1,13.038275 1,12.3775546 L1,5.51091098 C1,5.18115691 1.03291966,4.89625909 1.09758328,4.65864219 C1.1634226,4.42102529 1.26335728,4.22583997 1.39738733,4.07429858 C1.53141737,3.92396952 1.70071848,3.81243505 1.90411496,3.73969519 C2.10751143,3.66695532 2.34617897,3.63058538 2.62129327,3.63058538 L4.77047681,3.63058538 L4.77047681,2.65102182 Z" id="path-3"></path>
    </defs>
    <g id="Glyphs/SCB/ic_need_income_replacement" stroke="none" stroke-width="1" fill="none" fill-rule="evenodd">
        <rect id="bounds" fill-opacity="0" fill="#D8D8D8" x="0" y="0" width="30" height="30"></rect>
        <g id="Fill">
            <mask id="mask-2" fill="white">
                <use xlink:href="#path-1"></use>
            </mask>
            <use id="Mask" fill="#736E7A" xlink:href="#path-1"></use>
            <g id="Colors/dark-grey" mask="url(#mask-2)" fill="#736E7A">
                <rect id="color" x="0" y="0" width="30" height="30"></rect>
            </g>
        </g>
        <g id="Fill" transform="translate(10.000000, 6.000000)">
            <mask id="mask-4" fill="white">
                <use xlink:href="#path-3"></use>
            </mask>
            <use id="Mask" fill="#736E7A" xlink:href="#path-3"></use>
            <g id="Colors/dark-grey" mask="url(#mask-4)" fill="#736E7A">
                <g transform="translate(-10.000000, -6.000000)" id="color">
                    <rect x="0" y="0" width="30" height="30"></rect>
                </g>
            </g>
        </g>
    </g>
</svg>