<?xml version="1.0" encoding="UTF-8"?>
<svg width="30px" height="30px" viewBox="0 0 30 30" version="1.1" xmlns="http://www.w3.org/2000/svg" xmlns:xlink="http://www.w3.org/1999/xlink">
    <!-- Generator: Sketch 49.1 (51147) - http://www.bohemiancoding.com/sketch -->
    <title>Glyphs/SCB/ic_need_retirement</title>
    <desc>Created with Sketch.</desc>
    <defs>
        <path d="M5.363,6.198 C5.545,6.297 5.726,6.395 5.726,6.396 C5.726,6.397 5.545,6.297 5.363,6.198 M5,6 L5,8 L1.5,8 C0.671,8 0,8.672 0,9.5 L0,18.5 C0,19.328 0.671,20 1.5,20 C2.328,20 3,19.328 3,18.5 L3,11 L5,11 L5.5,11 L6,11 L7,11 L8,11 L8,9 L8,7 L8,6 C8.14,4.224 9.717,3 11.529,3 C13.342,3 14.859,4.224 15,6 L15,7 L15,9 L13,9 L13,12 L13,17 L11,17 L11,14.48 C10.986,13.66 10.321,13 9.5,13 C8.678,13 8.013,13.66 8.002,14.48 L8,19 C8,20 9,20 9,20 L15,20 C16,20 16,19 16,19 L16,12 L17,12 C18,12 18,11 18,11 L18,6 C17.898,2.535 14.995,0 11.506,0 C8.016,0 5.101,2.535 5,6 Z" id="path-1"></path>
        <path d="M4.5,6 C5.32842712,6 6,5.32842712 6,4.5 C6,3.67157288 5.32842712,3 4.5,3 C3.67157288,3 3,3.67157288 3,4.5 C3,5.32842712 3.67157288,6 4.5,6 Z M4.5,9 C2.01471863,9 0,6.98528137 0,4.5 C0,2.01471863 2.01471863,0 4.5,0 C6.98528137,0 9,2.01471863 9,4.5 C9,6.98528137 6.98528137,9 4.5,9 Z" id="path-3"></path>
    </defs>
    <g id="Glyphs/SCB/ic_need_retirement" stroke="none" stroke-width="1" fill="none" fill-rule="evenodd">
        <rect id="bounds" fill-opacity="0" fill="#D8D8D8" x="0" y="0" width="30" height="30"></rect>
        <g id="Fill" transform="translate(3.000000, 10.000000)">
            <mask id="mask-2" fill="white">
                <use xlink:href="#path-1"></use>
            </mask>
            <use id="Mask" fill="#736E7A" xlink:href="#path-1"></use>
            <g id="Colors/dark-grey" mask="url(#mask-2)" fill="#736E7A">
                <g transform="translate(-3.000000, -10.000000)" id="color">
                    <rect x="0" y="0" width="30" height="30"></rect>
                </g>
            </g>
        </g>
        <g id="Fill" transform="translate(10.000000, 0.000000)">
            <mask id="mask-4" fill="white">
                <use xlink:href="#path-3"></use>
            </mask>
            <use id="Mask" fill="#736E7A" fill-rule="nonzero" xlink:href="#path-3"></use>
            <g id="Colors/dark-grey" mask="url(#mask-4)" fill="#736E7A">
                <g transform="translate(-10.000000, 0.000000)" id="color">
                    <rect x="0" y="0" width="30" height="30"></rect>
                </g>
            </g>
        </g>
    </g>
</svg>