<?xml version="1.0" encoding="UTF-8"?>
<svg width="30px" height="30px" viewBox="0 0 30 30" version="1.1" xmlns="http://www.w3.org/2000/svg" xmlns:xlink="http://www.w3.org/1999/xlink">
    <!-- Generator: Sketch 49.1 (51147) - http://www.bohemiancoding.com/sketch -->
    <title>Glyphs/SCB/ic_need_dread_disease</title>
    <desc>Created with Sketch.</desc>
    <defs>
        <path d="M29,15 C29,14.977 28.998,14.953 28.998,14.93 C28.998,14.937 28.995,14.943 28.995,14.95 C28.969,14.088 28.271,13.396 27.406,13.383 C27.427,13.382 27.446,13.377 27.468,13.376 L25.867,13.376 C25.867,13.378 25.867,13.379 25.868,13.381 L19.751,13.381 C19.681,13.176 19.599,12.978 19.504,12.786 L20.657,11.634 C21.289,11.001 21.289,9.976 20.657,9.344 C20.024,8.711 18.999,8.711 18.367,9.344 L17.215,10.496 C17.022,10.401 16.824,10.319 16.62,10.249 L16.62,8.619 C16.62,7.725 15.895,7 15,7 C14.105,7 13.381,7.725 13.381,8.619 L13.381,10.249 C13.177,10.319 12.978,10.401 12.786,10.496 L11.634,9.344 C11.001,8.711 9.976,8.711 9.344,9.344 C8.711,9.976 8.711,11.001 9.344,11.634 L10.496,12.786 C10.401,12.978 10.319,13.177 10.25,13.381 L8.62,13.381 C7.726,13.381 7,14.105 7,15 C7,15.895 7.726,16.619 8.62,16.619 L10.25,16.619 C10.319,16.824 10.401,17.022 10.496,17.214 L9.344,18.367 C8.711,18.999 8.711,20.024 9.344,20.657 C9.977,21.289 11.001,21.289 11.634,20.657 L12.786,19.504 C12.979,19.599 13.177,19.681 13.381,19.751 L13.381,21.381 C13.381,22.275 14.106,23 15,23 C15.895,23 16.62,22.275 16.62,21.381 L16.62,19.751 C16.824,19.681 17.022,19.599 17.214,19.504 L18.367,20.657 C18.999,21.289 20.024,21.289 20.657,20.657 C21.29,20.024 21.29,18.999 20.657,18.367 L19.505,17.214 C19.599,17.022 19.681,16.824 19.751,16.619 L25.866,16.619 C25.081,21.925 20.523,26 15,26 C8.925,26 4,21.075 4,15 C4,8.925 8.925,4 15,4 C19.197,4 22.834,6.358 24.688,9.815 C24.923,10.345 25.451,10.715 26.067,10.715 C26.902,10.715 27.578,10.039 27.578,9.205 C27.578,9.049 27.548,8.902 27.504,8.761 L27.517,8.756 C27.507,8.734 27.494,8.715 27.483,8.693 C27.431,8.549 27.358,8.416 27.268,8.296 C24.891,3.955 20.299,1 15,1 C7.269,1 1,7.268 1,15 C1,22.732 7.269,29 15,29 C22.732,29 29,22.732 29,15" id="path-1"></path>
    </defs>
    <g id="Glyphs/SCB/ic_need_dread_disease" stroke="none" stroke-width="1" fill="none" fill-rule="evenodd">
        <rect id="bounds" fill-opacity="0" fill="#D8D8D8" x="0" y="0" width="30" height="30"></rect>
        <mask id="mask-2" fill="white">
            <use xlink:href="#path-1"></use>
        </mask>
        <use id="Mask" fill="#736E7A" xlink:href="#path-1"></use>
        <g id="Colors/dark-grey" mask="url(#mask-2)" fill="#736E7A">
            <rect id="color" x="0" y="0" width="30" height="30"></rect>
        </g>
    </g>
</svg>