<?xml version="1.0" encoding="UTF-8"?>
<svg width="30px" height="30px" viewBox="0 0 30 30" version="1.1" xmlns="http://www.w3.org/2000/svg" xmlns:xlink="http://www.w3.org/1999/xlink">
    <!-- Generator: Sketch 49.1 (51147) - http://www.bohemiancoding.com/sketch -->
    <title>Glyphs/SCB/ic_needs_deposit</title>
    <desc>Created with Sketch.</desc>
    <defs>
        <path d="M3,8 L3,20 L27,20 L27,8 L3,8 Z M2,5 L28,5 C29.1045695,5 30,5.8954305 30,7 L30,21 C30,22.1045695 29.1045695,23 28,23 L2,23 C0.8954305,23 1.3527075e-16,22.1045695 0,21 L0,7 C-1.3527075e-16,5.8954305 0.8954305,5 2,5 Z M4.5,0 L25.5,0 C26.3284271,-1.52179594e-16 27,0.671572875 27,1.5 C27,2.32842712 26.3284271,3 25.5,3 L4.5,3 C3.67157288,3 3,2.32842712 3,1.5 C3,0.671572875 3.67157288,1.52179594e-16 4.5,0 Z" id="path-1"></path>
        <path d="M5.348,7.357 C5.348,7.181 5.32,7.028 5.262,6.897 C5.205,6.767 5.124,6.658 5.021,6.57 C4.916,6.482 4.79,6.416 4.643,6.37 C4.494,6.325 4.329,6.299 4.149,6.293 L4.149,8.429 C4.329,8.423 4.494,8.397 4.643,8.349 C4.79,8.303 4.916,8.236 5.021,8.148 C5.124,8.06 5.205,7.95 5.262,7.818 C5.32,7.686 5.348,7.533 5.348,7.357 Z M5.049,4.056 C5.049,3.907 5.032,3.771 4.996,3.65 C4.961,3.528 4.907,3.423 4.834,3.336 C4.76,3.248 4.667,3.177 4.555,3.125 C4.442,3.072 4.307,3.041 4.149,3.033 L4.149,5.062 C4.291,5.051 4.42,5.014 4.533,4.953 C4.646,4.891 4.74,4.814 4.817,4.722 C4.892,4.629 4.951,4.526 4.99,4.41 C5.03,4.294 5.049,4.176 5.049,4.056 Z M2.307,8.429 L3.207,8.429 L3.207,6.292 L2.307,6.292 L2.307,8.429 Z M2.307,5.067 L3.207,5.067 L3.207,3.028 L2.307,3.028 L2.307,5.067 Z M3.207,0.537 C3.207,0.466 3.22,0.399 3.245,0.334 C3.27,0.27 3.303,0.212 3.344,0.163 C3.385,0.113 3.434,0.074 3.492,0.045 C3.548,0.015 3.611,0 3.678,0 C3.743,0 3.804,0.015 3.863,0.045 C3.921,0.074 3.971,0.113 4.012,0.163 C4.053,0.212 4.086,0.27 4.111,0.334 C4.136,0.399 4.149,0.466 4.149,0.537 L4.149,1.345 L4.434,1.345 C4.979,1.345 5.434,1.404 5.798,1.521 C6.163,1.638 6.456,1.794 6.677,1.989 C6.899,2.183 7.056,2.409 7.15,2.666 C7.244,2.921 7.29,3.191 7.29,3.472 C7.29,3.689 7.277,3.891 7.248,4.081 C7.221,4.269 7.16,4.445 7.064,4.605 C6.969,4.767 6.83,4.912 6.649,5.041 C6.467,5.169 6.223,5.281 5.914,5.375 C6.254,5.462 6.536,5.58 6.761,5.726 C6.985,5.873 7.162,6.042 7.295,6.234 C7.426,6.425 7.52,6.637 7.574,6.869 C7.628,7.1 7.655,7.346 7.655,7.607 C7.655,7.956 7.594,8.283 7.473,8.589 C7.351,8.895 7.165,9.162 6.916,9.389 C6.667,9.616 6.353,9.795 5.972,9.925 C5.591,10.055 5.143,10.121 4.627,10.121 L4.149,10.121 L4.149,11.017 C4.149,11.085 4.136,11.15 4.111,11.214 C4.086,11.279 4.053,11.336 4.012,11.386 C3.971,11.436 3.921,11.475 3.863,11.505 C3.804,11.534 3.743,11.548 3.678,11.548 C3.611,11.548 3.548,11.534 3.492,11.505 C3.434,11.475 3.385,11.436 3.344,11.386 C3.303,11.336 3.27,11.279 3.245,11.214 C3.22,11.15 3.207,11.085 3.207,11.017 L3.207,10.121 L1.379,10.121 C0.908,10.121 0.56,9.997 0.336,9.75 C0.112,9.502 0,9.105 0,8.56 L0,2.896 C0,2.624 0.028,2.389 0.083,2.193 C0.139,1.997 0.224,1.836 0.338,1.711 C0.452,1.587 0.596,1.495 0.769,1.435 C0.942,1.375 1.145,1.345 1.379,1.345 L3.207,1.345 L3.207,0.537 Z" id="path-3"></path>
    </defs>
    <g id="Glyphs/SCB/ic_needs_deposit" stroke="none" stroke-width="1" fill="none" fill-rule="evenodd">
        <rect id="bounds" fill-opacity="0" fill="#D8D8D8" x="0" y="0" width="30" height="30"></rect>
        <g id="Fill" transform="translate(0.000000, 4.000000)">
            <mask id="mask-2" fill="white">
                <use xlink:href="#path-1"></use>
            </mask>
            <use id="Combined-Shape" fill="#736E7A" fill-rule="nonzero" xlink:href="#path-1"></use>
            <g id="Colors/dark-grey" mask="url(#mask-2)" fill="#736E7A">
                <g transform="translate(0.000000, -4.000000)" id="color">
                    <rect x="0" y="0" width="30" height="30"></rect>
                </g>
            </g>
        </g>
        <g id="Fill" transform="translate(11.000000, 12.000000)">
            <mask id="mask-4" fill="white">
                <use xlink:href="#path-3"></use>
            </mask>
            <use id="Mask" fill="#736E7A" xlink:href="#path-3"></use>
            <g id="Colors/dark-grey" mask="url(#mask-4)" fill="#736E7A">
                <g transform="translate(-9.000000, -11.000000)" id="color">
                    <rect x="0" y="0" width="30" height="30"></rect>
                </g>
            </g>
        </g>
    </g>
</svg>