<?xml version="1.0" encoding="UTF-8"?>
<svg width="30px" height="30px" viewBox="0 0 30 30" version="1.1" xmlns="http://www.w3.org/2000/svg" xmlns:xlink="http://www.w3.org/1999/xlink">
    <!-- Generator: Sketch 49.1 (51147) - http://www.bohemiancoding.com/sketch -->
    <title>Glyphs/SCB/ic_needs_piggybank</title>
    <desc>Created with Sketch.</desc>
    <defs>
        <path d="M28.959862,8.52214137 L27.6747166,8.52214137 L25.0019011,5.89169971 L26.5146211,1.4256547 C26.639166,1.05795749 26.5417927,0.652486568 26.2634102,0.37832898 C25.9850277,0.104171392 25.5729084,0.0087430796 25.1991728,0.131110009 L20.3400041,1.72516044 C19.4481902,1.51293185 16.7825463,0.948513145 13.6644804,0.948513145 C13.6446825,0.948513145 13.6246826,0.948612549 13.6048847,0.948612549 C8.42925285,0.960541088 4.54502896,2.56065519 2.37200903,5.57609045 C2.3486758,5.60849631 2.32675672,5.64169741 2.30382753,5.67430209 C2.25736311,5.64010694 2.21564614,5.60123979 2.182717,5.55680598 C2.04029344,5.36406067 2.07059632,5.04030024 2.12170719,4.80361814 C2.23998945,4.25132679 1.8802942,3.70768362 1.31817567,3.59138037 C0.75615815,3.47497771 0.204746639,3.82905651 0.0864643751,4.3821431 C0.0676765859,4.47011607 0.0521211046,4.55610096 0.0396969215,4.63970014 C-0.114443757,5.6789741 0.208180966,6.3760978 0.520805737,6.78753299 C0.750299592,7.08962324 1.02615686,7.31129526 1.30302423,7.47421922 C0.132221733,10.2154969 0.115151107,13.6043948 1.27524658,17.4129785 C2.33514051,20.8927322 3.98684981,23.4920602 4.05664745,23.6010075 C4.24705058,23.8983264 4.57927122,24.0786461 4.93634023,24.0786461 L8.36824304,24.0786461 C8.94258374,24.0786461 9.40823808,23.6203914 9.40823808,23.0551775 L9.40823808,21.0765311 C11.0509575,21.4885627 13.9324589,21.9088449 17.2584026,21.0635091 L17.2584026,23.0551775 C17.2584026,23.6203914 17.724057,24.0786461 18.2983977,24.0786461 L22.0960563,24.0786461 C22.3948428,24.0786461 22.6796899,23.9556828 22.8771637,23.7349054 C23.0746375,23.5142274 23.1664553,23.2240657 23.1284756,22.9324129 C23.1131222,22.7993103 22.7918106,19.6449076 26.1592693,17.1136716 C26.5596714,16.8126748 28.2804713,16.0182341 29.3745065,15.5502377 C29.7542016,15.3878108 29.999958,15.0191195 29.999958,14.6116605 L29.999958,9.54561002 C29.999857,8.98039608 29.5342027,8.52214137 28.959862,8.52214137 Z M24.2857944,15.2909153 C21.4495472,17.4227641 20.8110887,19.6287881 20.6925963,21.0552985 L20.0811677,21.0552985 L20.0811677,19.2175445 C20.0811677,18.9052508 19.3638237,18.5153728 19.1042192,18.3358016 C18.8446148,18.1563235 18.0720394,18.2096919 17.7731583,18.3153111 C13.1699352,19.9467264 9.21927226,18.3511694 9.18236168,18.3358016 C8.88149309,18.2089468 7.79658468,18.1378821 7.52325707,18.3153111 C7.24992946,18.4928332 6.82144708,18.895285 6.82144708,19.2175445 L6.82144708,21.0552985 L6.14234914,21.0552985 C5.05963865,19.1600216 1.21298787,12.051183 4.77078967,7.11427967 C8.83559147,1.4735281 19.6891962,4.29124944 19.7977512,4.32021553 C19.9832505,4.36995153 20.1796338,4.36445636 20.3620099,4.30475453 L23.3365298,3.32894167 L22.3449601,6.25619397 C22.2282659,6.60071357 22.3195013,6.98062582 22.5804307,7.23750201 L25.7960051,10.4019783 C25.9787598,10.5817357 26.2266286,10.6827911 26.4850027,10.6827911 L27.1183505,10.6827911 L27.1183505,13.8466154 C26.2616463,14.2260619 24.8172121,14.891537 24.2857944,15.2909153 Z" id="path-1"></path>
        <path d="M11.5004551,2 C12.3287821,2 13,2.67139996 13,3.49954488 C13,4.32768979 12.3287821,4.99908975 11.5004551,4.99908975 C10.6723102,4.99908975 10,4.32768979 10,3.49954488 C10,2.67139996 10.6704897,2 11.4986346,2 L11.5004551,2 Z M1.5,0 L6.5,0 C7.32842712,-1.52179594e-16 8,0.671572875 8,1.5 C8,2.32842712 7.32842712,3 6.5,3 L1.5,3 C0.671572875,3 1.01453063e-16,2.32842712 0,1.5 C-1.01453063e-16,0.671572875 0.671572875,1.52179594e-16 1.5,0 Z" id="path-3"></path>
        <path d="M4.5,6 C5.32842712,6 6,5.32842712 6,4.5 C6,3.67157288 5.32842712,3 4.5,3 C3.67157288,3 3,3.67157288 3,4.5 C3,5.32842712 3.67157288,6 4.5,6 Z M4.5,9 C2.01471863,9 0,6.98528137 0,4.5 C0,2.01471863 2.01471863,0 4.5,0 C6.98528137,0 9,2.01471863 9,4.5 C9,6.98528137 6.98528137,9 4.5,9 Z" id="path-5"></path>
    </defs>
    <g id="Glyphs/SCB/ic_needs_piggybank" stroke="none" stroke-width="1" fill="none" fill-rule="evenodd">
        <rect id="bounds" fill-opacity="0" fill="#D8D8D8" x="0" y="0" width="30" height="30"></rect>
        <g id="Fill" transform="translate(0.000000, 6.000000)">
            <mask id="mask-2" fill="white">
                <use xlink:href="#path-1"></use>
            </mask>
            <use id="Mask" fill="#736E7A" fill-rule="nonzero" xlink:href="#path-1"></use>
            <g id="Colors/dark-grey" mask="url(#mask-2)" fill="#736E7A">
                <g transform="translate(0.000000, -6.000000)" id="color">
                    <rect x="0" y="0" width="30" height="30"></rect>
                </g>
            </g>
        </g>
        <g id="Fill" transform="translate(9.000000, 12.000000)">
            <mask id="mask-4" fill="white">
                <use xlink:href="#path-3"></use>
            </mask>
            <use id="Combined-Shape" fill="#736E7A" fill-rule="nonzero" xlink:href="#path-3"></use>
            <g id="Colors/dark-grey" mask="url(#mask-4)" fill="#736E7A">
                <g transform="translate(-9.000000, -12.000000)" id="color">
                    <rect x="0" y="0" width="30" height="30"></rect>
                </g>
            </g>
        </g>
        <g id="Fill" transform="translate(9.000000, 0.000000)">
            <mask id="mask-6" fill="white">
                <use xlink:href="#path-5"></use>
            </mask>
            <use id="Mask" fill="#736E7A" fill-rule="nonzero" xlink:href="#path-5"></use>
            <g id="Colors/dark-grey" mask="url(#mask-6)" fill="#736E7A">
                <g transform="translate(-9.000000, 0.000000)" id="color">
                    <rect x="0" y="0" width="30" height="30"></rect>
                </g>
            </g>
        </g>
    </g>
</svg>