<?xml version="1.0" encoding="UTF-8"?>
<svg width="30px" height="30px" viewBox="0 0 30 30" version="1.1" xmlns="http://www.w3.org/2000/svg" xmlns:xlink="http://www.w3.org/1999/xlink">
    <!-- Generator: Sketch 49.1 (51147) - http://www.bohemiancoding.com/sketch -->
    <title>Glyphs/SCB/ic_need_cancer</title>
    <desc>Created with Sketch.</desc>
    <defs>
        <path d="M29.5049511,7.83927406 C28.9101387,7.24446166 27.9456852,7.24446166 27.3508728,7.83927406 C27.2413458,7.94880098 27.1307423,8.05030179 27.0189641,8.14470636 L21.8061582,2.93209625 C21.9005628,2.82022023 22.0020636,2.70966558 22.1114927,2.6001876 C22.7064029,2.0053752 22.7064029,1.0409217 22.1114927,0.446109299 C21.5167781,-0.1487031 20.5522268,-0.1487031 19.9574144,0.446109299 C17.5272186,2.87630506 17.4969739,5.69380914 17.8846737,8.36146003 C15.3786705,8.06004078 12.7733197,8.2375938 10.50531,10.5057015 C8.23730016,12.7736623 8.05979608,15.3788662 8.36126427,17.8848695 C5.69361338,17.4972675 2.87620718,17.5274144 0.446109299,19.9576101 C-0.1487031,20.5524225 -0.1487031,21.516876 0.446109299,22.1116884 C0.743564437,22.4091436 1.1332708,22.5577732 1.52317292,22.5577732 C1.91297716,22.5577732 2.3027814,22.4090457 2.6001876,22.1115905 C2.70971452,22.0020636 2.82031811,21.9005628 2.93219413,21.8061582 L8.14480424,27.0187684 C8.05049755,27.1306444 7.94889886,27.241248 7.83937194,27.3507749 C7.24455954,27.9455873 7.24455954,28.9099429 7.83937194,29.5048532 C8.1367292,29.8023083 8.52663132,29.9510359 8.91643556,29.9510359 C9.3062398,29.9510359 9.69604405,29.8023083 9.99345024,29.5048532 C12.4237439,27.0746574 12.4538907,24.2572512 12.0662887,21.5896003 C14.5722431,21.8910196 17.1774959,21.7134666 19.4454568,19.4454568 C21.7135155,17.177447 21.8910196,14.5721452 21.5896982,12.066093 C24.2573491,12.4536949 27.0748042,12.4234992 29.5050489,9.99325449 C30.0997635,9.39853997 30.0997635,8.43418434 29.5049511,7.83927406 Z M18.4312806,11.519584 C18.7558972,13.5306117 18.8098777,15.0495514 18.0234666,16.3629445 L13.5879201,11.927398 C14.9013622,11.1409869 16.4202529,11.1949674 18.4312806,11.519584 Z M5.24620718,20.799323 C6.28294454,20.6645922 7.46836052,20.8105302 8.89176998,21.0591925 C9.1404323,22.482553 9.28627243,23.6679201 9.15168842,24.7047553 L5.24620718,20.799323 Z M11.5195351,18.4314274 C11.1948206,16.4202529 11.1408401,14.9013132 11.927447,13.5879201 L16.3630914,18.0236623 C15.0495514,18.8101223 13.5307096,18.7561419 11.5195351,18.4314274 Z M21.0590457,8.89181892 C20.8103834,7.46831158 20.6645432,6.2828956 20.7991762,5.24606036 L24.7047553,9.15168842 C23.6680179,9.28637031 22.482553,9.14048124 21.0590457,8.89181892 Z" id="path-1"></path>
    </defs>
    <g id="Glyphs/SCB/ic_need_cancer" stroke="none" stroke-width="1" fill="none" fill-rule="evenodd">
        <rect id="bounds" fill-opacity="0" fill="#D8D8D8" x="0" y="0" width="30" height="30"></rect>
        <mask id="mask-2" fill="white">
            <use xlink:href="#path-1"></use>
        </mask>
        <use id="Mask" fill="#736E7A" fill-rule="nonzero" xlink:href="#path-1"></use>
        <g id="Colors/dark-grey" mask="url(#mask-2)" fill="#736E7A">
            <rect id="color" x="0" y="0" width="30" height="30"></rect>
        </g>
    </g>
</svg>