<?xml version="1.0" encoding="UTF-8"?>
<svg width="30px" height="30px" viewBox="0 0 30 30" version="1.1" xmlns="http://www.w3.org/2000/svg" xmlns:xlink="http://www.w3.org/1999/xlink">
    <!-- Generator: Sketch 49.1 (51147) - http://www.bohemiancoding.com/sketch -->
    <title>Glyphs/SCB/ic_payment</title>
    <desc>Created with Sketch.</desc>
    <defs>
        <path d="M14.5,26 C20.8512746,26 26,20.8512746 26,14.5 C26,8.14872538 20.8512746,3 14.5,3 C8.14872538,3 3,8.14872538 3,14.5 C3,20.8512746 8.14872538,26 14.5,26 Z M14.5,29 C6.49187113,29 0,22.5081289 0,14.5 C0,6.49187113 6.49187113,0 14.5,0 C22.5081289,0 29,6.49187113 29,14.5 C29,22.5081289 22.5081289,29 14.5,29 Z" id="path-1"></path>
        <path d="M6.28765513,8.91912019 C6.28765513,8.70574991 6.25473547,8.52026325 6.18654474,8.36144787 C6.11952972,8.20384482 6.02429784,8.07170073 5.90320052,7.96501559 C5.7797518,7.85833045 5.63161332,7.77831659 5.45878511,7.72254936 C5.28360549,7.66799446 5.08961463,7.63647385 4.87798824,7.62919986 L4.87798824,10.2187392 C5.08961463,10.2114652 5.28360549,10.1799446 5.45878511,10.1217527 C5.63161332,10.0659855 5.7797518,9.98475927 5.90320052,9.87807413 C6.02429784,9.77138899 6.11952972,9.63803256 6.18654474,9.47800485 C6.25473547,9.31797714 6.28765513,9.13249047 6.28765513,8.91912019 Z M5.93612018,4.9172151 C5.93612018,4.73657776 5.91613325,4.57170073 5.87380797,4.42500866 C5.83265839,4.27710426 5.76917048,4.14980949 5.68334422,4.04433668 C5.59634226,3.93765154 5.48700196,3.85157603 5.35532332,3.78853481 C5.22246897,3.72428126 5.06374918,3.686699 4.87798824,3.67700035 L4.87798824,6.13682023 C5.04493795,6.12348459 5.19660353,6.07862833 5.32945787,6.00467613 C5.46231221,5.9295116 5.57282822,5.83616211 5.66335728,5.72462764 C5.75153494,5.61188085 5.82090137,5.48701074 5.86675376,5.34638033 C5.91378184,5.20574991 5.93612018,5.06269484 5.93612018,4.9172151 Z M2.71234487,10.2187392 L3.77047681,10.2187392 L3.77047681,7.62798753 L2.71234487,7.62798753 L2.71234487,10.2187392 Z M2.71234487,6.14288188 L3.77047681,6.14288188 L3.77047681,3.67093869 L2.71234487,3.67093869 L2.71234487,6.14288188 Z M3.77047681,0.651021822 C3.77047681,0.564946311 3.78576094,0.483720125 3.81515349,0.404918601 C3.84454605,0.327329408 3.88334422,0.257014202 3.93154801,0.197609976 C3.9797518,0.136993419 4.0373612,0.0897125043 4.10555193,0.0545549013 C4.17139125,0.0181849671 4.24546048,0 4.32423253,0 C4.40065317,0 4.472371,0.0181849671 4.54173743,0.0545549013 C4.60992815,0.0897125043 4.66871326,0.136993419 4.71691705,0.197609976 C4.76512084,0.257014202 4.80391901,0.327329408 4.83331156,0.404918601 C4.86270411,0.483720125 4.87798824,0.564946311 4.87798824,0.651021822 L4.87798824,1.63058538 L5.21306336,1.63058538 C5.85382103,1.63058538 6.38876551,1.70211292 6.8167211,1.84395566 C7.24585238,1.98579841 7.59033312,2.17492206 7.85016329,2.41132664 C8.11116917,2.64651888 8.29575441,2.92050572 8.40627041,3.23207482 C8.51678641,3.54121926 8.57086871,3.86854867 8.57086871,4.20921372 C8.57086871,4.47228957 8.55558459,4.71718046 8.52148922,4.94752338 C8.48974526,5.17544163 8.41802743,5.38881192 8.30516003,5.5827849 C8.19346832,5.77918254 8.03004572,5.95497056 7.81724363,6.11136127 C7.60326584,6.26653966 7.31639451,6.40232075 6.95310255,6.51627988 C7.35284128,6.62175268 7.68438929,6.76480776 7.94892227,6.94180811 C8.21227956,7.12002078 8.42037884,7.32490475 8.57674722,7.55767232 C8.73076421,7.78922757 8.84128021,8.04624177 8.90476813,8.3275026 C8.96825604,8.60755109 9,8.90578455 9,9.22220298 C9,9.64530655 8.92828217,10.0417388 8.78602221,10.4127122 C8.64258654,10.7836855 8.42390594,11.1073779 8.13115611,11.3825771 C7.83840627,11.6577762 7.46923579,11.8747835 7.02129327,12.0323866 C6.57335075,12.1899896 6.04663619,12.2700035 5.43997387,12.2700035 L4.87798824,12.2700035 L4.87798824,13.3562522 C4.87798824,13.4386907 4.86270411,13.5174922 4.83331156,13.5950814 C4.80391901,13.6738829 4.76512084,13.7429858 4.71691705,13.8036024 C4.66871326,13.8642189 4.60992815,13.9114998 4.54173743,13.9478698 C4.472371,13.9830274 4.40065317,14 4.32423253,14 C4.24546048,14 4.17139125,13.9830274 4.10555193,13.9478698 C4.0373612,13.9114998 3.9797518,13.8642189 3.93154801,13.8036024 C3.88334422,13.7429858 3.84454605,13.6738829 3.81515349,13.5950814 C3.78576094,13.5174922 3.77047681,13.4386907 3.77047681,13.3562522 L3.77047681,12.2700035 L1.62129327,12.2700035 C1.06753756,12.2700035 0.658393207,12.1196744 0.395035924,11.8202286 C0.131678641,11.5195705 0,11.038275 0,10.3775546 L0,3.51091098 C0,3.18115691 0.0329196604,2.89625909 0.0975832789,2.65864219 C0.1634226,2.42102529 0.263357283,2.22583997 0.397387329,2.07429858 C0.531417374,1.92396952 0.700718485,1.81243505 0.904114958,1.73969519 C1.10751143,1.66695532 1.34617897,1.63058538 1.62129327,1.63058538 L3.77047681,1.63058538 L3.77047681,0.651021822 Z" id="path-3"></path>
    </defs>
    <g id="Glyphs/SCB/ic_payment" stroke="none" stroke-width="1" fill="none" fill-rule="evenodd">
        <rect id="bounds" fill-opacity="0" fill="#D8D8D8" x="0" y="0" width="30" height="30"></rect>
        <g id="Fill">
            <mask id="mask-2" fill="white">
                <use xlink:href="#path-1"></use>
            </mask>
            <use id="Mask" fill="#736E7A" fill-rule="nonzero" xlink:href="#path-1"></use>
            <g id="Colors/dark-grey" mask="url(#mask-2)" fill="#736E7A">
                <g transform="translate(-1.000000, -1.000000)" id="color">
                    <rect x="0" y="0" width="32" height="32"></rect>
                </g>
            </g>
        </g>
        <g id="Fill" transform="translate(10.000000, 8.000000)">
            <mask id="mask-4" fill="white">
                <use xlink:href="#path-3"></use>
            </mask>
            <use id="Mask" fill="#736E7A" xlink:href="#path-3"></use>
            <g id="Colors/dark-grey" mask="url(#mask-4)" fill="#736E7A">
                <g transform="translate(-11.000000, -8.000000)" id="color">
                    <rect x="0" y="0" width="32" height="32"></rect>
                </g>
            </g>
        </g>
    </g>
</svg>