<?xml version="1.0" encoding="UTF-8"?>
<svg width="30px" height="30px" viewBox="0 0 30 30" version="1.1" xmlns="http://www.w3.org/2000/svg" xmlns:xlink="http://www.w3.org/1999/xlink">
    <!-- Generator: Sketch 49.1 (51147) - http://www.bohemiancoding.com/sketch -->
    <title>Glyphs/SCB/ic_swipe</title>
    <desc>Created with Sketch.</desc>
    <defs>
        <path d="M8.30769231,2.76923077 L8.30769231,21.2307692 L17.5384615,21.2307692 L17.5384615,2.76923077 L8.30769231,2.76923077 Z M7.38461538,0 L18.4615385,0 C19.4811411,0 20.3076923,0.826551231 20.3076923,1.84615385 L20.3076923,22.1538462 C20.3076923,23.1734488 19.4811411,24 18.4615385,24 L7.38461538,24 C6.36501277,24 5.53846154,23.1734488 5.53846154,22.1538462 L5.53846154,1.84615385 C5.53846154,0.826551231 6.36501277,0 7.38461538,0 Z M24.4615385,2.76923077 C25.2262404,2.76923077 25.8461538,3.38914419 25.8461538,4.15384615 L25.8461538,19.8461538 C25.8461538,20.6108558 25.2262404,21.2307692 24.4615385,21.2307692 C23.6968365,21.2307692 23.0769231,20.6108558 23.0769231,19.8461538 L23.0769231,4.15384615 C23.0769231,3.38914419 23.6968365,2.76923077 24.4615385,2.76923077 Z M1.38461538,2.76923077 C2.14931735,2.76923077 2.76923077,3.38914419 2.76923077,4.15384615 L2.76923077,19.8461538 C2.76923077,20.6108558 2.14931735,21.2307692 1.38461538,21.2307692 C0.619913423,21.2307692 -9.77400149e-16,20.6108558 -3.10862447e-15,19.8461538 L-4.4408921e-16,4.15384615 C-5.37738191e-16,3.38914419 0.619913423,2.76923077 1.38461538,2.76923077 Z" id="path-1"></path>
    </defs>
    <g id="Glyphs/SCB/ic_swipe" stroke="none" stroke-width="1" fill="none" fill-rule="evenodd">
        <rect id="bounds" fill-opacity="0" fill="#D8D8D8" x="0" y="0" width="32" height="32"></rect>
        <g id="Fill" transform="translate(2.000000, 3.000000)">
            <mask id="mask-2" fill="white">
                <use xlink:href="#path-1"></use>
            </mask>
            <use id="Mask" fill="#736E7A" fill-rule="nonzero" xlink:href="#path-1"></use>
            <g id="Colors/dark-grey" mask="url(#mask-2)" fill="#736E7A">
                <g transform="translate(-2.000000, -3.000000)" id="color">
                    <rect x="0" y="0" width="30" height="30"></rect>
                </g>
            </g>
        </g>
    </g>
</svg>