<?xml version="1.0" encoding="UTF-8"?>
<svg width="35px" height="35px" viewBox="0 0 35 35" version="1.1" xmlns="http://www.w3.org/2000/svg" xmlns:xlink="http://www.w3.org/1999/xlink">
    <!-- Generator: Sketch 49.1 (51147) - http://www.bohemiancoding.com/sketch -->
    <title>Glyphs/Quick Actions/Adjust Sound</title>
    <desc>Created with Sketch.</desc>
    <defs>
        <path d="M9.16633162,15.5449493 L14.2198537,10.4817595 L14.2198537,25.16501 L9.25821384,20.6081392 L5.12351392,20.6081392 L5.12351392,15.5449493 L9.16633162,15.5449493 Z M26.7381814,27.1410623 C26.7381814,27.1410623 25.6918816,27.436719 25.4144639,27.295525 C25.1370462,27.1543309 24.9557596,26.233884 24.9557596,26.233884 C25.0456212,26.0573241 25.2064522,25.7293366 25.4144639,25.284461 C25.7621714,24.540817 26.1099657,23.7486003 26.433947,22.9430144 C26.7245011,22.2205455 26.9816523,21.5219272 27.196348,20.861227 C27.6363231,19.5072571 27.8764861,18.3756854 27.8764861,17.5739543 C27.8764861,16.7569062 27.6274718,15.586243 27.1727674,14.1784494 C26.9622153,13.5265669 26.7123957,12.8381474 26.4315211,12.1263035 C26.1071755,11.3042873 25.7590117,10.4945646 25.4109248,9.73344875 C25.2892189,9.46733049 25.1763555,9.22658619 25.0753099,9.01568454 C25.0153014,8.89043523 24.9730144,8.80385495 24.9514194,8.76039164 C24.9514194,8.76039164 25.1086795,7.85964826 25.4144639,7.70771786 C25.7202483,7.55578746 26.7425216,7.87047421 26.7425216,7.87047421 C26.7682628,7.92228258 26.8147311,8.01742376 26.8789801,8.15152377 C26.9850303,8.37287098 27.1029308,8.62435956 27.2297398,8.90163629 C27.5916957,9.69307759 27.9535745,10.5346973 28.2919355,11.3922338 C28.5874892,12.1412803 28.8515007,12.8688079 29.0759564,13.5637369 C29.589407,15.1534126 29.8764861,16.5030251 29.8764861,17.5739543 C29.8764861,18.629421 29.5977359,19.9428032 29.0984431,21.4793164 C28.8686835,22.1863734 28.5960915,22.9269411 28.2895096,23.6892631 C27.9507843,24.5315104 27.5885359,25.3566513 27.2262007,26.1315795 C27.0992471,26.4030959 26.9812027,26.6492415 26.8750085,26.8658064 C26.8106359,26.9970833 26.7640449,27.0902457 26.7381814,27.1410623 Z M23.5665598,24.7943104 C23.5665598,24.7943104 22.5690117,24.9166353 22.2786995,24.7943104 C21.9883872,24.6719854 21.7234895,24.0177205 21.7234895,24.0177205 C21.7827042,23.8771871 21.8888175,23.6165745 22.026101,23.2642707 C22.2556024,22.6753126 22.4851586,22.0507773 22.6989548,21.4196131 C22.868523,20.919018 23.0210001,20.434926 23.1521201,19.9755377 C23.4713372,18.8571371 23.6471607,17.9406131 23.6471607,17.3363405 C23.6471607,16.781791 23.4976312,15.9973022 23.2218824,15.0604153 C23.0787192,14.5740025 22.9052434,14.0583098 22.7080676,13.5246304 C22.4956661,12.9497409 22.2675308,12.3850923 22.0394915,11.8558839 C21.903254,11.5397188 21.798174,11.3074472 21.7399958,11.1836599 C21.7399958,11.1836599 21.9680469,10.4789617 22.2786995,10.3329596 C22.589352,10.1869576 23.5500535,10.3329596 23.5500535,10.3329596 C23.6170089,10.4754223 23.7309124,10.7271976 23.8762253,11.0644237 C24.1174366,11.6242005 24.358552,12.2209757 24.5841177,12.8314956 C24.7960599,13.4051417 24.9836741,13.962864 25.1405059,14.4957173 C25.4655573,15.6001152 25.6471607,16.5528759 25.6471607,17.3363405 C25.6471607,18.1693247 25.4414259,19.2417685 25.0753159,20.5244618 C24.9347377,21.0169877 24.7726636,21.5315488 24.5932305,22.0612671 C24.3690594,22.7230595 24.129365,23.3751771 23.8896159,23.9904334 C23.745349,24.3606582 23.6324786,24.6378661 23.5665598,24.7943104 Z M20.1407636,22.5852464 C20.1407636,22.5852464 19.2979632,22.7096393 18.9824375,22.5852464 C18.6669118,22.4608535 18.2801377,21.8517128 18.2801377,21.8517128 C18.3156258,21.7616965 18.3800007,21.5926401 18.4635505,21.3632464 C18.6034525,20.9791329 18.7434112,20.5714553 18.8736427,20.1594394 C18.9787342,19.8269593 19.0729104,19.5057959 19.1533842,19.2018188 C19.3416372,18.4907219 19.4443738,17.9096955 19.443837,17.540048 C19.443427,17.2577733 19.3640222,16.861384 19.2128371,16.3915876 C19.1053598,16.0576099 18.9658032,15.6982511 18.8019098,15.3252065 C18.6525038,14.9851374 18.4916649,14.6532627 18.3309849,14.344505 C18.2354664,14.1609597 18.1624787,14.0281029 18.1235139,13.9601372 C18.1235139,13.9601372 18.4285263,13.2155205 18.7081455,13.0552144 C18.9877647,12.8949083 19.8585987,12.9654107 19.8585987,12.9654107 C19.9104328,13.055824 19.9963431,13.2122034 20.1051221,13.4212298 C20.284938,13.7667584 20.4645949,14.1374621 20.632985,14.5207418 C20.822685,14.9525256 20.9864466,15.3742124 21.1166827,15.7789114 C21.3258115,16.4287637 21.4430753,17.0141454 21.4438349,17.5371435 C21.4446811,18.119861 21.3158939,18.8482167 21.0867801,19.7136586 C20.9977066,20.0501202 20.8947697,20.4011596 20.7806469,20.7622121 C20.6410747,21.2037796 20.491958,21.638133 20.3427846,22.0477019 C20.2528892,22.2945177 20.1823623,22.4797302 20.1407636,22.5852464 Z" id="path-1"></path>
    </defs>
    <g id="Glyphs/Quick-Actions/Adjust-Sound" stroke="none" stroke-width="1" fill="none" fill-rule="evenodd">
        <mask id="mask-2" fill="white">
            <use xlink:href="#path-1"></use>
        </mask>
        <use id="Combined-Shape" fill="#000000" fill-rule="nonzero" xlink:href="#path-1"></use>
        <g id="_Resources/Colors/Tint-1" mask="url(#mask-2)" fill="#F0EBFB">
            <rect id="Swatch" x="0" y="0" width="35" height="35"></rect>
        </g>
    </g>
</svg>