<?xml version="1.0" encoding="UTF-8"?>
<svg width="35px" height="35px" viewBox="0 0 35 35" version="1.1" xmlns="http://www.w3.org/2000/svg" xmlns:xlink="http://www.w3.org/1999/xlink">
    <!-- Generator: Sketch 49.1 (51147) - http://www.bohemiancoding.com/sketch -->
    <title>Glyphs/Quick Actions/Call</title>
    <desc>Created with Sketch.</desc>
    <defs>
        <path d="M6.50061028,7.85253834 C3.81561028,12.7615383 12.8091103,21.8695383 12.8091103,21.8695383 C12.8091103,21.8695383 22.1531103,31.3015383 27.1426103,28.4700383 C27.1426103,28.4700383 28.6791103,27.1305383 28.9981103,25.0880383 C29.0296103,24.8855383 28.6261103,24.6275383 28.5006103,24.5290383 C28.0881103,24.2045383 27.6431103,23.9185383 27.2006103,23.6370383 C26.1396103,22.9610383 25.0501103,22.3310383 23.9681103,21.6890383 C23.6266103,21.4870383 23.2561103,21.2565383 22.8526103,21.3700383 C22.6191103,21.4355383 22.3786103,21.5070383 22.1641103,21.6195383 C21.4036103,22.0185383 20.7786103,22.3930383 19.9546103,22.7670383 C19.9546103,22.7670383 18.6376103,22.6635383 15.4971103,19.4840383 C12.1596103,16.1050383 12.0631103,14.9955383 12.0631103,14.9955383 C12.4976103,14.3805383 12.8931103,13.7350383 13.2211103,13.0565383 C13.3631103,12.7630383 13.5571103,12.4815383 13.6401103,12.1630383 C13.7236103,11.8415383 13.5516103,11.6120383 13.4081103,11.3315383 C13.0871103,10.7030383 12.7451103,10.0860383 12.3911103,9.47553834 C11.7791103,8.42153834 11.1556103,7.32303834 10.3746103,6.38153834 C10.2931103,6.28303834 10.1006103,5.98953834 9.94411028,6.00003834 C8.20961028,6.11803834 6.50061028,7.85253834 6.50061028,7.85253834 L6.50061028,7.85253834 Z" id="path-1"></path>
    </defs>
    <g id="Glyphs/Quick-Actions/Call" stroke="none" stroke-width="1" fill="none" fill-rule="evenodd">
        <mask id="mask-2" fill="white">
            <use xlink:href="#path-1"></use>
        </mask>
        <use id="Shape" fill="#000000" xlink:href="#path-1"></use>
        <g id="_Resources/Colors/Tint-1" mask="url(#mask-2)" fill="#F0EBFB">
            <rect id="Swatch" x="0" y="0" width="35" height="35"></rect>
        </g>
    </g>
</svg>