<?xml version="1.0" encoding="UTF-8"?>
<svg width="35px" height="35px" viewBox="0 0 35 35" version="1.1" xmlns="http://www.w3.org/2000/svg" xmlns:xlink="http://www.w3.org/1999/xlink">
    <!-- Generator: Sketch 49.1 (51147) - http://www.bohemiancoding.com/sketch -->
    <title>Glyphs/Quick Actions/Create Alarm</title>
    <desc>Created with Sketch.</desc>
    <defs>
        <path d="M18.4385217,12.5011176 L18.4385217,19.3071012 L13.5100508,19.3071012 C13.1214057,19.3071012 12.8059836,18.9916791 12.8059836,18.6030339 C12.8059836,18.2143888 13.1214057,17.8989667 13.5100508,17.8989667 L17.0303871,17.8989667 L17.0303871,12.5011176 C17.0303871,12.1124725 17.3458093,11.7970504 17.7344544,11.7970504 C18.1230995,11.7970504 18.4385217,12.1124725 18.4385217,12.5011176 L18.4385217,12.5011176 Z M27.356707,18.3683448 C27.356707,20.8527635 26.4301545,23.1161051 24.9135936,24.8499881 L26.7230465,27.2865302 C26.9952858,27.6493595 26.9215934,28.1642674 26.5582947,28.4365067 L26.5578254,28.4365067 C26.194996,28.7087461 25.6805575,28.6350537 25.4083182,28.271755 L23.7265362,26.0065359 C22.0287953,27.3916709 19.8621457,28.2252865 17.4992959,28.2252865 C15.0012653,28.2252865 12.727128,27.2884077 10.9899594,25.7568267 L9.12136487,28.271755 C8.84912553,28.6345843 8.33421767,28.7087461 7.97185772,28.4365067 L7.97138834,28.4365067 C7.60855901,28.1642674 7.53439726,27.6493595 7.8066366,27.2865302 L9.83435032,24.5589736 C8.38021673,22.7612552 7.54190731,20.4444045 7.65221118,17.9275987 C7.87094141,12.919803 11.9371645,8.80241762 16.942144,8.52689263 C22.638987,8.21287863 27.356707,12.7395618 27.356707,18.3683448 L27.356707,18.3683448 Z M10.4590927,6.39920136 C7.99673476,6.39920136 6,8.39593612 6,10.858294 C6,11.771704 6.27599437,12.6203397 6.74725006,13.3276926 L13.3452991,7.46234293 C12.5666007,6.8005197 11.5607233,6.39920136 10.4590927,6.39920136 L10.4590927,6.39920136 Z M24.540438,6.39920136 C23.4388074,6.39920136 22.4329299,6.8005197 21.6547009,7.46234293 L28.2527499,13.3276926 C28.7240056,12.6203397 29,11.7721733 29,10.858294 C28.9995306,8.39593612 27.0027959,6.39920136 24.540438,6.39920136 L24.540438,6.39920136 Z" id="path-1"></path>
    </defs>
    <g id="Glyphs/Quick-Actions/Create-Alarm" stroke="none" stroke-width="1" fill="none" fill-rule="evenodd">
        <mask id="mask-2" fill="white">
            <use xlink:href="#path-1"></use>
        </mask>
        <use id="Create-Alarm-Icon" fill="#000000" xlink:href="#path-1"></use>
        <g id="_Resources/Colors/Tint-1" mask="url(#mask-2)" fill="#F0EBFB">
            <rect id="Swatch" x="0" y="0" width="35" height="35"></rect>
        </g>
    </g>
</svg>