<svg width="28" height="28" viewBox="0 0 28 28" fill="none" xmlns="http://www.w3.org/2000/svg">
<path fill-rule="evenodd" clip-rule="evenodd" d="M25.25 2.33334C25.25 1.91913 24.9142 1.58334 24.5 1.58334C24.0858 1.58334 23.75 1.91913 23.75 2.33334V2.56275C23.5125 2.41499 23.2587 2.29321 22.9921 2.20075C22.1999 1.92593 21.3438 1.92728 20.5524 2.20456C19.7617 2.48158 19.0839 3.01676 18.6129 3.72264C18.1423 4.42798 17.9005 5.26952 17.9175 6.12403C17.9346 6.97857 18.2098 7.80921 18.7088 8.49379C19.2083 9.17894 19.9078 9.68395 20.7096 9.9256C21.5121 10.1675 22.3674 10.1302 23.1472 9.82055C23.9262 9.51116 24.5827 8.94889 25.0266 8.22487C25.2431 7.87174 25.1324 7.40996 24.7792 7.19347C24.4261 6.97697 23.9643 7.08773 23.7478 7.44086C23.4672 7.8986 23.0605 8.24103 22.5935 8.42647C22.1274 8.61159 21.6198 8.63326 21.1424 8.4894C20.6644 8.34535 20.2345 8.04037 19.9209 7.61019C19.6069 7.17943 19.4283 6.64815 19.4172 6.0941C19.4062 5.54004 19.5635 5.00056 19.8607 4.5552C20.1575 4.11038 20.5757 3.78578 21.0483 3.62019C21.5202 3.45486 22.0282 3.45407 22.5005 3.61791C22.5227 3.62559 22.5447 3.63363 22.5667 3.64201H22.5556C22.1414 3.64201 21.8056 3.9778 21.8056 4.39201C21.8056 4.80622 22.1414 5.14201 22.5556 5.14201H24.5C24.9142 5.14201 25.25 4.80622 25.25 4.39201V2.33334ZM4.71375 4.71376C5.01068 4.41683 5.41341 4.25001 5.83333 4.25001H15.1667C15.5809 4.25001 15.9167 3.91422 15.9167 3.50001C15.9167 3.0858 15.5809 2.75001 15.1667 2.75001H5.83333C5.01558 2.75001 4.23132 3.07486 3.65309 3.6531C3.07485 4.23133 2.75 5.01559 2.75 5.83334V18.6667V22.1667C2.75 22.9844 3.07485 23.7687 3.65309 24.3469C4.23132 24.9252 5.01558 25.25 5.83333 25.25H18.6667H22.1667C22.9844 25.25 23.7687 24.9252 24.3469 24.3469C24.9251 23.7687 25.25 22.9844 25.25 22.1667V14V12.25C25.25 11.8358 24.9142 11.5 24.5 11.5C24.0858 11.5 23.75 11.8358 23.75 12.25V13.2577C16.8277 13.4009 12.5972 15.5279 10.1701 18.1241C7.96283 17.6674 5.8418 17.6458 4.25 17.8103V5.83334C4.25 5.41342 4.41682 5.01069 4.71375 4.71376ZM11.8631 18.5603C14.0498 16.5735 17.7378 14.8875 23.75 14.758V22.1667C23.75 22.5866 23.5832 22.9893 23.2863 23.2863C22.9893 23.5832 22.5866 23.75 22.1667 23.75H19.0771C17.2315 20.9711 14.5458 19.3968 11.8631 18.5603ZM10.2665 19.6808C12.8093 20.2701 15.3727 21.4897 17.2159 23.75H5.83333C5.41341 23.75 5.01068 23.5832 4.71375 23.2863C4.41681 22.9893 4.25 22.5866 4.25 22.1667V19.3191C5.80246 19.1415 8.00312 19.1552 10.2662 19.6807L10.2665 19.6808ZM9.91667 7.41668C9.50498 7.41668 8.90415 7.53401 8.38469 7.90803C7.82698 8.30957 7.41667 8.97224 7.41667 9.91668C7.41667 10.8611 7.82698 11.5238 8.38469 11.9253C8.90415 12.2993 9.50498 12.4167 9.91667 12.4167C10.3284 12.4167 10.9292 12.2993 11.4486 11.9253C12.0064 11.5238 12.4167 10.8611 12.4167 9.91668C12.4167 8.97224 12.0064 8.30957 11.4486 7.90803C10.9292 7.53401 10.3284 7.41668 9.91667 7.41668ZM8.91667 9.91668C8.91667 9.46112 9.08968 9.24878 9.26115 9.12533C9.47085 8.97434 9.74502 8.91668 9.91667 8.91668C10.0883 8.91668 10.3625 8.97434 10.5722 9.12533C10.7436 9.24878 10.9167 9.46112 10.9167 9.91668C10.9167 10.3722 10.7436 10.5846 10.5722 10.708C10.3625 10.859 10.0883 10.9167 9.91667 10.9167C9.74502 10.9167 9.47085 10.859 9.26115 10.708C9.08968 10.5846 8.91667 10.3722 8.91667 9.91668Z" fill="black"/>
</svg>
