<?xml version="1.0" encoding="UTF-8"?>
<svg width="35px" height="35px" viewBox="0 0 35 35" version="1.1" xmlns="http://www.w3.org/2000/svg" xmlns:xlink="http://www.w3.org/1999/xlink">
    <!-- Generator: Sketch 49.1 (51147) - http://www.bohemiancoding.com/sketch -->
    <title>Glyphs/Quick Actions/New Sketch</title>
    <desc>Created with Sketch.</desc>
    <defs>
        <path d="M20.7553423,29.4164608 C19.9453423,29.4274608 19.1118423,29.2439608 18.3698423,28.8859608 C13.0468423,26.3154608 8.93334229,20.8599608 5.44734229,16.2699608 C5.02984229,15.7199608 5.13734229,14.9359608 5.68734229,14.5189608 C6.23734229,14.1024608 7.02184229,14.2099608 7.43834229,14.7589608 C10.2503423,18.4649608 13.6658423,22.6414608 17.6768423,25.5139608 C18.5338423,26.1274608 19.9418423,27.1604608 21.0598423,27.0199608 C23.0823423,26.7654608 21.5758423,23.6609608 21.0073423,22.7299608 C19.6713423,20.5434608 18.0578423,18.5404608 16.3783423,16.6104608 C14.9728423,14.9949608 12.5563423,12.4209608 14.2853423,10.1419608 C15.7283423,8.23996083 18.6698423,9.84246083 20.2088423,10.7874608 C21.6513423,11.6729608 22.9953423,12.7144608 24.3033423,13.7859608 C24.8688423,14.2494608 25.2928423,14.8659608 25.8608423,15.3269608 C26.1423423,15.5554608 27.1033423,16.1194608 27.3203423,15.7204608 C27.6403423,15.1324608 25.6968423,13.0219608 25.3508423,12.6049608 C24.6458423,11.7549608 23.9178423,10.8764608 23.4163423,9.78196083 C22.7208423,8.26496083 22.9663423,5.80496083 24.9983423,5.59496083 C26.3233423,5.45846083 29.9993423,6.50296083 28.5198423,8.44046083 C27.5073423,9.76646083 26.5718423,8.09246083 25.5593423,7.92096083 C25.3158423,8.14746083 25.5853423,8.51496083 25.6883423,8.74046083 C26.0528423,9.53496083 26.6463423,10.2509608 27.2753423,11.0094608 C27.9588423,11.8339608 28.6658423,12.6864608 29.1583423,13.7329608 L29.2218423,13.8669608 C29.8158423,15.1194608 30.2428423,16.8384608 29.0353423,17.8879608 C28.0123423,18.7769608 26.3023423,18.6354608 25.2673423,17.8404608 C24.0038423,16.8694608 22.7403423,15.8969608 21.4773423,14.9254608 C20.4128423,14.1064608 18.1793423,11.6394608 16.7018423,11.6714608 C16.0268423,11.6859608 16.0878423,12.4599608 16.3798423,12.8539608 C18.7458423,15.4674608 21.2243423,18.2904608 23.1408423,21.4269608 C24.0363423,22.8924608 24.8358423,24.7864608 24.4808423,26.5334608 C24.0818423,28.4959608 22.4723423,29.3934608 20.7553423,29.4164608 L20.7553423,29.4164608 Z" id="path-1"></path>
    </defs>
    <g id="Glyphs/Quick-Actions/New-Sketch" stroke="none" stroke-width="1" fill="none" fill-rule="evenodd">
        <mask id="mask-2" fill="white">
            <use xlink:href="#path-1"></use>
        </mask>
        <use id="New-Sketch-Icon" fill="#000000" xlink:href="#path-1"></use>
        <g id="_Resources/Colors/Tint-1" mask="url(#mask-2)" fill="#F0EBFB">
            <rect id="Swatch" x="0" y="0" width="35" height="35"></rect>
        </g>
    </g>
</svg>