<?xml version="1.0" encoding="UTF-8"?>
<svg width="35px" height="35px" viewBox="0 0 35 35" version="1.1" xmlns="http://www.w3.org/2000/svg" xmlns:xlink="http://www.w3.org/1999/xlink">
    <!-- Generator: Sketch 49.1 (51147) - http://www.bohemiancoding.com/sketch -->
    <title>Glyphs/Quick Actions/Open New Tab</title>
    <desc>Created with Sketch.</desc>
    <defs>
        <path d="M20.5,13.25 C21.0515,13.25 21.5,13.698 21.5,14.25 L21.5,25.75 C21.5,26.302 21.0515,26.75 20.5,26.75 L9,26.75 C8.4485,26.75 8,26.302 8,25.75 L8,14.25 C8,13.698 8.4485,13.25 9,13.25 L20.5,13.25 L20.5,13.25 Z M20.5,11.25 L9,11.25 C7.3435,11.25 6,12.5935 6,14.25 L6,25.75 C6,27.4065 7.3435,28.75 9,28.75 L20.5,28.75 C22.1565,28.75 23.5,27.4065 23.5,25.75 L23.5,14.25 C23.5,12.5935 22.1565,11.25 20.5,11.25 L20.5,11.25 L20.5,11.25 Z M26,6.25 L14.5,6.25 C12.8435,6.25 11.5,7.5935 11.5,9.25 L11.5,9.75 L13.5,9.75 L13.5,9.25 C13.5,8.698 13.9485,8.25 14.5,8.25 L26,8.25 C26.5515,8.25 27,8.698 27,9.25 L27,20.75 C27,21.302 26.5515,21.75 26,21.75 L25,21.75 L25,23.75 L26,23.75 C27.6565,23.75 29,22.4065 29,20.75 L29,9.25 C29,7.5935 27.6565,6.25 26,6.25 L26,6.25 Z M19,19.25 L15.5,19.25 L15.5,15.75 C15.5,15.4735 15.2765,15.25 15,15.25 L14.5,15.25 C14.2235,15.25 14,15.4735 14,15.75 L14,19.25 L10.5,19.25 C10.2235,19.25 10,19.4735 10,19.75 L10,20.25 C10,20.5265 10.2235,20.75 10.5,20.75 L14,20.75 L14,24.25 C14,24.5265 14.2235,24.75 14.5,24.75 L15,24.75 C15.2765,24.75 15.5,24.5265 15.5,24.25 L15.5,20.75 L19,20.75 C19.2765,20.75 19.5,20.5265 19.5,20.25 L19.5,19.75 C19.5,19.4735 19.2765,19.25 19,19.25 L19,19.25 Z" id="path-1"></path>
    </defs>
    <g id="Glyphs/Quick-Actions/Open-New-Tab" stroke="none" stroke-width="1" fill="none" fill-rule="evenodd">
        <mask id="mask-2" fill="white">
            <use xlink:href="#path-1"></use>
        </mask>
        <use id="New-Tab-Icon" fill="#000000" xlink:href="#path-1"></use>
        <g id="_Resources/Colors/Tint-1" mask="url(#mask-2)" fill="#F0EBFB">
            <rect id="Swatch" x="0" y="0" width="35" height="35"></rect>
        </g>
    </g>
</svg>