<?xml version="1.0" encoding="UTF-8"?>
<svg width="35px" height="35px" viewBox="0 0 35 35" version="1.1" xmlns="http://www.w3.org/2000/svg" xmlns:xlink="http://www.w3.org/1999/xlink">
    <!-- Generator: Sketch 49.1 (51147) - http://www.bohemiancoding.com/sketch -->
    <title>Glyphs/Quick Actions/Open Cloud</title>
    <desc>Created with Sketch.</desc>
    <defs>
        <path d="M25.2573205,16.7674885 C25.2573205,13.5686847 22.4947493,11 19.0868159,11 C16.6705188,11 14.5774111,12.2911464 13.5641416,14.1749628 L13.1958714,14.8596893 L12.5113809,14.4341627 C12.0794456,14.1579055 11.6591181,14.0292236 11.1014569,14.0374991 C9.8044386,14.0374991 8.73360922,14.941587 8.5797241,16.1087157 L8.5797241,16.6582735 L8.11499798,16.6582735 C6.46543335,17.2358506 5.25,18.7299046 5.25,20.463304 C5.25,22.7000508 7.24403488,24.4999959 9.64957345,24.4999959 C9.75893658,24.5001309 25.2850515,24.4971609 25.2850515,24.4971609 C25.3389164,24.4991184 25.3854492,24.5000634 25.4388059,24.4999959 C27.5436014,24.4999959 29.25,22.9133414 29.25,20.956247 C29.25,19.1434675 27.7855578,17.6477355 25.8970204,17.437743 L25.2573205,17.3665306 L25.2573205,16.7674885 Z M25.2142857,26 L10.5571429,26 L9.78667857,26 C9.65839771,25.9954409 9.529762,26 9.4,26 C9.27032286,26 9.141718,25.9954409 9.014332,25.9864 C6.21200971,25.78835 4,23.4483773 4,20.5909091 C4,18.2744273 5.45377257,16.2978991 7.497418,15.5270573 C7.70779429,13.8082259 9.17003714,12.4772727 10.9428571,12.4772727 C11.3805117,12.4772727 11.79922,12.5583627 12.1848571,12.7063709 C12.4274714,12.7995077 12.6570486,12.9191336 12.8698857,13.061725 C12.9855229,12.8302082 13.1129629,12.6056614 13.2515114,12.3888882 C14.5536829,10.3508973 16.8335629,9 19.4285714,9 C23.4761029,9 26.7571429,12.2865405 26.7571429,16.3409091 C29.1471057,16.6616218 31,18.6992727 31,21.1704545 C31,23.7731545 28.9444514,25.8950636 26.3708886,25.9962136 C26.3070914,25.9987636 26.2429857,26 26.1785714,26 C26.1140029,26 26.0497429,25.9986864 25.9857143,25.9962136 L25.2142857,26 Z" id="path-1"></path>
    </defs>
    <g id="Glyphs/Quick-Actions/Open-Cloud" stroke="none" stroke-width="1" fill="none" fill-rule="evenodd">
        <mask id="mask-2" fill="white">
            <use xlink:href="#path-1"></use>
        </mask>
        <use id="Shared" fill="#000000" xlink:href="#path-1"></use>
        <g id="_Resources/Colors/Tint-1" mask="url(#mask-2)" fill="#F0EBFB">
            <rect id="Swatch" x="0" y="0" width="35" height="35"></rect>
        </g>
    </g>
</svg>