<?xml version="1.0" encoding="UTF-8"?>
<svg width="35px" height="35px" viewBox="0 0 35 35" version="1.1" xmlns="http://www.w3.org/2000/svg" xmlns:xlink="http://www.w3.org/1999/xlink">
    <!-- Generator: Sketch 49.1 (51147) - http://www.bohemiancoding.com/sketch -->
    <title>Glyphs/Quick Actions/Record Slo-mo</title>
    <desc>Created with Sketch.</desc>
    <defs>
        <path d="M16.5,4.5 L18.5,4.5 L18.5,10 L16.5,10 L16.5,4.5 L16.5,4.5 Z M16.5,30.5 L18.5,30.5 L18.5,25 L16.5,25 L16.5,30.5 L16.5,30.5 Z M10,16.5 L4.5,16.5 L4.5,18.5 L10,18.5 L10,16.5 L10,16.5 Z M25,16.5 L25,18.5 L30.5,18.5 L30.5,16.5 L25,16.5 L25,16.5 Z M12.904,11.4895 L9.015,7.601 L7.601,9.015 L11.49,12.904 L12.904,11.4895 L12.904,11.4895 Z M22.096,23.5105 L25.985,27.399 L27.399,25.985 L23.51,22.096 L22.096,23.5105 L22.096,23.5105 Z M11.4895,22.096 L7.6005,25.985 L9.0145,27.399 L12.9035,23.5105 L11.4895,22.096 L11.4895,22.096 Z M23.5105,12.904 L27.3995,9.015 L25.9855,7.601 L22.0965,11.4895 L23.5105,12.904 L23.5105,12.904 Z M10.961,13.6935 L5.884,11.5785 L5.115,13.425 L10.192,15.5395 L10.961,13.6935 L10.961,13.6935 Z M24.039,21.3065 L29.116,23.4215 L29.885,21.575 L24.808,19.4605 L24.039,21.3065 L24.039,21.3065 Z M11.578,29.116 L13.4245,29.8845 L15.539,24.8075 L13.693,24.039 L11.578,29.116 L11.578,29.116 Z M23.422,5.884 L21.5755,5.115 L19.461,10.1925 L21.307,10.961 L23.422,5.884 L23.422,5.884 Z M11.598,5.874 L13.704,10.9545 L15.5515,10.1885 L13.4455,5.108 L11.598,5.874 L11.598,5.874 Z M19.448,24.8115 L21.554,29.892 L23.4015,29.126 L21.2955,24.0455 L19.448,24.8115 L19.448,24.8115 Z M10.1885,19.448 L5.108,21.554 L5.8735,23.401 L10.9545,21.2955 L10.1885,19.448 L10.1885,19.448 Z M24.8115,15.552 L29.892,13.446 L29.1265,11.5985 L24.0455,13.7045 L24.8115,15.552 L24.8115,15.552 Z" id="path-1"></path>
    </defs>
    <g id="Glyphs/Quick-Actions/Record-Slo-mo" stroke="none" stroke-width="1" fill="none" fill-rule="evenodd">
        <mask id="mask-2" fill="white">
            <use xlink:href="#path-1"></use>
        </mask>
        <use id="Record-Slo-mo-Icon" fill="#000000" xlink:href="#path-1"></use>
        <g id="_Resources/Colors/Tint-1" mask="url(#mask-2)" fill="#F0EBFB">
            <rect id="Swatch" x="0" y="0" width="35" height="35"></rect>
        </g>
    </g>
</svg>