<?xml version="1.0" encoding="UTF-8"?>
<svg width="35px" height="35px" viewBox="0 0 35 35" version="1.1" xmlns="http://www.w3.org/2000/svg" xmlns:xlink="http://www.w3.org/1999/xlink">
    <!-- Generator: Sketch 49.1 (51147) - http://www.bohemiancoding.com/sketch -->
    <title>Glyphs/Quick Actions/Record Live Video</title>
    <desc>Created with Sketch.</desc>
    <defs>
        <path d="M7.40942,8 L20.50045,8 C22.10055,8 23.40895,9.31567 23.40895,10.92358 L23.40895,24.0774 C23.40895,25.6853 22.10055,27 20.50045,27 L7.40942,27 C5.80932,27 4.49975,25.6853 4.49975,24.0774 L4.49975,10.92358 C4.49975,9.31567 5.80932,8 7.40942,8 Z M20.30105,18.1917 L20.40115,18.0698 C20.67775,17.73511 20.67775,17.26587 20.40115,16.93115 L20.30105,16.80933 C19.27445,15.55884 17.38595,13.25806 13.94238,13.25806 C10.52978,13.25806 8.67944,15.48926 7.62841,16.75659 L7.53002,16.87524 C7.22509,17.24219 7.22509,17.75879 7.53002,18.1257 L7.62841,18.2444 C8.67944,19.5117 10.52978,21.7429 13.94238,21.7429 C17.38595,21.7429 19.27445,19.4421 20.30105,18.1917 Z M25.01755,14.94727 L28.38375,12.03442 C29.28075,11.3479 30.50025,12.06274 30.50025,13.27417 L30.50025,21.7314 C30.50025,22.9131 29.33275,23.6338 28.43335,23.0068 L25.08835,20.5083 C24.76585,20.2981 24.57075,19.937 24.57075,19.5498 L24.57075,15.85571 C24.57075,15.49927 24.73635,15.16333 25.01755,14.94727 Z M13.95483,19.6379 C12.78002,19.6379 11.82739,18.6809 11.82739,17.50049 C11.82739,16.32007 12.78002,15.36304 13.95483,15.36304 C15.12935,15.36304 16.08205,16.32007 16.08205,17.50049 C16.08205,18.6809 15.12935,19.6379 13.95483,19.6379 Z" id="path-1"></path>
    </defs>
    <g id="Glyphs/Quick-Actions/Record-Live-Video" stroke="none" stroke-width="1" fill="none" fill-rule="evenodd">
        <mask id="mask-2" fill="white">
            <use xlink:href="#path-1"></use>
        </mask>
        <use id="Live-Video" fill="#000000" xlink:href="#path-1"></use>
        <g id="_Resources/Colors/Tint-1" mask="url(#mask-2)" fill="#F0EBFB">
            <rect id="Swatch" x="0" y="0" width="35" height="35"></rect>
        </g>
    </g>
</svg>