<?xml version="1.0" encoding="UTF-8"?>
<svg width="35px" height="35px" viewBox="0 0 35 35" version="1.1" xmlns="http://www.w3.org/2000/svg" xmlns:xlink="http://www.w3.org/1999/xlink">
    <!-- Generator: Sketch 49.1 (51147) - http://www.bohemiancoding.com/sketch -->
    <title>Glyphs/Quick Actions/Redeem Music</title>
    <desc>Created with Sketch.</desc>
    <defs>
        <path d="M30.5,7.5 L4.5,7.5 C3.3955,7.5 2.5,8.3955 2.5,9.5 L2.5,25.5 C2.5,26.6045 3.3955,27.5 4.5,27.5 L30.5,27.5 C31.6045,27.5 32.5,26.6045 32.5,25.5 L32.5,9.5 C32.5,8.3955 31.6045,7.5 30.5,7.5 L30.5,7.5 Z M31,25.5 C31,25.7755 30.7755,26 30.5,26 L4.5,26 C4.2245,26 4,25.7755 4,25.5 L4,9.5 C4,9.2245 4.2245,9 4.5,9 L30.5,9 C30.7755,9 31,9.2245 31,9.5 L31,25.5 L31,25.5 Z M22,11.253 L22,20.5 C21.997,20.5835 21.9895,20.6665 21.9765,20.749 C21.9735,20.7675 21.97,20.7865 21.9665,20.8055 C21.8045,21.6805 21.032,22.342 20.164,22.461 C19.3595,22.5705 18.407,22.254 18.097,21.4415 C17.948,21.052 17.977,20.622 18.167,20.2515 C18.3245,19.945 18.576,19.6935 18.864,19.5075 C19.1645,19.3135 19.4795,19.257 19.8285,19.2015 C20.1165,19.1555 20.4105,19.1075 20.684,19.0005 C20.8755,18.9255 21.0005,18.706 21.0005,18.5005 L21.0005,14.1845 L15.5005,15.2985 L15.5005,21.5 C15.4975,21.5835 15.49,21.6665 15.477,21.749 C15.474,21.7675 15.4705,21.7865 15.467,21.8055 C15.305,22.6805 14.5325,23.342 13.6645,23.461 C12.86,23.5705 11.9075,23.254 11.5975,22.4415 C11.4485,22.052 11.4775,21.622 11.6675,21.2515 C11.825,20.945 12.0765,20.6935 12.3645,20.5075 C12.665,20.3135 12.98,20.257 13.329,20.2015 C13.617,20.1555 13.911,20.1075 14.1845,20.0005 C14.376,19.9255 14.501,19.706 14.501,19.5005 L14.501,12.8785 C14.501,12.6375 14.669,12.4295 14.903,12.3825 L21.7025,11.0055 C21.8555,10.9735 22,11.094 22,11.253 L22,11.253 Z" id="path-1"></path>
    </defs>
    <g id="Glyphs/Quick-Actions/Redeem-Music" stroke="none" stroke-width="1" fill="none" fill-rule="evenodd">
        <mask id="mask-2" fill="white">
            <use xlink:href="#path-1"></use>
        </mask>
        <use id="Redeem-(iTunes)-Icon" fill="#000000" xlink:href="#path-1"></use>
        <g id="_Resources/Colors/Tint-1" mask="url(#mask-2)" fill="#F0EBFB">
            <rect id="Swatch" x="0" y="0" width="35" height="35"></rect>
        </g>
    </g>
</svg>