<?xml version="1.0" encoding="UTF-8"?>
<svg width="35px" height="35px" viewBox="0 0 35 35" version="1.1" xmlns="http://www.w3.org/2000/svg" xmlns:xlink="http://www.w3.org/1999/xlink">
    <!-- Generator: Sketch 49.1 (51147) - http://www.bohemiancoding.com/sketch -->
    <title>Glyphs/Quick Actions/Redeem App</title>
    <desc>Created with Sketch.</desc>
    <defs>
        <path d="M18.5275,17.5 L19.3755,19 L15.629,19 L16.509,17.5 L18.5275,17.5 L18.5275,17.5 Z M23.3215,19 L24.5,19 L24.5,17.5 L22.4735,17.5 L23.3215,19 L23.3215,19 Z M12.531,17.5 L10.5,17.5 L10.5,19 L11.651,19 L12.531,17.5 L12.531,17.5 Z M18.258,11.755 C18.1225,11.5145 17.817,11.43 17.5765,11.5655 L16.9235,11.9345 C16.6835,12.07 16.599,12.3755 16.7345,12.616 L21.2245,20.5585 L22.74,19.6835 L18.258,11.755 L18.258,11.755 Z M17.002,14.999 C17.1415,14.7605 17.0615,14.4545 16.824,14.315 L16.1765,13.935 C15.9385,13.7955 15.632,13.875 15.4925,14.113 L14.882,15.154 L16.3975,16.029 L17.002,14.999 L17.002,14.999 Z M11,23.5 L12.927,21.9455 L11.4115,21.0705 L11,23.5 L11,23.5 Z M14.6285,15.585 L11.664,20.6385 L13.1795,21.514 L16.1445,16.4605 L14.6285,15.585 L14.6285,15.585 Z M23.5125,20.926 C23.4825,20.885 23.319,20.7275 23.1435,20.5735 C22.9835,20.433 22.7505,20.4125 22.566,20.519 L21.83,20.944 C21.632,21.0585 21.536,21.294 21.5985,21.5145 C21.6305,21.629 21.6645,21.7285 21.6875,21.793 C21.858,22.2645 22.1385,22.551 22.57,22.784 C22.9105,22.9685 23.133,23.1405 23.4445,23.4095 C23.4945,23.4525 23.5615,23.486 23.6265,23.4755 C24.0365,23.409 24.0195,22.6825 23.991,22.383 C23.938,21.8215 23.842,21.3745 23.5125,20.926 L23.5125,20.926 Z M32.5,9.5 L32.5,25.5 C32.5,26.6045 31.6045,27.5 30.5,27.5 L4.5,27.5 C3.3955,27.5 2.5,26.6045 2.5,25.5 L2.5,9.5 C2.5,8.3955 3.3955,7.5 4.5,7.5 L30.5,7.5 C31.6045,7.5 32.5,8.3955 32.5,9.5 L32.5,9.5 Z M31,9.5 C31,9.2245 30.776,9 30.5,9 L4.5,9 C4.224,9 4,9.2245 4,9.5 L4,25.5 C4,25.7755 4.224,26 4.5,26 L30.5,26 C30.776,26 31,25.7755 31,25.5 L31,9.5 L31,9.5 Z" id="path-1"></path>
    </defs>
    <g id="Glyphs/Quick-Actions/Redeem-App" stroke="none" stroke-width="1" fill="none" fill-rule="evenodd">
        <mask id="mask-2" fill="white">
            <use xlink:href="#path-1"></use>
        </mask>
        <use id="Redeem-(App-Store)-Icon" fill="#000000" xlink:href="#path-1"></use>
        <g id="_Resources/Colors/Tint-1" mask="url(#mask-2)" fill="#F0EBFB">
            <rect id="Swatch" x="0" y="0" width="35" height="35"></rect>
        </g>
    </g>
</svg>