<?xml version="1.0" encoding="UTF-8"?>
<svg width="30px" height="30px" viewBox="0 0 30 30" version="1.1" xmlns="http://www.w3.org/2000/svg" xmlns:xlink="http://www.w3.org/1999/xlink">
    <!-- Generator: Sketch 49.1 (51147) - http://www.bohemiancoding.com/sketch -->
    <title>ic_reload</title>
    <desc>Created with Sketch.</desc>
    <defs>
        <path d="M4.03771087,14.8265419 C3.95241618,14.9348856 3.86953243,15.04362 3.78891593,15.1529715 C3.36496257,15.7280486 2.97783407,16.3457083 2.63125897,17 L2,16.4539796 C2.36945165,15.7564998 2.78213413,15.098069 3.23407477,14.4850282 C3.53446266,14.0775698 3.86267698,13.680129 4.22485594,13.2824911 L4.48215617,13 L4.73156891,13.2938157 C5.08285635,13.7076428 5.43257247,14.0996564 5.78359768,14.4723409 C6.18731277,14.9009707 6.59105375,15.2999076 7,15.6726571 L6.55734787,16.4656825 C6.13277234,16.0786871 5.71424881,15.6651435 5.29646426,15.221576 C5.15618826,15.0726445 5.01617843,14.9207849 4.87626232,14.7658513 C5.05098771,16.7480479 5.85966053,18.6268194 7.1902961,20.1109286 C9.01751851,22.1488991 11.645621,23.2591459 14.3524021,23.1413485 C15.7560664,23.0462876 17.1186853,22.6223689 18.3327014,21.9030539 C19.5217546,21.1985301 20.5366374,20.2292242 21.3003644,19.0686647 L22,19.5401453 C21.165523,20.8082165 20.0566235,21.8673169 18.7574191,22.6371063 C17.430981,23.4230322 15.9421789,23.8862073 14.3985426,23.9906268 C11.4322678,24.1198493 8.56280254,22.9076383 6.56776968,20.6825025 C5.11032745,19.056961 4.22590126,16.9981553 4.03771087,14.8265419 Z M23.9622893,13.17346 C24.0475845,13.0651156 24.1304688,12.9563804 24.2110858,12.8470281 C24.6350383,12.2719515 25.0221666,11.6542918 25.3687419,11 L26,11.546021 C25.6305483,12.2435007 25.2178662,12.9019314 24.7659265,13.5149716 C24.4655389,13.92243 24.1373248,14.3198709 23.7751462,14.7175089 L23.5178462,15 L23.2684337,14.7061843 C22.9171466,14.2923571 22.5674308,13.9003434 22.2164059,13.5276588 C21.8126783,13.0990153 21.4089403,12.700083 21,12.3273461 L21.4426458,11.5343152 C21.8672179,11.9213 22.2857403,12.3348408 22.7035388,12.7784236 C22.8438137,12.927354 22.9838224,13.0792126 23.1237373,13.234145 C22.9490113,11.2519498 22.1403386,9.37317967 20.8097039,7.88907142 C18.9824815,5.85110095 16.354379,4.74085411 13.6475979,4.85865152 C12.2439336,4.95371239 10.8813147,5.37763113 9.66729861,6.09694606 C8.47824545,6.8014699 7.46336259,7.7707758 6.69963562,8.93133535 L6,8.45985474 C6.83447699,7.19178345 7.94337646,6.13268309 9.24258092,5.3628937 C10.569019,4.57696778 12.0578211,4.11379272 13.6014574,4.00937321 C16.5677322,3.88015066 19.4371975,5.09236166 21.4322303,7.31749749 C22.889673,8.94303952 23.7740993,11.0018459 23.9622893,13.17346 Z M14,28 C6.2680135,28 0,21.7319865 0,14 C0,6.2680135 6.2680135,0 14,0 C21.7319865,0 28,6.2680135 28,14 C28,21.7319865 21.7319865,28 14,28 Z M14,26.8034188 C21.071133,26.8034188 26.8034188,21.071133 26.8034188,14 C26.8034188,6.92886705 21.071133,1.1965812 14,1.1965812 C6.92886705,1.1965812 1.1965812,6.92886705 1.1965812,14 C1.1965812,21.071133 6.92886705,26.8034188 14,26.8034188 Z" id="path-1"></path>
    </defs>
    <g id="ic_reload" stroke="none" stroke-width="1" fill="none" fill-rule="evenodd">
        <g id="_Resources/Colors/Tint-1" transform="translate(1.000000, 1.000000)">
            <mask id="mask-2" fill="white">
                <use xlink:href="#path-1"></use>
            </mask>
            <use id="Mask" fill="#007AFF" fill-rule="nonzero" xlink:href="#path-1"></use>
            <g mask="url(#mask-2)" fill="#F0EBFB" id="Swatch">
                <g transform="translate(-1.000000, -1.000000)">
                    <rect x="0" y="0" width="30" height="30"></rect>
                </g>
            </g>
        </g>
    </g>
</svg>