<svg width="28" height="28" viewBox="0 0 28 28" fill="none" xmlns="http://www.w3.org/2000/svg">
<path d="M2.33325 20.4167C2.33325 19.3258 2.33325 18.781 2.56775 18.375C2.72134 18.109 2.94224 17.8881 3.20825 17.7345C3.61425 17.5 4.15909 17.5 5.24992 17.5C6.34075 17.5 6.88559 17.5 7.29159 17.7345C7.5576 17.8881 7.7785 18.109 7.93209 18.375C8.16659 18.781 8.16659 19.3258 8.16659 20.4167C8.16659 21.5075 8.16659 22.0523 7.93209 22.4583C7.7785 22.7243 7.5576 22.9452 7.29159 23.0988C6.88559 23.3333 6.34075 23.3333 5.24992 23.3333C4.15909 23.3333 3.61425 23.3333 3.20825 23.0988C2.94224 22.9452 2.72134 22.7243 2.56775 22.4583C2.33325 22.0523 2.33325 21.5075 2.33325 20.4167ZM11.0833 20.4167C11.0833 19.3258 11.0833 18.781 11.3178 18.375C11.4713 18.109 11.6922 17.8881 11.9583 17.7345C12.3643 17.5 12.9091 17.5 13.9999 17.5C15.0908 17.5 15.6356 17.5 16.0416 17.7345C16.3076 17.8881 16.5285 18.109 16.6821 18.375C16.9166 18.781 16.9166 19.3258 16.9166 20.4167C16.9166 21.5075 16.9166 22.0523 16.6821 22.4583C16.5285 22.7243 16.3076 22.9452 16.0416 23.0988C15.6356 23.3333 15.0908 23.3333 13.9999 23.3333C12.9091 23.3333 12.3643 23.3333 11.9583 23.0988C11.6922 22.9452 11.4713 22.7243 11.3178 22.4583C11.0833 22.0523 11.0833 21.5075 11.0833 20.4167ZM19.8333 20.4167C19.8333 19.3258 19.8333 18.781 20.0678 18.375C20.2213 18.109 20.4422 17.8881 20.7083 17.7345C21.1143 17.5 21.6591 17.5 22.7499 17.5C23.8408 17.5 24.3856 17.5 24.7916 17.7345C25.0576 17.8881 25.2785 18.109 25.4321 18.375C25.6666 18.781 25.6666 19.3258 25.6666 20.4167C25.6666 21.5075 25.6666 22.0523 25.4321 22.4583C25.2785 22.7243 25.0576 22.9452 24.7916 23.0988C24.3856 23.3333 23.8408 23.3333 22.7499 23.3333C21.6591 23.3333 21.1143 23.3333 20.7083 23.0988C20.4422 22.9452 20.2213 22.7243 20.0678 22.4583C19.8333 22.0523 19.8333 21.5075 19.8333 20.4167Z" stroke="black" stroke-width="1.5"/>
<path d="M5.25 17.5V10.5C5.25 7.75016 5.25 6.37466 6.104 5.52066C6.958 4.66666 8.3335 4.66666 11.0833 4.66666H16.9167C19.6665 4.66666 21.0408 4.66666 21.896 5.52066C22.75 6.37466 22.75 7.75016 22.75 10.5V14M22.75 14L25.0833 11.6667M22.75 14L20.4167 11.6667" stroke="black" stroke-width="1.5" stroke-linecap="round" stroke-linejoin="round"/>
</svg>
