<?xml version="1.0" encoding="UTF-8"?>
<svg width="35px" height="35px" viewBox="0 0 35 35" version="1.1" xmlns="http://www.w3.org/2000/svg" xmlns:xlink="http://www.w3.org/1999/xlink">
    <!-- Generator: Sketch 49.1 (51147) - http://www.bohemiancoding.com/sketch -->
    <title>Glyphs/Quick Actions/Schedule Event</title>
    <desc>Created with Sketch.</desc>
    <defs>
        <path d="M29.9724658,9.9375 C29.9159658,9.383 29.7769658,8.8525 29.5684658,8.3595 C29.4984658,8.1945 29.4214658,8.0345 29.3364658,7.8785 C28.4899658,6.32 26.9114658,5.216 25.0629658,5.0285 C24.8779658,5.01 24.6904658,5 24.5004658,5 L10.5004658,5 C10.3104658,5 10.1229658,5.01 9.93796579,5.0285 C8.08946579,5.216 6.51096579,6.32 5.66446579,7.8785 C5.57946579,8.0345 5.50246579,8.1945 5.43246579,8.3595 C5.22396579,8.8525 5.08546579,9.383 5.02846579,9.9375 C5.00996579,10.1225 4.99996579,10.31 4.99996579,10.5 L4.99996579,13 L4.99996579,24.5 C4.99996579,27.5375 7.46246579,30 10.4999658,30 L24.4999658,30 C27.5374658,30 29.9999658,27.5375 29.9999658,24.5 L29.9999658,13 L29.9999658,10.5 C30.0009658,10.31 29.9909658,10.1225 29.9724658,9.9375 L29.9724658,9.9375 Z M28.5009658,24.5 C28.5009658,26.7055 26.7064658,28.5 24.5009658,28.5 L10.5009658,28.5 C8.29546579,28.5 6.50096579,26.7055 6.50096579,24.5 L6.50096579,13 L28.5009658,13 L28.5009658,24.5 L28.5009658,24.5 Z M8.50096579,16 C8.50096579,15.448 8.94896579,15 9.50096579,15 C10.0529658,15 10.5009658,15.448 10.5009658,16 C10.5009658,16.552 10.0529658,17 9.50096579,17 C8.94896579,17 8.50096579,16.552 8.50096579,16 L8.50096579,16 Z M8.50096579,20.5 C8.50096579,19.948 8.94896579,19.5 9.50096579,19.5 C10.0529658,19.5 10.5009658,19.948 10.5009658,20.5 C10.5009658,21.052 10.0529658,21.5 9.50096579,21.5 C8.94896579,21.5 8.50096579,21.052 8.50096579,20.5 L8.50096579,20.5 Z M8.50096579,25 C8.50096579,24.448 8.94896579,24 9.50096579,24 C10.0529658,24 10.5009658,24.448 10.5009658,25 C10.5009658,25.552 10.0529658,26 9.50096579,26 C8.94896579,26 8.50096579,25.552 8.50096579,25 L8.50096579,25 Z M12.5009658,16 C12.5009658,15.448 12.9489658,15 13.5009658,15 C14.0529658,15 14.5009658,15.448 14.5009658,16 C14.5009658,16.552 14.0529658,17 13.5009658,17 C12.9489658,17 12.5009658,16.552 12.5009658,16 L12.5009658,16 Z M12.5009658,20.5 C12.5009658,19.948 12.9489658,19.5 13.5009658,19.5 C14.0529658,19.5 14.5009658,19.948 14.5009658,20.5 C14.5009658,21.052 14.0529658,21.5 13.5009658,21.5 C12.9489658,21.5 12.5009658,21.052 12.5009658,20.5 L12.5009658,20.5 Z M12.5009658,25 C12.5009658,24.448 12.9489658,24 13.5009658,24 C14.0529658,24 14.5009658,24.448 14.5009658,25 C14.5009658,25.552 14.0529658,26 13.5009658,26 C12.9489658,26 12.5009658,25.552 12.5009658,25 L12.5009658,25 Z M16.5009658,16 C16.5009658,15.448 16.9489658,15 17.5009658,15 C18.0529658,15 18.5009658,15.448 18.5009658,16 C18.5009658,16.552 18.0529658,17 17.5009658,17 C16.9489658,17 16.5009658,16.552 16.5009658,16 L16.5009658,16 Z M16.5009658,20.5 C16.5009658,19.948 16.9489658,19.5 17.5009658,19.5 C18.0529658,19.5 18.5009658,19.948 18.5009658,20.5 C18.5009658,21.052 18.0529658,21.5 17.5009658,21.5 C16.9489658,21.5 16.5009658,21.052 16.5009658,20.5 L16.5009658,20.5 Z M16.5009658,25 C16.5009658,24.448 16.9489658,24 17.5009658,24 C18.0529658,24 18.5009658,24.448 18.5009658,25 C18.5009658,25.552 18.0529658,26 17.5009658,26 C16.9489658,26 16.5009658,25.552 16.5009658,25 L16.5009658,25 Z M20.5009658,16 C20.5009658,15.448 20.9489658,15 21.5009658,15 C22.0529658,15 22.5009658,15.448 22.5009658,16 C22.5009658,16.552 22.0529658,17 21.5009658,17 C20.9489658,17 20.5009658,16.552 20.5009658,16 L20.5009658,16 Z M19.5009658,20.5 C19.5009658,19.3955 20.3964658,18.5 21.5009658,18.5 C22.6054658,18.5 23.5009658,19.3955 23.5009658,20.5 C23.5009658,21.6045 22.6054658,22.5 21.5009658,22.5 C20.3964658,22.5 19.5009658,21.6045 19.5009658,20.5 L19.5009658,20.5 Z M22.5009658,25 C22.5009658,25.552 22.0529658,26 21.5009658,26 C20.9489658,26 20.5009658,25.552 20.5009658,25 C20.5009658,24.448 20.9489658,24 21.5009658,24 C22.0529658,24 22.5009658,24.448 22.5009658,25 L22.5009658,25 Z M24.5009658,16 C24.5009658,15.448 24.9489658,15 25.5009658,15 C26.0529658,15 26.5009658,15.448 26.5009658,16 C26.5009658,16.552 26.0529658,17 25.5009658,17 C24.9489658,17 24.5009658,16.552 24.5009658,16 L24.5009658,16 Z M24.5009658,20.5 C24.5009658,19.948 24.9489658,19.5 25.5009658,19.5 C26.0529658,19.5 26.5009658,19.948 26.5009658,20.5 C26.5009658,21.052 26.0529658,21.5 25.5009658,21.5 C24.9489658,21.5 24.5009658,21.052 24.5009658,20.5 L24.5009658,20.5 Z M24.5009658,25 C24.5009658,24.448 24.9489658,24 25.5009658,24 C26.0529658,24 26.5009658,24.448 26.5009658,25 C26.5009658,25.552 26.0529658,26 25.5009658,26 C24.9489658,26 24.5009658,25.552 24.5009658,25 L24.5009658,25 Z" id="path-1"></path>
    </defs>
    <g id="Glyphs/Quick-Actions/Schedule-Event" stroke="none" stroke-width="1" fill="none" fill-rule="evenodd">
        <mask id="mask-2" fill="white">
            <use xlink:href="#path-1"></use>
        </mask>
        <use id="Event-Icon" fill="#000000" xlink:href="#path-1"></use>
        <g id="_Resources/Colors/Tint-1" mask="url(#mask-2)" fill="#F0EBFB">
            <rect id="Swatch" x="0" y="0" width="35" height="35"></rect>
        </g>
    </g>
</svg>