<?xml version="1.0" encoding="UTF-8"?>
<svg width="35px" height="35px" viewBox="0 0 35 35" version="1.1" xmlns="http://www.w3.org/2000/svg" xmlns:xlink="http://www.w3.org/1999/xlink">
    <!-- Generator: Sketch 49.1 (51147) - http://www.bohemiancoding.com/sketch -->
    <title>Glyphs/Quick Actions/Show Reading List</title>
    <desc>Created with Sketch.</desc>
    <defs>
        <path d="M34.5,15.75 L33.2785,15.75 C32.495,12.593 29.6495,10.25 26.25,10.25 C22.8335,10.25 19.9765,12.616 19.2095,15.7975 C18.7615,15.46 18.163,15.25 17.5,15.25 C16.837,15.25 16.2385,15.46 15.7905,15.7975 C15.0235,12.6165 12.1665,10.25 8.75,10.25 C5.3505,10.25 2.5055,12.593 1.7215,15.75 L0.5,15.75 C0.2235,15.75 0,15.9735 0,16.25 L0,17.25 C0,17.5265 0.2235,17.75 0.5,17.75 L1.5125,17.75 C1.6455,21.6375 4.8305,24.75 8.75,24.75 C12.3225,24.75 15.2765,22.1505 15.875,18.75 C15.875,17.922 16.6715,17.25 17.5,17.25 C18.3285,17.25 19.125,17.922 19.125,18.75 C19.7235,22.1505 22.6775,24.75 26.25,24.75 C30.1695,24.75 33.3545,21.6375 33.4875,17.75 L34.5,17.75 C34.7765,17.75 35,17.5265 35,17.25 L35,16.25 C35,15.9735 34.7765,15.75 34.5,15.75 L34.5,15.75 Z M8.75,22.8125 C5.821,22.8125 3.4375,20.429 3.4375,17.5 C3.4375,14.571 5.821,12.1875 8.75,12.1875 C11.679,12.1875 14.0625,14.571 14.0625,17.5 C14.0625,20.429 11.679,22.8125 8.75,22.8125 L8.75,22.8125 Z M26.25,22.8125 C23.321,22.8125 20.9375,20.429 20.9375,17.5 C20.9375,14.571 23.321,12.1875 26.25,12.1875 C29.179,12.1875 31.5625,14.571 31.5625,17.5 C31.5625,20.429 29.179,22.8125 26.25,22.8125 L26.25,22.8125 Z" id="path-1"></path>
    </defs>
    <g id="Glyphs/Quick-Actions/Show-Reading-List" stroke="none" stroke-width="1" fill="none" fill-rule="evenodd">
        <mask id="mask-2" fill="white">
            <use xlink:href="#path-1"></use>
        </mask>
        <use id="Show-Reading-List-Icon" fill="#000000" xlink:href="#path-1"></use>
        <g id="_Resources/Colors/Tint-1" mask="url(#mask-2)" fill="#F0EBFB">
            <rect id="Swatch" x="0" y="0" width="35" height="35"></rect>
        </g>
    </g>
</svg>