<?xml version="1.0" encoding="UTF-8"?>
<svg width="35px" height="35px" viewBox="0 0 35 35" version="1.1" xmlns="http://www.w3.org/2000/svg" xmlns:xlink="http://www.w3.org/1999/xlink">
    <!-- Generator: Sketch 49.1 (51147) - http://www.bohemiancoding.com/sketch -->
    <title>Glyphs/Quick Actions/Start Timer</title>
    <desc>Created with Sketch.</desc>
    <defs>
        <path d="M15.6054043,18.4895925 L11.9999043,12.0000925 L18.3984043,15.7635925 C19.4899043,16.4055925 19.7279043,17.8815925 18.8944043,18.8350925 L18.8909043,18.8390925 C17.9699043,19.8910925 16.2839043,19.7120925 15.6054043,18.4895925 L15.6054043,18.4895925 Z M18.4999043,5.5450925 L18.4999043,5.5000925 L17.4999043,5.5000925 C16.9479043,5.5000925 16.4999043,5.9480925 16.4999043,6.5000925 L16.4999043,10.5000925 C16.4999043,11.0520925 16.9479043,11.5000925 17.4999043,11.5000925 C18.0519043,11.5000925 18.4999043,11.0520925 18.4999043,10.5000925 L18.4999043,7.3010925 C23.7659043,7.8135925 27.8784043,12.3255925 27.7469043,17.7530925 C27.6184043,23.0405925 23.3444043,27.4510925 18.0634043,27.7350925 C12.1574043,28.0530925 7.24990433,23.3385925 7.24990433,17.5000925 C7.24990433,14.7430925 8.34740433,12.2415925 10.1259043,10.3995925 C10.4569043,10.0565925 10.4524043,9.5140925 10.1089043,9.1840925 L10.1059043,9.1810925 C9.74990433,8.8395925 9.17890433,8.8510925 8.83790433,9.2070925 C6.62590433,11.5135925 5.32390433,14.6970925 5.51940433,18.1885925 C5.85540433,24.1955925 10.7289043,29.1030925 16.7334043,29.4760925 C23.7079043,29.9090925 29.4999043,24.3810925 29.4999043,17.5000925 C29.4999043,11.2100925 24.6589043,6.0530925 18.4999043,5.5450925 L18.4999043,5.5450925 Z" id="path-1"></path>
    </defs>
    <g id="Glyphs/Quick-Actions/Start-Timer" stroke="none" stroke-width="1" fill="none" fill-rule="evenodd">
        <mask id="mask-2" fill="white">
            <use xlink:href="#path-1"></use>
        </mask>
        <use id="Start-Timer-Icon" fill="#000000" xlink:href="#path-1"></use>
        <g id="_Resources/Colors/Tint-1" mask="url(#mask-2)" fill="#F0EBFB">
            <rect id="Swatch" x="0" y="0" width="35" height="35"></rect>
        </g>
    </g>
</svg>