<?xml version="1.0" encoding="UTF-8"?>
<svg width="35px" height="35px" viewBox="0 0 35 35" version="1.1" xmlns="http://www.w3.org/2000/svg" xmlns:xlink="http://www.w3.org/1999/xlink">
    <!-- Generator: Sketch 49.1 (51147) - http://www.bohemiancoding.com/sketch -->
    <title>Glyphs/Quick Actions/Start Compass</title>
    <desc>Created with Sketch.</desc>
    <defs>
        <path d="M21.5,18.25 L17.5,18.25 L17.5,22.25 L16.5,22.25 L16.5,18.25 L12.5,18.25 L12.5,17.25 L16.5,17.25 L16.5,13.25 L17.5,13.25 L17.5,17.25 L21.5,17.25 L21.5,18.25 L21.5,18.25 Z M17.5,4.75 L16.5,4.75 L16.5,9.25 L17.5,9.25 L17.5,4.75 L17.5,4.75 Z M16.5,30.75 L17.5,30.75 L17.5,26.25 L16.5,26.25 L16.5,30.75 L16.5,30.75 Z M8.5,17.25 L4,17.25 L4,18.25 L8.5,18.25 L8.5,17.25 L8.5,17.25 Z M25.5,18.25 L30,18.25 L30,17.25 L25.5,17.25 L25.5,18.25 L25.5,18.25 Z M11.3435,11.3855 L8.1615,8.204 L7.4545,8.911 L10.636,12.093 L11.3435,11.3855 L11.3435,11.3855 Z M22.6565,24.1145 L25.8385,27.296 L26.5455,26.589 L23.364,23.407 L22.6565,24.1145 L22.6565,24.1145 Z M10.6355,23.4065 L7.454,26.5885 L8.161,27.2955 L11.343,24.114 L10.6355,23.4065 L10.6355,23.4065 Z M22.6565,11.3855 L23.364,12.093 L26.5455,8.911 L25.8385,8.204 L22.6565,11.3855 L22.6565,11.3855 Z M15.297,9.407 L14.14,5.0585 L13.1735,5.316 L14.3305,9.6645 L15.297,9.407 L15.297,9.407 Z M18.703,26.093 L19.86,30.4415 L20.8265,30.184 L19.6695,25.8355 L18.703,26.093 L18.703,26.093 Z M8.657,19.453 L4.3085,20.61 L4.566,21.5765 L8.9145,20.4195 L8.657,19.453 L8.657,19.453 Z M29.6915,14.8895 L29.434,13.923 L25.0855,15.08 L25.343,16.0465 L29.6915,14.8895 L29.6915,14.8895 Z M9.8965,13.055 L6.0035,10.7985 L5.502,11.663 L9.3955,13.9195 L9.8965,13.055 L9.8965,13.055 Z M24.1035,22.445 L27.9965,24.7015 L28.498,23.837 L24.6045,21.5805 L24.1035,22.445 L24.1035,22.445 Z M10.049,28.7465 L10.9135,29.248 L13.17,25.3545 L12.3055,24.8535 L10.049,28.7465 L10.049,28.7465 Z M23.951,6.7535 L23.0865,6.252 L20.83,10.1455 L21.6945,10.6465 L23.951,6.7535 L23.951,6.7535 Z M13.1395,10.1605 L10.867,6.276 L10.0035,6.781 L12.276,10.6655 L13.1395,10.1605 L13.1395,10.1605 Z M20.8605,25.3395 L23.133,29.224 L23.9965,28.719 L21.724,24.8345 L20.8605,25.3395 L20.8605,25.3395 Z M9.4105,21.6105 L5.526,23.883 L6.031,24.7465 L9.9155,22.474 L9.4105,21.6105 L9.4105,21.6105 Z M28.4735,11.617 L27.9685,10.7535 L24.084,13.026 L24.589,13.8895 L28.4735,11.617 L28.4735,11.617 Z M8.904,15.1135 L4.551,13.974 L4.2975,14.9415 L8.6505,16.081 L8.904,15.1135 L8.904,15.1135 Z M25.096,20.3865 L29.449,21.526 L29.7025,20.5585 L25.3495,19.419 L25.096,20.3865 L25.096,20.3865 Z M13.2235,30.199 L14.191,30.4525 L15.3305,26.0995 L14.363,25.846 L13.2235,30.199 L13.2235,30.199 Z M20.7765,5.301 L19.809,5.0475 L18.6695,9.4005 L19.637,9.654 L20.7765,5.301 L20.7765,5.301 Z M31,4.25 L25,6 L29.25,10.25 L31,4.25 L31,4.25 Z" id="path-1"></path>
    </defs>
    <g id="Glyphs/Quick-Actions/Start-Compass" stroke="none" stroke-width="1" fill="none" fill-rule="evenodd">
        <mask id="mask-2" fill="white">
            <use xlink:href="#path-1"></use>
        </mask>
        <use id="Start-Compass-Icon" fill="#000000" xlink:href="#path-1"></use>
        <g id="_Resources/Colors/Tint-1" mask="url(#mask-2)" fill="#F0EBFB">
            <rect id="Swatch" x="0" y="0" width="35" height="35"></rect>
        </g>
    </g>
</svg>