<?xml version="1.0" encoding="UTF-8"?>
<svg width="35px" height="35px" viewBox="0 0 35 35" version="1.1" xmlns="http://www.w3.org/2000/svg" xmlns:xlink="http://www.w3.org/1999/xlink">
    <!-- Generator: Sketch 49.1 (51147) - http://www.bohemiancoding.com/sketch -->
    <title>Glyphs/Quick Actions/Start Workout</title>
    <desc>Created with Sketch.</desc>
    <defs>
        <path d="M17.501,6 C11.159,6 6,11.159 6,17.501 C6,23.842 11.159,29 17.501,29 C23.842,29 29,23.842 29,17.501 C29,11.159 23.842,6 17.501,6 M17.501,30 C10.608,30 5,24.393 5,17.501 C5,10.608 10.608,5 17.501,5 C24.393,5 30,10.608 30,17.501 C30,24.393 24.393,30 17.501,30 M21.3984,10.0586 C21.3984,10.8866 20.7214,11.5586 19.8884,11.5586 C19.0554,11.5586 18.3794,10.8866 18.3794,10.0586 C18.3794,9.2316 19.0554,8.5586 19.8884,8.5586 C20.7214,8.5586 21.3984,9.2316 21.3984,10.0586 M23.1658,14.5074 L21.3638,15.3514 L20.0098,12.3354 C19.8868,12.0654 19.6148,11.8904 19.3178,11.8904 L15.0668,11.8904 C14.6788,11.8904 14.3528,12.1804 14.3128,12.5614 L13.9188,16.2724 C13.8738,16.6844 14.1778,17.0514 14.5928,17.0954 C15.0048,17.1504 15.3808,16.8404 15.4248,16.4284 L15.7478,13.3874 L17.3668,13.3874 L15.0468,20.8474 L11.9468,24.3064 C11.6648,24.6134 11.6898,25.0874 11.9978,25.3654 C12.1438,25.4954 12.3258,25.5584 12.5068,25.5584 C12.7138,25.5584 12.9178,25.4764 13.0688,25.3134 L16.4188,21.5804 L17.6138,18.5544 C17.6398,18.5844 20.1338,20.6964 20.1338,20.6964 L17.1728,22.2194 C16.8558,22.4884 16.8158,22.9614 17.0858,23.2754 C17.2378,23.4494 17.4508,23.5394 17.6628,23.5394 C17.8378,23.5394 18.0108,23.4804 18.1548,23.3604 L21.7958,21.2644 C21.9638,21.1224 22.0628,20.9134 22.0628,20.6934 C22.0628,20.4734 21.9628,20.2654 21.7938,20.1234 L18.9668,17.7554 L19.6228,15.1644 L20.2978,16.6644 C20.3798,16.8474 20.5358,16.9924 20.7268,17.0624 C20.8118,17.0924 20.9018,17.1084 20.9888,17.1084 C21.1008,17.1084 21.2128,17.0844 21.3158,17.0354 L23.8188,15.8604 C24.1958,15.6814 24.3568,15.2344 24.1758,14.8604 C23.9958,14.4884 23.5468,14.3294 23.1658,14.5074 Z" id="path-1"></path>
    </defs>
    <g id="Glyphs/Quick-Actions/Start-Workout" stroke="none" stroke-width="1" fill="none" fill-rule="evenodd">
        <mask id="mask-2" fill="white">
            <use xlink:href="#path-1"></use>
        </mask>
        <use id="Combined-Shape" fill="#000000" xlink:href="#path-1"></use>
        <g id="_Resources/Colors/Tint-1" mask="url(#mask-2)" fill="#F0EBFB">
            <rect id="Swatch" x="0" y="0" width="35" height="35"></rect>
        </g>
    </g>
</svg>