<?xml version="1.0" encoding="UTF-8"?>
<svg width="35px" height="35px" viewBox="0 0 35 35" version="1.1" xmlns="http://www.w3.org/2000/svg" xmlns:xlink="http://www.w3.org/1999/xlink">
    <!-- Generator: Sketch 49.1 (51147) - http://www.bohemiancoding.com/sketch -->
    <title>Glyphs/Quick Actions/Take Selfie</title>
    <desc>Created with Sketch.</desc>
    <defs>
        <path d="M28,5 L7,5 C5.8955,5 5,5.8955 5,7 L5,28 C5,29.1045 5.8955,30 7,30 L28,30 C29.1045,30 30,29.1045 30,28 L30,7 C30,5.8955 29.1045,5 28,5 L28,5 Z M28,28 L24.835,28 C23.598,27.742 22.3565,27.103 21.4755,26.3055 C21.1185,25.9825 20.715,25.579 20.4905,25.146 C20.115,24.42 20.3215,23.531 20.2915,22.75 C21.3255,22.482 21.0805,20.9475 21.1075,20.1815 C21.711,20.585 22.1885,19.21 22.334,18.8315 C23.166,16.667 21.75,16.875 21.75,16.875 C22.875,13.375 21.3335,11.75 21.3335,11.75 C20.8815,11.047 19.5075,10.6905 18.7755,10.4025 C17.5555,9.922 16.7505,10.2845 15.6355,10.848 C14.9195,11.209 14.0935,11.48 13.61,12.1615 C13.2135,12.721 13.028,13.4065 12.9425,14.0795 C12.9215,14.2455 12.9525,16.735 13.0415,16.7085 C12.2445,16.9395 12.1345,17.6255 12.4055,18.3205 C12.485,18.525 12.6485,18.7095 12.718,18.912 C12.8535,19.3055 12.759,19.6845 13.1505,19.9815 C13.2075,20.0245 13.7385,20.223 13.732,20.1995 C13.926,20.9415 13.9785,21.804 14.5245,22.4065 C14.546,22.4305 15.0405,22.7965 15.0415,22.751 C15.0175,23.747 15.2305,24.8115 14.499,25.615 C13.85,26.327 12.887,26.683 12.0585,27.084 C11.358,27.424 10.636,27.729 9.905,28.001 L7,28.001 L7,7.001 L28,7.001 L28,28 L28,28 Z" id="path-1"></path>
    </defs>
    <g id="Glyphs/Quick-Actions/Take-Selfie" stroke="none" stroke-width="1" fill="none" fill-rule="evenodd">
        <mask id="mask-2" fill="white">
            <use xlink:href="#path-1"></use>
        </mask>
        <use id="Take-Selfie-Icon" fill="#000000" xlink:href="#path-1"></use>
        <g id="_Resources/Colors/Tint-1" mask="url(#mask-2)" fill="#F0EBFB">
            <rect id="Swatch" x="0" y="0" width="35" height="35"></rect>
        </g>
    </g>
</svg>