<?xml version="1.0" encoding="UTF-8"?>
<svg width="35px" height="35px" viewBox="0 0 35 35" version="1.1" xmlns="http://www.w3.org/2000/svg" xmlns:xlink="http://www.w3.org/1999/xlink">
    <!-- Generator: Sketch 49.1 (51147) - http://www.bohemiancoding.com/sketch -->
    <title>Glyphs/Quick Actions/Turn Bluetooth On</title>
    <desc>Created with Sketch.</desc>
    <defs>
        <path d="M19.5823588,17.5001522 L25.3918588,12.6421522 C25.6083588,12.4611522 25.7378588,12.1966522 25.7493588,11.9151522 C25.7603588,11.6331522 25.6523588,11.3591522 25.4508588,11.1611522 L18.7008588,4.53615217 C18.4133588,4.25415217 17.9843588,4.17165217 17.6128588,4.32815217 C17.2418588,4.48415217 16.9998588,4.84715217 16.9998588,5.25015217 L16.9998588,15.3411522 L10.8913588,10.2331522 C10.4673588,9.87865217 9.83785879,9.93515217 9.48285879,10.3586522 C9.12835879,10.7826522 9.18485879,11.4131522 9.60835879,11.7671522 L16.4643588,17.5001522 L9.60835879,23.2331522 C9.18485879,23.5871522 9.12835879,24.2181522 9.48285879,24.6416522 C9.68085879,24.8781522 9.96435879,25.0001522 10.2503588,25.0001522 C10.4763588,25.0001522 10.7038588,24.9241522 10.8913588,24.7671522 L16.9998588,19.6591522 L16.9998588,29.7501522 C16.9998588,30.1531522 17.2413588,30.5161522 17.6128588,30.6721522 C17.7378588,30.7246522 17.8698588,30.7501522 17.9998588,30.7501522 C18.2568588,30.7501522 18.5098588,30.6511522 18.7003588,30.4641522 L25.4503588,23.8391522 C25.6513588,23.6411522 25.7598588,23.3676522 25.7488588,23.0851522 C25.7378588,22.8036522 25.6078588,22.5391522 25.3913588,22.3581522 L19.5823588,17.5001522 L19.5823588,17.5001522 Z M19.0003588,7.63315217 L23.2623588,11.8161522 L19.0003588,15.3801522 L19.0003588,7.63315217 L19.0003588,7.63315217 Z M19.0003588,27.3671522 L19.0003588,19.6201522 L23.2623588,23.1841522 L19.0003588,27.3671522 L19.0003588,27.3671522 Z" id="path-1"></path>
    </defs>
    <g id="Glyphs/Quick-Actions/Turn-Bluetooth-On" stroke="none" stroke-width="1" fill="none" fill-rule="evenodd">
        <mask id="mask-2" fill="white">
            <use xlink:href="#path-1"></use>
        </mask>
        <use id="Bluetooth-Icon" fill="#000000" xlink:href="#path-1"></use>
        <g id="_Resources/Colors/Tint-1" mask="url(#mask-2)" fill="#F0EBFB">
            <rect id="Swatch" x="0" y="0" width="35" height="35"></rect>
        </g>
    </g>
</svg>