<?xml version="1.0" encoding="UTF-8"?>
<svg width="35px" height="35px" viewBox="0 0 35 35" version="1.1" xmlns="http://www.w3.org/2000/svg" xmlns:xlink="http://www.w3.org/1999/xlink">
    <!-- Generator: Sketch 49.1 (51147) - http://www.bohemiancoding.com/sketch -->
    <title>Glyphs/Quick Actions/View Profile</title>
    <desc>Created with Sketch.</desc>
    <defs>
        <path d="M17.5,4.25 C10.182,4.25 4.25,10.182 4.25,17.5 C4.25,24.818 10.182,30.75 17.5,30.75 C24.818,30.75 30.75,24.818 30.75,17.5 C30.75,10.182 24.818,4.25 17.5,4.25 L17.5,4.25 Z M24.6975,26.46 L24,26.3215 C22.833,26.0635 21.6605,25.4245 20.8295,24.627 C20.493,24.304 20.1115,23.9005 19.9005,23.468 C19.4075,22.4575 21.13,18.962 20.4825,18.503 C21.052,18.9065 21.503,17.531 21.6395,17.153 C22.4245,14.9885 21.0885,15.1965 21.0885,15.1965 C22.15,11.6965 20.695,10.0715 20.695,10.0715 C20.268,9.3685 18.972,9.012 18.281,8.724 C17.1295,8.2435 16.3705,8.606 15.3175,9.1695 C14.642,9.5305 13.8625,9.8015 13.407,10.483 C13.032,11.0425 12.857,11.728 12.7765,12.401 C12.7565,12.567 12.7855,15.0565 12.87,15.03 C12.1185,15.261 12.014,15.947 12.27,16.642 C12.3445,16.8465 12.499,17.031 12.5645,17.2335 C12.6925,17.627 12.6035,18.006 12.973,18.303 C13.0265,18.3455 13.525,18.5435 13.522,18.521 C13.763,20.323 15.8165,22.1115 14.2455,23.9365 C13.633,24.6485 12.7245,25.0045 11.943,25.4055 C11.329,25.721 10.6985,26.003 10.0595,26.2595 C7.5785,24.1485 6,21.006 6,17.501 C6,11.16 11.159,6.001 17.5,6.001 C23.841,6.001 29,11.16 29,17.501 C29,21.118 27.3185,24.35 24.6975,26.46 L24.6975,26.46 Z" id="path-1"></path>
    </defs>
    <g id="Glyphs/Quick-Actions/View-Profile" stroke="none" stroke-width="1" fill="none" fill-rule="evenodd">
        <mask id="mask-2" fill="white">
            <use xlink:href="#path-1"></use>
        </mask>
        <use id="Add-to-Existing-Contact-Icon" fill="#000000" xlink:href="#path-1"></use>
        <g id="_Resources/Colors/Tint-1" mask="url(#mask-2)" fill="#F0EBFB">
            <rect id="Swatch" x="0" y="0" width="35" height="35"></rect>
        </g>
    </g>
</svg>