<?xml version="1.0" encoding="UTF-8"?>
<svg width="35px" height="35px" viewBox="0 0 35 35" version="1.1" xmlns="http://www.w3.org/2000/svg" xmlns:xlink="http://www.w3.org/1999/xlink">
    <!-- Generator: Sketch 49.1 (51147) - http://www.bohemiancoding.com/sketch -->
    <title>Glyphs/Quick Actions/View Dashboard</title>
    <desc>Created with Sketch.</desc>
    <defs>
        <path d="M29.5,7.25 L5.5,7.25 C4.119,7.25 3,8.369 3,9.75 L3,25.25 C3,26.631 4.119,27.75 5.5,27.75 L29.5,27.75 C30.881,27.75 32,26.631 32,25.25 L32,9.75 C32,8.369 30.881,7.25 29.5,7.25 L29.5,7.25 Z M31,25.25 C31,26.077 30.327,26.75 29.5,26.75 L5.5,26.75 C4.673,26.75 4,26.077 4,25.25 L4,9.75 C4,8.923 4.673,8.25 5.5,8.25 L29.5,8.25 C30.327,8.25 31,8.923 31,9.75 L31,25.25 L31,25.25 Z M27,17.219 C26.6895,17.219 26.3985,17.294 26.1355,17.4185 L22.775,13.2185 C22.933,12.9295 23.031,12.603 23.031,12.25 C23.031,11.128 22.122,10.219 21,10.219 C19.878,10.219 18.969,11.128 18.969,12.25 C18.969,12.2605 18.972,12.2705 18.972,12.281 L15.6215,13.538 C15.251,13.0435 14.6655,12.719 14.0005,12.719 C12.8785,12.719 11.9695,13.628 11.9695,14.75 C11.9695,15.2205 12.1365,15.649 12.405,15.993 L8.5555,20.805 C8.3785,20.7545 8.1945,20.7185 8.001,20.7185 C6.879,20.7185 5.97,21.6275 5.97,22.7495 C5.97,23.8715 6.879,24.7805 8.001,24.7805 C9.123,24.7805 10.032,23.8715 10.032,22.7495 C10.032,22.279 9.865,21.8505 9.5965,21.5065 L13.446,16.6945 C13.623,16.745 13.807,16.781 14.0005,16.781 C15.1225,16.781 16.0315,15.872 16.0315,14.75 C16.0315,14.7395 16.0285,14.7295 16.0285,14.719 L19.379,13.462 C19.7495,13.9565 20.335,14.281 21,14.281 C21.3105,14.281 21.6015,14.206 21.8645,14.0815 L25.225,18.2815 C25.067,18.5705 24.969,18.897 24.969,19.25 C24.969,20.372 25.878,21.281 27,21.281 C28.122,21.281 29.031,20.372 29.031,19.25 C29.031,18.128 28.122,17.219 27,17.219 L27,17.219 Z M8,23.781 C7.4315,23.781 6.969,23.318 6.969,22.75 C6.969,22.182 7.432,21.719 8,21.719 C8.568,21.719 9.031,22.182 9.031,22.75 C9.031,23.318 8.5685,23.781 8,23.781 L8,23.781 Z M14,15.781 C13.4315,15.781 12.969,15.318 12.969,14.75 C12.969,14.182 13.432,13.719 14,13.719 C14.568,13.719 15.031,14.182 15.031,14.75 C15.031,15.318 14.5685,15.781 14,15.781 L14,15.781 Z M19.969,12.25 C19.969,11.6815 20.432,11.219 21,11.219 C21.568,11.219 22.031,11.682 22.031,12.25 C22.031,12.818 21.568,13.281 21,13.281 C20.432,13.281 19.969,12.8185 19.969,12.25 L19.969,12.25 Z M27,20.281 C26.4315,20.281 25.969,19.818 25.969,19.25 C25.969,18.682 26.432,18.219 27,18.219 C27.568,18.219 28.031,18.682 28.031,19.25 C28.031,19.818 27.5685,20.281 27,20.281 L27,20.281 Z" id="path-1"></path>
    </defs>
    <g id="Glyphs/Quick-Actions/View-Dashboard" stroke="none" stroke-width="1" fill="none" fill-rule="evenodd">
        <mask id="mask-2" fill="white">
            <use xlink:href="#path-1"></use>
        </mask>
        <use id="Show-Dashboard-Icon" fill="#000000" xlink:href="#path-1"></use>
        <g id="_Resources/Colors/Tint-1" mask="url(#mask-2)" fill="#F0EBFB">
            <rect id="Swatch" x="0" y="0" width="35" height="35"></rect>
        </g>
    </g>
</svg>