<?xml version="1.0" encoding="UTF-8"?>
<svg width="172px" height="55px" viewBox="0 0 172 55" version="1.1" xmlns="http://www.w3.org/2000/svg" xmlns:xlink="http://www.w3.org/1999/xlink">
    <!-- Generator: Sketch 51.2 (57519) - http://www.bohemiancoding.com/sketch -->
    <title>_Resources/iPad-Tables/Scb</title>
    <desc>Created with Sketch.</desc>
    <defs></defs>
    <g id="INDI-3.0" stroke="none" stroke-width="1" fill="none" fill-rule="evenodd">
        <g id="01.1-Log-In" transform="translate(-426.000000, -205.000000)">
            <g id="_Resources/iPad-Tables/iOnboard" transform="translate(426.000000, 205.000000)">
                <path d="M156.604249,45.2173523 C156.604249,42.7644363 158.451859,41.0381631 160.786157,41.0381631 C163.085406,41.0381631 164.931013,42.7644363 164.931013,45.2173523 C164.931013,47.6345318 163.188551,49.3617977 160.786157,49.3617977 C158.276612,49.3617977 156.604249,47.6345318 156.604249,45.2173523 Z M151.095466,45.2173523 C151.095466,50.3971645 154.752633,54.5773464 159.980018,54.5773464 C162.418463,54.5773464 164.509417,53.5072357 165.833288,52.0549427 L165.902385,52.0549427 L165.902385,54.0591666 L172,54.0591666 L172,24.3571429 L165.833288,24.3571429 L165.833288,38.0343089 C164.370221,36.6167596 162.383414,35.8236071 159.980018,35.8236071 C154.752633,35.8236071 151.095466,40.0365475 151.095466,45.2173523 Z M135.034776,54.0591666 L141.201488,54.0591666 L141.201488,44.7339164 C141.201488,44.2852244 141.654128,41.1423947 144.859656,41.1423947 C146.91456,41.1423947 148.065185,42.1092665 148.065185,42.1092665 L150.643828,36.9284616 C150.643828,36.9284616 149.039562,35.8236071 146.740313,35.8236071 C143.222343,35.8236071 141.270586,38.8959564 141.270586,38.8959564 L141.201488,38.8959564 L141.201488,36.3417869 L135.034776,36.3417869 L135.034776,54.0591666 Z M115.010486,44.9592551 C115.010486,42.5063391 116.858096,40.7790733 119.192394,40.7790733 C121.491642,40.7790733 123.33725,42.5063391 123.33725,44.9592551 C123.33725,47.3764346 121.595789,49.1037005 119.192394,49.1037005 C116.682848,49.1037005 115.010486,47.3764346 115.010486,44.9592551 Z M109.951338,45.2173523 C109.951338,50.3971645 113.608505,54.5773464 118.83589,54.5773464 C121.274335,54.5773464 123.365289,53.5072357 124.68916,52.0549427 L124.758257,52.0549427 L124.758257,54.0591666 L130.855872,54.0591666 L130.855872,36.3417869 L124.68916,36.3417869 L124.68916,38.0343089 C123.226093,36.6167596 121.240287,35.8236071 118.83589,35.8236071 C113.608505,35.8236071 109.951338,40.0365475 109.951338,45.2173523 Z M93.6463026,45.2173523 C93.6463026,42.7644363 95.4939129,41.0381631 97.8282108,41.0381631 C100.127459,41.0381631 101.973067,42.7644363 101.973067,45.2173523 C101.973067,47.6345318 100.231606,49.3617977 97.8282108,49.3617977 C95.3186653,49.3617977 93.6463026,47.6345318 93.6463026,45.2173523 Z M87.0970499,45.2173523 C87.0970499,50.6741227 91.4161519,54.5773464 97.8622589,54.5773464 C104.029973,54.5773464 108.523321,50.6741227 108.523321,45.2173523 C108.523321,39.6910943 103.785627,35.8236071 97.8622589,35.8236071 C91.8337419,35.8236071 87.0970499,39.6910943 87.0970499,45.2173523 Z M80.168261,45.2173523 C80.168261,47.6355245 78.4958983,49.3617977 75.9863528,49.3617977 C73.5839587,49.3617977 71.8404956,47.6355245 71.8404956,45.2173523 C71.8404956,42.765429 73.6871045,41.0381631 75.9863528,41.0381631 C78.3216521,41.0381631 80.168261,42.765429 80.168261,45.2173523 Z M85.4957877,45.2173523 C85.4957877,40.0365475 81.836618,35.8236071 76.6112356,35.8236071 C74.2068387,35.8236071 72.2200318,36.6167596 70.7569648,38.0343089 L70.7569648,24.3571429 L64.5902525,24.3571429 L64.5902525,54.0591666 L70.6868657,54.0591666 L70.6868657,52.0549427 L70.7569648,52.0549427 C72.0808351,53.5072357 74.1717892,54.5773464 76.6112356,54.5773464 C81.836618,54.5773464 85.4957877,50.3971645 85.4957877,45.2173523 Z M41.5627194,54.0591666 L47.7294317,54.0591666 L47.7294317,44.0430101 C47.7294317,42.2810004 49.5409911,40.5884784 51.3875999,40.5884784 C53.3734055,40.5884784 54.5931287,42.2810004 54.5931287,44.0430101 L54.5931287,54.0591666 L60.7598409,54.0591666 L60.7598409,42.3842393 C60.7598409,37.4456487 56.1943909,35.8236071 52.9197646,35.8236071 C50.97001,35.8236071 49.1924987,36.8242301 47.7995307,38.2060428 L47.7294317,38.2060428 L47.7294317,36.3417869 L41.5627194,36.3417869 L41.5627194,54.0591666 Z M16.7917232,39.7943332 C16.7917232,35.546649 19.1610706,31.2989647 24.2122068,31.2989647 C29.3003953,31.2989647 31.5996437,35.546649 31.5996437,39.7943332 C31.5996437,44.0430101 29.439592,48.291687 24.2122068,48.291687 C18.8476278,48.291687 16.7917232,44.0430101 16.7917232,39.7943332 Z M9.71873053,39.7943332 C9.71873053,48.1179677 15.7111966,54.5773464 24.2122068,54.5773464 C32.4698731,54.5773464 38.6716349,48.1179677 38.6716349,39.7943332 C38.6716349,31.4716913 32.1914798,25.0470565 24.2122068,25.0470565 C16.3040342,25.0470565 9.71873053,31.4716913 9.71873053,39.7943332 Z M0.487689002,54.0591666 L6.65440128,54.0591666 L6.65440128,36.3417869 L0.487689002,36.3417869 L0.487689002,54.0591666 Z M3.65916964,25.3925097 C1.63731318,25.3925097 0,27.0165367 0,29.0187753 C0,31.0229993 1.63731318,32.6450409 3.65916964,32.6450409 C5.67802186,32.6450409 7.31633645,31.0229993 7.31633645,29.0187753 C7.31633645,27.0165367 5.67802186,25.3925097 3.65916964,25.3925097 Z" id="Fill-1" fill="#FEFEFE"></path>
                <g id="Group" stroke-width="1">
                    <g id="Logo/lg_scb">
                        <g id="logo">
                            <path d="M61.8541293,15.2305375 L59.4752131,5.95109288 L53.1695058,0.260821744 L46.8631909,5.95109288 L44.4836672,15.2305375 L48.9875704,17.3437382 L52.5468323,17.3437382 L52.5468323,14.1733319 C52.5468323,14.1733319 45.9361669,17.6481311 47.6632503,9.86220872 C48.2355024,7.2806181 51.2741486,3.83365603 53.0115593,2.87751135 C53.0662331,2.84785876 53.1196919,2.82062679 53.1695058,2.79581544 L53.1707207,2.79581544 C54.8735047,3.61943121 58.085892,7.2001325 58.6769762,9.86220872 C60.4040596,17.6481311 53.7933941,14.1733319 53.7933941,14.1733319 L53.7933941,17.3437382 L57.3526561,17.3437382 L61.8541293,15.2305375 Z" id="Fill-2" fill="#F7B100"></path>
                            <path d="M0.153025788,15.261824 L0.241111296,15.3120518 C0.241111296,15.3132621 2.25553573,16.4594254 5.31422904,16.4588203 C8.36320257,16.453979 11.4036713,15.1498703 11.4085312,12.08113 L11.4085312,12.0442156 L11.4085312,12.0405847 C11.4024563,9.23992798 9.61887666,8.16275234 6.95201199,7.55638717 L6.95079702,7.55638717 C5.41081935,7.19632003 4.49412259,6.90645085 3.98322665,6.61174043 C3.47901305,6.31824033 3.37027301,6.05923405 3.36541312,5.67617102 C3.37148798,4.90762435 4.13752815,4.15481171 6.35606797,4.14633954 L6.36882518,4.14633954 C7.31164385,4.14633954 8.29334165,4.30670558 9.04480215,4.47191286 C9.68084026,4.60928301 10.1516421,4.74786347 10.2810367,4.78598823 L10.2980463,4.77449028 L10.3496826,4.79506555 L10.4705724,4.84166247 L10.4942644,4.69218922 L10.887308,2.23041926 L10.7931476,2.19289966 C10.777353,2.18684811 8.84433168,1.42677361 6.22910334,1.4255633 C3.63817445,1.43706124 0.292747628,2.20379245 0.291532655,5.92367936 C0.305504839,9.29681254 4.14360302,9.8590014 4.96188701,10.0774623 C5.82755492,10.2820046 8.30731383,10.8163564 8.36441754,12.0121424 C8.36441754,12.0121424 8.36320257,12.0133527 8.36441754,12.0272713 C8.36441754,12.0466362 8.36320257,12.0569238 8.36320257,12.0672115 L8.36320257,12.0823404 C8.36441754,12.7026241 7.95740175,13.1141294 7.36874756,13.3888697 C6.78738321,13.6593739 6.04564249,13.7725379 5.46306317,13.7725379 L5.44180115,13.7755636 C5.40535198,13.7755636 5.37497766,13.7725379 5.34095843,13.7725379 C2.83872254,13.7132327 0.983459503,12.6838643 0.755652156,12.5737261 L0.658454355,12.5259189 L0.662706759,12.5180518 L0.574621251,12.4672188 L0.153025788,15.261824 Z" id="Fill-4" fill="#FEFEFE"></path>
                            <path d="M16.5071026,15.3900563 C18.1296984,16.3728278 19.9989336,16.4593649 21.0474549,16.4593649 C23.1669744,16.455734 25.2737368,15.6048863 25.2913539,15.5988347 L25.3873367,15.5601048 L24.996723,12.9530977 L24.8339167,13.0305575 L24.8156921,12.9924327 L24.8011125,13.0045358 L24.8169071,13.0378194 C24.6425586,13.1189101 23.2532375,13.7101464 21.3281135,13.7101464 C19.3543907,13.6835196 16.9469226,13.4281442 16.9238382,8.94273643 C16.9481376,4.39378736 19.319764,4.20376874 21.3809648,4.17774708 L21.4083017,4.17532646 C22.1943889,4.17532646 23.0412248,4.31511723 23.6967025,4.45309254 C24.2519449,4.57351836 24.6711104,4.69212871 24.7871403,4.72420192 L24.8029349,4.71451944 L24.8515338,4.73267408 L24.9730311,4.77564008 L24.996723,4.62435136 L25.3563549,2.13595459 L25.2658395,2.09843499 C25.2488298,2.09056797 23.5351111,1.3649873 21.2047938,1.3649873 C20.0438876,1.3649873 18.1339508,1.47875641 16.5022427,2.49481142 C14.8693196,3.50663034 13.5383172,5.42799702 13.5316349,8.94576221 L13.5340648,8.96573232 L13.5310274,8.97965088 C13.5304199,8.98267665 13.5298124,8.98509727 13.529205,8.98751789 L13.5316349,8.99417459 L13.5304199,9.0008313 C13.5346723,12.5173862 14.8838993,14.4091003 16.5071026,15.3900563" id="Fill-6" fill="#FEFEFE"></path>
                            <path d="M35.2232075,13.5846978 L31.2763692,13.5846978 L31.2763692,9.95195319 L35.3252652,9.95195319 C36.3434121,9.97071299 37.5984787,10.1359203 37.5996937,11.7117435 C37.5857215,13.3946792 36.594304,13.565938 35.2256374,13.5846978 L35.2232075,13.5846978 Z M31.2739393,7.61726575 L31.2739393,4.29920166 L34.9285766,4.29920166 C36.1739235,4.31554084 37.0723956,4.63808838 37.080293,5.94703834 C37.0620684,7.11498721 36.504396,7.59669048 34.9425488,7.61726575 L31.2739393,7.61726575 Z M40.8904468,12.1510859 L40.8880168,12.1510859 L40.8904468,12.1510859 Z M28.1885166,16.2413276 L28.3227711,16.2413276 C28.3306684,16.2413276 31.9148373,16.2086493 35.1011027,16.2086493 C36.7060814,16.207439 38.1197019,15.9399605 39.1421013,15.2785263 C40.1596408,14.6231435 40.7780618,13.5586761 40.7804918,12.0482096 C40.7817067,12.0482096 40.7817067,12.0482096 40.7817067,12.0451838 L40.7804918,12.0451838 L40.7804918,12.030055 L40.7804918,12.0088746 L40.7804918,12.0058488 C40.7780618,9.75225209 39.2921504,8.92984663 38.425875,8.62303312 L38.1786281,8.53649598 L38.4155478,8.42696295 C39.0631281,8.12257005 40.0515082,7.36794194 40.0903874,5.47864848 L40.086135,5.47864848 L40.086135,5.37274638 C40.0812751,2.32155558 37.2443142,1.65891101 34.8155842,1.64862338 L28.3215561,1.64862338 L28.1885166,1.64862338 L28.1885166,16.2413276 Z" id="Fill-8" fill="#FEFEFE"></path>
                        </g>
                    </g>
                </g>
            </g>
        </g>
    </g>
</svg>